<?xml version="1.0" encoding="utf-8"?>
<!-- Generator: Adobe Illustrator 25.2.0, SVG Export Plug-In . SVG Version: 6.00 Build 0)  -->
<svg version="1.1" id="Ebene_1" xmlns="http://www.w3.org/2000/svg" xmlns:xlink="http://www.w3.org/1999/xlink" x="0px" y="0px"
	 viewBox="0 0 1100 250" style="enable-background:new 0 0 1100 250;" xml:space="preserve">
<style type="text/css">
	.st0{fill:#FFFFFF;}
</style>
<g>
	<path class="st0" d="M648.6,137.3c10.1,12,19.6,23.3,29.1,34.6c-7.2,2.5-13.4,0.9-18-4.5c-7.8-9.2-15.5-18.5-23.4-27.7
		c-0.9-1.1-2.5-2.2-3.8-2.3c-12.4-0.2-24.9-0.1-37.8-0.1c0,11.7,0,23.3,0,35.1c-3.7,0-7,0-10.6,0c0-31.4,0-62.7,0-94.4
		c1.5-0.1,3-0.2,4.4-0.2c24.2,0,48.3,0,72.5,0c11.5,0,17.7,6.1,17.8,17.6c0,8.4,0.1,16.9,0,25.3c-0.1,10.3-6.5,16.5-16.7,16.5
		C658,137.3,653.9,137.3,648.6,137.3z M631.3,126.6c10,0,20.1,0,30.1,0c4.9,0,6.6-1.7,6.6-6.5c0.1-8.3,0.1-16.6,0-24.9
		c0-4.6-1.7-6.4-6.3-6.4c-20.2,0-40.5,0-60.7,0c-4.8,0-6.3,1.7-6.3,6.7c0,8,0,16.1,0,24.1c0,5.6,1.5,7.1,7.2,7.1
		C611.8,126.6,621.6,126.6,631.3,126.6z"/>
	<path class="st0" d="M436.4,77.9c28.7,0,57.2,0,85.9,0c0,3.4,0,6.7,0,10.4c-25,0-50,0-75.3,0c0,10.6,0,20.7,0,31.2
		c20,0,40.1,0,60.5,0c0,3.8,0,7.2,0,11c-20.1,0-40.2,0-60.5,0c0,10.5,0,20.7,0,31.3c25,0,50,0,75.3,0c0,3.7,0,7,0,10.6
		c-28.5,0-57,0-85.9,0C436.4,141,436.4,109.6,436.4,77.9z"/>
	<path class="st0" d="M374.6,162c0,3.8,0,7,0,10.7c-1.6,0-3,0-4.5,0c-24,0-48,0-72,0c-11.9,0-18-6.1-18-18.1c0-19.8,0-39.7,0-59.5
		c0-10.9,6.4-17.3,17.2-17.3c24.5,0,49.1,0,73.6,0c1.1,0,2.1,0,3.5,0c0,3.5,0,6.7,0,10.5c-1.5,0.1-3.1,0.2-4.6,0.2
		c-23.6,0-47.2,0-70.8,0c-6.9,0-8.3,1.4-8.3,8.2c0,19.2,0,38.3,0,57.5c0,6.3,1.5,7.8,7.9,7.8c23.6,0,47.2,0,70.8,0
		C371,162,372.6,162,374.6,162z"/>
	<path class="st0" d="M1054.8,172.6c-4.7,0-8.5,0.2-12.2-0.1c-1.3-0.1-2.8-1.3-3.8-2.4c-10.4-12.3-20.7-24.6-31.2-36.8
		c-1.2-1.4-3.5-2.4-5.3-2.5c-8.9-0.3-17.9-0.1-27.2-0.1c0,14,0,27.7,0,41.6c-3.7,0-7.1,0-10.7,0c0-31.4,0-62.7,0-94.3
		c3.3,0,6.6,0,10.4,0c0,13.6,0,27.3,0,41.7c5.7,0,11.1-0.7,16.3,0.1c10.8,1.7,17.9-2.5,24.1-11.2c6.8-9.6,15.1-18.1,22.5-27.3
		c2.1-2.6,4.3-4.1,7.8-3.6c2.6,0.3,5.3,0.1,9.1,0.1c-13.5,16.2-26.5,31.7-39.6,47.4C1028.2,140.9,1041.1,156.4,1054.8,172.6z"/>
	<path class="st0" d="M777.9,88.5c-14.4,0-28,0-42,0c0-3.6,0-6.9,0-10.4c31.3,0,62.6,0,94.2,0c0,3.3,0,6.6,0,10.3
		c-13.8,0-27.5,0-41.6,0c0,28.2,0,55.9,0,83.9c-3.6,0-6.9,0-10.6,0C777.9,144.7,777.9,116.8,777.9,88.5z"/>
	<g>
		<path class="st0" d="M212.7,84.3c-1,34.6-10.8,65.9-32.9,93c-12.7,15.5-28.3,27.3-45.7,36.9c-3.9,2.2-6.8,2.1-10.7-0.1
			c-33.8-18.4-58.1-44.9-70.3-81.7c-7.7-23.2-9.8-46.9-5.9-71.1c0.3-2.1,1.3-3.7,3.5-4c2.1-0.2,3.2,1.1,4.1,2.9
			c10.3,20.2,20.6,40.3,30.9,60.5c0.8,1.5,1.7,2.2,3.5,2.2c27.2-0.1,54.4,0,81.6-0.1c0.9,0,2.3-0.9,2.7-1.7
			c9.8-20.1,19.5-40.3,29.1-60.4c0.9-2,2-3.6,4.4-3.3c2.3,0.3,3.1,2.1,3.3,4.3C211,69.3,211.9,76.8,212.7,84.3z M128.8,204.9
			c13.4-25.1,26.5-49.6,39.7-74.3c-26.2,0-51.8,0-77.8,0C103.4,155.4,116,179.9,128.8,204.9z M119.4,202.8
			c-22-42.9-44-85.7-65.9-128.6c-2,24.6,1.8,48.1,12.2,70.4C77.3,169.6,95.4,188.8,119.4,202.8z M138.7,202.6
			c22.2-13.2,39.4-31.1,51.3-54.2c13.3-25.7,16.7-59.5,14-74.2C184.3,118.6,160.9,160.3,138.7,202.6z"/>
		<path class="st0" d="M128.7,41.4c-0.9,0.2-1.7,0.5-2.5,0.7c-16.5,5.1-33.1,10.1-49.6,15.2c-0.5,0.1-0.9,0.3-1.4,0.4
			c-2.6,0.7-4.6-0.1-5.2-2.1c-0.7-2.3,0.4-4.1,3.1-4.9C85.7,46.7,98.4,42.9,111,39c5-1.5,10-3.2,15.1-4.5c1.6-0.4,3.6-0.5,5.3,0
			c17.8,5.3,35.5,10.7,53.2,16.2c3.5,1.1,4.8,2.8,4.1,5.1c-0.8,2.4-2.8,3.1-6.2,2c-17-5.2-34-10.4-51-15.6
			C130.6,41.9,129.6,41.6,128.7,41.4z"/>
	</g>
	<path class="st0" d="M888.2,77.9c3.5,0,6.7,0,10.1,0c0,31.5,0,62.8,0,94.4c-3.2,0-6.5,0-10.1,0C888.2,141,888.2,109.6,888.2,77.9z"
		/>
</g>
</svg>
