<?xml version="1.0" encoding="utf-8"?>
<!-- Generator: Adobe Illustrator 25.2.0, SVG Export Plug-In . SVG Version: 6.00 Build 0)  -->
<svg version="1.1" id="Ebene_1" xmlns="http://www.w3.org/2000/svg" xmlns:xlink="http://www.w3.org/1999/xlink" x="0px" y="0px"
	 viewBox="0 0 1200 250" style="enable-background:new 0 0 1200 250;" xml:space="preserve">
<style type="text/css">
	.st0{fill:#FFFFFF;}
</style>
<g>
	<path class="st0" d="M95.6,221.4c-2.6-0.1-11.4-1.3-16.7-2.9c-34.4-10.4-55.6-33.5-63.4-68.3c-8.2-36.7,9.4-76,41.9-95.1
		c44.9-26.4,102.3-8.3,124.5,39.2c7.2,15.5,10.3,31.8,7.4,48.8c-1.8,10.4-7.7,18.4-17.7,22.4c-14.4,5.8-28.9-1.3-33.5-16.2
		c-1.3-4.2-1.6-8.8-1.9-13.2c-0.3-4.9-0.1-9.8-0.8-14.9c-0.8,1.3-1.7,2.5-2.5,3.8c-6.5,10.5-12.8,21.1-19.6,31.5
		c-2.4,3.6-5.6,7-9.1,9.6c-5,3.6-12,2.1-14.7-3.4c-2-4.1-3.1-8.9-3.4-13.5c-0.5-7.8-0.2-15.7-0.2-23.6c0-1.2,0-2.3,0-4.6
		c-1.3,1.9-2.1,2.9-2.8,3.9C72,142.8,61,160.6,49.8,178.3c-1.5,2.4-1.1,3.7,0.6,5.5c26.3,27.2,69.4,29.1,98,4.4c1-0.9,2-1.8,3.1-2.5
		c3.8-2.7,8-2.4,10.8,0.7c3.1,3.5,3.2,8.3-0.5,11.4c-5.8,4.7-11.8,9.3-18.2,13.1c-9.8,5.8-20.6,9-32,10.2c-0.8,0.1-1.3,0.2-4.7,0.4
		S98.2,221.5,95.6,221.4z M101.8,143.3c0.3,0.1,0.5,0.1,0.8,0.2c0.5-0.8,1.1-1.6,1.6-2.4c5.5-9,10.8-18.1,16.7-26.8
		c3.1-4.5,6.6-9.2,10.9-12.4c7-5.2,15.3-2.4,18.3,5.7c1.2,3.1,1.7,6.6,1.9,9.9c0.3,6.6,0,13.3,0.1,20c0.1,2.4,0.4,4.9,1.1,7.1
		c2.2,6.9,9.1,8.9,14.8,4.6c3.9-3,5.8-7.2,6-12c0.1-5.3,0.1-10.7-0.7-15.9c-5.2-37.3-39.5-65.6-77.5-61.9c-30.8,3-56.7,24.7-64,54.6
		c-4.4,18.1-2.3,35.4,6.2,52.5c0.9-1.3,1.6-2.3,2.2-3.3c12.7-20.3,25.4-40.7,38.2-61c1.3-2,2.6-4.1,4.3-5.9c2.8-3,6.2-4.8,10.4-3.8
		c4.3,1,6.8,4.2,7.7,8.3c0.7,3,0.9,6.2,0.9,9.4C101.9,121.3,101.8,132.3,101.8,143.3z"/>
	<path class="st0" d="M1192.1,151.8c-0.1,1.1-1.9,11.5-4.3,16.5c-8.2,16.9-26.1,22.2-42.9,13.4c-0.6-0.3-1.2-0.6-2.4-1.2
		c0,7.5,0,14.4,0,21.3c0,1.8-0.1,3.7-0.7,5.5c-1.3,4.2-5,6.7-9.1,6.4c-4.3-0.3-7.2-2.6-8.4-6.7c-0.5-1.6-0.6-3.4-0.6-5.1
		c0-24.8,0-49.7,0-74.5c0-1.3-0.1-2.6,0.2-3.8c0.9-3.3,2.9-5.6,6.6-5.8c3.4-0.2,5.7,1.5,6.9,4.6c0.3,0.8,0.6,1.6,1,2.8
		c5.4-4.7,11.4-7.6,18.4-8.2c17.7-1.5,32.5,10.7,34.7,28.3c0.2,1.5,0.6,3.6,0.6,4.5C1192.1,150.7,1192.1,150.7,1192.1,151.8z
		 M1142.4,150.9c-0.1,9.1,5.4,16.6,13.3,18c6.9,1.2,13.9-3.5,16.4-11.3c2-6.2,1.4-12.2-2.4-17.5c-3.7-5.2-10.3-7.3-15.9-5.4
		C1146.7,137.1,1142.6,143,1142.4,150.9z"/>
	<path class="st0" d="M541.6,134.5c0,1.5,0,3.1,0,4.6c0,11.9,0.1,23.7-0.1,35.6c-0.1,6.2-3.9,10.2-9.3,10.2c-5.4,0-9.2-3.9-9.2-10.2
		c-0.1-26.9-0.1-53.7,0-80.6c0-1.5,1.3-4.2,1.8-4.1c1.9,0.1,4.3,0.7,5.5,2c11.1,12.1,22,24.4,33,36.7c4.7,5.2,5.3,5.2,9.9,0.1
		c10.7-12.1,21.5-24.1,32.3-36.2c0.9-0.9,1.8-1.9,2.9-2.5c2.6-1.5,4.9-0.4,5.3,2.6c0.1,1,0.1,2,0.1,3c0,25.6,0,51.2,0,76.7
		c0,0.9,0,1.7,0,2.6c-0.3,6-3.9,9.8-9.1,9.9c-5.4,0.1-9.3-3.9-9.4-10c-0.1-12,0-24-0.1-36c0-1.5,0-3,0-5.8c-7.5,8-14,15-20.5,22
		c-5.2,5.6-7.4,5.6-12.5,0.1c-6.5-7-13-14-19.5-21C542.3,134.3,541.9,134.4,541.6,134.5z"/>
	<path class="st0" d="M288.8,185.8c-27,0-48-20.5-49.3-46.9c-1.3-25.3,18.3-47.9,43.4-50.4c11.7-1.2,22.5,1.4,32.1,8
		c3.3,2.3,5,5.5,4.1,9.6c-0.8,3.5-3,6.1-6.5,6.5c-2.3,0.3-5.1-0.4-7.1-1.6c-13.4-8-28.4-6.9-38.4,3.2c-13.6,13.7-11.5,38.8,4.1,49.9
		c8.8,6.3,22.7,6.6,32.1,0.6c2.2-1.4,4.2-3,6.3-4.4c4.2-2.7,9.3-2,11.9,1.7c2.6,3.6,1.8,8.3-1.9,11.5
		C310.6,181.5,299.8,185.6,288.8,185.8z"/>
	<path class="st0" d="M948.6,136.5c0.5-26.8,20.9-47.6,47.9-48.4c9.9-0.3,19.3,2.5,27.5,8.3c4.7,3.4,5.8,8.5,3,12.7
		c-2.9,4.3-7.6,5-12.7,1.9c-15.8-9.5-33.5-5.9-42.4,8.8c-9.2,15.2-4.6,36.8,10.2,45.3c10.3,5.9,20.9,5,31-0.8c2.1-1.2,3.9-2.9,6-4.1
		c4.1-2.6,9-1.8,11.5,1.7c2.7,3.6,2.1,8.4-1.6,11.5c-15.5,12.7-32.7,16.2-51.3,8.3C959.5,173.9,948.3,155.9,948.6,136.5z"/>
	<path class="st0" d="M1091.4,126.9c0.4-1.7,0.5-2.8,0.9-3.9c1.2-3.5,3.6-5.6,7.4-5.2c4,0.4,6.3,2.9,6.5,6.7
		c0.3,4.3,0.1,8.6,0.1,12.8c0,13,0.1,26,0,39c0,6.7-5.8,10.8-10.7,7.4c-2.2-1.5-3.2-4.6-4.7-6.9c-10.5,9.5-24.7,12-36,5.2
		c-13-7.8-17.7-20.1-16.5-34.7c1.1-13.6,7.9-23.7,21-28.7c10.1-3.9,19.7-2,28.2,4.8c0.7,0.5,1.3,1.1,1.9,1.7
		C1090,125.6,1090.5,126,1091.4,126.9z M1087.5,151.6c0.1-5.3-1.5-9.9-5.4-13.5c-4.6-4.3-11.1-5.3-16.3-2.7c-6.1,3-9.6,9.7-9,17.1
		c0.6,6.9,3.5,12.5,9.9,15.5c5.2,2.4,10.2,0.9,14.4-2.5C1085.5,162,1087.4,157.2,1087.5,151.6z"/>
	<path class="st0" d="M678.7,126.8c0.3-1.4,0.5-2.2,0.7-3c1.2-4.3,3.9-6.3,7.7-5.9c3.8,0.4,6.3,3.1,6.3,7.3
		c0.1,17.4,0.1,34.8,0,52.2c0,4.2-2.6,7-6.3,7.4c-4,0.4-6.7-1.7-7.8-6.2c-0.2-0.7-0.3-1.4-0.6-2.5c-4.9,5.9-11.3,8.4-18.3,9.3
		c-13.3,1.7-23.1-3.7-29.8-14.9c-10-16.7-5.3-39.2,10.2-49c11.1-7,24.2-6.2,34.3,2.2C676.2,124.5,677.3,125.5,678.7,126.8z
		 M644.2,151.6c0.1,0.8,0.1,2.1,0.2,3.4c1.3,8.7,9.1,15.4,16.5,14.1c7.3-1.3,11.5-6,13.4-12.9c1.9-7.1-0.7-15.1-6-18.9
		c-4.6-3.2-9.6-4.5-15-1.9C646.8,138.5,644.3,144.2,644.2,151.6z"/>
	<path class="st0" d="M781.4,145.8c5-5.5,9.9-10.9,14.9-16.4c2.7-3,5.3-6.1,8.1-8.8c3.9-3.8,8.6-3.8,12.2-0.1
		c3.4,3.5,3.6,8.5,0.2,12.3c-5.1,5.7-10.4,11.4-15.7,17.2c5.5,6.7,10.9,13.2,16.2,19.7c3.7,4.5,3.4,9.3-0.6,12.9
		c-3.9,3.5-9,3.1-12.9-1.2c-6.4-7.2-12.5-14.5-18.8-21.8c-1.2-1.3-2.4-2.6-4.5-3.6c0,6.6,0.2,13.3-0.1,19.9
		c-0.2,5.1-3.9,8.7-8.7,8.9c-4.8,0.3-8.7-2.9-9.6-8c-0.3-1.7-0.3-3.4-0.3-5.1c0-18.1,0-36.3,0-54.4c0-6.3-0.1-12.6,0.1-18.8
		c0.2-4.2,2.4-7.3,6.5-8.6c3.8-1.2,7.4-0.2,9.6,2.9c1.5,2.2,2.3,5.3,2.3,7.9c0.2,13.3,0.1,26.6,0.1,39.9c0,1.6,0,3.1,0,4.7
		C780.8,145.4,781.1,145.6,781.4,145.8z"/>
	<path class="st0" d="M842.6,157c-0.4,5.6,1.9,9.3,6.8,11.4c6.8,2.9,13.5,1.7,20.1-0.4c0.7-0.2,1.3-0.7,1.9-0.9
		c3.9-1.5,7.8-0.4,9.8,2.9c2.1,3.3,1.7,7.4-2,9.8c-3.6,2.4-7.8,4.7-12,5.3c-6.3,0.8-13,0.8-19.2-0.4c-13.6-2.6-22.2-11.1-24.3-24.9
		c-2-12.8-0.8-25.4,9.5-34.9c9.9-9.2,22-9.9,34.2-5.9c11.5,3.8,17.6,12.7,19.4,24.5c0.3,1.7,0.5,3.4,0.5,5.1
		c0.2,5.2-2.8,8.3-8.1,8.4c-10.7,0.1-21.5,0-32.2,0C845.6,157,844.1,157,842.6,157z M868.7,144.9c0.3-6.2-5.5-10.8-12.9-10.5
		c-8.4,0.3-13.7,4.5-13.1,10.5C851.4,144.9,860,144.9,868.7,144.9z"/>
	<path class="st0" d="M363.4,185.8c-18.9-0.2-34.7-16.2-34.5-35c0.2-18.8,16.3-34.2,35.4-33.9c18.2,0.3,33.2,16,32.9,34.4
		C396.9,170.3,381.6,186,363.4,185.8z M379.4,151.5c0-10.7-7.7-17.5-16.9-17c-6.4,0.4-10.9,3.6-13.2,9.3c-2.9,7-2,13.8,2.9,19.7
		c6.2,7.7,16.9,6.5,20.1,3.3C375.4,163.7,379.4,162.2,379.4,151.5z"/>
	<path class="st0" d="M459.8,124.8c5.5-4.9,11.6-7.6,18.8-7.9c15.7-0.5,27,8.9,28,24.5c0.7,11.4,0.5,22.8,0.3,34.3
		c-0.1,5.5-4.2,9.2-9.3,9.2c-5.1-0.1-8.9-3.8-9-9.5c-0.2-8-0.1-16-0.1-24c0-2.3-0.1-4.6-0.3-6.8c-0.8-7.1-3.8-9.9-11.1-10.5
		c-6.3-0.5-10.8,2.6-12.4,8.7c-0.6,2.3-0.8,4.8-0.9,7.2c-0.1,7.9,0,15.7-0.1,23.6c0,7-3.8,11.3-9.6,11.3c-5.6,0-9.2-4.3-9.2-11.1
		c0-15.4,0-30.9,0-46.3c0-5.6,2.1-8.9,5.9-9.6C454.7,117.1,457.4,119.1,459.8,124.8z"/>
	<path class="st0" d="M905.1,134.3c-9.8-1-13.5-3.5-13.5-8.9c0-5.5,3.5-7.9,13.4-9c0-3.8,0-7.8,0-11.7c0-2.1-0.1-4.3,0.1-6.4
		c0.4-4.9,3.7-8.4,8.3-8.8c4.9-0.4,9.1,2.5,9.8,7.6c0.6,4.3,0.4,8.8,0.5,13.2c0,2,0,4,0,6.5c2.8,0,5.2-0.1,7.6,0
		c5,0.2,8.8,4,8.7,8.7c-0.1,4.5-3.8,8.1-8.7,8.4c-2.3,0.1-4.6,0-7.6,0c0,5,0,9.8,0,14.6c0,4.4,0,8.9,0.2,13.3c0.3,6,1.6,7.1,7.6,7.3
		c7.2,0.2,11.6,5.8,8.6,11.5c-1.2,2.3-4.4,3.5-6.7,5.1c-0.3,0.2-0.8,0-1.3,0.1c-18.2,1.1-26.5-5.3-27-25.6
		C904.9,151.7,905.1,143.2,905.1,134.3z"/>
	<path class="st0" d="M725.7,124.8c5.6-5,11.7-8,18.9-8c5.6,0,9.7,3.6,9.8,8.6c0,4.7-3.9,8.3-9.4,8.6c-11,0.5-15.3,4.8-15.4,15.7
		c-0.1,8.1,0,16.3,0,24.4c-0.1,6.6-3.6,10.7-9.1,10.8c-5.7,0.1-9.5-4-9.6-10.8c-0.1-15.8-0.1-31.7,0-47.6c0-4.9,2.3-8,6.1-8.7
		C721,117.1,723.8,119.3,725.7,124.8z"/>
	<path class="st0" d="M408.8,151.2c0-7.6,0-15.1,0-22.7c0-6.5,3.6-10.7,9.1-10.8c5.6-0.1,9.6,4.2,9.7,10.8c0.1,15.3,0.1,30.5,0,45.8
		c0,6.3-3.9,10.5-9.4,10.6c-5.5,0.1-9.3-4.1-9.3-10.5C408.7,166.6,408.8,158.9,408.8,151.2z"/>
	<path class="st0" d="M418.2,110.1c-6,0.1-11-4.8-11-10.8c0-5.9,5-11.2,10.7-11.3c6-0.1,11.2,5.1,11.2,11.2
		C429.2,105.1,424.3,110,418.2,110.1z"/>
</g>
</svg>
