<?xml version="1.0" encoding="utf-8"?>
<!-- Generator: Adobe Illustrator 25.2.0, SVG Export Plug-In . SVG Version: 6.00 Build 0)  -->
<svg version="1.1" id="Ebene_1" xmlns="http://www.w3.org/2000/svg" xmlns:xlink="http://www.w3.org/1999/xlink" x="0px" y="0px"
	 viewBox="0 0 1044.3 276" style="enable-background:new 0 0 1044.3 276;" xml:space="preserve">
<style type="text/css">
	.st0{fill:#FFFFFF;}
	.st1{fill:#8DC63F;}
	.st2{fill:#F9E988;}
	.st3{fill:#8BC53F;}
	.st4{fill:#009345;}
	.st5{fill:#58595B;}
</style>
<g>
	<g id="Coin_Gecko_Vector_Text">
		<path class="st0" d="M367.6,122.6c-2.8-11.1-10-19.2-24-19.2c-20.7,0-29.3,18.2-29.3,36.7c0,18.5,8.6,36.7,29.3,36.7
			c15,0,23.2-11.2,24.6-25.2h16.5c-1.4,23.1-17.7,39-41,39c-28.9,0-46.2-23-46.2-50.5s17.2-50.5,46.1-50.5
			c21.7,0.1,38.9,12.1,40.9,32.9L367.6,122.6z"/>
		<path class="st0" d="M394.6,153.3c0-21.3,12.8-36.7,35.2-36.7c22.4,0,35.2,15.4,35.2,36.7s-12.8,36.9-35.2,36.9
			S394.6,174.8,394.6,153.3z M449.6,153.3c0-12-6.1-24.6-19.8-24.6S410,141.3,410,153.3c0,12,6.1,24.7,19.8,24.7
			S449.6,165.5,449.6,153.3z"/>
		<path class="st0" d="M478.3,91.9h15.4v14.6h-15.4V91.9z M478.3,118.5h15.4v69.8h-15.4V118.5z"/>
		<path class="st0" d="M510.4,118.5H525v10.3l0.3,0.3c4.5-7.7,12.8-12.5,21.7-12.4c15.1,0,24.7,8.1,24.7,23.7v47.9h-15.4v-43.9
			c-0.3-10.9-4.6-15.6-13.6-15.6c-10.3,0-16.9,8.1-16.9,18.4v41.2h-15.4V118.5z"/>
		<path class="st0" d="M674.1,188.3h-10.8l-2.6-11.3c-9,10.3-17.3,13.6-29,13.6c-28.9,0-46.2-23-46.2-50.5s17.3-50.5,46.2-50.5
			c21,0,38.7,11.2,41.3,32.9h-16.5c-1.6-12.7-12.7-19.2-24.8-19.2c-20.7,0-29.3,18.2-29.3,36.7c0,18.5,8.6,36.7,29.3,36.7
			c17.3,0.3,26.7-10.1,27-26.5h-25.6v-12.8h41L674.1,188.3z"/>
		<path class="st0" d="M702.4,157.4c0,10.9,5.9,20.7,18.8,20.7c8.9,0,14.3-3.9,17-11.6h14.6c-3.4,15.2-16.3,23.8-31.6,23.8
			c-21.9,0-34.2-15.3-34.2-36.7c0-19.9,13-36.8,33.8-36.8c22,0,35.5,19.8,32.9,40.8H702.4z M738.3,147.3
			c-0.5-9.7-7.2-18.5-17.5-18.5c-10.7,0-18,8.1-18.4,18.5H738.3z"/>
		<path class="st0" d="M812.5,141.9c-1.2-8.5-7.4-13.1-15.9-13.1c-8,0-19.2,4.2-19.2,25.4c0,11.6,5.1,23.9,18.5,23.9
			c8.9,0,15.1-5.9,16.6-15.9h15.4c-2.8,18.1-14,28.1-32,28.1c-21.9,0-33.9-15.5-33.9-36.1c0-21.1,11.5-37.5,34.4-37.5
			c16.2,0,30,8.1,31.5,25.2H812.5z"/>
		<path class="st0" d="M840.9,91.9h15.4v54.8l27.8-28.2H903l-26.7,25.6l29.3,44.1h-18.8l-21.3-33.9l-9.2,8.9v25h-15.4V91.9z"/>
		<path class="st0" d="M909.7,153.3c0-21.3,12.8-36.7,35.2-36.7s35.2,15.4,35.2,36.7s-12.8,36.9-35.2,36.9S909.7,174.8,909.7,153.3z
			 M964.8,153.3c0-12-6.1-24.6-19.8-24.6s-19.8,12.6-19.8,24.6c0,12,6.1,24.7,19.8,24.7S964.8,165.5,964.8,153.3z"/>
	</g>
	<g id="Coin_Gecko_AI">
		<path class="st1" d="M240.1,137.6c0.2,48.6-39,88.2-87.6,88.4c-48.6,0.2-88.2-39-88.4-87.6c-0.2-48.6,39-88.2,87.6-88.4
			c0,0,0,0,0,0C200.3,49.8,239.9,89,240.1,137.6z"/>
		<path class="st2" d="M233.5,137.7c0.2,44.9-36.1,81.6-81,81.8s-81.6-36.1-81.8-81c-0.2-44.9,36.1-81.6,81-81.8c0,0,0,0,0,0
			C196.7,56.4,233.3,92.7,233.5,137.7z"/>
		<path class="st0" d="M153.6,61.9c5.2-0.9,10.5-0.9,15.6,0c5.2,0.8,10.3,2.5,14.9,5c4.6,2.6,8.7,6,12.6,9.3s8,6.6,11.7,10.2
			c3.9,3.6,7.2,7.7,10,12.1c2.9,4.4,5.2,9.2,7,14.1c3.4,10,4.6,20.7,2.9,31H228c-1.7-10.2-4-19.9-7.7-29.1c-1.7-4.6-3.7-9.2-6-13.6
			c-2.4-4.4-5-8.6-7.9-12.7c-2.9-4.1-6.5-7.7-10.6-10.7c-4.1-2.9-8.9-4.9-13.5-6.7s-9.2-3.7-14-5.1c-4.8-1.4-9.7-2.4-14.8-3.4
			L153.6,61.9z"/>
		<path class="st3" d="M193.4,108.9c-5.9-1.7-12-4.1-18.2-6.6c-0.4-1.6-1.7-3.5-4.5-5.9c-4-3.5-11.7-3.4-18.2-1.9
			c-7.3-1.7-14.4-2.3-21.3-0.6c-56.3,15.5-24.4,53.3-45,91.3c2.9,6.2,34.6,42.6,80.5,32.9c0,0-15.7-37.7,19.7-55.8
			C215,147.7,235.7,120.5,193.4,108.9z"/>
		<path class="st0" d="M200.3,133.7c0,1.9-1.5,3.4-3.4,3.4c-1.9,0-3.4-1.5-3.4-3.4c0-1.9,1.5-3.4,3.4-3.4
			C198.8,130.3,200.3,131.8,200.3,133.7z"/>
		<path class="st4" d="M152.4,94.6c4.1,0.3,18.9,5.1,22.8,7.7C172,93.1,161.2,91.9,152.4,94.6L152.4,94.6z"/>
		<path class="st0" d="M156.3,118c0,8.7-7,15.7-15.7,15.7c-8.7,0-15.7-7-15.7-15.7c0-8.7,7-15.7,15.7-15.7c0,0,0,0,0,0
			C149.3,102.3,156.3,109.3,156.3,118C156.3,118,156.3,118,156.3,118z"/>
		<path class="st5" d="M151.6,118.1c0,6.1-5,11.1-11.1,11.1s-11.1-5-11.1-11.1c0-6.1,5-11.1,11.1-11.1l0,0
			C146.7,107.1,151.6,112,151.6,118.1z"/>
		<path class="st3" d="M213.1,140.6c-12.8,9-27.3,15.8-47.8,15.8c-9.6,0-11.6-10.2-17.9-5.2c-3.3,2.6-14.9,8.4-24.1,7.9
			c-9.2-0.4-24.1-5.8-28.2-25.4c-1.6,19.6-2.5,34.1-9.9,50.6c14.7,23.5,49.6,41.6,81.4,33.8c-3.4-23.8,17.4-47.1,29.1-59.1
			C200.1,154.5,208.6,147.1,213.1,140.6L213.1,140.6z"/>
		<path class="st5" d="M212.6,141.2c-4,3.6-8.7,6.3-13.5,8.6c-4.9,2.3-9.9,4.1-15.1,5.5c-5.2,1.3-10.6,2.4-16.1,1.9
			c-5.5-0.5-11.1-2.4-14.8-6.5l0.2-0.2c4.5,2.9,9.6,3.9,14.7,4.1c5.2,0.2,10.4-0.3,15.5-1.3c5.2-1.1,10.2-2.6,15.1-4.7
			c4.9-2,9.7-4.3,13.8-7.7L212.6,141.2z"/>
	</g>
</g>
</svg>
