<svg width="200" height="44" viewBox="0 0 200 44" fill="none" xmlns="http://www.w3.org/2000/svg">
<path d="M47.936 27.2396L47.6492 26.952C47.4329 26.7357 47.0596 26.8871 47.0596 27.1953V31.3037C47.0596 31.4922 47.2153 31.6478 47.4063 31.6478H51.5179C51.8242 31.6478 51.9791 31.2767 51.7608 31.0603C51.6268 30.9263 51.6268 30.7087 51.7608 30.5741L56.1345 26.1913C56.2687 26.0572 56.2687 25.8396 56.1345 25.7048L55.7361 25.3081C55.5195 25.092 55.6738 24.7208 55.9796 24.7208H60.0889C60.2789 24.7208 60.4343 24.8751 60.4343 25.065V29.1736C60.4343 29.4796 60.0612 29.6334 59.8447 29.417L59.5672 29.1402C59.4312 29.0021 59.2147 29.0021 59.0812 29.1402L51.7083 36.5057C51.5742 36.6392 51.3565 36.6392 51.2207 36.5057L42.2016 27.49C42.1693 27.4581 42.1438 27.4201 42.1263 27.3782C42.1088 27.3363 42.0999 27.2914 42.0999 27.246C42.0999 27.2007 42.1088 27.1558 42.1263 27.1139C42.1438 27.072 42.1693 27.034 42.2016 27.002L54.6894 14.522C54.8231 14.3877 54.8231 14.1685 54.6894 14.0347L51.753 11.1003C51.6882 11.0361 51.6005 11 51.5092 11C51.4179 11 51.3303 11.0361 51.2654 11.1003L35.1005 27.2573C34.9665 27.3916 34.9665 27.6108 35.1005 27.7446L51.2654 43.8998C51.3994 44.0334 51.6195 44.0334 51.753 43.8998L67.9174 27.7446C68.051 27.6103 68.051 27.3923 67.9174 27.2584L58.4073 17.7539C58.2743 17.6201 58.0555 17.6201 57.9208 17.7539L48.425 27.2397C48.3931 27.2719 48.3551 27.2975 48.3132 27.3149C48.2713 27.3324 48.2264 27.3414 48.181 27.3414C48.1356 27.3414 48.0907 27.3324 48.0488 27.3149C48.0069 27.2975 47.9689 27.2719 47.9369 27.2397L47.9368 27.2396H47.936Z" fill="#DE596B"/>
<path d="M138.785 32.435C138.238 32.435 137.766 32.63 137.373 33.022C136.982 33.4151 136.785 33.88 136.785 34.4178C136.785 35.2389 137.198 35.8752 138.028 36.3329C138.932 36.5772 139.662 36.4171 140.21 35.8557C140.401 35.6712 140.551 35.4498 140.653 35.2049C140.754 34.9601 140.804 34.6971 140.8 34.4322C140.8 33.878 140.605 33.4059 140.215 33.0261C140.031 32.8371 139.81 32.6876 139.566 32.587C139.322 32.4864 139.061 32.4367 138.797 32.4411L138.785 32.435ZM106.596 17.225H105.103C104.459 17.225 103.936 17.7453 103.936 18.3898V19.2211C102.353 17.5718 100.545 16.7477 98.5415 16.7477C96.2194 16.7477 94.2878 17.6078 92.7364 19.3279C91.1952 21.049 90.4246 23.1991 90.4246 25.7793C90.4246 28.4067 91.1952 30.5999 92.7467 32.3539C94.3084 34.076 96.2811 34.9361 98.6648 34.9361C100.553 34.9361 102.317 34.1705 103.956 32.6372V34.2834C103.956 35.0808 104.607 35.7305 105.405 35.7305H107.957V18.5602C107.957 17.8233 107.358 17.2239 106.619 17.2239L106.596 17.225ZM102.822 29.861C101.914 30.875 100.723 31.3799 99.2463 31.3799C97.8664 31.3799 96.7219 30.8565 95.8146 29.8097C94.929 28.7731 94.4872 27.4286 94.4872 25.7783C94.4872 24.2285 94.9392 22.9354 95.8496 21.8885C96.7743 20.852 97.9147 20.3285 99.2915 20.3285C100.74 20.3285 101.922 20.8417 102.836 21.868C103.749 22.9149 104.203 24.2491 104.203 25.8604C104.203 27.4717 103.751 28.8059 102.841 29.8528L102.822 29.861ZM90.4175 20.1315V18.4278C90.4177 18.2699 90.3868 18.1136 90.3265 17.9676C90.2663 17.8217 90.1777 17.6891 90.0661 17.5774C89.9544 17.4657 89.8218 17.377 89.6758 17.3166C89.5299 17.2561 89.3734 17.225 89.2153 17.225H87.6392C87.3204 17.225 87.0147 17.3515 86.7892 17.5767C86.5638 17.8018 86.4371 18.1073 86.4371 18.4257V19.1698C84.9987 17.5544 83.1925 16.7477 81.0225 16.7477C78.5464 16.7477 76.5511 17.6786 75.0428 19.5393C73.6372 21.2943 72.9365 23.429 72.9365 25.9394C72.9365 28.5196 73.6917 30.6707 75.202 32.3908C76.7001 34.0894 78.6234 34.9361 80.9701 34.9361C83.025 34.9361 84.8538 34.1294 86.4361 32.5161V34.9197C86.4361 38.4913 84.9771 40.2771 82.0592 40.2771C80.4769 40.2771 79.2748 39.7393 78.4426 38.6657C78.211 38.3595 78.0338 38.0158 77.9186 37.6497C77.8222 37.3729 77.6417 37.1331 77.4022 36.9638C77.1627 36.7945 76.8763 36.7042 76.5829 36.7055H75.0942C74.3308 36.7055 73.7657 37.4239 73.9588 38.1598C74.3698 39.73 75.1661 41.0047 76.3528 41.9879C77.8374 43.2246 79.73 43.8425 82.0294 43.8425C84.7542 43.8425 86.8954 42.9465 88.4509 41.1566C89.278 40.2247 89.8318 39.1122 90.1154 37.8149C90.2099 37.3428 90.2839 36.7989 90.3363 36.179C90.3897 35.5611 90.4154 34.8448 90.4154 34.0319V31.538C89.2996 29.9369 88.7407 28.0177 88.7407 25.7906C88.7407 23.6045 89.2996 21.7161 90.4154 20.1459L90.4175 20.1315ZM85.3758 29.7214C84.4922 30.8298 83.288 31.384 81.7654 31.384C80.2447 31.384 79.0529 30.8401 78.1898 29.7419C77.4008 28.7464 77.0052 27.4635 77.0052 25.8932C77.0052 24.3024 77.4008 23.0093 78.1909 22.0035C79.0642 20.8848 80.256 20.3306 81.7664 20.3306C83.1812 20.3306 84.3422 20.8437 85.2515 21.8701C86.1474 22.8759 86.5974 24.2101 86.5974 25.883C86.5974 27.4532 86.1885 28.7361 85.3748 29.7419L85.3758 29.7214ZM123.512 17.2403V17.2239H115.257V12.1765C115.257 11.5268 114.731 11.0003 114.081 11.0003H112.467C111.81 11.0003 111.276 11.534 111.276 12.1909V17.2239H109.577V20.9351H111.276V35.7284H113.548C114.492 35.7284 115.257 34.9648 115.257 34.0206V20.9351H119.341C119.66 20.323 120.055 19.7534 120.516 19.2396C121.359 18.3159 122.356 17.6488 123.506 17.2383L123.512 17.2403ZM143.83 11.0003C143.121 11.0003 142.515 11.2538 142.009 11.7598C141.501 12.2668 141.246 12.8682 141.246 13.5631C141.246 14.2938 141.501 14.9116 142.009 15.4186C142.514 15.9256 143.128 16.1781 143.848 16.1781C144.567 16.1781 145.175 15.9246 145.67 15.4186C146.184 14.9116 146.431 14.2999 146.431 13.5815C146.431 12.8631 146.183 12.2524 145.669 11.7598C145.431 11.5144 145.145 11.3204 144.828 11.1898C144.512 11.0592 144.172 10.9947 143.83 11.0003ZM144.635 19.1729H143.193C142.449 19.1729 141.847 19.7733 141.847 20.5153V33.1493C142.15 33.5085 142.299 33.9293 142.299 34.4117C142.299 34.894 142.149 35.3251 141.847 35.6843V36.3924H144.408C145.193 36.3924 145.829 35.7664 145.829 34.9761V20.3706C145.829 19.7107 145.294 19.177 144.635 19.177V19.1729ZM163.344 21.6125C161.552 19.8575 159.368 18.98 156.8 18.98C154.239 18.98 152.068 19.8523 150.286 21.5971C148.506 23.3398 147.614 25.456 147.614 27.9397C147.614 30.5814 148.488 32.7737 150.234 34.5184C151.981 36.2837 154.145 37.1683 156.728 37.1683C159.333 37.1683 161.533 36.3021 163.327 34.5718C165.109 32.827 166 30.6635 166 28.0854C166 25.5258 165.117 23.3695 163.345 21.6135L163.344 21.6125ZM160.532 32.1148C159.599 33.1154 158.357 33.6132 156.8 33.6132C155.252 33.6132 154.008 33.1103 153.065 32.0942C152.144 31.0946 151.684 29.7337 151.684 28.0136C151.684 26.4105 152.157 25.103 153.102 24.09C154.047 23.077 155.276 22.571 156.801 22.571C158.342 22.571 159.589 23.077 160.532 24.09C161.463 25.0917 161.93 26.43 161.93 28.1008C161.93 29.7737 161.463 31.11 160.532 32.1137V32.1148Z" fill="white"/>
<path d="M124.993 31.422C124.178 30.5866 123.719 29.4617 123.612 28.0454H135.025C135.275 28.0455 135.515 27.9475 135.694 27.7724C135.873 27.5974 135.976 27.3594 135.98 27.1094C135.98 24.2696 135.251 22.0497 133.787 20.4455C132.311 18.8311 130.307 18.0234 127.771 18.0234C125.259 18.0234 123.242 18.8548 121.72 20.5174C120.209 22.2005 119.455 24.4051 119.455 27.1269C119.455 29.8712 120.234 32.0768 121.79 33.7364C122.869 34.8889 124.205 35.6371 125.787 35.984C126.456 36.1477 127.143 36.225 127.832 36.2139C130.668 36.2724 133.133 36.3299 135.959 36.3884V35.9737C135.61 35.5971 135.435 35.1424 135.435 34.6128C135.435 34.0997 135.613 33.6543 135.969 33.2735V32.7706C133.732 32.7193 128.315 32.668 128.102 32.668C126.828 32.668 125.784 32.2574 124.971 31.4364L124.993 31.422ZM124.443 23.4681C124.7 23.0801 124.998 22.7476 125.337 22.4705C126.056 21.9024 126.948 21.5996 127.865 21.6135C129.991 21.6135 131.327 22.6737 131.882 24.7951H123.878C124.012 24.2994 124.197 23.8581 124.443 23.4691V23.4681Z" fill="white"/>
</svg>
