<?xml version="1.0" encoding="utf-8"?>
<!-- Generator: Adobe Illustrator 25.2.0, SVG Export Plug-In . SVG Version: 6.00 Build 0)  -->
<svg version="1.1" id="Ebene_1" xmlns="http://www.w3.org/2000/svg" xmlns:xlink="http://www.w3.org/1999/xlink" x="0px" y="0px"
	 viewBox="0 0 1100 250" style="enable-background:new 0 0 1100 250;" xml:space="preserve">
<style type="text/css">
	.st0{fill:#FFFFFF;}
	.st1{fill:#663406;}
	.st2{fill:#D0874F;}
	.st3{fill:#FBD88D;}
	.st4{fill:#653203;}
</style>
<g>
	<path class="st0" d="M1073.3,148.5c-0.3,2.8-1.9,6.5-3.3,8.9c-7,12.1-23.3,17.3-37.2,12.1c-1.1-0.4-2.1-1.4-3.7-0.9
		c0,6.1,0,12.4,0,18.6c0,6.1-1.4,7.5-7.3,7.6c-3.8,0-7.6,0.1-11.4,0c-4.6-0.1-6.2-1.6-6.2-6.2c-0.1-7.1,0-14.2,0-21.2
		c0-15.9,0-31.8,0-47.8c0-2,0.2-3.5,2.3-4.7c15.8-8.7,32.3-10.2,49.3-4.9c8.4,2.6,14.2,8.4,17,16.9c0.2,0.6,0.7,2,0.9,4.4
		C1073.7,133.7,1073.6,145.8,1073.3,148.5z M1035.7,124.4c-6.5,0-6.7,0.3-6.7,6.7c0,4.8-0.1,9.5,0,14.3c0.1,5.2,2.1,7.7,6.3,8.6
		c5.1,1.1,9-0.5,11.4-4.8c2.3-4.2,2.6-8.8,2.1-13.4C1047.7,127.7,1043.8,124.4,1035.7,124.4z"/>
	<path class="st1" d="M90.3,205.4c-3.7-0.5-9.2-1.7-12.1-2.5c-15.7-4-30.1-10.3-41.2-22.6c-7-7.8-10.9-16.8-10.5-27.5
		c0.2-6.4-0.6-12.8,1.3-19.1c4.4-14.7,15-23.7,27.9-30.4c4.2-2.2,5.6-4.1,4.4-8.8c-2-7.9-3.3-16-4.7-24c-1.6-8.9,0.7-16.6,8.2-22
		c6.8-5,14.4-5.8,22-2.1c8.2,4,12.1,10.9,12.1,20.1c0,7.4,0.1,14.7-0.1,22.1c-0.1,2.8,0.8,3.4,3.4,3.2c3.8-0.3,7.6-0.2,11.4,0
		c2.4,0.1,3-0.7,3-3c-0.1-7.5-0.1-15,0-22.5c0.1-13.4,10.4-23.2,23.3-22c12.8,1.1,21.2,12.8,18.8,26c-1.6,8.7-3.2,17.4-4.9,26
		c-0.6,2.9-0.2,4.5,2.8,5.9c10.5,4.9,19.6,11.7,25.8,21.8c3.7,6,5.7,12.6,5.6,19.7c-0.1,5.3,0.5,10.6-0.4,15.9
		c-2.4,14.4-11.5,24-23.2,31.5c-11.3,7.2-23.7,11.3-37,13.2c-0.6,0.1-2.9,0.1-8.3,0.8C112.5,206,94.1,205.9,90.3,205.4z M33.1,147.5
		c-0.2,4.1-0.5,8.1,0.3,12.2c2.2,11,9.1,18.6,18,24.7c13.7,9.4,29.2,13.6,45.6,14.8c21.7,1.7,42.7-1.5,61.7-12.8
		c14.6-8.7,23.6-20.8,21.4-38.9c1.2-12.7-4.2-22.4-13.6-30.3c-5.8-4.8-12.2-8.7-19.3-11.3c-2.2-0.8-2.7-1.9-2.2-4.2
		c2.1-10.8,3.5-21.7,6.1-32.4c1.9-8-4.3-17.6-13.4-18.3c-8.6-0.7-15.6,6.2-15.7,15.5c0,9.7-0.1,19.3,0,29c0,2.7-0.5,4.1-3.6,3.7
		c-8-1.2-16-1.1-24,0c-2.7,0.4-3.5-0.6-3.5-3.3c0.1-9.8,0.1-19.6,0-29.4C90.9,56.9,83.6,50,74.8,51c-8.9,0.9-14.7,9.1-13,18.3
		c2,10.7,3.9,21.4,6.1,32c0.5,2.7-0.1,4-2.6,5c-5,1.8-9.7,4.4-14,7.5C39.6,121.9,31.8,132.3,33.1,147.5z"/>
	<path class="st0" d="M221.9,126.9c0-12,0-23.9,0-35.9c0-4.7,1.4-6.9,5.5-7c14.3-0.2,28.7-1.4,42.8,0.8
		c16.8,2.7,24.8,14.1,23.3,31.6c-1.4,16-10.2,24.7-26.5,25.9c-5.6,0.4-11.2,0.3-16.7,0.3c-2.3,0-3.1,0.6-3,3
		c0.2,5.8,0.1,11.7,0,17.6c-0.1,4.5-1.6,6.1-6.1,6.3c-4.2,0.1-8.4,0.1-12.7,0c-5-0.1-6.5-1.6-6.6-6.7
		C221.9,150.8,221.9,138.8,221.9,126.9z M254.1,102.2c-1,0-1.9,0.1-2.9,0c-3.4-0.6-4.2,1-3.9,4c0.2,2.8,0.1,5.7,0.1,8.6
		c0,9.9,0,9.9,10,9.7c7.1-0.2,10.7-3.8,10.8-10.9c0.1-7.4-3.4-11.1-10.8-11.3C256.2,102.2,255.2,102.3,254.1,102.2z"/>
	<path class="st0" d="M787.2,171.3c-10.4-0.1-19.6-1.2-28.4-4.9c-1.7-0.7-3.5-1.6-5.1-2.6c-4.2-2.6-4.4-3.4-1.7-7.7
		c1.9-3.1,3.4-7.2,6.2-8.9c3.1-1.8,6.1,2.2,9.4,3.3c6.4,2,12.9,3.3,19.7,2.5c3.6-0.4,6.7-1.5,7.6-5.6c0.8-4.1-1.3-6.7-4.7-8.5
		c-7.6-4-15.9-6.2-23.3-10.6c-11.5-6.8-15.6-15.9-12.4-28c2.3-8.8,8.6-13.8,16.9-16.1c13.6-3.9,27.2-3,40.3,2.4
		c1.9,0.8,3.6,1.9,5.2,3.1c1.8,1.3,2.2,2.9,0.9,4.9c-1.7,2.6-3.5,5.2-4.9,8c-1.6,3-3.2,3.7-6.4,1.7c-5.7-3.6-12.2-4.7-18.8-4.1
		c-3.7,0.4-7.5,1.1-8.5,5.6c-0.9,4.1,1,7.3,5.8,9.6c4.4,2,9.1,3.7,13.5,5.6c3.4,1.5,6.7,3,9.9,4.8c9.4,5.2,13.2,13.4,12.1,23.8
		c-1.2,10.6-7.8,16.6-17.5,19.8C797.5,171.1,791.9,171.4,787.2,171.3z"/>
	<path class="st0" d="M629.1,131.1c4.6-6,9.4-11.8,13.7-17.9c2.3-3.3,5-4.5,8.9-4.3c4.9,0.3,9.8,0,14.7,0.1c1.7,0,3.7-0.6,4.6,1.7
		c0.7,2-0.7,3.3-1.9,4.6c-6,6.9-12,13.7-18.1,20.5c-1.7,1.9-2,3.1-0.1,5.3c6.5,7.3,12.7,14.9,19,22.4c1.1,1.3,2.6,2.7,1.6,4.7
		c-0.9,1.9-2.8,1.3-4.4,1.3c-5.6,0-11.2-0.1-16.8,0.1c-2.9,0.1-4.8-1-6.4-3.3c-4.9-6.8-9.9-13.6-15.7-20.3c0,4.9,0,9.8,0,14.7
		c0,7.5-1.3,8.8-8.7,8.8c-3.4,0-6.8,0-10.2,0c-5.1-0.1-6.6-1.5-6.6-6.6c-0.1-11.8,0-23.7,0-35.5c0-12,0-23.9,0-35.9
		c0-5.9,1.5-7.5,7.5-7.6c3.4-0.1,6.8-0.1,10.2,0c6.1,0.1,7.8,1.7,7.8,7.8c0.1,11.8,0,23.7,0,35.5c0,1.3,0,2.6,0,3.9
		C628.5,131,628.8,131.1,629.1,131.1z"/>
	<path class="st0" d="M856.3,138.5c2.5-6.5,5.1-13,7.3-19.6c1.1-3.4,2.8-4.7,6.5-4.6c10.3,0.3,8.2-1.2,12,8.4
		c2.1,5.4,4,10.9,6.3,17.2c2.3-9.4,4.4-17.8,6.3-26.2c0.8-3.6,2.4-5,6.2-4.8c4.5,0.3,9,0.1,13.5,0c2.9-0.1,4,0.8,3.1,3.8
		c-5.4,17.8-10.8,35.6-16.1,53.4c-0.7,2.3-2.1,3.4-4.4,3.3c-1.9,0-3.8,0-5.7,0c-10.9-0.2-8.7,1.9-13-9.3c-2-5.3-3.9-10.6-6.1-16.5
		c-2.8,7.6-5.5,14.4-7.8,21.4c-1.1,3.5-3,4.7-6.6,4.5c-3.4-0.2-6.8-0.1-10.2,0c-2.5,0.1-4-0.9-4.7-3.5c-5.2-17.8-10.6-35.6-16-53.4
		c-0.8-2.5-0.1-3.6,2.6-3.6c5.3,0,10.6,0.1,15.9,0c2.6,0,3.5,1.4,4,3.7c2,8.6,4,17.1,6.1,25.7C855.7,138.4,856,138.5,856.3,138.5z"
		/>
	<path class="st0" d="M970.8,164.1c-6.9,6.4-15.1,7.6-23.7,7.1c-11.4-0.7-19.9-8-22.4-19.1c-5.5-24.3,9.7-43.9,34.7-44.8
		c10.6-0.4,20.8,1.1,30.5,5.9c2.4,1.2,3.6,2.5,3.6,5.5c-0.2,15.1-0.1,30.2-0.1,45.3c0,5.1-0.4,5.5-5.7,5.5c-2.9,0-5.7,0-8.6,0
		C973.5,169.4,973.5,169.4,970.8,164.1z M969.6,136.8C969.7,136.8,969.7,136.8,969.6,136.8c0-3.1-0.1-6.3,0.1-9.4
		c0.1-1.7-0.6-2.5-2.2-2.8c-5.5-0.9-10.8-0.5-14.5,4.2c-4.8,6-5.1,13.1-2.7,20.1c1.5,4.4,6.2,6,12.1,4.9c4.4-0.8,7.1-3.8,7.2-8.5
		C969.7,142.5,969.6,139.7,969.6,136.8z"/>
	<path class="st0" d="M569.9,163.8c-9,7.8-18.9,8.8-29.2,6.5c-8.9-2-14.3-7.9-16.9-16.5c-6.9-23.6,7.2-44.2,31.9-46.4
		c11.6-1,22.8,0.5,33.2,6.1c2,1.1,2.9,2.2,2.9,4.6c-0.1,15.5-0.2,31,0,46.5c0,3.9-1.5,5.1-5.1,4.9c-2.7-0.2-5.4-0.1-8.2,0
		C574.5,169.6,570.3,170,569.9,163.8z M568.1,136.9C568.1,136.9,568.2,136.9,568.1,136.9c0.1-3.1,0-6.3,0.1-9.4
		c0.1-1.6-0.5-2.6-2.1-2.9c-5-0.7-9.8-0.5-13.7,3.4c-4.7,4.7-6.5,15.3-3.4,21.3c2,4,6.2,5.6,12,4.6c4.4-0.8,6.9-3.5,7.1-8.1
		C568.3,142.9,568.1,139.9,568.1,136.9z"/>
	<path class="st0" d="M344.8,163.8c-8.1,7.5-17.3,8.3-26.8,7.1c-12.1-1.6-19.8-11.5-20.6-26c-1.1-17.9,8.5-31.5,26-35.9
		c14.2-3.6,28-1.9,41.2,4.8c1.8,0.9,2.5,2,2.5,4.1c-0.1,15.6-0.1,31.3,0,46.9c0,3.5-1.2,5-4.8,4.8c-2.6-0.2-5.2-0.1-7.8,0
		C350.2,169.5,345.6,170.3,344.8,163.8z M343.2,137c0-2.9-0.2-5.7,0.1-8.6c0.2-2.8-1-3.8-3.6-4.1c-6.2-0.5-11.3,1.1-14.6,6.7
		c-3.3,5.7-3.3,15.6,0,19.9c2.3,2.9,7.6,4.1,12.1,2.7c4-1.2,6-4,6.1-8.5C343.3,142.4,343.2,139.7,343.2,137z"/>
	<path class="st0" d="M398.8,114.5c9.4-6.8,19.1-8.9,29.6-6.3c9.4,2.3,14.9,9.1,15.2,18.8c0.3,12.2,0.1,24.5,0.2,36.7
		c0,3.9-2,5.8-5.8,5.8c-4.4,0-8.7,0.1-13.1,0c-5-0.1-6.6-1.7-6.6-6.7c0-10.2,0-20.4,0-30.6c0-5.6-1.9-7.6-6.6-7.7
		c-5.4-0.1-8.2,2.5-8.3,7.8c-0.1,9.7,0,19.3,0,29c0,6.9-1.3,8.2-8.4,8.2c-3.5,0-7.1,0.1-10.6,0c-4.7-0.1-6.4-1.5-6.4-6
		c-0.1-16.9-0.1-33.7-0.1-50.6c0-2.5,1.1-3.8,3.7-3.8c4.5,0,9,0,13.5,0C398.3,108.9,398.6,111.5,398.8,114.5z"/>
	<path class="st0" d="M720.1,144.6c-6,0-12,0.1-18-0.1c-3-0.1-3.2,1.3-2.4,3.5c1.2,3.7,4,5.8,7.6,6.6c7.6,1.7,15.2,1.8,22.3-2
		c3.5-1.9,5.5-1.3,6.9,2.3c0.3,0.8,0.6,1.5,1.1,2.2c3.7,6,4.4,7-3.7,10.2c-13.1,5.3-26.6,5.5-39.9,0.7c-13.6-5-20.6-18-18.5-33.1
		c2.3-17.2,12.8-26.8,30.3-27.7c7.1-0.4,14.2-0.2,20.9,2.5c14,5.5,18,18,17.7,29.3c-0.1,3.8-2.4,5.6-6.2,5.6
		C732.1,144.6,726.1,144.6,720.1,144.6z M710.2,132c3.1,0,6.3-0.1,9.4,0c2,0.1,2.2-0.8,1.9-2.5c-0.9-4.5-4.5-7.3-9.8-7.5
		c-6.1-0.3-10.6,2.2-11.9,6.5c-0.8,2.5-0.4,3.9,2.7,3.6C705,131.8,707.6,132,710.2,132z"/>
	<path class="st0" d="M489.7,171.3c-11.4,0-21.4-1.5-29.2-8.8c-16.3-15.2-10.1-44.7,11.2-52.5c12-4.4,24.3-4.1,36.4,0.5
		c0.9,0.3,1.8,0.7,2.6,1.2c5.4,3,5.6,3.8,2.6,9.1c-1.1,2-2.5,3.9-3.4,6c-1.4,3-3.1,3.2-5.8,1.4c-4.3-2.9-9.1-4.1-14.3-3.8
		c-7.5,0.5-12.4,5.7-12.7,13.8c-0.3,9.6,3.8,15,12,15.9c5.8,0.7,11.1-0.7,15.9-3.8c2.6-1.7,4.3-1.5,5.8,1.5c1.4,2.8,3,5.5,4.7,8.1
		c1.5,2.4,0.9,4-1.4,5.3C506.1,169.8,497.5,171.4,489.7,171.3z"/>
	<path class="st2" d="M33.1,147.5c-1.3-15.2,6.5-25.5,18.1-33.8c4.3-3.1,9-5.7,14-7.5c2.5-0.9,3.2-2.3,2.6-5
		c-2.2-10.6-4.1-21.3-6.1-32c-1.7-9.2,4.1-17.4,13-18.3c8.8-0.9,16.2,6,16.2,15.4c0.1,9.8,0.1,19.6,0,29.4c0,2.7,0.7,3.7,3.5,3.3
		c8-1.1,16-1.2,24,0c3.1,0.4,3.6-0.9,3.6-3.7c-0.1-9.7-0.1-19.3,0-29c0-9.3,7.1-16.2,15.7-15.5c9.1,0.7,15.4,10.4,13.4,18.3
		c-2.6,10.7-4,21.6-6.1,32.4c-0.5,2.3,0.1,3.4,2.2,4.2c7.1,2.7,13.5,6.5,19.3,11.3c9.4,7.9,14.8,17.6,13.6,30.3
		c-2.8,12.5-10.8,21-21.4,27.4c-14.2,8.7-29.9,12.2-46.2,13.1c-15.8,0.9-31.3-1.3-46-7.2C50.8,174.5,37.4,165.4,33.1,147.5z
		 M86.1,140.1c0-3.8-1-7-3-9.5c-3.2-3.9-7.6-3.8-10.6,0.1c-3.8,4.9-3.7,13.8,0.3,18.7c3.3,4,8,3.9,10.8-0.5
		C85.4,146.2,86.3,143.3,86.1,140.1z M142.6,140.4c0-4.1-0.9-7.3-3.2-10c-3-3.6-7.1-3.6-10.1-0.1c-4.3,4.8-4.1,14.9,0.3,19.6
		c3.2,3.4,7.6,3.1,10.3-0.9C141.8,146.3,142.8,143.2,142.6,140.4z"/>
	<path class="st3" d="M33.1,147.5c4.3,17.9,17.6,27,33.4,33.4c14.7,5.9,30.2,8.1,46,7.2c16.3-1,32-4.5,46.2-13.1
		c10.6-6.5,18.6-14.9,21.4-27.4c2.2,18.1-6.8,30.2-21.4,38.9c-19,11.3-39.9,14.5-61.7,12.8c-16.3-1.3-31.9-5.4-45.6-14.8
		c-8.9-6.1-15.8-13.7-18-24.7C32.6,155.6,33,151.5,33.1,147.5z"/>
	<path class="st4" d="M86.1,140.1c0.1,3.2-0.8,6.2-2.5,8.8c-2.9,4.3-7.6,4.5-10.8,0.5c-3.9-4.8-4-13.7-0.3-18.7
		c3-3.9,7.5-4,10.6-0.1C85.1,133,86.2,136.2,86.1,140.1z"/>
	<path class="st4" d="M142.6,140.4c0.2,2.8-0.8,5.9-2.6,8.6c-2.7,4-7.2,4.3-10.3,0.9c-4.4-4.8-4.6-14.8-0.3-19.6
		c3.1-3.5,7.1-3.4,10.1,0.1C141.7,133.1,142.6,136.3,142.6,140.4z"/>
</g>
</svg>
