<?xml version="1.0" encoding="utf-8"?>
<!-- Generator: Adobe Illustrator 25.2.0, SVG Export Plug-In . SVG Version: 6.00 Build 0)  -->
<svg version="1.1" id="Ebene_1" xmlns="http://www.w3.org/2000/svg" xmlns:xlink="http://www.w3.org/1999/xlink" x="0px" y="0px"
	 viewBox="0 0 2000 100" style="enable-background:new 0 0 1200 250;" xml:space="preserve">
<style type="text/css">
	.st0{fill:#FFFFFF;}
</style>
<g>
  <path d="M115.145 79.294h4.078l3.34 9.45 3.594-9.45h2.495l3.528 9.342 3.344-9.342h4.105l-6.06 16.608h-2.641l-3.541-9.464-3.648 9.464h-2.611l-5.983-16.608zm26.858-6.41h4.136v8.09a9.5 9.5 0 012.458-1.58 6.337 6.337 0 012.503-.527 5.637 5.637 0 014.168 1.71 5.982 5.982 0 011.45 4.35v10.975h-4.106v-7.281a18.02 18.02 0 00-.275-3.908 2.726 2.726 0 00-.939-1.526 2.636 2.636 0 00-1.641-.504 3.088 3.088 0 00-2.175.84 4.453 4.453 0 00-1.259 2.29 18.894 18.894 0 00-.184 3.419v6.67h-4.136V72.883zm20.369-.428a2.544 2.544 0 011.881.794 2.64 2.64 0 01.785 1.923 2.6 2.6 0 01-.779 1.9 2.506 2.506 0 01-1.856.787 2.562 2.562 0 01-1.896-.802 2.682 2.682 0 01-.781-1.946 2.653 2.653 0 012.647-2.656h-.001zm-2.082 6.838h4.168v16.608h-4.168V79.294zm8.457-6.12h4.167v6.12h2.473v3.588h-2.473v13.02h-4.167v-13.02h-2.137v-3.588h2.137v-6.12zm25.507 15.63h-13.387a4.465 4.465 0 001.549 2.817 4.862 4.862 0 003.214 1.045 5.558 5.558 0 004.014-1.633l3.511 1.648a8.28 8.28 0 01-3.145 2.756 9.832 9.832 0 01-4.35.893 8.596 8.596 0 01-6.365-2.465 8.391 8.391 0 01-2.458-6.175 8.667 8.667 0 012.45-6.312 8.233 8.233 0 016.144-2.51 8.534 8.534 0 016.381 2.51 9.084 9.084 0 012.457 6.632l-.015.794zm-4.167-3.282a4.176 4.176 0 00-1.629-2.259 4.722 4.722 0 00-2.821-.87 4.982 4.982 0 00-3.057.977 5.448 5.448 0 00-1.53 2.152h9.037zM208 72.456a2.538 2.538 0 011.879.794 2.642 2.642 0 01.785 1.923 2.598 2.598 0 01-.777 1.9 2.527 2.527 0 01-1.857.787 2.56 2.56 0 01-1.895-.802 2.674 2.674 0 01-.784-1.946A2.655 2.655 0 01208 72.456zm-2.084 6.838h4.167v16.608h-4.167V79.294zm18.119 2.32l-2.579 2.58a4.366 4.366 0 00-2.855-1.557 1.794 1.794 0 00-1.099.298.89.89 0 00-.145 1.358c.372.32.792.58 1.244.771l1.527.764a8.996 8.996 0 013.312 2.427 5.054 5.054 0 01-.725 6.594 6.223 6.223 0 01-4.358 1.48 6.924 6.924 0 01-5.801-2.839l2.565-2.793a5.926 5.926 0 001.717 1.382 3.803 3.803 0 001.748.526c.475.023.943-.117 1.328-.397a1.157 1.157 0 00.504-.916c0-.64-.606-1.267-1.817-1.877l-1.404-.702c-2.687-1.354-4.03-3.049-4.03-5.084a4.415 4.415 0 011.519-3.365 5.515 5.515 0 013.885-1.397 6.741 6.741 0 015.464 2.748zm28.591 1.039l-3.47 1.908a5.141 5.141 0 00-4.172-1.817 5.217 5.217 0 00-3.782 1.395 4.754 4.754 0 00-1.444 3.574 4.6 4.6 0 001.39 3.459 5.046 5.046 0 003.653 1.341 5.312 5.312 0 004.355-1.908l3.287 2.25a10.122 10.122 0 01-14.403.88 8.626 8.626 0 01-2.404-7.38 8.635 8.635 0 014.496-6.328 10.035 10.035 0 014.831-1.16 9.797 9.797 0 014.442.985 8.439 8.439 0 013.221 2.8zm3.297-9.77h4.167v23.02h-4.167v-23.02zm24.591 15.921h-13.387a4.465 4.465 0 001.549 2.817 4.862 4.862 0 003.214 1.045 5.558 5.558 0 004.014-1.633l3.511 1.648a8.285 8.285 0 01-3.144 2.756 9.836 9.836 0 01-4.351.893 8.596 8.596 0 01-6.365-2.465 8.391 8.391 0 01-2.458-6.175 8.685 8.685 0 012.45-6.312 8.233 8.233 0 016.144-2.51 8.529 8.529 0 016.381 2.51 9.084 9.084 0 012.457 6.632l-.015.794zm-4.167-3.282a4.176 4.176 0 00-1.629-2.259 4.722 4.722 0 00-2.821-.87 4.982 4.982 0 00-3.057.977 5.448 5.448 0 00-1.53 2.152h9.037zm19.798-6.228h4.167v16.608h-4.167v-1.755a8.159 8.159 0 01-2.447 1.671 6.855 6.855 0 01-2.661.512 7.395 7.395 0 01-5.565-2.496 8.71 8.71 0 01-2.348-6.205 8.919 8.919 0 012.272-6.304 7.23 7.23 0 015.519-2.458 7.007 7.007 0 012.806.565c.91.402 1.733.978 2.424 1.694v-1.832zm-4.381 3.42a4.206 4.206 0 00-3.21 1.366 4.927 4.927 0 00-1.278 3.503 4.975 4.975 0 001.301 3.541 4.21 4.21 0 003.202 1.39 4.29 4.29 0 003.256-1.367 4.99 4.99 0 001.293-3.58 4.843 4.843 0 00-1.293-3.51 4.336 4.336 0 00-3.271-1.343zm11.784-3.42h3.572v2.092a4.456 4.456 0 011.542-1.878 3.719 3.719 0 012.106-.641c.59.012 1.17.158 1.695.427l-1.298 3.588a2.857 2.857 0 00-1.206-.367 1.906 1.906 0 00-1.625 1.19 10.884 10.884 0 00-.664 4.672l.015.809v6.716h-4.137V79.294zM.494 17.823h10.198l8.349 23.622 8.983-23.622h6.237l8.821 23.355 8.36-23.355h10.263l-15.15 41.52h-6.602L31.1 35.683l-9.121 23.66h-6.526L.494 17.823zM67.64 1.795h10.342v20.226a23.771 23.771 0 016.144-3.95 15.868 15.868 0 016.258-1.316 14.099 14.099 0 0110.418 4.274c2.417 2.468 3.625 6.093 3.626 10.876v27.438H94.161V41.14a44.926 44.926 0 00-.687-9.77 6.817 6.817 0 00-2.347-3.816 6.591 6.591 0 00-4.102-1.26 7.737 7.737 0 00-5.438 2.1 11.123 11.123 0 00-3.148 5.724c-.41 2.83-.564 5.69-.458 8.548v16.677H67.639V1.795zm56.135 21.239a5.211 5.211 0 00-10.422 0l.002.019v36.29h10.418V23.052l.002-.018zm74.491 18.564h-33.467a11.142 11.142 0 003.873 7.041 12.159 12.159 0 008.033 2.613 13.886 13.886 0 0010.037-4.083l8.777 4.122a20.735 20.735 0 01-7.861 6.889 24.606 24.606 0 01-10.876 2.231 21.494 21.494 0 01-15.914-6.164 20.967 20.967 0 01-6.144-15.435 21.678 21.678 0 016.126-15.78 20.567 20.567 0 0115.359-6.277 21.337 21.337 0 0115.952 6.276c4.095 4.186 6.143 9.713 6.144 16.582l-.039 1.985zm-10.418-8.205a10.454 10.454 0 00-4.071-5.648 11.801 11.801 0 00-7.052-2.175 12.479 12.479 0 00-7.646 2.442 13.624 13.624 0 00-3.822 5.38h22.591zm-42.931-15.57V2.52h-10.418v56.823h10.418V26.79h6.182v-8.968h-6.182z" fill="#fff"/>
  <path fill-rule="evenodd" clip-rule="evenodd" d="M78.923 91.024h5.257v5.256h-5.257v-5.256zm-72.585 0H1.082v5.256h5.256v-5.256zm20.774 0h5.257v5.256h-5.256v-5.256zm31.037 0h-5.256v5.256h5.256v-5.256zm52.061 0h-5.256v5.256h5.256v-5.256zM91.939 91.024h5.256v5.256H91.94v-5.256zm-72.586 0h-5.256v5.256h5.256v-5.256zm20.775 0h5.256v5.256h-5.256v-5.256zm31.037 0h-5.257v5.256h5.257v-5.256z" fill="#fff"/>
  <path d="M264.74 3.207h10.608v56.135H264.74V3.207zm17.096 0h31.025v10.532h-10.227v45.603h-10.838V13.74h-9.96V3.207zM230.954 23.834l-1.033 2.02a3.65 3.65 0 00-.25.567 1.294 1.294 0 00.321 1.308 1.322 1.322 0 002.052-.18c.147-.22.226-.477.226-.741a1.327 1.327 0 00-.378-.958 1.25 1.25 0 00-.677-.366l.62-1.208-.881-.442zm.312 2.963a.368.368 0 01-.098.26.3.3 0 01-.453-.002.385.385 0 01-.098-.256.387.387 0 01.094-.258.279.279 0 01.22-.096.302.302 0 01.237.097.34.34 0 01.098.255zm4.587-18.564l-1.668 2.48-.025.04v.86h1.636v.768h1.005v-.769h.332v-.966h-.332V8.233h-.948zm-.469 2.413l.412-.606v.606h-.412zM214.021 43.41l1.367-2.798h-1.479v-.976h2.765l-.015.595-1.759 3.606-.879-.427zm17.189 9.719a.51.51 0 00.011-.654.329.329 0 00-.422-.076.694.694 0 00-.181.143l-.061.065-.814-.183.511-2.352h2.034v.967h-1.253l-.077.339H231a1.284 1.284 0 01.958.394 1.36 1.36 0 01.381.997 1.406 1.406 0 01-.417 1.031 1.385 1.385 0 01-1.018.421 1.45 1.45 0 01-.919-.304 1.44 1.44 0 01-.505-.835l-.042-.186h1.035l.043.084a.497.497 0 00.175.207.415.415 0 00.519-.058zm-.475-20.164a1.27 1.27 0 00.388-.939 1.308 1.308 0 00-.378-.957 1.242 1.242 0 00-.677-.366l.62-1.208-.881-.442-1.033 2.02c-.099.181-.183.371-.25.567a1.35 1.35 0 00-.058.394 1.293 1.293 0 00.379.914 1.332 1.332 0 001.454.303c.163-.066.311-.163.436-.286zm-1.265-.95a.357.357 0 01.094-.255.29.29 0 01.221-.096.306.306 0 01.237.097.358.358 0 01.075.117c.016.044.024.091.022.138a.355.355 0 01-.2.335.296.296 0 01-.248 0 .3.3 0 01-.102-.077.354.354 0 01-.099-.258zm21.931 11.675v-.769h.333v-.966h-.333v-2.413h-.947l-1.669 2.48-.025.04v.86h1.637v.769h1.004zm-1.417-1.735l.413-.606v.606h-.413zm-22.308-8.762c.207-.107.379-.27.496-.473a1.333 1.333 0 00.025-1.305 1.265 1.265 0 00-.302-.37c.076-.091.139-.192.188-.3.06-.137.089-.285.087-.435a1.2 1.2 0 00-.616-1.052 1.491 1.491 0 00-1.311-.002c-.19.098-.349.248-.457.432a1.184 1.184 0 00-.066 1.08c.045.101.103.196.174.283a1.411 1.411 0 00-.302.382 1.306 1.306 0 00-.145.61 1.34 1.34 0 00.181.69c.116.2.287.363.493.467.249.108.518.16.789.148.264.01.526-.044.766-.155zm-.597-2.638a.26.26 0 01-.291.054.26.26 0 01-.158-.25.253.253 0 01.015-.103.265.265 0 01.056-.087.232.232 0 01.177-.07.273.273 0 01.203.072.235.235 0 01.07.183.282.282 0 01-.015.108.282.282 0 01-.057.093zm-.503 1.166a.474.474 0 01.331-.119.448.448 0 01.316.116.364.364 0 01.12.277c.002.05-.007.1-.026.145a.345.345 0 01-.086.12.546.546 0 01-.661-.007.354.354 0 01-.086-.417.339.339 0 01.092-.115zm9.842 22.406v-3.079h-.893l.601-.976h1.306v4.055h-1.014zm-12.47-2.829a1.075 1.075 0 00-.322.796c-.004.206.045.41.142.59.094.17.234.308.403.4a1.28 1.28 0 001.092.043c.194-.1.37-.232.52-.391l.111-.11.697.726-.108.106a2.73 2.73 0 01-.834.594 2.286 2.286 0 01-.902.17 2.097 2.097 0 01-1.539-.599 2.246 2.246 0 01-.327-2.603c.187-.32.458-.58.782-.757a2.264 2.264 0 012.049-.075c.306.138.577.341.795.596l.094.111-.716.682-.105-.112a1.393 1.393 0 00-1.034-.49 1.08 1.08 0 00-.798.323zm4.077 2.923a1.318 1.318 0 001.323-1.322 1.307 1.307 0 00-.377-.958 1.249 1.249 0 00-.678-.365l.621-1.208-.882-.443-1.032 2.02c-.1.182-.184.372-.251.567-.038.128-.058.261-.058.395a1.293 1.293 0 00.379.914 1.277 1.277 0 00.955.4zm-.33-1.332a.358.358 0 01.095-.257.279.279 0 01.22-.096.307.307 0 01.237.098.343.343 0 01.097.255.367.367 0 01-.022.139.373.373 0 01-.177.196.302.302 0 01-.351-.078.35.35 0 01-.099-.257zm10.853.957l1.367-2.798h-1.479v-.976h2.765l-.015.595-1.759 3.607-.879-.428zm-4.756-22.469c.099-.18.183-.369.251-.563a1.34 1.34 0 00-.04-.889 1.295 1.295 0 00-.281-.42 1.325 1.325 0 00-2.278.925 1.3 1.3 0 00.377.955c.183.191.421.32.681.367l-.624 1.21.882.439 1.032-2.024zm-.695-.938a.359.359 0 01-.095.255.311.311 0 01-.353.07.339.339 0 01-.178-.19.336.336 0 01-.023-.136.347.347 0 01.099-.258.305.305 0 01.232-.1.288.288 0 01.219.1.355.355 0 01.099.26zm-4.808-3.402a.51.51 0 00.01-.654.327.327 0 00-.421-.076.694.694 0 00-.181.144l-.062.064-.814-.183.511-2.351h2.034v.966h-1.253l-.076.34h.042a1.28 1.28 0 01.958.393 1.36 1.36 0 01.38.997 1.405 1.405 0 01-.416 1.031 1.39 1.39 0 01-1.018.421 1.45 1.45 0 01-.919-.304 1.429 1.429 0 01-.505-.835l-.042-.186h1.034l.044.084a.49.49 0 00.175.207.411.411 0 00.519-.058zm21.973 9.445a3.24 3.24 0 00.173 1.197c.099.268.275.5.507.666.237.153.515.23.797.222.28.01.556-.067.789-.221.228-.173.401-.41.496-.68a4.322 4.322 0 00.003-2.428 1.423 1.423 0 00-.514-.686 1.39 1.39 0 00-.795-.228 1.293 1.293 0 00-1.113.576 2.834 2.834 0 00-.343 1.583zm1.019.015c-.008-.264.015-.529.069-.788a.608.608 0 01.165-.32.332.332 0 01.22-.08c.076 0 .19.022.3.205.124.297.174.62.145.941.025.33-.032.66-.165.961a.306.306 0 01-.28.183.34.34 0 01-.307-.2 1.792 1.792 0 01-.147-.901zm-36.086-23.1l-1.033 2.02c-.099.182-.183.372-.25.568a1.317 1.317 0 00.321 1.308 1.322 1.322 0 001.45.308 1.326 1.326 0 00.828-1.23 1.325 1.325 0 00-.378-.958 1.242 1.242 0 00-.677-.365l.62-1.208-.881-.442zm.312 2.964a.35.35 0 01-.098.259.297.297 0 01-.351.075.297.297 0 01-.101-.077.39.39 0 01-.005-.514.292.292 0 01.221-.096.307.307 0 01.236.098.346.346 0 01.098.255zm.009 10.69a.382.382 0 00.068-.468.39.39 0 00-.113-.125.895.895 0 00-.547-.148l-.152-.002v-.905l.141-.01a.98.98 0 00.331-.066.329.329 0 00.134-.111.247.247 0 00.045-.137.188.188 0 00-.014-.078.19.19 0 00-.046-.064.24.24 0 00-.175-.059.298.298 0 00-.186.063.33.33 0 00-.117.164l-.033.106h-.973l.023-.172a1.272 1.272 0 011.31-1.153c.325-.007.64.113.878.335a1.069 1.069 0 01.36.807.972.972 0 01-.362.762 1.097 1.097 0 01.555.982 1.293 1.293 0 01-.42.965 1.475 1.475 0 01-1.052.392 1.381 1.381 0 01-.997-.371 1.443 1.443 0 01-.422-1l-.009-.162h.999l.02.129a.563.563 0 00.154.342.467.467 0 00.6-.015zm8.696-17.102a.879.879 0 00.121-.396.327.327 0 00-.099-.249.37.37 0 00-.53.023.57.57 0 00-.125.365l-.004.149h-1.004l.007-.16c0-.395.153-.773.426-1.057a1.394 1.394 0 011.013-.391c.236-.005.468.05.676.161.201.111.366.276.478.476.114.19.175.406.177.628a1.808 1.808 0 01-.205.785c-.193.35-.436.67-.721.949l-.176.184h1.132v.965h-2.902v-.557l1.202-1.228c.206-.191.385-.41.534-.647zm.898 13.885l-1.033 2.02a3.65 3.65 0 00-.25.567 1.294 1.294 0 00.321 1.308 1.321 1.321 0 001.45.308 1.326 1.326 0 00.828-1.23 1.327 1.327 0 00-.378-.957 1.246 1.246 0 00-.677-.366l.62-1.208-.881-.442zm.312 2.963a.368.368 0 01-.098.26.3.3 0 01-.453-.002.39.39 0 01-.004-.514.281.281 0 01.22-.096.302.302 0 01.237.097.34.34 0 01.098.255zm-1.459 17.911l-1.033 2.02c-.099.182-.183.371-.25.567a1.35 1.35 0 00-.058.394 1.293 1.293 0 00.379.915 1.324 1.324 0 002.278-.922 1.308 1.308 0 00-.378-.958 1.242 1.242 0 00-.677-.366l.621-1.208-.882-.442zm.312 2.963a.354.354 0 01-.2.335.297.297 0 01-.35-.077.39.39 0 01-.005-.514.29.29 0 01.221-.096.307.307 0 01.237.097.34.34 0 01.097.255zm-10.36-9.992c.098.268.275.5.507.667.237.152.515.23.797.221.279.01.555-.067.788-.221.229-.173.401-.41.496-.68a2.29 2.29 0 00.122-.452v.49h1.637v.769h1.004v-.769h.333v-.967h-.333v-2.413h-.947l-1.648 2.45c.006-.104.008-.212.008-.327a3.415 3.415 0 00-.172-1.208 1.425 1.425 0 00-.515-.687 1.384 1.384 0 00-.794-.228 1.291 1.291 0 00-1.114.576 2.85 2.85 0 00-.343 1.583 3.24 3.24 0 00.174 1.196zm3.934-.942l.413-.605v.605h-.413zm-3.089-.24c-.007-.264.016-.529.069-.788a.616.616 0 01.165-.32.337.337 0 01.221-.08c.076 0 .19.022.299.205.125.297.175.62.146.941.024.33-.032.66-.165.961a.306.306 0 01-.28.183.347.347 0 01-.308-.2 1.803 1.803 0 01-.147-.901zm9.203-7.444l-1.033 2.02c-.099.182-.183.371-.25.567a1.35 1.35 0 00-.058.394 1.293 1.293 0 00.379.914 1.324 1.324 0 002.278-.922 1.307 1.307 0 00-.378-.957 1.242 1.242 0 00-.677-.366l.621-1.208-.882-.442zm.312 2.963a.355.355 0 01-.2.335.297.297 0 01-.35-.077.39.39 0 01-.005-.514.292.292 0 01.221-.096.307.307 0 01.237.097.359.359 0 01.075.117c.016.044.024.091.022.138zm-3.205-9.051l1.033-2.024c.099-.18.183-.369.25-.563a1.308 1.308 0 00-.32-1.309 1.325 1.325 0 00-2.279.925 1.319 1.319 0 001.059 1.322l-.624 1.21.881.439zM220.759 20a.347.347 0 01.099-.257.304.304 0 01.232-.1.294.294 0 01.219.1.354.354 0 01.099.259.358.358 0 01-.095.255.314.314 0 01-.353.07.324.324 0 01-.104-.073.357.357 0 01-.075-.117.353.353 0 01-.022-.137zm18.127 1.833a.395.395 0 00.117-.307.382.382 0 00-.162-.286.894.894 0 00-.547-.148l-.152-.002v-.905l.141-.01a.99.99 0 00.331-.067.328.328 0 00.134-.11.247.247 0 00.045-.137.187.187 0 00-.06-.142.242.242 0 00-.176-.059.302.302 0 00-.186.063.335.335 0 00-.116.163l-.033.107h-.973l.022-.173a1.278 1.278 0 011.31-1.152c.325-.008.641.112.879.334a1.07 1.07 0 01.359.808.957.957 0 01-.162.541 1.007 1.007 0 01-.199.22c.129.074.242.172.331.291.149.2.228.442.224.691.002.181-.034.361-.106.528-.073.166-.18.315-.314.437a1.474 1.474 0 01-1.052.393 1.384 1.384 0 01-.997-.372 1.444 1.444 0 01-.423-1l-.009-.161h1l.02.128a.564.564 0 00.153.342.464.464 0 00.601-.015zm-22.207-5.446a1.33 1.33 0 00.181.69c.116.2.287.363.493.467.248.108.518.159.789.148.264.009.526-.044.766-.156.207-.106.379-.27.496-.472a1.343 1.343 0 00.025-1.305 1.253 1.253 0 00-.303-.37c.077-.091.14-.192.189-.3.059-.137.089-.285.087-.435a1.21 1.21 0 00-.163-.61 1.158 1.158 0 00-.453-.442 1.49 1.49 0 00-1.311-.002 1.119 1.119 0 00-.457.432c-.11.185-.166.397-.164.612a1.158 1.158 0 00.272.75 1.372 1.372 0 00-.302.383 1.306 1.306 0 00-.145.61zm1.632-1.489a.262.262 0 01-.291.055.261.261 0 01-.159-.251.254.254 0 01.072-.189.227.227 0 01.177-.07.275.275 0 01.203.072.235.235 0 01.07.182.281.281 0 01-.015.108.282.282 0 01-.057.093zm-.172 1.048a.448.448 0 01.316.115.364.364 0 01.12.278.336.336 0 01-.113.265.543.543 0 01-.661-.008.364.364 0 01-.089-.123.365.365 0 01.004-.293.348.348 0 01.091-.116.477.477 0 01.332-.118zm-.021 2.67l-1.033 2.02c-.099.181-.183.37-.25.566a1.294 1.294 0 00.32 1.309 1.328 1.328 0 002.053-.18c.147-.22.226-.478.226-.742a1.326 1.326 0 00-.378-.958 1.249 1.249 0 00-.677-.365l.62-1.209-.881-.442zm.311 2.963a.349.349 0 01-.097.259.297.297 0 01-.351.075.309.309 0 01-.102-.077.385.385 0 01-.098-.256.387.387 0 01.094-.258.278.278 0 01.22-.096.304.304 0 01.237.098.328.328 0 01.075.117c.017.044.025.09.022.138zm2.86 14.46a.88.88 0 00.122-.395.345.345 0 00-.099-.25.374.374 0 00-.531.023.564.564 0 00-.124.366l-.005.148h-1.004l.008-.16a1.52 1.52 0 01.425-1.056 1.393 1.393 0 011.013-.392c.236-.004.469.051.676.162.201.111.366.276.479.475.113.19.174.407.176.628a1.808 1.808 0 01-.205.786c-.193.35-.436.67-.721.949l-.175.184h1.131v.965h-2.901v-.557l1.202-1.228c.205-.192.384-.41.533-.648zm-.249-22.642l-1.032 2.02c-.1.181-.183.37-.251.566-.038.128-.058.261-.058.395a1.293 1.293 0 00.379.914 1.33 1.33 0 001.45.308 1.322 1.322 0 00.828-1.23 1.308 1.308 0 00-.377-.958 1.249 1.249 0 00-.678-.365l.621-1.208-.882-.442zm.312 2.963a.367.367 0 01-.022.14.374.374 0 01-.177.194.305.305 0 01-.249 0 .3.3 0 01-.102-.077.39.39 0 01-.004-.514.278.278 0 01.22-.096.306.306 0 01.237.098.343.343 0 01.097.255zm-4.408 16.613l1.367-2.799h-1.479V29.2h2.765l-.015.595-1.76 3.606-.878-.427zm2.74-6.973a2.09 2.09 0 01.274-1.073c.187-.319.458-.58.783-.757a2.255 2.255 0 012.049-.075c.305.138.576.342.794.597l.094.11-.716.682-.105-.112a1.393 1.393 0 00-1.034-.49 1.102 1.102 0 00-1.12 1.12c-.004.206.045.409.143.59.093.169.233.307.403.399a1.282 1.282 0 001.091.043c.194-.1.37-.232.52-.39l.111-.11.697.725-.108.107c-.238.248-.521.45-.833.593a2.29 2.29 0 01-.903.17 2.094 2.094 0 01-1.539-.599c-.199-.2-.355-.44-.459-.703a2.087 2.087 0 01-.142-.827zm4.423 12.472h1.004v-.769h.333v-.967h-.333v-2.413h-.947l-1.668 2.48-.026.04v.86h1.637v.769zm-.412-1.736l.412-.605v.605h-.412zm-6.54-9.008a1.328 1.328 0 002.053-.18 1.33 1.33 0 00.226-.741 1.326 1.326 0 00-.378-.958 1.249 1.249 0 00-.677-.366l.62-1.208-.881-.442-1.033 2.02a3.65 3.65 0 00-.25.567 1.295 1.295 0 00.32 1.308zm.626-.932a.357.357 0 01.094-.256.279.279 0 01.22-.096.304.304 0 01.237.097.34.34 0 01.098.255.368.368 0 01-.098.26.298.298 0 01-.453-.002.347.347 0 01-.098-.258zm5.418 16.84c.248.108.518.159.788.148a1.68 1.68 0 00.766-.156c.207-.106.38-.27.496-.472.121-.205.184-.44.183-.678a1.284 1.284 0 00-.46-.998c.076-.09.14-.192.189-.3.059-.137.089-.285.087-.434a1.21 1.21 0 00-.164-.61 1.15 1.15 0 00-.452-.442 1.494 1.494 0 00-1.312-.002c-.19.098-.349.247-.457.432a1.174 1.174 0 00-.163.611c-.001.161.032.32.097.468.045.102.104.197.174.283a1.295 1.295 0 00-.447.992c-.003.243.06.482.182.691.115.2.287.362.493.466zm.958-2.646a.268.268 0 01-.292.054.264.264 0 01-.158-.25.237.237 0 01.016-.102.236.236 0 01.056-.087.223.223 0 01.177-.07.268.268 0 01.202.071.234.234 0 01.07.183.264.264 0 01-.071.201zm-.173 1.048a.447.447 0 01.316.115.36.36 0 01.12.277.33.33 0 01-.112.266.547.547 0 01-.661-.008.353.353 0 01-.118-.273c0-.05.011-.098.033-.143a.324.324 0 01.091-.116.475.475 0 01.331-.118zm-3.717 6.743a1.4 1.4 0 00.797.222c.28.01.556-.068.789-.222a1.46 1.46 0 00.496-.679 4.322 4.322 0 00.003-2.428 1.423 1.423 0 00-.514-.687 1.39 1.39 0 00-.795-.227 1.291 1.291 0 00-1.113.575 2.834 2.834 0 00-.343 1.583 3.24 3.24 0 00.173 1.196c.099.268.275.5.507.667zm.339-1.848c-.008-.265.015-.53.069-.788a.609.609 0 01.165-.321.333.333 0 01.22-.08c.076 0 .19.023.3.206.124.297.174.62.145.94.025.33-.032.66-.165.962a.306.306 0 01-.28.182.342.342 0 01-.307-.199 1.792 1.792 0 01-.147-.902zm-6.691-24.91c.098.267.275.5.507.666a1.4 1.4 0 00.797.222c.279.01.555-.067.788-.222.229-.173.401-.409.496-.679a3.37 3.37 0 00.176-1.22 3.395 3.395 0 00-.173-1.208 1.417 1.417 0 00-.514-.686 1.384 1.384 0 00-.794-.228 1.291 1.291 0 00-1.114.575 2.85 2.85 0 00-.343 1.583 3.22 3.22 0 00.174 1.196zm.845-1.182c-.007-.264.016-.529.069-.788a.616.616 0 01.165-.321.336.336 0 01.221-.08c.076 0 .19.023.299.206.125.297.175.62.146.941.024.33-.032.66-.165.961a.306.306 0 01-.28.183.348.348 0 01-.308-.2 1.803 1.803 0 01-.147-.902zm-.845 11.618c.098.268.275.5.507.667.237.152.515.23.797.221.279.01.555-.067.788-.221.229-.173.401-.41.496-.68a4.322 4.322 0 00.003-2.428 1.416 1.416 0 00-.514-.686 1.384 1.384 0 00-.794-.228 1.293 1.293 0 00-1.114.576 2.85 2.85 0 00-.343 1.583 3.22 3.22 0 00.174 1.196zm.845-1.181c-.007-.265.016-.53.069-.789a.616.616 0 01.165-.32.336.336 0 01.221-.08c.076 0 .19.022.299.205.125.297.175.62.146.942.024.329-.032.659-.165.96a.304.304 0 01-.28.183.347.347 0 01-.308-.2 1.803 1.803 0 01-.147-.901zm9.233-13.533l1.033-2.024c.099-.18.183-.369.25-.563a1.297 1.297 0 00-.321-1.309 1.323 1.323 0 00-2.053.182c-.147.22-.226.479-.225.743a1.319 1.319 0 001.058 1.322l-.623 1.21.881.439zm-.312-2.964a.367.367 0 01.099-.257.319.319 0 01.233-.1.295.295 0 01.218.1.343.343 0 01.099.259.358.358 0 01-.094.255.314.314 0 01-.457-.003.342.342 0 01-.098-.254zm-3.814 18.192l1.367-2.799h-1.48V29.2h2.766l-.015.595-1.76 3.606-.878-.427zm2.81-14.21h2.766l-.015.594-1.76 3.607-.878-.428 1.367-2.798h-1.48v-.976zm-3.144 30.145h-2.902v-.557l1.202-1.228a3.24 3.24 0 00.533-.647.88.88 0 00.122-.396.327.327 0 00-.224-.325.373.373 0 00-.406.099.564.564 0 00-.124.366l-.005.148h-1.004l.008-.16a1.52 1.52 0 01.425-1.057 1.405 1.405 0 011.014-.391c.235-.005.468.05.676.161.2.111.366.276.478.476.113.19.174.406.177.628a1.796 1.796 0 01-.206.785c-.192.35-.435.67-.721.949l-.175.184h1.132v.965zm.049-8.678l-1.76 3.606-.878-.427 1.367-2.798h-1.479v-.976h2.765l-.015.595zm1.458-.742l-1.032 2.02c-.1.182-.183.371-.251.567-.038.128-.058.26-.058.394a1.293 1.293 0 00.379.915 1.33 1.33 0 001.45.307 1.322 1.322 0 00.828-1.23 1.308 1.308 0 00-.377-.957 1.249 1.249 0 00-.678-.366l.621-1.208-.882-.442zm.312 2.963a.367.367 0 01-.022.14.374.374 0 01-.177.195.305.305 0 01-.249 0 .3.3 0 01-.102-.077.39.39 0 01-.004-.514.278.278 0 01.22-.096.307.307 0 01.237.097.343.343 0 01.097.255zm-4.742-30.07h-2.902v-.558l1.202-1.228c.205-.192.385-.41.534-.647a.879.879 0 00.121-.396.327.327 0 00-.224-.326.37.37 0 00-.405.1.56.56 0 00-.125.365l-.004.149h-1.004l.007-.16c0-.395.152-.773.426-1.057a1.394 1.394 0 011.013-.391 1.38 1.38 0 01.676.161c.2.111.366.276.478.476.114.19.175.406.177.628a1.808 1.808 0 01-.205.785c-.193.35-.436.67-.721.949l-.176.184h1.132v.965zm1.701-8.298h-1.479v-.976h2.765l-.015.595-1.759 3.606-.879-.427 1.367-2.798zm-2.923 0h-1.479v-.976h2.765l-.015.595-1.759 3.606-.879-.427 1.367-2.798zm1.709 49.765a1.444 1.444 0 01-.423-1l-.009-.161h1l.02.129c.01.128.065.249.154.342a.466.466 0 00.6-.015.394.394 0 00.117-.308.382.382 0 00-.162-.286.896.896 0 00-.548-.148l-.151-.002v-.905l.141-.01a.988.988 0 00.331-.067.328.328 0 00.134-.11.247.247 0 00.045-.137.186.186 0 00-.06-.142.239.239 0 00-.176-.059.303.303 0 00-.186.063.336.336 0 00-.117.163l-.032.107h-.973l.022-.172a1.273 1.273 0 011.31-1.153c.325-.008.641.112.879.334a1.083 1.083 0 01.359.808.957.957 0 01-.162.541 1.008 1.008 0 01-.199.22c.129.074.242.173.331.291.15.2.228.442.224.691.002.182-.034.361-.106.528-.073.166-.18.316-.314.437a1.474 1.474 0 01-1.052.393 1.383 1.383 0 01-.997-.371zm-1.909.372a1.322 1.322 0 00.937-.385 1.31 1.31 0 00.386-.937 1.308 1.308 0 00-.378-.958 1.242 1.242 0 00-.677-.365l.62-1.208-.881-.443-1.033 2.021c-.099.181-.183.37-.25.567a1.317 1.317 0 00.321 1.308 1.268 1.268 0 00.955.4zm-.33-1.332a.357.357 0 01.094-.257.292.292 0 01.221-.096.307.307 0 01.236.098.346.346 0 01.098.255.35.35 0 01-.098.259.297.297 0 01-.452-.002.353.353 0 01-.099-.257zm-.949 2.402h2.765l-.015.595-1.759 3.607-.879-.428 1.367-2.798h-1.479v-.976zm7.124-48.034a1.318 1.318 0 001.323-1.322 1.307 1.307 0 00-.377-.958 1.248 1.248 0 00-.678-.366l.621-1.208-.882-.442-1.032 2.02c-.1.182-.184.371-.251.567-.038.128-.058.26-.058.394a1.293 1.293 0 00.379.915 1.277 1.277 0 00.955.4zm-.33-1.333a.362.362 0 01.095-.256.278.278 0 01.22-.096.307.307 0 01.237.097.343.343 0 01.097.255.367.367 0 01-.022.14.374.374 0 01-.177.196.301.301 0 01-.351-.078.352.352 0 01-.099-.258zM214.227 48.7a1.429 1.429 0 01-.505-.834l-.042-.186h1.034l.043.084a.493.493 0 00.176.207.41.41 0 00.518-.059.506.506 0 00.011-.653.33.33 0 00-.421-.077.7.7 0 00-.182.144l-.061.064-.814-.182.511-2.352h2.034v.967h-1.253l-.076.338h.042a1.28 1.28 0 01.957.395 1.38 1.38 0 01.381.996 1.413 1.413 0 01-.417 1.031 1.387 1.387 0 01-1.017.422c-.332.007-.657-.1-.919-.304zm5.202-39.552a1.417 1.417 0 00-.514-.687 1.384 1.384 0 00-.794-.228 1.296 1.296 0 00-1.114.576 2.842 2.842 0 00-.343 1.583 3.22 3.22 0 00.174 1.196c.098.268.274.5.506.667.238.152.516.23.798.222.279.01.555-.068.788-.222.228-.173.401-.409.496-.68a2.29 2.29 0 00.122-.452v.49h1.636v.77h1.005v-.77h.332v-.966h-.332V8.233h-.948l-1.647 2.449a5.66 5.66 0 00.008-.327c.015-.41-.043-.82-.173-1.208zm-.847 1.217c.025.329-.031.659-.164.96a.306.306 0 01-.281.183.34.34 0 01-.307-.199 1.792 1.792 0 01-.147-.902c-.008-.265.015-.53.069-.789a.616.616 0 01.165-.32.334.334 0 01.22-.08c.077 0 .191.023.3.206.125.297.175.62.145.94zm2.19.282l.412-.606v.606h-.412zm10.485.69l-.042-.185h1.034l.043.084a.492.492 0 00.176.207.408.408 0 00.518-.059.506.506 0 00.011-.653.329.329 0 00-.422-.077.694.694 0 00-.181.144l-.061.064-.814-.182.511-2.352h2.034v.967h-1.253l-.077.338h.042a1.28 1.28 0 01.958.395 1.38 1.38 0 01.381.996 1.413 1.413 0 01-.417 1.031 1.387 1.387 0 01-1.018.422c-.332.007-.656-.1-.918-.305a1.429 1.429 0 01-.505-.834zm1.666-7.252h-1.479v-.976h2.765l-.015.595-1.759 3.606-.879-.427 1.367-2.798zm-3.344 1.577l-.623 1.21.881.438 1.033-2.023c.099-.18.183-.37.25-.564a1.297 1.297 0 00-.321-1.308 1.323 1.323 0 00-2.053.182c-.147.22-.226.478-.225.743a1.319 1.319 0 001.058 1.321zm-.054-1.315a.366.366 0 01.099-.258.319.319 0 01.233-.1.295.295 0 01.218.1.351.351 0 01.099.26.358.358 0 01-.094.254.314.314 0 01-.353.07.342.342 0 01-.202-.326zm4.635 1.187v.86h1.636v.77h1.005v-.77h.332v-.966h-.332V3.014h-.948l-1.668 2.48-.025.04zm1.224-.106l.412-.606v.606h-.412zm-8.506 1.83a1.314 1.314 0 001.224-.815c.067-.161.1-.333.1-.507a1.321 1.321 0 00-.378-.958 1.245 1.245 0 00-.677-.366l.62-1.208-.881-.442-1.033 2.02c-.099.182-.183.371-.25.567a1.294 1.294 0 00.321 1.308 1.267 1.267 0 00.954.4zm-.329-1.333a.357.357 0 01.094-.256.291.291 0 01.22-.096.309.309 0 01.237.097.34.34 0 01.098.255.368.368 0 01-.098.26.298.298 0 01-.452-.002.354.354 0 01-.099-.258zm-3.35 1.184c.248.109.517.16.788.149.264.009.526-.045.766-.156.207-.107.38-.27.496-.472.121-.206.184-.44.183-.678a1.285 1.285 0 00-.46-.998 1.081 1.081 0 00.276-.734 1.21 1.21 0 00-.164-.61 1.15 1.15 0 00-.452-.443 1.495 1.495 0 00-1.312-.001c-.19.097-.349.247-.457.432a1.174 1.174 0 00-.163.611c-.001.161.032.32.097.468.045.101.104.197.174.283a1.295 1.295 0 00-.447.992c-.003.243.06.482.182.691.115.2.287.362.493.466zm.957-2.645a.256.256 0 01-.185.077.264.264 0 01-.264-.273.238.238 0 01.016-.103.237.237 0 01.056-.086.224.224 0 01.177-.07.272.272 0 01.202.071.235.235 0 01.07.183.28.28 0 01-.071.2h-.001zm-.172 1.048a.447.447 0 01.316.115.36.36 0 01.12.277.333.333 0 01-.112.265.548.548 0 01-.661-.007.352.352 0 01-.119-.273.34.34 0 01.125-.259.475.475 0 01.331-.118zm4.05 2.722h-.947l-1.669 2.48-.025.039v.86h1.637v.77h1.004v-.77h.333v-.966h-.333V8.233zm-1.416 2.413l.412-.606v.606h-.412zm2.961.233l-.623 1.21.881.44 1.033-2.024c.099-.18.183-.37.25-.564a1.297 1.297 0 00-.321-1.308 1.323 1.323 0 00-2.053.182c-.147.22-.226.478-.225.743a1.319 1.319 0 001.058 1.321zm-.054-1.314a.366.366 0 01.099-.258.319.319 0 01.233-.1.295.295 0 01.218.1.351.351 0 01.099.26.358.358 0 01-.094.254.314.314 0 01-.457-.003.342.342 0 01-.098-.253zm19.762 40.64a1.384 1.384 0 00-.794-.227 1.293 1.293 0 00-1.114.576 2.85 2.85 0 00-.343 1.582c-.017.406.042.812.174 1.197.098.268.275.5.507.666.237.153.515.23.797.222.28.01.555-.067.788-.221.229-.173.401-.41.497-.68a4.34 4.34 0 00.003-2.428 1.419 1.419 0 00-.515-.686zm-.332 1.904c.025.33-.032.66-.165.961a.306.306 0 01-.28.183.347.347 0 01-.308-.2 1.803 1.803 0 01-.147-.902c-.007-.264.016-.529.069-.788a.616.616 0 01.165-.32.336.336 0 01.221-.08c.076 0 .19.022.299.205.125.297.175.62.146.941zm-4.251 6.272h1.132v.965h-2.902v-.558l1.202-1.227c.205-.192.385-.41.534-.648a.879.879 0 00.121-.395.327.327 0 00-.099-.25.374.374 0 00-.53.023.56.56 0 00-.125.366l-.004.148h-1.005l.008-.16c0-.394.152-.773.426-1.057a1.395 1.395 0 011.013-.39c.235-.005.468.05.676.161.2.11.366.276.478.475.114.19.175.407.177.628a1.796 1.796 0 01-.206.786c-.192.35-.435.669-.721.948l-.175.185zm1.147-5.22h1.131v.966h-2.901v-.558l1.202-1.227c.205-.192.384-.41.533-.648a.893.893 0 00.122-.395.346.346 0 00-.099-.25.383.383 0 00-.27-.098.375.375 0 00-.261.121.565.565 0 00-.124.366l-.005.148h-1.004l.007-.16c0-.394.153-.773.426-1.057a1.393 1.393 0 011.013-.39c.236-.005.468.05.676.161.201.111.366.276.478.475.114.19.175.407.177.628a1.808 1.808 0 01-.205.786c-.193.35-.436.67-.721.948l-.175.185zm-7.015 3.634l.621-1.208-.882-.443-1.032 2.02c-.1.182-.184.372-.251.567a1.35 1.35 0 00-.058.395 1.292 1.292 0 00.379.914 1.328 1.328 0 001.45.308 1.322 1.322 0 00.828-1.23 1.307 1.307 0 00-.377-.958 1.249 1.249 0 00-.678-.365zm.051 1.313a.355.355 0 01-.2.335.297.297 0 01-.35-.078.39.39 0 01-.005-.514.29.29 0 01.221-.096.306.306 0 01.237.098.34.34 0 01.097.255zm-22.055-2.817h2.765l-.015.596-1.76 3.606-.878-.428 1.367-2.798h-1.479v-.976zm21.355-45.45h-1.004l.007-.16c0-.395.153-.773.426-1.057a1.394 1.394 0 011.013-.391c.236-.005.468.05.676.161.201.111.366.276.478.476.114.19.175.406.177.628a1.808 1.808 0 01-.205.785c-.193.35-.436.67-.721.949l-.175.184h1.131v.965h-2.901v-.557l1.202-1.228a3.24 3.24 0 00.533-.647.892.892 0 00.122-.396.345.345 0 00-.099-.249.385.385 0 00-.27-.1.373.373 0 00-.261.123.564.564 0 00-.124.366l-.005.148zm15.927 31.664a1.248 1.248 0 00-.678-.366l.621-1.208-.882-.442-1.032 2.02c-.1.182-.183.371-.251.567-.038.128-.058.26-.058.394a1.293 1.293 0 00.379.915 1.33 1.33 0 001.45.307 1.322 1.322 0 00.828-1.23 1.308 1.308 0 00-.377-.957zm-.627.947a.356.356 0 01-.2.335.296.296 0 01-.248 0 .3.3 0 01-.102-.077.39.39 0 01-.004-.514.279.279 0 01.22-.096.307.307 0 01.237.097.343.343 0 01.097.255zm-4.411 5.492h1.132v.965h-2.902v-.557l1.202-1.228c.205-.192.385-.41.534-.647a.879.879 0 00.121-.396.327.327 0 00-.224-.325.37.37 0 00-.405.099.56.56 0 00-.125.366l-.004.148H247.4l.008-.16c0-.395.152-.773.426-1.057a1.395 1.395 0 011.013-.391c.235-.005.468.05.676.161.2.111.366.276.478.476.114.19.175.406.177.628a1.796 1.796 0 01-.206.785c-.192.35-.435.67-.72.949l-.176.184zm3.437-2.956a1.386 1.386 0 00-.794-.227 1.293 1.293 0 00-1.114.575 2.842 2.842 0 00-.343 1.583 3.22 3.22 0 00.174 1.196c.098.268.274.5.506.667.238.153.516.23.798.222.279.01.555-.068.788-.222a1.46 1.46 0 00.496-.679 4.322 4.322 0 00.003-2.428 1.417 1.417 0 00-.514-.687zm-.333 1.904c.025.329-.032.659-.165.96a.306.306 0 01-.28.184.342.342 0 01-.307-.2 1.792 1.792 0 01-.147-.902c-.008-.265.015-.53.069-.788a.608.608 0 01.165-.321.332.332 0 01.22-.08c.077 0 .19.023.3.206.124.297.174.62.145.94zm-9.678 10.099a1.378 1.378 0 01.381.997 1.414 1.414 0 01-.417 1.031 1.388 1.388 0 01-1.017.421 1.45 1.45 0 01-.919-.304 1.43 1.43 0 01-.505-.835l-.042-.186h1.034l.043.084a.491.491 0 00.176.207.411.411 0 00.518-.059.506.506 0 00.011-.653.326.326 0 00-.421-.076.699.699 0 00-.182.143l-.061.065-.814-.183.511-2.352h2.034v.967h-1.253l-.076.339h.042a1.28 1.28 0 01.957.394zm-21.201-5.415l.621-1.208-.881-.442-1.033 2.02c-.1.181-.183.37-.25.567a1.35 1.35 0 00-.059.394 1.29 1.29 0 00.379.914 1.33 1.33 0 001.45.308 1.321 1.321 0 00.829-1.23 1.327 1.327 0 00-.378-.958 1.248 1.248 0 00-.678-.365zm.051 1.313a.367.367 0 01-.022.14.374.374 0 01-.177.195.3.3 0 01-.351-.077.39.39 0 01-.004-.515.279.279 0 01.22-.096.307.307 0 01.237.098.344.344 0 01.097.255zm3.62 4.247c.076-.09.14-.191.189-.3.059-.136.089-.285.087-.434a1.21 1.21 0 00-.164-.61 1.15 1.15 0 00-.452-.442 1.494 1.494 0 00-1.312-.002c-.19.098-.349.248-.457.432a1.174 1.174 0 00-.163.612c-.001.16.032.32.097.467.045.102.104.197.174.283a1.295 1.295 0 00-.447.992c-.003.243.06.482.182.692.115.2.287.362.493.466.248.108.518.159.788.148a1.68 1.68 0 00.766-.156c.207-.106.38-.27.496-.472.121-.205.184-.44.183-.677a1.284 1.284 0 00-.46-.998zm-.815-.49a.271.271 0 01-.186.077.264.264 0 01-.264-.273.238.238 0 01.016-.102.236.236 0 01.056-.087.226.226 0 01.177-.07.27.27 0 01.202.072.235.235 0 01.071.183.282.282 0 01-.072.2zm-.504 1.166a.475.475 0 01.331-.118.446.446 0 01.316.115c.039.035.07.078.091.126.02.048.03.1.029.152a.333.333 0 01-.112.265.546.546 0 01-.661-.008.351.351 0 01-.118-.272c0-.05.011-.099.033-.144a.326.326 0 01.091-.116zm-2.352-1.017l.621-1.208-.881-.443-1.033 2.02c-.1.182-.183.372-.25.567a1.35 1.35 0 00-.059.395 1.292 1.292 0 00.379.914 1.328 1.328 0 001.45.308 1.322 1.322 0 00.829-1.23 1.326 1.326 0 00-.378-.958 1.249 1.249 0 00-.678-.365zm.051 1.313a.368.368 0 01-.022.14.374.374 0 01-.177.195.3.3 0 01-.351-.078.39.39 0 01-.004-.514.278.278 0 01.22-.096.306.306 0 01.237.098.342.342 0 01.097.255zm5.795-1.313l.62-1.208-.881-.443-1.033 2.02c-.099.182-.183.372-.25.567a1.317 1.317 0 00.321 1.309 1.32 1.32 0 001.45.308 1.327 1.327 0 00.828-1.23 1.325 1.325 0 00-.378-.958 1.242 1.242 0 00-.677-.365zm.051 1.313a.369.369 0 01-.098.259.297.297 0 01-.452-.002.39.39 0 01-.005-.514.29.29 0 01.221-.096.306.306 0 01.236.098.345.345 0 01.098.255zm6.996-2.221l-1.759 3.606-.879-.428 1.367-2.798h-1.479v-.976h2.765l-.015.596zm2.607-.69h-.947l-1.669 2.48-.025.04v.86h1.637v.769h1.004v-.77h.333v-.966h-.333v-2.413zm-1.417 2.413l.413-.605v.605h-.413zm-5.541-2.413a1.315 1.315 0 00-1.223.817c-.066.161-.1.334-.099.508a1.319 1.319 0 001.058 1.322l-.623 1.21.881.439 1.033-2.024a3.63 3.63 0 00.25-.563 1.296 1.296 0 00-.321-1.308 1.266 1.266 0 00-.956-.401zm.331 1.334a.358.358 0 01-.094.255.315.315 0 01-.353.07.34.34 0 01-.202-.326.366.366 0 01.099-.258.317.317 0 01.233-.1.295.295 0 01.219.1.355.355 0 01.098.259zm17.628-24.426l-.175.184h1.132v.965h-2.902v-.557l1.202-1.228c.205-.192.384-.41.533-.648a.88.88 0 00.122-.395.328.328 0 00-.224-.326.378.378 0 00-.406.1.564.564 0 00-.124.365l-.005.149h-1.004l.008-.16a1.52 1.52 0 01.425-1.057 1.403 1.403 0 011.014-.392 1.38 1.38 0 01.676.162c.2.111.365.276.478.475.113.19.174.407.177.628a1.81 1.81 0 01-.206.786c-.193.35-.435.67-.721.948zm-3.345-7.643a2.834 2.834 0 00-.343 1.583 3.24 3.24 0 00.173 1.196c.099.268.275.5.507.667a1.4 1.4 0 00.797.222c.28.01.556-.068.789-.222a1.46 1.46 0 00.496-.68 4.323 4.323 0 00.003-2.427 1.423 1.423 0 00-.514-.687 1.39 1.39 0 00-.795-.228 1.292 1.292 0 00-1.113.576zm1.43.614c.124.298.174.62.145.942.025.329-.032.659-.165.96a.306.306 0 01-.28.183.342.342 0 01-.307-.199 1.792 1.792 0 01-.147-.902c-.008-.265.015-.53.069-.789a.609.609 0 01.165-.32.332.332 0 01.22-.08c.076 0 .19.023.3.205zm-7.319-17.82a1.318 1.318 0 001.323-1.321 1.307 1.307 0 00-.377-.958 1.248 1.248 0 00-.678-.366l.621-1.208-.882-.442-1.032 2.02c-.1.182-.184.371-.251.567a1.35 1.35 0 00-.058.394 1.293 1.293 0 00.379.915 1.277 1.277 0 00.955.4zm-.33-1.332a.357.357 0 01.094-.256.291.291 0 01.221-.096.307.307 0 01.237.097.34.34 0 01.097.255.355.355 0 01-.2.335.296.296 0 01-.35-.077.354.354 0 01-.099-.258zm3.26 23.129l-1.033 2.02c-.099.182-.183.371-.25.567a1.317 1.317 0 00.321 1.308 1.32 1.32 0 001.45.308 1.327 1.327 0 00.828-1.23 1.325 1.325 0 00-.378-.957 1.242 1.242 0 00-.677-.366l.62-1.208-.881-.442zm.312 2.963a.35.35 0 01-.098.26.297.297 0 01-.452-.002.39.39 0 01-.005-.514.292.292 0 01.221-.096.307.307 0 01.236.097.345.345 0 01.098.255zm5.523-13.4l-1.033 2.02c-.099.182-.183.372-.25.567a1.294 1.294 0 00.321 1.309 1.32 1.32 0 001.45.308 1.327 1.327 0 00.828-1.23 1.326 1.326 0 00-.378-.958 1.242 1.242 0 00-.677-.365l.62-1.209-.881-.442zm.312 2.964a.368.368 0 01-.098.259.297.297 0 01-.351.075.297.297 0 01-.101-.077.391.391 0 01-.005-.514.29.29 0 01.221-.096.307.307 0 01.236.098.345.345 0 01.098.255zm-4.542 5.306l-.175.184h1.132v.965h-2.902v-.558l1.202-1.227a3.24 3.24 0 00.533-.648.88.88 0 00.122-.395.327.327 0 00-.099-.249.374.374 0 00-.531.023.564.564 0 00-.124.365l-.005.149h-1.004l.008-.16a1.52 1.52 0 01.425-1.057 1.405 1.405 0 011.014-.392c.235-.004.468.052.676.162.2.111.366.276.478.476.113.19.174.406.177.627a1.81 1.81 0 01-.206.786c-.192.35-.435.67-.721.948zm-4.364 8.763a1.3 1.3 0 00.377.955c.183.191.421.32.681.367l-.624 1.21.882.439 1.032-2.023c.099-.181.183-.37.251-.564a1.339 1.339 0 00-.04-.889 1.295 1.295 0 00-.281-.42 1.325 1.325 0 00-2.278.925zm1.004.008a.347.347 0 01.099-.258.304.304 0 01.232-.1.288.288 0 01.219.1.354.354 0 01.099.26.358.358 0 01-.095.254.31.31 0 01-.229.096.319.319 0 01-.228-.1.339.339 0 01-.074-.116.336.336 0 01-.023-.136zm3.155 2.91a1.45 1.45 0 01-.919-.304 1.429 1.429 0 01-.505-.835l-.042-.186h1.034l.044.084a.49.49 0 00.175.207.413.413 0 00.519-.058.51.51 0 00.01-.654.327.327 0 00-.421-.076.694.694 0 00-.181.144l-.062.064-.814-.183.512-2.351h2.033v.966h-1.253l-.076.34h.042a1.278 1.278 0 01.958.393 1.36 1.36 0 01.38.997c.005.191-.03.381-.102.558a1.425 1.425 0 01-.314.473 1.383 1.383 0 01-1.018.422zm2.31-19.67a1.39 1.39 0 00-.795-.228 1.291 1.291 0 00-1.113.575 2.843 2.843 0 00-.344 1.583c-.017.406.042.812.174 1.196.098.268.275.5.507.667a1.4 1.4 0 00.797.222c.28.01.555-.067.789-.222a1.46 1.46 0 00.496-.679c.132-.392.192-.806.175-1.22a3.393 3.393 0 00-.172-1.208 1.423 1.423 0 00-.514-.686zm-.333 1.903c.025.33-.032.66-.165.961a.306.306 0 01-.28.183.347.347 0 01-.308-.2 1.803 1.803 0 01-.146-.902c-.008-.264.015-.529.069-.788a.614.614 0 01.164-.32.337.337 0 01.221-.08c.076 0 .19.022.3.205.124.297.174.62.145.941zm-2.463 22.601a1.272 1.272 0 00.389-.938 1.326 1.326 0 00-.378-.958 1.248 1.248 0 00-.678-.366l.621-1.208-.881-.442-1.033 2.02c-.1.182-.183.371-.25.567a1.294 1.294 0 00.32 1.309 1.342 1.342 0 00.942.4 1.328 1.328 0 00.948-.384zm-1.265-.949a.362.362 0 01.095-.256.279.279 0 01.22-.096.307.307 0 01.237.097.342.342 0 01.097.255.358.358 0 01-.199.335.303.303 0 01-.351-.077.35.35 0 01-.099-.258zm8.105-5.129l-.176.185h1.132v.965h-2.902v-.557l1.202-1.228c.205-.192.385-.41.534-.648a.879.879 0 00.121-.395.327.327 0 00-.224-.326.368.368 0 00-.405.1.56.56 0 00-.125.365l-.004.149h-1.004l.007-.16c0-.395.152-.774.426-1.058a1.395 1.395 0 011.013-.39c.235-.005.468.05.676.161.2.111.366.276.478.475.114.19.175.407.177.628a1.808 1.808 0 01-.205.786c-.193.35-.436.67-.721.948zm-7.564-23.873l-1.668 2.48-.025.04v.86h1.637v.769h1.004v-.77h.332v-.966h-.332V13.45h-.948zm-.469 2.413l.413-.605v.605h-.413zm6.37.738a.506.506 0 00.011-.654.326.326 0 00-.421-.076.7.7 0 00-.182.143l-.061.065-.814-.183.511-2.352h2.034v.967h-1.253l-.076.339h.042a1.28 1.28 0 01.957.394 1.38 1.38 0 01.381.997 1.413 1.413 0 01-.417 1.031 1.377 1.377 0 01-1.017.421c-.332.007-.657-.1-.919-.304a1.429 1.429 0 01-.505-.835l-.042-.186h1.034l.043.084a.492.492 0 00.176.207.411.411 0 00.518-.058zm-.571 21.872v-.769h.333v-.967h-.333v-2.413h-.947l-1.668 2.48-.026.04v.86h1.637v.769h1.004zm-1.416-1.736l.412-.605v.605h-.412zm-1.165 7.1l1.033-2.023c.099-.18.183-.37.25-.564a1.297 1.297 0 00-.32-1.309 1.326 1.326 0 00-2.279.926 1.319 1.319 0 001.059 1.322l-.624 1.21.881.438zm-.311-2.963a.347.347 0 01.099-.258.305.305 0 01.451 0 .355.355 0 01.099.26.359.359 0 01-.095.254.313.313 0 01-.353.07.342.342 0 01-.201-.326zm-4.155-15.272a.879.879 0 00.121-.395.328.328 0 00-.224-.326.37.37 0 00-.405.1.56.56 0 00-.125.365l-.004.149h-1.004l.007-.16c0-.395.152-.774.426-1.057a1.393 1.393 0 011.013-.392 1.38 1.38 0 01.676.162c.2.111.366.276.478.475.114.19.175.407.177.628a1.808 1.808 0 01-.205.786c-.193.35-.436.67-.721.949l-.176.184h1.132v.965h-2.902v-.557l1.202-1.228c.205-.192.385-.41.534-.648zm1.765-5.217a.88.88 0 00.122-.396.327.327 0 00-.224-.326.373.373 0 00-.406.1.564.564 0 00-.124.366l-.005.148h-1.004l.008-.16a1.52 1.52 0 01.425-1.057 1.405 1.405 0 011.014-.391c.235-.005.468.051.676.162.2.11.366.275.478.475.113.19.174.407.177.628a1.81 1.81 0 01-.206.785c-.192.35-.435.67-.721.95l-.175.183h1.132v.966h-2.902v-.558l1.202-1.227a3.24 3.24 0 00.533-.648zm-1.681 28.671l1.032-2.023c.099-.18.183-.37.251-.564a1.34 1.34 0 00-.04-.888 1.294 1.294 0 00-.281-.42 1.325 1.325 0 00-2.278.925 1.3 1.3 0 00.377.954c.183.192.421.32.681.367l-.624 1.21.882.44zm-.312-2.963a.347.347 0 01.099-.258.303.303 0 01.232-.1.288.288 0 01.219.1.354.354 0 01.099.26.358.358 0 01-.095.254.31.31 0 01-.353.07.338.338 0 01-.178-.19.336.336 0 01-.023-.136zm3.978-16.893h2.034v.966h-1.253l-.077.34h.042a1.282 1.282 0 01.958.393 1.378 1.378 0 01.381.997 1.405 1.405 0 01-.417 1.031 1.387 1.387 0 01-1.018.422c-.332.006-.656-.101-.918-.305a1.436 1.436 0 01-.506-.835l-.042-.186h1.035l.043.084a.497.497 0 00.175.207.412.412 0 00.519-.058.51.51 0 00.011-.654.33.33 0 00-.422-.076.694.694 0 00-.181.144l-.061.064-.814-.183.511-2.351zm3.816-19.897h-1.479v-.976h2.765l-.015.595-1.76 3.606-.878-.427 1.367-2.798zm-3.11 38.33l-.009-.163h1l.019.13a.563.563 0 00.154.341.465.465 0 00.6-.015.382.382 0 00.117-.307.383.383 0 00-.162-.286.89.89 0 00-.547-.149l-.152-.001v-.906l.141-.01a.993.993 0 00.332-.066.332.332 0 00.133-.111.247.247 0 00.045-.137.188.188 0 00-.014-.077.189.189 0 00-.046-.065.24.24 0 00-.175-.058.298.298 0 00-.186.063.33.33 0 00-.117.163l-.033.106h-.973l.023-.172a1.272 1.272 0 011.31-1.152c.325-.008.64.112.878.334a1.074 1.074 0 01.36.808.965.965 0 01-.362.761c.13.073.242.172.332.29.149.2.227.443.223.692a1.269 1.269 0 01-.42.965 1.475 1.475 0 01-1.052.393 1.383 1.383 0 01-.997-.372 1.443 1.443 0 01-.422-1zm4.367-7.402l-1.759 3.606-.879-.427 1.367-2.798h-1.479v-.976h2.765l-.015.595zm-4.18-30.928h-1.479v-.976h2.765l-.015.595-1.759 3.606-.879-.427 1.367-2.798zm5.254 5.755h-1.005l.008-.16a1.52 1.52 0 01.425-1.057 1.403 1.403 0 011.014-.391c.235-.005.468.051.676.162.2.11.366.275.478.475.113.19.174.407.177.628a1.81 1.81 0 01-.206.785 4.05 4.05 0 01-.721.95l-.175.184h1.132v.965h-2.902v-.558l1.202-1.227a3.28 3.28 0 00.534-.648.891.891 0 00.121-.396.327.327 0 00-.224-.325.373.373 0 00-.406.1.564.564 0 00-.124.365l-.004.148zm-8.114-8.894a.506.506 0 00.011-.653.326.326 0 00-.421-.077.699.699 0 00-.182.144l-.061.065-.814-.183.511-2.352h2.034v.967h-1.253l-.076.338h.042a1.28 1.28 0 01.957.395 1.379 1.379 0 01.381.996 1.413 1.413 0 01-.417 1.031 1.377 1.377 0 01-1.017.422 1.45 1.45 0 01-.919-.304 1.43 1.43 0 01-.505-.835l-.042-.186h1.034l.043.084a.492.492 0 00.176.207.411.411 0 00.518-.059zm.541 2.296a1.384 1.384 0 00-.794-.227 1.292 1.292 0 00-1.114.575 2.85 2.85 0 00-.343 1.583c-.017.406.042.812.174 1.196.098.268.275.5.507.667a1.4 1.4 0 00.797.222c.28.01.555-.068.788-.222.229-.173.401-.409.497-.679.132-.393.192-.806.175-1.22a3.416 3.416 0 00-.172-1.208 1.425 1.425 0 00-.515-.687zm-.332 1.904c.024.329-.032.659-.165.96a.306.306 0 01-.28.184.347.347 0 01-.308-.2 1.803 1.803 0 01-.147-.902c-.007-.265.016-.53.069-.789a.616.616 0 01.165-.32.336.336 0 01.221-.08c.076 0 .19.023.299.206.125.297.175.62.146.94zm2.44 7.33a1.32 1.32 0 001.323-1.323 1.307 1.307 0 00-.377-.958 1.248 1.248 0 00-.678-.365l.621-1.208-.882-.443-1.032 2.02c-.1.182-.184.372-.251.567a1.35 1.35 0 00-.058.395 1.293 1.293 0 00.379.914 1.277 1.277 0 00.955.4zm-.33-1.333a.357.357 0 01.094-.257.292.292 0 01.221-.096.307.307 0 01.237.098.344.344 0 01.097.255.354.354 0 01-.2.335.299.299 0 01-.35-.078.354.354 0 01-.099-.257zm-10.204 37.86a1.318 1.318 0 001.323-1.322 1.308 1.308 0 00-.377-.958 1.249 1.249 0 00-.678-.365l.621-1.208-.881-.443-1.033 2.021c-.1.181-.183.37-.251.567-.038.127-.058.26-.058.394a1.293 1.293 0 00.379.914 1.287 1.287 0 00.955.4zm-.33-1.332a.362.362 0 01.095-.257.279.279 0 01.22-.096.307.307 0 01.237.098.343.343 0 01.097.255.358.358 0 01-.199.335.302.302 0 01-.351-.078.35.35 0 01-.099-.257zm-.335-28.908h1.305v4.054h-1.013v-3.079h-.894l.602-.975zm4.075-10.437h2.765l-.015.595-1.759 3.607-.879-.428 1.367-2.798h-1.479v-.976zm7.133 31.906l-1.76 3.606-.878-.427 1.367-2.798h-1.48v-.976h2.766l-.015.595zm-8.899-21.47h2.766l-.015.596-1.76 3.606-.878-.427 1.367-2.799h-1.48v-.975zm8.547 30.147h-2.902v-.558l1.202-1.227c.205-.192.384-.41.533-.648a.88.88 0 00.122-.396.327.327 0 00-.224-.325.378.378 0 00-.406.1.564.564 0 00-.124.365l-.005.148h-1.004l.008-.16a1.519 1.519 0 01.425-1.057 1.393 1.393 0 011.014-.39 1.38 1.38 0 01.676.16c.2.112.365.276.478.476.113.19.174.407.177.628a1.81 1.81 0 01-.206.785 4.05 4.05 0 01-.721.95l-.175.184h1.132v.965zM235.357 33.4l-.878-.427 1.367-2.799h-1.479V29.2h2.765l-.015.595-1.76 3.606zm3.362-.147h1.004v-.769h.333v-.967h-.333v-2.413h-.947l-1.668 2.48-.025.04v.86h1.636v.769zm-.412-1.736l.412-.605v.605h-.412zM118.566.726a6.376 6.376 0 014.699 1.985 6.588 6.588 0 011.96 4.808 6.508 6.508 0 01-1.941 4.75 6.294 6.294 0 01-4.642 1.966 6.385 6.385 0 01-4.738-2.002 6.692 6.692 0 01-1.959-4.867 6.394 6.394 0 011.94-4.693 6.365 6.365 0 014.681-1.947z" fill="#fff"/>
</g>
</svg>