<svg xmlns="http://www.w3.org/2000/svg" viewBox="0 0 20 20"><rect width="20" height="20" rx="9.99999"/><path d="M9.99533,15.45115c-.53853,0-1.07148-.02966-2.1305-.09145a6.27431,6.27431,0,0,1-2.73939-.79018,1.64468,1.64468,0,0,0,.12573.24749,3.23284,3.23284,0,0,0,.28494.31026,3.728,3.728,0,0,0,1.30975.80919,2.32816,2.32816,0,0,0,.36309.09236c.03031.00533.05984.00974.08938.01234.0318.00357.062.00694.09483.00876l.202.01532c.25521.01973.51717.03582.80082.0492.61518.02881,1.12515.04154,1.60378.03913.46415.00215.97425-.01,1.60436-.03875.28235-.01343.54425-.02953.80063-.04926l.20069-.01512c.03414-.00195.06452-.00533.09457-.0087.03122-.00273.06069-.00708.09016-.0124a2.33723,2.33723,0,0,0,.3649-.09275,3.72731,3.72731,0,0,0,1.30917-.80932,3.26441,3.26441,0,0,0,.26482-.2841,1.657,1.657,0,0,0,.14507-.28416,6.26046,6.26046,0,0,1-2.75568.80069C11.06441,15.42149,10.53387,15.45115,9.99533,15.45115Z" fill="#ee4647"/><path d="M15.16419,13.51252a15.06879,15.06879,0,0,1-5.29127,1.08972A12.12,12.12,0,0,1,4.8183,13.54847c-.01629.00007-.041.00215-.04647.01363-.03843.08107.14591.39379.31986.58689a3.27705,3.27705,0,0,0,.44967.27813,6.15073,6.15073,0,0,0,2.34282.60091,24.58294,24.58294,0,0,0,4.21478,0,6.15461,6.15461,0,0,0,2.34281-.60111,3.22955,3.22955,0,0,0,.46876-.29234c.16227-.2027.32389-.51477.28371-.6046C15.19229,13.52563,15.18807,13.51609,15.16419,13.51252Z" fill="#ee4647"/><path d="M17.21622,8.48879a.20068.20068,0,0,0-.02064-.05763.18154.18154,0,0,0-.01656-.0259l-.03063-.038c-.021-.02648-.04226-.052-.06361-.07737-.03959-.04725-.08289-.09574-.13247-.14838a2.24767,2.24767,0,0,0-.294-.26144c-.03161-.02343-.0642-.04557-.09723-.067-.11359-.05069-.20874-.06315-.24976-.03089-.03765.02966-.03376.10047-.0237.15545a7.09566,7.09566,0,0,1,.17395.70281,6.09634,6.09634,0,0,1,.27521,2.79593l.01415-.02564c.07769-.14163.14494-.25716.21147-.36354.03323-.054.07217-.11151.12234-.1809a.33636.33636,0,0,0,.02889-.04277.10727.10727,0,0,0,.01162-.03278l.03933-.79362.05478-1.44865a.29737.29737,0,0,0,.00046-.02986A.19437.19437,0,0,0,17.21622,8.48879Z" fill="#ee4647"/><path d="M15.44835,6.97653a11.77427,11.77427,0,0,0-5.322-1.216A14.9546,14.9546,0,0,0,4.56744,6.98419a.42712.42712,0,0,0-.2249.22,6.79959,6.79959,0,0,0-.1304,5.291,4.22379,4.22379,0,0,0,1.46111,1.00618,11.6933,11.6933,0,0,0,4.1961.73533,14.9546,14.9546,0,0,0,5.55888-1.22362.42712.42712,0,0,0,.2249-.22A6.76266,6.76266,0,0,0,15.649,7.186.43051.43051,0,0,0,15.44835,6.97653Zm-.12981,5.40953a.63233.63233,0,0,1-.33395.32525,13.70746,13.70746,0,0,1-5.0959,1.12029l-.10365.00045A10.8798,10.8798,0,0,1,4.98725,12.712a.63708.63708,0,0,1-.29818-.3089A5.8393,5.8393,0,0,1,4.68135,7.3685v.00007a.63188.63188,0,0,1,.334-.32532A13.70762,13.70762,0,0,1,10.11126,5.923a10.87383,10.87383,0,0,1,4.90137,1.11958.63744.63744,0,0,1,.29825.30889A5.83949,5.83949,0,0,1,15.31854,12.38606Z" fill="#ee4647"/><path d="M2.87636,8.56629V8.33652l-.0246.03051-.03129.03875a.19368.19368,0,0,0-.016.02512.20069.20069,0,0,0-.0207.05757.18633.18633,0,0,0-.00357.03018.3175.3175,0,0,0,.00045.03181l.02538.623.0294.82418.03973.79719a.11025.11025,0,0,0,.009.02479.33558.33558,0,0,0,.03109.04667c.0503.06965.08925.12722.12241.18116.0664.10612.13358.22165.21141.36334l.00817.01487A6.13616,6.13616,0,0,1,3.542,8.61562c.04531-.22879.10334-.46006.17155-.6836.00883-.0501.01253-.12046-.025-.14987-.0407-.03193-.13475-.01979-.25171.03233-.03226.021-.06413.04264-.095.06555-.04829.0357-.09632.07458-.14306.1158v.131h.05491a.17917.17917,0,0,1,.17895.17895v.40391a.17918.17918,0,0,1-.17895.179H3.05537a.1796.1796,0,0,1-.17882-.17662l-.001-.07477Z" fill="#ee4647"/><path d="M14.14814,5.57928l-.29578-.25476c-.03447-.02609-.0716-.055-.10879-.08392-.065-.05069-.13-.10132-.19654-.14968-.0453-.02992-.0921-.06263-.13877-.09535-.05835-.04082-.11858-.083-.179-.12157-.03855-.02265-.07867-.04712-.11878-.07159-.06874-.04193-.13974-.08522-.21082-.124A6.9604,6.9604,0,0,0,11.49,4.08292a5.58738,5.58738,0,0,0-1.51389-.23581q-.05266-.001-.10534-.001a5.73875,5.73875,0,0,0-2.85934.76843,5.99677,5.99677,0,0,0-1.24576.93972,6.2934,6.2934,0,0,0-.72157.84976,14.941,14.941,0,0,1,5.07864-1.009,12.0866,12.0866,0,0,1,4.71625.90993A7.41075,7.41075,0,0,0,14.14814,5.57928Z" fill="#ee4647"/><path d="M14.23777,7.55208a10.167,10.167,0,0,0-8.44849-.001.58764.58764,0,0,0-.31393.298,4.736,4.736,0,0,0,.00656,4.17566.59073.59073,0,0,0,.28023.28283c-.18014-.08332-.88756-3.154-.01924-4.34a.39539.39539,0,0,1,.15876-.15163,11.5255,11.5255,0,0,1,4.194-.90062,4.615,4.615,0,0,1,2.97993,1.03882c.77674.8796.39409,3.34351.20157,3.90967-.13341.46151-1.34909.79963-2.23935,1.06567l1.80723-.39725c.857-.23174.85668-.3504.95449-.54959a5.04584,5.04584,0,0,0,.39142-2.40386v0s-.01022-.32716.00857-.55524c.02194-.26617.21939-.40318.36322.06941a2.92526,2.92526,0,0,1,.05238.48487,8.96431,8.96431,0,0,1-.40444,2.7308.58753.58753,0,0,0,.314-.29789A4.73615,4.73615,0,0,0,14.518,7.835.59078.59078,0,0,0,14.23777,7.55208Z" fill="#ee4647"/><path d="M3.03752,6.20226a.09484.09484,0,0,0-.0947.0947V8.56629a.0947.0947,0,0,0,.1894,0V6.297A.09485.09485,0,0,0,3.03752,6.20226Z" fill="#ee4647"/></svg>