<svg xmlns="http://www.w3.org/2000/svg" viewBox="0 0 28.15794 24"><path d="M14.06987,22.62972c-1.05013,0-2.08938-.05784-4.15447-.17833a12.23468,12.23468,0,0,1-5.3418-1.54084,3.208,3.208,0,0,0,.24516.48261,6.30653,6.30653,0,0,0,.55564.605,7.26932,7.26932,0,0,0,2.554,1.57792,4.54051,4.54051,0,0,0,.708.18011c.05911.01038.1167.019.17429.024.062.007.12087.01354.18491.01708l.39388.02987c.49767.03848,1.0085.06987,1.5616.09594,1.19961.0562,2.19405.081,3.12737.07632.90508.00418,1.89978-.01949,3.1285-.07556.55058-.0262,1.06128-.05759,1.56122-.09606l.39135-.02949c.06657-.0038.12581-.01038.18441-.017.06088-.00532.11834-.0138.1758-.02418a4.55849,4.55849,0,0,0,.71157-.18086,7.26822,7.26822,0,0,0,2.55287-1.57818,6.366,6.366,0,0,0,.5164-.554,3.2307,3.2307,0,0,0,.28288-.55411,12.20792,12.20792,0,0,1-5.37357,1.56134C16.15457,22.57188,15.12,22.62972,14.06987,22.62972Z" style="fill:#fff"/><path d="M24.14911,18.84939a29.38369,29.38369,0,0,1-10.31795,2.125,23.63376,23.63376,0,0,1-9.85648-2.05483c-.03177.00013-.08.00418-.09062.02658-.07493.15808.28452.76789.62373,1.14443a6.39017,6.39017,0,0,0,.87686.54234,11.99346,11.99346,0,0,0,4.56847,1.17177,47.93612,47.93612,0,0,0,8.21882,0,12.00182,12.00182,0,0,0,4.56847-1.17215,6.29851,6.29851,0,0,0,.91407-.57006c.31642-.39527.63158-1.00381.55323-1.179C24.20392,18.875,24.19569,18.85635,24.14911,18.84939Z" style="fill:#fff"/><path d="M28.15056,9.05316a.39091.39091,0,0,0-.04025-.1124.35427.35427,0,0,0-.03227-.0505l-.05974-.074c-.04089-.05164-.0824-.10138-.124-.15087-.07721-.09214-.16163-.18669-.25833-.28933a4.38181,4.38181,0,0,0-.57335-.50982c-.06164-.04569-.12517-.08885-.1896-.13062-.22149-.09885-.407-.12315-.487-.06024-.07341.05784-.06582.19592-.0462.30313a13.84322,13.84322,0,0,1,.3392,1.37047A11.88808,11.88808,0,0,1,27.2156,14.801l.02759-.05c.15151-.27617.28263-.50146.41236-.7089.06481-.10531.14075-.21745.23858-.35275a.65583.65583,0,0,0,.05633-.08341.20834.20834,0,0,0,.02265-.06391l.0767-1.54755.10683-2.82487a.58164.58164,0,0,0,.00088-.05822A.37639.37639,0,0,0,28.15056,9.05316Z" style="fill:#fff"/><path d="M24.70323,6.10425a22.95972,22.95972,0,0,0-10.378-2.37113A29.16158,29.16158,0,0,0,3.4855,6.11918a.83294.83294,0,0,0-.43856.42894,13.25921,13.25921,0,0,0-.25428,10.31744,8.2363,8.2363,0,0,0,2.84917,1.96206,22.80189,22.80189,0,0,0,8.18237,1.43389A29.16163,29.16163,0,0,0,24.664,17.87545a.83291.83291,0,0,0,.43856-.42894,13.18713,13.18713,0,0,0-.008-10.93383A.83959.83959,0,0,0,24.70323,6.10425ZM24.45009,16.6528a1.233,1.233,0,0,1-.65119.63424,26.72957,26.72957,0,0,1-9.937,2.18456c-.06733.00063-.13492.00089-.20213.00089A21.21529,21.21529,0,0,1,4.30414,17.2883a1.24226,1.24226,0,0,1-.58146-.60234,11.38661,11.38661,0,0,1-.01506-9.81737v.00013a1.23211,1.23211,0,0,1,.65132-.63436,26.72921,26.72921,0,0,1,9.937-2.18456A21.20369,21.20369,0,0,1,23.85358,6.233a1.243,1.243,0,0,1,.58158.60233A11.3869,11.3869,0,0,1,24.45009,16.6528Z" style="fill:#fff"/><path d="M.18789,9.20428V8.75623l-.048.05948-.061.07556a.37672.37672,0,0,0-.03114.049.39118.39118,0,0,0-.04037.11226.36393.36393,0,0,0-.007.05886c-.00089.02126-.00038.033.00088.062l.04949,1.21492.05734,1.60716L.18561,13.55a.2146.2146,0,0,0,.0176.04835.65609.65609,0,0,0,.06062.091c.09809.13581.174.24807.23871.35325.12948.20694.26048.43223.41223.70853l.016.029a11.96516,11.96516,0,0,1,.55513-5.47963,13.74321,13.74321,0,0,1,.33452-1.333c.01721-.09772.02442-.23492-.04886-.29225-.07936-.06227-.26275-.0386-.49083.063-.0629.041-.12505.08316-.18529.12783-.09417.06962-.18783.14543-.279.2258v.25542H.92351a.34937.34937,0,0,1,.34894.34894v.78764a.3494.3494,0,0,1-.34894.34907H.537a.35021.35021,0,0,1-.3487-.34439l-.0019-.14581Z" style="fill:#fff"/><path d="M22.16782,3.37962l-.57677-.49678c-.06721-.05088-.13961-.10733-.21213-.16365-.12682-.09885-.25352-.19758-.38325-.29187-.08834-.05835-.1796-.12214-.2706-.18593-.11379-.07961-.23124-.16188-.34908-.23706-.07518-.04417-.1534-.09189-.23162-.1396-.134-.08177-.2725-.16619-.41109-.24175A13.57205,13.57205,0,0,0,16.98448.46172,10.89472,10.89472,0,0,0,14.03241.0019Q13.92969,0,13.827,0a11.1904,11.1904,0,0,0-5.5757,1.49844A11.69355,11.69355,0,0,0,5.82207,3.33089,12.26949,12.26949,0,0,0,4.415,4.98792a29.1349,29.1349,0,0,1,9.90331-1.96763A23.569,23.569,0,0,1,23.515,4.79465,14.44813,14.44813,0,0,0,22.16782,3.37962Z" style="fill:#fff"/><path d="M22.34261,7.22657C17.317,4.83992,11.77412,4.83949,5.86807,7.22471a1.14591,1.14591,0,0,0-.61214.581,9.23507,9.23507,0,0,0,.01278,8.14251,1.15194,1.15194,0,0,0,.54646.55153c-.35129-.16248-1.73075-6.15025-.03753-8.46308A.77112.77112,0,0,1,6.08723,7.741a22.47506,22.47506,0,0,1,8.17825-1.75621,8.99932,8.99932,0,0,1,5.81086,2.0257c1.51464,1.71523.76846,6.51983.39306,7.62385-.26016.89994-2.63071,1.55927-4.36672,2.078l3.5241-.77465c1.67107-.45188,1.6705-.68326,1.86124-1.0717a9.83941,9.83941,0,0,0,.76327-4.68751v0s-.01994-.638.01671-1.08273c.04278-.519.4278-.7862.70827.13537a5.70174,5.70174,0,0,1,.10214.94549,17.4808,17.4808,0,0,1-.78864,5.325,1.14569,1.14569,0,0,0,.6122-.58089,9.23549,9.23549,0,0,0-.01284-8.14263A1.15207,1.15207,0,0,0,22.34261,7.22657Z" style="fill:#fff"/><path d="M.50216,4.59442a.185.185,0,0,0-.18466.18466v4.4252a.18466.18466,0,0,0,.36932,0V4.77908A.185.185,0,0,0,.50216,4.59442Z" style="fill:#fff"/></svg>