<svg xmlns="http://www.w3.org/2000/svg" viewBox="0 0 158.05733 28"><path d="M16.415,26.40139c-1.22516,0-2.43762-.06748-4.84689-.20805A14.27385,14.27385,0,0,1,5.336,24.39569a3.74206,3.74206,0,0,0,.286.563,7.35677,7.35677,0,0,0,.64824.70584,8.48108,8.48108,0,0,0,2.97967,1.84091,5.29895,5.29895,0,0,0,.826.21013c.069.01211.13615.02216.20333.028.07234.00816.141.01579.21573.01992l.45953.03485c.58062.04489,1.17659.08152,1.82187.11193,1.39955.06557,2.55973.0945,3.6486.089,1.05593.00488,2.21642-.02274,3.64993-.08815.64234-.03057,1.23816-.06719,1.82142-.11207l.45658-.03441c.07766-.00443.14678-.01211.21514-.01983.071-.00621.13807-.0161.20511-.02821a5.31853,5.31853,0,0,0,.83016-.211,8.47968,8.47968,0,0,0,2.97836-1.84122,7.42632,7.42632,0,0,0,.60246-.64633,3.76881,3.76881,0,0,0,.33-.64646A14.24269,14.24269,0,0,1,21.245,26.19323C18.84711,26.33391,17.64011,26.40139,16.415,26.40139Z" fill="#fff"/><path d="M28.17409,21.991a34.2811,34.2811,0,0,1-12.03763,2.47918A27.5728,27.5728,0,0,1,4.63722,22.07286c-.03707.00015-.09334.00488-.10573.031-.08742.18443.33194.89587.72769,1.33517a7.45536,7.45536,0,0,0,1.023.63273,13.99231,13.99231,0,0,0,5.32989,1.36707,55.92687,55.92687,0,0,0,9.58864,0,14.00222,14.00222,0,0,0,5.32989-1.36751,7.34806,7.34806,0,0,0,1.06642-.66507c.36916-.46115.73685-1.17112.64544-1.37551C28.238,22.02087,28.22843,21.99911,28.17409,21.991Z" fill="#fff"/><path d="M32.84246,10.562a.45635.45635,0,0,0-.047-.13114.41348.41348,0,0,0-.03765-.05891l-.0697-.08634c-.0477-.06024-.09613-.11827-.14466-.176-.09008-.1075-.18857-.21781-.30139-.33755a5.112,5.112,0,0,0-.66891-.5948c-.07191-.0533-.146-.10365-.2212-.15239-.25841-.11532-.47483-.14367-.56817-.07028-.08564.06748-.07679.22858-.0539.35366a16.15341,16.15341,0,0,1,.39574,1.59888,13.86956,13.86956,0,0,1,.626,6.3607l.03219-.05833c.17676-.3222.32973-.585.48108-.827.07561-.12286.16421-.25369.27835-.41154a.76664.76664,0,0,0,.06572-.09732.24309.24309,0,0,0,.02642-.07456l.08948-1.80548.12464-3.29568a.67808.67808,0,0,0,.001-.06793A.43954.43954,0,0,0,32.84246,10.562Z" fill="#fff"/><path d="M28.82057,7.12164A26.78645,26.78645,0,0,0,16.71288,4.35531,34.02211,34.02211,0,0,0,4.0665,7.13906a.97176.97176,0,0,0-.51165.50043,15.46907,15.46907,0,0,0-.29666,12.037,9.60909,9.60909,0,0,0,3.324,2.28908,26.60224,26.60224,0,0,0,9.54611,1.67287A34.02192,34.02192,0,0,0,28.7748,20.85473a.97173.97173,0,0,0,.51165-.50043,15.385,15.385,0,0,0-.00933-12.75616A.97954.97954,0,0,0,28.82057,7.12164ZM28.52524,19.4283a1.43855,1.43855,0,0,1-.75973.74,31.18456,31.18456,0,0,1-11.59318,2.54866c-.07856.00073-.15741.001-.23582.001A24.75132,24.75132,0,0,1,5.02159,20.16972a1.44934,1.44934,0,0,1-.67838-.70273A13.28445,13.28445,0,0,1,4.32564,8.01337v.00015a1.43748,1.43748,0,0,1,.75988-.74009A31.18417,31.18417,0,0,1,16.67871,4.72477a24.73773,24.73773,0,0,1,11.1506,2.54708,1.45014,1.45014,0,0,1,.67851.70272A13.28473,13.28473,0,0,1,28.52524,19.4283Z" fill="#fff"/><path d="M.21928,10.73835v-.52273l-.056.06939-.07116.08816a.43949.43949,0,0,0-.03633.05716.45632.45632,0,0,0-.0471.131A.424.424,0,0,0,.00052,10.63c-.001.02481-.00044.0385.001.07234l.05774,1.41741.06689,1.875.09044,1.81362a.25057.25057,0,0,0,.02054.05641.765.765,0,0,0,.07072.10617c.11444.15844.203.28941.2785.41212.15106.24143.30389.50427.48093.82662l.01867.03384a13.95944,13.95944,0,0,1,.64765-6.39292q.15612-.78686.39028-1.55517c.02007-.114.02849-.27407-.057-.341-.09258-.07264-.30654-.045-.57263.07351-.07339.04783-.14589.097-.21618.14913-.10986.08122-.21913.16967-.3255.26343v.298h.12492a.40761.40761,0,0,1,.4071.4071v.91892a.40765.40765,0,0,1-.4071.40725H.62658A.40859.40859,0,0,1,.21976,11.07l-.00221-.17012Z" fill="#fff"/><path d="M25.86258,3.9429l-.6729-.57958c-.07841-.05936-.16288-.12522-.24748-.19093-.148-.11532-.29578-.23051-.44713-.34051-.10306-.06808-.20953-.1425-.3157-.21692-.13275-.09288-.26978-.18886-.40726-.27657-.08771-.05153-.179-.10721-.27022-.16287-.15634-.0954-.31792-.19389-.47961-.282A15.83432,15.83432,0,0,0,19.81534.53867,12.71049,12.71049,0,0,0,16.37125.00222Q16.25142,0,16.13161,0a13.0556,13.0556,0,0,0-6.505,1.74818,13.64234,13.64234,0,0,0-2.8341,2.13787,14.31418,14.31418,0,0,0-1.64159,1.9332A33.99084,33.99084,0,0,1,16.7048,3.52368,27.49718,27.49718,0,0,1,27.43429,5.59377,16.85334,16.85334,0,0,0,25.86258,3.9429Z" fill="#fff"/><path d="M26.0665,8.431C20.20328,5.64658,13.73658,5.64608,6.84617,8.42884a1.33687,1.33687,0,0,0-.71416.67784,10.77426,10.77426,0,0,0,.01491,9.49961,1.34391,1.34391,0,0,0,.63754.64345c-.40984-.18956-2.01922-7.1753-.04379-9.87361a.89966.89966,0,0,1,.36119-.34495,26.221,26.221,0,0,1,9.54131-2.04891,10.49919,10.49919,0,0,1,6.77935,2.36332c1.76708,2.0011.89653,7.60648.45857,8.89451-.30352,1.04993-3.06917,1.81915-5.09452,2.42434l4.11146-.90377c1.94958-.52719,1.94892-.79713,2.17145-1.25031A11.47925,11.47925,0,0,0,25.96,13.04158h0s-.02326-.74433.0195-1.26318c.04991-.60551.4991-.91724.82631.15793a6.6524,6.6524,0,0,1,.11917,1.10307,20.39442,20.39442,0,0,1-.92008,6.21251,1.33664,1.33664,0,0,0,.71423-.6777,10.77476,10.77476,0,0,0-.015-9.49975A1.3441,1.3441,0,0,0,26.0665,8.431Z" fill="#fff"/><path d="M.58593,5.36017A.21581.21581,0,0,0,.3705,5.5756v5.16275a.21544.21544,0,0,0,.43087,0V5.5756A.21582.21582,0,0,0,.58593,5.36017Z" fill="#fff"/><path d="M44.92012,20.293l1.248-2.77153A9.35639,9.35639,0,0,0,51.41352,19.18c2.17988,0,3.06551-.72662,3.06551-1.70285,0-2.97491-9.2409-.93186-9.2409-6.83545,0-2.70128,2.17988-4.94956,6.69864-4.94956a10.6665,10.6665,0,0,1,5.51717,1.407L56.31871,9.89287A8.96461,8.96461,0,0,0,51.91458,8.643c-2.18172,0-3.02113.81723-3.02113,1.81749,0,2.92869,9.24274.90782,9.24274,6.743,0,2.6569-2.20391,4.92737-6.74485,4.92737A11.33429,11.33429,0,0,1,44.92012,20.293Z" fill="#fff"/><path d="M71.67583,14.88865v6.97043H68.36072V20.33742A4.00808,4.00808,0,0,1,64.637,22.04027c-2.86027,0-4.565-1.58822-4.565-3.70153,0-2.15584,1.52166-3.65532,5.24539-3.65532h2.8159c0-1.52166-.90782-2.40729-2.8159-2.40729a5.87961,5.87961,0,0,0-3.5185,1.13524l-1.27205-2.47386a9.38969,9.38969,0,0,1,5.26757-1.47728C69.51814,9.46023,71.67583,11.18712,71.67583,14.88865ZM68.1333,17.99853v-1.248H65.70382c-1.65663,0-2.17988.612-2.17988,1.42922,0,.88563.74882,1.47728,1.99869,1.47728A2.6087,2.6087,0,0,0,68.1333,17.99853Z" fill="#fff"/><path d="M79.22312,9.91506H82.357v2.72531H79.31371v9.21871H75.773V12.64037H73.88714V9.91506H75.773V9.36963c0-2.74749,1.67882-4.541,4.72214-4.541a5.04039,5.04039,0,0,1,2.70312.65822l-.93185,2.5663a2.48658,2.48658,0,0,0-1.43107-.4308c-1.04464,0-1.61225.56762-1.61225,1.77127Z" fill="#fff"/><path d="M96.32747,16.75051H87.08472A3.25592,3.25592,0,0,0,90.581,19.20218a4.13678,4.13678,0,0,0,3.0655-1.18146l1.8859,2.04491a6.3982,6.3982,0,0,1-5.042,1.97464c-4.22293,0-6.97043-2.6569-6.97043-6.29a6.22037,6.22037,0,0,1,6.51744-6.29A6.04736,6.04736,0,0,1,96.394,15.79647C96.394,16.06826,96.34965,16.45469,96.32747,16.75051Zm-9.28712-2.06709h6.01638a3.05088,3.05088,0,0,0-6.01638,0Z" fill="#fff"/><path d="M119.85866,14.86462v6.99446h-3.54253v-6.449c0-1.97465-.88563-2.88432-2.31669-2.88432-1.58823,0-2.70128,1.02246-2.70128,3.20233v6.131h-3.54252v-6.449c0-1.97465-.83941-2.88432-2.3167-2.88432-1.566,0-2.67908,1.02246-2.67908,3.20233v6.131H99.21733V9.64327h3.38352v1.407a4.94717,4.94717,0,0,1,3.83836-1.59007,4.559,4.559,0,0,1,4.0177,1.99868,5.49949,5.49949,0,0,1,4.406-1.99868C117.76938,9.46023,119.85866,11.14089,119.85866,14.86462Z" fill="#fff"/><path d="M134.31351,14.88865v6.97043H130.9984V20.33742a4.00807,4.00807,0,0,1-3.72373,1.70285c-2.86027,0-4.565-1.58822-4.565-3.70153,0-2.15584,1.52166-3.65532,5.24539-3.65532h2.8159c0-1.52166-.90782-2.40729-2.8159-2.40729a5.87963,5.87963,0,0,0-3.5185,1.13524l-1.27205-2.47386a9.38969,9.38969,0,0,1,5.26757-1.47728C132.15582,9.46023,134.31351,11.18712,134.31351,14.88865ZM130.771,17.99853v-1.248H128.3415c-1.65663,0-2.17988.612-2.17988,1.42922,0,.88563.74882,1.47728,1.99869,1.47728A2.60869,2.60869,0,0,0,130.771,17.99853Z" fill="#fff"/><path d="M145.56048,9.46023V12.731c-.294-.02218-.52139-.04622-.795-.04622-1.95246,0-3.2467,1.06868-3.2467,3.40756v5.76678h-3.54253V9.64327h3.38352v1.61226A4.93041,4.93041,0,0,1,145.56048,9.46023Z" fill="#fff"/><path d="M146.99894,20.72384l1.17961-2.54411a8.35652,8.35652,0,0,0,4.247,1.18146c1.63445,0,2.24829-.4308,2.24829-1.11305,0-1.99683-7.38089.04622-7.38089-4.83677,0-2.31485,2.08928-3.95114,5.654-3.95114a10.04145,10.04145,0,0,1,4.7018,1.06867L156.46726,13.049a7.006,7.006,0,0,0-3.52034-.90782c-1.58823,0-2.27048.49921-2.27048,1.13524,0,2.08927,7.38089.06841,7.38089,4.88114,0,2.27047-2.11332,3.88273-5.76863,3.88273A10.49178,10.49178,0,0,1,146.99894,20.72384Z" fill="#fff"/></svg>