<?xml version="1.0" encoding="utf-8"?>
<!-- Generator: Adobe Illustrator 25.2.0, SVG Export Plug-In . SVG Version: 6.00 Build 0)  -->
<svg version="1.1" id="Ebene_1" xmlns="http://www.w3.org/2000/svg" xmlns:xlink="http://www.w3.org/1999/xlink" x="0px" y="0px"
	 viewBox="0 0 1857.6 387.9" style="enable-background:new 0 0 1857.6 387.9;" xml:space="preserve">
<style type="text/css">
	.st0{fill:#7FDD7F;}
	.st1{fill:#ABF9A5;}
	.st2{fill:#FFFFFF;}
</style>
<path class="st0" d="M303.4,81.3l-29.5,78.2c-11.1,29.5-48.9,38.8-71.8,17.1c-0.3-0.3-0.7-0.6-1-1l0,0L302,74.7
	C303.8,76.4,304.3,79,303.4,81.3z"/>
<path class="st1" d="M200.1,174.7c-21.7-22.9-12.4-60.7,17.1-71.8l78.2-29.5c2.3-0.9,4.9-0.3,6.6,1.4L201.1,175.7l0,0
	C200.7,175.3,200.4,175,200.1,174.7z"/>
<path class="st1" d="M62.1,81.3l29.5,78.2c11.1,29.5,48.9,38.8,71.8,17.1c0.3-0.3,0.7-0.6,1-1l0,0L63.6,74.7
	C61.8,76.4,61.2,79,62.1,81.3z"/>
<path class="st0" d="M165.5,174.7c21.7-22.9,12.4-60.7-17.1-71.8L70.2,73.3c-2.3-0.9-4.9-0.3-6.6,1.4l100.9,100.9l0,0
	C164.8,175.3,165.2,175,165.5,174.7z"/>
<path class="st1" d="M303.4,306.5l-29.5-78.2c-11.1-29.5-48.9-38.8-71.8-17.1c-0.3,0.3-0.7,0.6-1,1l0,0L302,313.2
	C303.8,311.4,304.3,308.8,303.4,306.5z"/>
<path class="st0" d="M200.1,213.2c-21.7,22.9-12.4,60.7,17.1,71.8l78.2,29.5c2.3,0.9,4.9,0.3,6.6-1.4L201.1,212.2l0,0
	C200.7,212.5,200.4,212.9,200.1,213.2z"/>
<path class="st0" d="M62.1,306.5l29.5-78.2c11.1-29.5,48.9-38.8,71.8-17.1c0.3,0.3,0.7,0.6,1,1l0,0L63.6,313.2
	C61.8,311.4,61.2,308.8,62.1,306.5z"/>
<path class="st1" d="M165.5,213.2c21.7,22.9,12.4,60.7-17.1,71.8l-78.2,29.5c-2.3,0.9-4.9,0.3-6.6-1.4l100.9-100.9l0,0
	C164.8,212.5,165.2,212.9,165.5,213.2z"/>
<path class="st2" d="M449.5,154.7c-0.7,1.1-1.6,2.2-2.6,3c-1,0.7-2.3,1-3.5,1c-1.4,0-2.8-0.5-4.1-1.2c-1.5-0.8-3.1-1.7-5-2.7
	c-2-1.1-4.1-2-6.3-2.7c-2.6-0.8-5.3-1.2-8.1-1.2c-5.2,0-9.1,1.1-11.7,3.3c-2.6,2.3-4,5.6-3.8,9c-0.1,2.2,0.8,4.4,2.3,6
	c1.7,1.7,3.8,3.1,6.1,4.1c2.8,1.3,5.6,2.3,8.6,3.2c3.2,1,6.5,2,9.9,3.2c3.4,1.2,6.7,2.6,9.9,4.2c3.2,1.6,6.1,3.6,8.6,6.1
	c2.6,2.6,4.6,5.7,6.1,9c1.6,4.1,2.4,8.4,2.3,12.8c0,5.3-0.9,10.6-2.9,15.6c-1.9,4.8-4.7,9.1-8.4,12.7c-3.9,3.7-8.5,6.6-13.5,8.5
	c-5.8,2.1-12,3.2-18.3,3.1c-3.8,0-7.7-0.4-11.4-1.2c-3.8-0.8-7.6-1.8-11.3-3.3c-3.5-1.4-7-3-10.2-5c-3-1.8-5.8-4-8.3-6.4l8.3-13
	c0.6-1,1.5-1.8,2.6-2.4c1.1-0.6,2.3-0.9,3.5-0.9c1.8,0,3.5,0.6,5,1.6c1.7,1,3.6,2.2,5.7,3.5c2.3,1.4,4.8,2.5,7.3,3.5
	c3.1,1.1,6.4,1.6,9.7,1.6c5.1,0,9-1.1,11.8-3.3c2.8-2.2,4.2-5.8,4.2-10.6c0.1-2.5-0.7-4.9-2.3-6.8c-1.7-1.9-3.8-3.4-6.1-4.4
	c-2.8-1.2-5.6-2.3-8.5-3.1c-3.2-0.9-6.5-1.9-9.8-2.9c-3.4-1.1-6.6-2.4-9.8-4c-3.2-1.6-6.1-3.7-8.5-6.2c-2.6-2.8-4.7-6-6.1-9.6
	c-1.7-4.5-2.4-9.3-2.3-14.1c0-4.5,0.9-9,2.7-13.2c1.8-4.3,4.6-8.2,8-11.5c3.8-3.5,8.2-6.2,13-8c5.6-2.1,11.6-3.1,17.6-3
	c3.6,0,7.2,0.3,10.8,0.9c3.4,0.5,6.7,1.4,9.9,2.6c3,1.1,6,2.4,8.8,4c2.6,1.5,5.1,3.3,7.3,5.3L449.5,154.7z"/>
<path class="st2" d="M616.8,250.5h-21.6c-2.1,0.1-4.2-0.5-6-1.7c-1.5-1.1-2.7-2.6-3.3-4.3l-7.1-21h-45.7l-7.1,21
	c-1.5,3.7-5.1,6.1-9.1,6h-21.8l46.5-120.2h28.5L616.8,250.5z M539.6,204.6h32.8l-11.1-32.9c-0.7-2.1-1.6-4.6-2.5-7.4
	c-1-2.8-1.9-5.9-2.8-9.2c-0.9,3.4-1.8,6.5-2.7,9.3c-0.9,2.9-1.8,5.3-2.6,7.4L539.6,204.6z"/>
<path class="st2" d="M736.9,130.3v21.5h-49.3v30.4h41.1v21.5h-41.1v46.8h-28.1V130.3H736.9z"/>
<path class="st2" d="M861.9,130.3v21.5h-49.3v28.1h37.8v20.6h-37.8v28.6h49.3v21.5h-77.4V130.3H861.9z"/>
<path class="st2" d="M1052.9,130.3v21.5h-49.3v28.1h37.8v20.6h-37.8v28.6h49.3v21.5h-77.4V130.3H1052.9z"/>
<path class="st2" d="M1213.6,250.5H1192c-2.1,0.1-4.2-0.5-6-1.7c-1.5-1.1-2.7-2.6-3.3-4.3l-7.1-21H1130l-7.1,21
	c-1.5,3.7-5.1,6.1-9.1,6H1092l46.5-120.2h28.5L1213.6,250.5z M1136.4,204.6h32.8l-11.1-32.9c-0.7-2.1-1.6-4.6-2.5-7.4
	c-1-2.8-1.9-5.9-2.8-9.2c-0.9,3.4-1.8,6.5-2.7,9.3c-0.9,2.9-1.8,5.3-2.6,7.4L1136.4,204.6z"/>
<path class="st2" d="M1284.3,206v44.5h-27.9V130.3h39.1c8.7,0,16.1,0.9,22.2,2.7c5.5,1.4,10.6,4,15,7.5c3.7,3,6.6,6.9,8.5,11.3
	c1.8,4.5,2.7,9.3,2.6,14.2c0,3.7-0.5,7.5-1.6,11.1c-1,3.4-2.6,6.7-4.7,9.6c-2.1,3-4.7,5.7-7.6,7.9c-3.2,2.4-6.6,4.3-10.4,5.7
	c1.9,0.9,3.6,2.1,5.2,3.5c1.7,1.4,3.1,3.1,4.2,5l25.6,41.8h-25.2c-4.7,0-8-1.8-10.1-5.3l-20-34.9c-0.7-1.4-1.8-2.5-3.1-3.3
	c-1.6-0.7-3.3-1.1-5-1L1284.3,206z M1284.3,186.8h11.2c3.3,0.1,6.6-0.4,9.7-1.4c2.5-0.8,4.7-2.2,6.6-4c1.7-1.7,3-3.7,3.7-6
	c0.8-2.4,1.2-4.9,1.2-7.4c0-5.3-1.7-9.4-5.2-12.4c-3.4-3-8.8-4.5-16-4.5h-11.2V186.8z"/>
<path class="st2" d="M1481.5,130.3v22.1h-33.8v98.1h-27.9v-98.1h-33.8v-22.1H1481.5z"/>
<path class="st2" d="M1630.9,250.5h-28.1v-50.8h-48.8v50.8H1526V130.3h28.1v50.2h48.8v-50.2h28.1V250.5z"/>
</svg>
