<?xml version="1.0" encoding="utf-8"?>
<!-- Generator: Adobe Illustrator 25.2.0, SVG Export Plug-In . SVG Version: 6.00 Build 0)  -->
<svg version="1.1" id="Ebene_1" xmlns="http://www.w3.org/2000/svg" xmlns:xlink="http://www.w3.org/1999/xlink" x="0px" y="0px"
	 viewBox="0 0 1000 250" style="enable-background:new 0 0 1000 250;" xml:space="preserve">
<style type="text/css">
	.st0{fill:#FFFFFF;}
	.st1{fill:none;}
	.st2{fill:#F84445;}
</style>
<g id="Layer_2">
	<g id="Layer_10">
		<polygon class="st0" points="334.57,112.08 348.21,132.06 347.46,134 317.27,134 309.55,143.49 354.51,143.49 357.61,145.38 
			364.6,155.01 382.75,155.01 342.95,101.76 		"/>
		<polygon class="st0" points="736.15,112.08 749.81,132.06 749.06,134 718.85,134 711.15,143.49 756.1,143.49 759.21,145.38 
			766.18,155.01 784.35,155.01 744.53,101.76 		"/>
		<path class="st0" d="M265.54,122.91h-42.05l-1.23-1.37v-8.99l1.23-0.96h56.69l0.77-1.89c-1.94-4.99-6.83-7.29-16.21-7.29h-39.39
			c-13.07,0-17.23,2.55-17.23,12.43v5.81c0,9.9,4.17,12.43,17.23,12.43h41.96l1.32,1.16v9.4l-1.07,1.48h-48.01l0,0h-12.57
			c0,0-1.43,0.73-1.39,1.05c1.07,6.83,5.78,8.88,17.05,8.88h42.89c13.07,0,17.35-2.55,17.35-12.43v-7.26
			c0-9.86-4.28-12.41-17.35-12.41"/>
		<path class="st0" d="M972.65,122.91H930.6l-1.25-1.37v-8.99l1.23-0.96h56.71l0.77-1.89c-1.94-4.99-6.83-7.31-16.21-7.31h-39.39
			c-13.07,0-17.23,2.55-17.23,12.43v5.83c0,9.88,4.17,12.43,17.23,12.43h41.96l1.32,1.16v9.4l-1.07,1.48h-48.01l0,0H914.1
			c0,0-1.46,0.71-1.39,1.05c1.07,6.83,5.78,8.88,17.05,8.88h42.89c13.05,0,17.35-2.55,17.35-12.45v-7.24
			c0-9.88-4.3-12.41-17.35-12.41"/>
		<path class="st0" d="M429.76,125.44h-2.8l-1.68-1.64v-10.93l1.53-1.39h57.6c-0.5-6.49-5.49-9.11-15.55-9.11h-57.3l-2.14,1.59
			v50.97h15.94v-19.1l1.53-1.37h21.63c10.06,0,15.05-2.57,15.55-9.11H429.9L429.76,125.44z"/>
		<polyline class="st0" points="527.2,144.65 527.2,130.49 528.84,129.08 559.21,129.08 559.21,120.09 511.06,120.09 511.06,155.01 
			582.09,155.01 582.09,146.04 528.91,146.04 		"/>
		<rect x="511.06" y="102.42" class="st0" width="71.76" height="9.9"/>
		<path class="st0" d="M870.38,102.06h-57.26l-2.12,1.59v50.97h15.94V135.5l1.46-1.3h17.48l3.12,1.89l13.66,18.53h18.21
			l-15.32-20.49h4.83c10.61,0,15.6-2.87,15.6-10.2V112.3C886.05,104.95,881.06,102.06,870.38,102.06z M828.27,134.18L828.27,134.18z
			 M870.38,120.95c0,3.46-2.28,4.17-7.26,4.17h-34.56l-1.68-1.64v-10.93l1.5-1.39h34.81c4.96,0,7.26,0.71,7.26,4.19L870.38,120.95z"
			/>
		<polygon class="st0" points="682.35,102.42 668.94,102.42 664,102.42 647,112.33 629.97,102.42 625.05,102.42 611.62,102.42 
			609.5,104.02 609.5,154.99 625.37,154.99 625.37,135.89 625.37,115.15 626.87,113.76 647,123.69 667.1,113.76 668.63,115.15 
			668.63,135.89 668.63,154.99 684.49,154.99 684.49,104.02 		"/>
		<path class="st1" d="M29.83,159.99c-0.02-0.06-0.04-0.11-0.07-0.17C29.79,159.88,29.81,159.94,29.83,159.99z"/>
		<path class="st1" d="M30.25,160.87l-0.06-0.12L30.25,160.87z"/>
		<path class="st1" d="M28.93,157.36c0,0,0-0.05,0-0.07C28.93,157.27,28.93,157.34,28.93,157.36z"/>
		<path class="st1" d="M29.2,158.3c0,0,0-0.06,0-0.09S29.19,158.27,29.2,158.3z"/>
		<path class="st1" d="M31.75,163.3l-0.15-0.2L31.75,163.3z"/>
		<path class="st1" d="M34.92,166.76l-0.35-0.31L34.92,166.76z"/>
		<path class="st1" d="M28.6,155.59c0-0.05,0-0.09,0-0.14C28.6,155.5,28.6,155.55,28.6,155.59z"/>
		<path class="st1" d="M28.24,154.02c-0.17-0.38-0.34-0.77-0.51-1.16l0,0C27.9,153.25,28.07,153.64,28.24,154.02
			c0.08,0.18,0.17,0.35,0.26,0.51l0,0C28.41,154.37,28.32,154.19,28.24,154.02z"/>
		<path class="st1" d="M33.66,165.55l-0.29-0.29L33.66,165.55z"/>
		<path class="st1" d="M32.88,164.7c-0.09-0.1-0.18-0.21-0.27-0.31C32.7,164.5,32.79,164.6,32.88,164.7z"/>
		<path class="st1" d="M17.82,86.05c0.43,0,0.83,0.21,1.06,0.57c-0.39-0.59-1.19-0.75-1.78-0.35c-0.14,0.09-0.26,0.21-0.35,0.35
			C16.99,86.26,17.39,86.04,17.82,86.05z"/>
		<path class="st1" d="M144.41,91.72l0.1,0.07L144.41,91.72z"/>
		<path class="st1" d="M31.42,91.72c0.05,0,0.11-0.05,0.17-0.08C31.54,91.67,31.5,91.69,31.42,91.72z"/>
		<path class="st1" d="M148.25,97.12l0.08,0.19L148.25,97.12z"/>
		<path class="st1" d="M148.42,151.46c0.52-0.67,1.02-1.3,1.49-2c0.75-1.13,1.47-2.26,2.14-3.43l0.17-0.31l-1.67-0.21
			C149.91,147.52,149.2,149.5,148.42,151.46z"/>
		<path class="st1" d="M30.29,92.47c0.34-0.27,0.71-0.52,1.09-0.73C30.99,91.96,30.63,92.2,30.29,92.47z"/>
		<path class="st1" d="M144.41,91.7c-0.17-0.1-0.34-0.19-0.51-0.28c-0.84-0.41-1.68-0.8-2.53-1.18c0.84,0.39,1.68,0.77,2.53,1.18
			C144.06,91.51,144.23,91.6,144.41,91.7z"/>
		<path class="st1" d="M19.1,87.29c0-0.17-0.03-0.34-0.1-0.5C19.07,86.95,19.11,87.12,19.1,87.29z"/>
		<path class="st1" d="M16.53,87.29L16.53,87.29c0-0.17,0.04-0.34,0.1-0.5C16.57,86.95,16.53,87.12,16.53,87.29z"/>
		<path class="st1" d="M27.25,97.4c0-0.04,0.03-0.09,0.05-0.13C27.32,97.24,27.27,97.34,27.25,97.4z"/>
		<path class="st1" d="M36.13,169.11l-0.05-0.12L36.13,169.11z"/>
		<path class="st1" d="M31.16,162.45L31,162.19L31.16,162.45z"/>
		<path class="st1" d="M145.74,159.6c-0.06,0.15-0.13,0.31-0.19,0.47C145.64,159.91,145.74,159.75,145.74,159.6z"/>
		<path class="st1" d="M140.17,167.07L140.17,167.07c0.33-0.29,0.67-0.58,0.96-0.88C140.81,166.49,140.5,166.78,140.17,167.07z"/>
		<path class="st1" d="M135.27,175.97c1.37-1.61,2.55-3.38,3.5-5.27c0.15-0.29,0.29-0.59,0.42-0.89c-0.13,0.29-0.27,0.59-0.42,0.89
			C137.82,172.59,136.64,174.36,135.27,175.97z"/>
		<polygon class="st1" points="146.93,154.64 146.93,154.64 146.93,154.64 146.93,154.64 		"/>
		<path class="st1" d="M145.31,160.64c-0.13,0.27-0.27,0.53-0.42,0.8C145.01,161.18,145.15,160.91,145.31,160.64z"/>
		<path class="st1" d="M146.56,157.11c0,0.11-0.05,0.21-0.07,0.32C146.51,157.32,146.54,157.22,146.56,157.11z"/>
		<path class="st1" d="M146.85,155.43c0,0.12-0.03,0.24-0.05,0.36C146.82,155.67,146.84,155.53,146.85,155.43z"/>
		<path class="st1" d="M144.6,161.95c-0.13,0.21-0.25,0.41-0.39,0.61C144.34,162.35,144.47,162.15,144.6,161.95z"/>
		<path class="st1" d="M147.36,153.84L147.36,153.84c0.14-0.3,0.27-0.61,0.4-0.91l0,0C147.63,153.23,147.5,153.52,147.36,153.84z"/>
		<path class="st1" d="M146.29,158.14c-0.04,0.13-0.09,0.27-0.13,0.39C146.21,158.41,146.25,158.28,146.29,158.14z"/>
		<path class="st1" d="M143.94,162.95c-0.21,0.3-0.43,0.59-0.67,0.89C143.51,163.54,143.74,163.25,143.94,162.95z"/>
		<path class="st1" d="M142.22,165.09c-0.28,0.31-0.57,0.6-0.87,0.9C141.65,165.69,141.94,165.39,142.22,165.09z"/>
		<path class="st1" d="M143.07,164.14c-0.21,0.25-0.42,0.51-0.67,0.75C142.62,164.65,142.83,164.4,143.07,164.14z"/>
		<path class="st1" d="M87.8,189.71c1.4,0,2.79,0,4.18-0.05C90.6,189.66,89.2,189.7,87.8,189.71z"/>
		<polygon class="st1" points="35.49,167.25 35.49,167.25 35.49,167.26 35.49,167.25 		"/>
		<path class="st1" d="M36.85,170.7c-0.15-0.29-0.28-0.57-0.41-0.86C36.55,170.13,36.69,170.41,36.85,170.7z"/>
		<path class="st1" d="M119.42,187.05c0.33-0.11,0.67-0.23,1-0.35c1.3-0.5,2.57-1.08,3.79-1.74c-1.23,0.66-2.49,1.24-3.79,1.74
			C120.08,186.82,119.75,186.93,119.42,187.05z"/>
		<path class="st1" d="M115.3,188.07c0.35-0.04,0.67-0.11,1.05-0.18c0.7-0.14,1.39-0.31,2.06-0.51c-0.67,0.2-1.34,0.37-2.06,0.51
			C116,187.96,115.68,188.03,115.3,188.07z"/>
		<path class="st1" d="M129.71,181.32c1.25-0.99,2.44-2.05,3.57-3.18C132.15,179.27,130.96,180.33,129.71,181.32z"/>
		<path class="st2" d="M115.96,81.68c2.52,0.55,5.03,1.18,7.52,1.89c-0.8-9.99-12.03-15.89-17.62-18.23
			c-0.93-0.32-1.86-0.63-2.8-0.91C104.99,65.92,114.27,73.35,115.96,81.68z"/>
		<path class="st2" d="M117.02,87.3c2.62,0.67,5.21,1.46,7.79,2.34c0.54-0.88,0.55-1.98,0.04-2.87c-2.67-0.82-5.34-1.54-8.02-2.17
			C117.2,85.04,117.69,85.91,117.02,87.3z"/>
		<path class="st2" d="M133.22,102.75c-0.59-1.25-1.59-2.25-2.84-2.83c-25.9-12.31-54.47-12.31-84.92,0
			c-1.39,0.56-2.52,1.63-3.15,2.99c-6.48,13.93-6.46,28.06,0.06,41.98c0.59,1.24,1.58,2.25,2.82,2.85
			c-1.81-0.84-8.92-31.71-0.19-43.63c0.38-0.65,0.93-1.18,1.6-1.53c14.56-5.88,28.73-8.93,42.16-9.05
			c18.36,0.08,29.48,9.91,29.96,10.44c7.8,8.85,3.96,33.61,2,39.3c-1.34,4.64-13.56,8.02-22.51,10.69l18.16-4.01
			c8.61-2.32,8.61-3.52,9.59-5.52c3.58-7.3,4.3-16.26,3.93-24.16l0,0c0,0-0.11-3.29,0.09-5.59c0.22-2.67,2.2-4.05,3.65,0.67
			c0.37,1.24,0.29,2.44,0.53,4.87c0.06,12.16-3.01,25.78-4.07,27.45c1.4-0.56,2.52-1.63,3.16-2.99
			C139.73,130.81,139.73,116.68,133.22,102.75z"/>
		<path class="st0" d="M42.68,169.61c6.45,3.34,15.37,5.63,23.82,6.12c16.7,0.97,20.56,1.16,32.07,0.58
			c2.83-4.3,1.08-6.52-0.34-6.87c-3.94,0.4-7.84,0.63-11.7,0.67h-1.16c-17.06,0-33.93-3.61-49.5-10.58
			c-3.27-0.17,0.34,5.21,2.15,7.2C39.49,167.82,41.05,168.78,42.68,169.61z"/>
		<path class="st0" d="M44.63,86.71c15.26-5.06,30.15-7.71,44.41-7.84c1.42,0,2.83,0,4.24,0.04c6.86-0.46,14.46-2.41,5.69-10.46
			c-1.86-1.7-7.27-4.93-12.11-6.47c-10.33-0.03-20.48,2.66-29.44,7.8c-4.63,2.62-8.89,5.83-12.69,9.55
			c-1.45,1.43-2.83,2.93-4.14,4.49C38.64,87.38,42.53,87.12,44.63,86.71z"/>
		<path class="st0" d="M152.87,113.44c1.26-3.59,3.93-4.01,5.66-0.15c0.79,1.77,1.01,5.29,1.34,9.99c0.19-0.53,0.34-1.07,0.42-1.62
			l0.19-5.44l0.16-4.14l0.09-2.07c0-0.2,0-0.27,0-0.39c-0.01-0.12-0.02-0.24-0.05-0.35c-0.05-0.23-0.13-0.46-0.24-0.67
			c-0.05-0.11-0.12-0.21-0.19-0.3l-0.31-0.39c-0.21-0.27-0.43-0.53-0.67-0.79c-0.45-0.52-0.89-1.02-1.34-1.5
			c-0.92-0.98-1.92-1.87-3-2.67c-0.33-0.24-0.67-0.47-1-0.67c-1.21-0.54-3.82-1.4-3.25,1.62
			C151.63,107.01,152.36,110.21,152.87,113.44z"/>
		<path class="st0" d="M101.97,178.13c-6.11,0.34-10.15,0.51-14.2,0.51c-5.44,0-10.88-0.3-21.38-0.92
			c-8.73-0.51-19.89-3.09-27.84-8.24c-1.34-0.38,0,2.14,0.98,3.83c0.91,1.14,1.89,2.22,2.95,3.22c3.84,3.67,8.41,6.49,13.4,8.28
			c1.23,0.42,2.49,0.74,3.77,0.96c0.31,0.05,0.63,0.1,0.95,0.13c0.32,0.03,0.63,0.07,0.98,0.09l2,0.15
			c2.67,0.21,5.36,0.37,8.07,0.49c5.38,0.25,10.77,0.42,16.15,0.39c4.88,0,9.75-0.11,14.62-0.33
			C104.52,185.59,106.42,178.81,101.97,178.13z"/>
		<path class="st0" d="M86.49,167.44h0.51c0.63-0.82,2.89-3.94,1.02-4.76l-1.34,0.03h-1.07c-16.68-0.01-33.14-3.85-48.1-11.22
			c-1.26-0.62-2.26-1.67-2.84-2.95c-7.63-16.7-7.66-33.62-0.08-50.33c0.63-1.4,1.77-2.51,3.19-3.1
			c17.68-7.32,34.87-11.08,51.17-11.25c4.66-0.04,9.31,0.22,13.94,0.78c0.49-0.25,0.96-0.88-0.08-2.41
			c-4.18-0.45-8.38-0.67-12.58-0.67h-1.13c-17.82,0.17-36.66,4.32-56,12.33c-1.09,0.46-1.96,1.31-2.43,2.39
			c-7.69,16.91-8.16,36.23-1.3,53.49c1.4,1.61,6.01,6.31,14.8,10.23C57.71,165.06,72.05,167.57,86.49,167.44z"/>
		<path class="st0" d="M21.67,102.25c-0.33,0.22-0.67,0.45-0.99,0.67c-0.55,0.4-1.07,0.83-1.58,1.28v5.89
			c-0.05,0.71-0.67,1.24-1.38,1.19c-0.64-0.05-1.15-0.55-1.19-1.19l0,0v-3.21c-0.06,0.07-0.13,0.15-0.2,0.22l-0.67,0.79l-0.31,0.39
			c-0.07,0.1-0.14,0.2-0.19,0.3c-0.11,0.21-0.19,0.43-0.24,0.67c-0.03,0.12-0.04,0.23-0.04,0.35c-0.01,0.13-0.01,0.26,0,0.39
			l0.09,2.07l0.16,4.14l0.3,8.28l0.4,8.02c0.02,0.14,0.06,0.27,0.13,0.39c0.09,0.18,0.21,0.35,0.33,0.51
			c0.43,0.6,0.84,1.19,1.22,1.8c0.75,1.21,1.45,2.43,2.12,3.63c0.37,0.67,0.74,1.34,1.1,2c-1.06-4.84-2.24-15.37,2.45-30.19
			c0.46-2.32,1.04-4.61,1.73-6.87C25.49,100.86,22.87,101.72,21.67,102.25z M21.48,111.55c0,0.81-0.65,1.47-1.46,1.47h-2
			c-0.81,0.01-1.47-0.64-1.48-1.45c0,0,0,0,0,0c0.8,0.72,2.02,0.65,2.74-0.14c0.33-0.36,0.5-0.84,0.5-1.33v-4.08h0.22
			c0.81-0.01,1.47,0.63,1.49,1.44c0,0.01,0,0.02,0,0.03V111.55z"/>
		<path class="st0" d="M64.91,101.13c-4.76,0.45-9.43,1.59-13.87,3.39c-0.55,0.23-1.11,0.47-1.65,0.74c-0.66,0.3-1.25,0.75-1.72,1.3
			c-0.48,0.56-0.84,1.21-1.04,1.92l-0.42,1.78c-0.48,2.35-0.81,4.72-0.99,7.12c-0.2,2.38-0.27,4.77-0.19,7.16
			c0.06,2.38,0.25,4.75,0.55,7.11c0.13,1.18,0.37,2.34,0.55,3.51c0.19,1.17,0.44,2.33,0.74,3.47c0.54,2.3,1.19,4.58,1.95,6.82
			l0.19-0.06c-1.23-4.54-2.04-9.18-2.43-13.86c-0.2-2.33-0.28-4.67-0.24-7c0.04-2.33,0.21-4.66,0.52-6.97
			c0.3-2.3,0.75-4.58,1.34-6.83l0.45-1.65c0.13-0.42,0.35-0.82,0.63-1.16c0.3-0.35,0.66-0.63,1.07-0.83l1.54-0.78
			c4.15-2,8.62-3.46,13.11-4.97L64.91,101.13z"/>
		<ellipse class="st0" cx="58.07" cy="119.66" rx="4.14" ry="8.26"/>
		<path class="st0" d="M166.54,132.21v-0.53v-1.04l-0.09-2.1l-0.13-4.14l-0.25-8.29l-0.11-4.14l-0.05-2
			c0.01-1.86-0.67-3.65-1.91-5.04l0,0l0,0l-0.36-0.39c-0.27-0.28-0.53-0.56-0.81-0.84c-0.5-0.5-1.05-1.02-1.67-1.58
			c-1.19-1.08-2.48-2.04-3.85-2.89c-1.75-1.08-3.64-1.94-5.61-2.55c-0.43-1.06-0.86-2.08-1.34-3.06c-1.02-2.25-2.79-4.08-5.01-5.17
			c-0.94-0.46-1.94-0.93-3.06-1.44c-5.15-9.17-12.59-16.84-21.59-22.28l-0.05-0.03h-0.06l-1.2-0.67c-0.8-0.46-1.63-0.94-2.51-1.38
			l0,0h-0.03L115,61.76l0,0l0,0l-0.65-0.39c-0.5-0.25-1.02-0.47-1.54-0.67l-1.88-0.71l0,0l0,0l-0.53-0.21
			c-0.53-0.22-1.08-0.41-1.63-0.57c-0.43-0.13-0.86-0.26-1.29-0.4c-0.89-0.28-1.81-0.57-2.79-0.8c-5.24-1.33-10.63-2-16.03-2h-1.07
			c-11.56,0.16-22.86,3.46-32.7,9.54c-8.81,5.47-16.21,12.93-21.61,21.78c-0.86,0.34-1.68,0.67-2.5,1.01
			c-2.5,1.04-4.5,2.99-5.61,5.46c-0.41,0.91-0.82,1.87-1.22,2.86c-0.5,0.15-1,0.33-1.49,0.51v-9.87c-0.1-2.56-2.25-4.55-4.8-4.45
			c-2.42,0.09-4.36,2.03-4.45,4.45v16.03c-0.13,0.13-0.26,0.25-0.39,0.39c-0.26,0.26-0.53,0.54-0.8,0.82l-0.37,0.39l0,0l0,0
			c-1.25,1.38-1.93,3.18-1.92,5.04l-0.05,2l-0.14,4.14l-0.22,8.28l-0.13,4.12l-0.07,2.06v1.06v0.53c0,0.4,0.02,0.79,0.06,1.19
			c0.11,0.8,0.33,1.57,0.67,2.3c0.27,0.59,0.6,1.15,1,1.67l0.05,0.07l0,0l0,0c0.23,0.31,0.47,0.67,0.71,1l0.36,0.52l2.25,3.34
			c0.77,1.18,1.54,2.34,2.39,3.53c0.85,1.18,1.74,2.4,2.67,3.53c0.96,1.24,2,2.42,3.11,3.53l0,0l0,0c0.81,0.76,1.67,1.45,2.58,2.08
			l0.2,0.45v0.05c0.51,5.16,2.98,9.75,7.35,13.68c0.35,1.05,0.77,2.06,1.27,3.05c1.39,2.73,3.17,5.24,5.28,7.47l0,0l0,0
			c2.05,2.19,4.34,4.15,6.81,5.85c2.49,1.75,5.18,3.18,8.02,4.28c1.49,0.57,3.02,1.02,4.58,1.34c0.46,0.1,0.88,0.17,1.28,0.22
			c0.39,0.05,0.77,0.11,1.17,0.15l2,0.21c2.63,0.27,5.34,0.51,8.24,0.72c5.02,0.35,10.42,0.54,16.52,0.58h0.05
			c6.29-0.05,11.54-0.23,16.51-0.59c2.91-0.21,5.61-0.45,8.22-0.71l2.04-0.22c0.37-0.04,0.77-0.09,1.14-0.15s0.82-0.13,1.28-0.23
			c1.55-0.32,3.08-0.77,4.56-1.34c2.85-1.1,5.56-2.55,8.07-4.3c2.47-1.69,4.75-3.65,6.79-5.84l0,0l0,0c2.11-2.23,3.89-4.76,5.29-7.5
			c0.53-1.04,0.98-2.12,1.34-3.23c4.18-3.83,6.56-8.29,7.1-13.28l0.21-0.43l0.07-0.17c0.95-0.66,1.86-1.38,2.71-2.17l0,0l0,0
			c1.12-1.07,2.18-2.2,3.15-3.41c0.94-1.13,1.84-2.32,2.67-3.53s1.61-2.35,2.4-3.55l2.23-3.34l0.37-0.52c0.24-0.36,0.47-0.67,0.71-1
			l0,0l0,0l0.05-0.07c0.39-0.52,0.73-1.08,1-1.67c0.34-0.74,0.57-1.52,0.67-2.32C166.41,133.03,166.49,132.62,166.54,132.21z
			 M147.36,153.84L147.36,153.84c-0.13,0.27-0.27,0.54-0.43,0.8l0,0c0,0.27-0.05,0.53-0.07,0.79c0,0.12-0.03,0.24-0.05,0.36
			c-0.07,0.45-0.15,0.89-0.25,1.34c0,0.11-0.05,0.21-0.07,0.32c-0.06,0.24-0.13,0.48-0.19,0.71c-0.07,0.23-0.09,0.27-0.13,0.39
			c-0.12,0.36-0.25,0.71-0.39,1.06c-0.06,0.15-0.13,0.31-0.19,0.47c-0.07,0.15-0.17,0.38-0.27,0.57c-0.09,0.19-0.27,0.53-0.42,0.8
			c-0.09,0.17-0.19,0.33-0.29,0.5c-0.1,0.17-0.25,0.41-0.39,0.61s-0.17,0.27-0.27,0.39c-0.21,0.3-0.43,0.59-0.67,0.89l-0.25,0.31
			c-0.21,0.25-0.42,0.51-0.67,0.75l-0.17,0.19c-0.28,0.31-0.57,0.6-0.87,0.9l-0.23,0.21c-0.31,0.29-0.63,0.59-0.96,0.88l0,0
			c-0.26,0.94-0.58,1.85-0.98,2.74c-0.13,0.3-0.27,0.59-0.42,0.89c-0.95,1.89-2.13,3.66-3.5,5.27c-0.41,0.49-0.83,0.97-1.26,1.44
			c-0.23,0.25-0.48,0.49-0.72,0.73c-1.12,1.13-2.32,2.19-3.57,3.18c-0.67,0.51-1.34,1-2,1.46c-1.14,0.8-2.32,1.52-3.54,2.18
			c-1.23,0.66-2.49,1.24-3.79,1.74c-0.33,0.13-0.67,0.24-1,0.35s-0.67,0.22-1,0.32c-0.67,0.2-1.34,0.37-2.06,0.51
			c-0.35,0.07-0.67,0.14-1.05,0.18c-0.38,0.04-0.71,0.11-1.04,0.14l-2,0.22c-2.7,0.28-5.41,0.51-8.12,0.7
			c-1.01,0.07-2,0.14-3.03,0.19c-3.02,0.17-6.05,0.28-9.09,0.33c-1.39,0-2.79,0.04-4.18,0.05l0,0c-2.72,0-5.44-0.07-8.16-0.16
			c-2.72-0.09-5.43-0.23-8.14-0.41c-1.34-0.1-2.69-0.21-4.06-0.33c-1.37-0.12-2.73-0.24-4.06-0.38l-2-0.22
			c-0.33,0-0.67-0.08-1.04-0.13c-0.37-0.05-0.71-0.11-1.06-0.19c-0.67-0.14-1.39-0.31-2.06-0.51c-0.67-0.19-1.34-0.43-2-0.67
			s-1.3-0.53-1.92-0.82c-0.96-0.43-1.88-0.92-2.78-1.43s-1.78-1.08-2.63-1.67c-0.57-0.39-1.13-0.8-1.68-1.22
			c-1.64-1.26-3.17-2.65-4.59-4.16c-0.46-0.51-0.92-1.03-1.34-1.56c-0.88-1.06-1.68-2.17-2.41-3.34c-0.36-0.59-0.67-1.19-1-1.8
			c-0.15-0.29-0.28-0.57-0.41-0.86c-0.13-0.29-0.21-0.48-0.3-0.72l-0.05-0.12c-0.22-0.57-0.42-1.15-0.58-1.74l0,0
			c-0.19-0.16-0.38-0.33-0.57-0.49l-0.35-0.31c-0.31-0.29-0.62-0.59-0.92-0.9l-0.29-0.29c-0.17-0.18-0.33-0.37-0.49-0.55
			c-0.16-0.19-0.18-0.21-0.27-0.31c-0.3-0.36-0.59-0.72-0.86-1.1l-0.15-0.2c-0.15-0.21-0.29-0.43-0.43-0.67L31,162.2
			c-0.27-0.43-0.51-0.88-0.75-1.34l-0.06-0.12c-0.13-0.25-0.25-0.5-0.36-0.75c-0.02-0.06-0.04-0.11-0.07-0.17
			c-0.21-0.5-0.4-1.01-0.56-1.53c0,0,0-0.06,0-0.09c-0.09-0.28-0.16-0.57-0.23-0.86c0,0,0-0.05,0-0.07
			c-0.14-0.56-0.24-1.13-0.31-1.7c0-0.05,0-0.09,0-0.14c-0.04-0.3-0.07-0.61-0.09-0.92l0,0c-0.09-0.17-0.18-0.33-0.26-0.51
			c-0.17-0.38-0.34-0.77-0.51-1.16l-0.06-0.14c-1.06-0.68-2.06-1.45-2.98-2.3c-1.02-0.97-1.98-2-2.87-3.1
			c-0.9-1.08-1.74-2.2-2.54-3.34s-1.58-2.29-2.33-3.45l-2.27-3.41c-0.39-0.55-0.76-1.11-1.16-1.64c-0.26-0.35-0.48-0.72-0.67-1.12
			c-0.2-0.44-0.33-0.91-0.39-1.4c-0.02-0.22-0.03-0.44-0.03-0.67v-0.51v-1.04l0.07-2.07l0.13-4.14l0.22-8.28l0.11-4.14l0.05-2.07
			c-0.01-0.83,0.22-1.64,0.67-2.34c0.11-0.17,0.24-0.34,0.38-0.49l0.36-0.39c0.24-0.25,0.49-0.51,0.73-0.75
			c0.43-0.44,0.89-0.86,1.34-1.28V87.29l0,0c0-0.17,0.04-0.34,0.1-0.5c0.03-0.07,0.07-0.15,0.12-0.21c0.39-0.59,1.19-0.75,1.78-0.35
			c0.14,0.09,0.26,0.21,0.35,0.35c0.05,0.07,0.09,0.14,0.12,0.21c0.07,0.16,0.1,0.33,0.1,0.5l0,0v15.4
			c0.32-0.22,0.67-0.44,0.98-0.67c1.95-1.2,4.09-2.09,6.32-2.62l0,0l0.04-0.11c0.25-0.67,0.5-1.3,0.77-1.94
			c0-0.04,0.03-0.09,0.05-0.13c0.29-0.67,0.59-1.39,0.9-2.08c0.48-1.04,1.2-1.96,2.09-2.67c0.34-0.27,0.71-0.52,1.09-0.73h0.05
			c0.05,0,0.11-0.05,0.17-0.08l0.45-0.21c1.13-0.46,2.25-0.92,3.34-1.34l0.13-0.06l0,0c5.14-8.81,12.36-16.24,21.02-21.64
			c9.33-5.78,20.06-8.93,31.03-9.11h1.01c5.14,0,10.27,0.63,15.26,1.88c1.34,0.33,2.63,0.79,3.94,1.18c0.67,0.18,1.3,0.46,1.94,0.67
			l1.96,0.77c0.67,0.23,1.25,0.57,1.87,0.85l1.86,0.89c1.23,0.62,2.4,1.34,3.59,2c8.82,5.35,16.05,12.96,20.93,22.05l0,0l0.19,0.09
			l1.28,0.58c0.84,0.38,1.68,0.78,2.53,1.18c0.17,0.09,0.35,0.18,0.51,0.28h0.03l0.1,0.07c1.22,0.77,2.19,1.88,2.79,3.19
			c0.32,0.71,0.63,1.42,0.93,2.14l0.08,0.19c0.27,0.67,0.53,1.34,0.79,2l0.04,0.11l0,0c2.24,0.53,4.37,1.43,6.33,2.64
			c1.2,0.74,2.33,1.59,3.38,2.53c0.52,0.47,1.04,0.96,1.53,1.45c0.25,0.25,0.49,0.5,0.73,0.75l0.36,0.39
			c0.14,0.15,0.27,0.32,0.38,0.49c0.45,0.7,0.68,1.51,0.67,2.34l0.05,2.07l0.11,4.14l0.22,8.28l0.13,4.14l0.07,2.07v1.04v0.51
			c0,0.22-0.01,0.45-0.03,0.67c-0.06,0.48-0.19,0.95-0.39,1.4c-0.18,0.39-0.41,0.77-0.67,1.12c-0.39,0.53-0.77,1.08-1.16,1.64
			l-2.27,3.41c-0.75,1.16-1.52,2.31-2.33,3.45s-1.64,2.27-2.54,3.34c-0.89,1.09-1.85,2.13-2.87,3.1c-0.95,0.89-1.99,1.69-3.1,2.38
			c-0.01,0.04-0.03,0.09-0.05,0.13C147.63,153.23,147.5,153.52,147.36,153.84z"/>
		<path class="st0" d="M143.25,114.2l-0.43-2.2c-0.13-0.74-0.32-1.46-0.51-2.19s-0.33-1.46-0.58-2.16
			c-0.87-2.86-1.93-5.67-3.17-8.39c-0.34-0.76-0.84-1.45-1.46-2c-0.31-0.28-0.65-0.53-1.02-0.73c-0.39-0.21-0.67-0.33-1.04-0.5
			c-1.34-0.63-2.71-1.24-4.08-1.8c-2.75-1.14-5.53-2.2-8.37-3.09c-2.3-0.72-4.62-1.36-6.95-1.92l0,0l-1.65-0.38
			c-2.91-0.62-5.83-1.14-8.77-1.48v0.13c2.91,0.55,5.8,1.17,8.65,1.94s5.67,1.61,8.45,2.6c2.78,0.99,5.52,2.06,8.21,3.26
			c1.34,0.59,2.67,1.22,4.01,1.86c0.63,0.25,1.21,0.61,1.72,1.06c0.48,0.45,0.86,0.99,1.11,1.6c2.42,5.34,4.07,10.99,4.9,16.79
			c0.8,5.81,0.61,11.72-0.56,17.46c-0.58,2.88-1.38,5.71-2.41,8.46c-0.47,1.4-1.08,2.73-1.64,4.1c-0.51,1.29-1.56,2.29-2.87,2.74
			c-2.78,1.15-5.59,2.24-8.42,3.25c-2.73,0.97-5.49,1.86-8.28,2.67c-5.81,1.7-11.73,2.98-17.72,3.83c-5.72,0.82-11.5,1.2-17.28,1.12
			v0.13c4.8,0.15,9.61-0.03,14.38-0.51c7.03-0.72,13.98-2.02,20.78-3.91c5.08-1.43,10.08-3.12,14.99-5.06
			c0.61-0.24,1.23-0.47,1.84-0.71c1.53-0.52,2.76-1.68,3.39-3.17c0.58-1.37,1.22-2.72,1.71-4.13c1.07-2.79,1.92-5.66,2.54-8.58
			c1.28-5.86,1.56-11.9,0.83-17.85L143.25,114.2z"/>
		<path d="M19.99,106.02h-0.22v4.08c0.02,1.07-0.84,1.95-1.91,1.97c-0.49,0.01-0.96-0.17-1.33-0.5c0.01,0.8,0.66,1.45,1.46,1.45h2
			c0.81,0,1.47-0.65,1.48-1.46c0,0,0,0,0-0.01v-4.06c0-0.81-0.65-1.47-1.46-1.47C20.02,106.02,20,106.02,19.99,106.02z"/>
		<path d="M163.19,131.76v-1.04l-0.07-2.07l-0.13-4.14l-0.22-8.28l-0.11-4.14l-0.05-2.07c0.01-0.83-0.22-1.64-0.67-2.34
			c-0.11-0.17-0.24-0.34-0.38-0.49l-0.36-0.39c-0.24-0.25-0.48-0.51-0.73-0.75c-0.49-0.49-1.01-0.98-1.53-1.45
			c-1.06-0.94-2.2-1.77-3.41-2.51c-1.96-1.23-4.11-2.13-6.36-2.67l0,0l-0.04-0.11c-0.25-0.67-0.51-1.34-0.79-2l-0.08-0.19
			c-0.29-0.71-0.61-1.43-0.93-2.14c-0.6-1.31-1.57-2.42-2.79-3.19l-0.1-0.07h-0.03c-0.17-0.1-0.34-0.19-0.51-0.28
			c-0.84-0.41-1.68-0.8-2.53-1.18l-1.28-0.58l-0.19-0.09l0,0C135,80.5,127.78,72.9,118.96,67.56c-1.2-0.67-2.36-1.38-3.59-2
			l-1.86-0.89c-0.62-0.28-1.23-0.61-1.87-0.85l-1.92-0.74c-0.67-0.23-1.28-0.51-1.94-0.67c-1.34-0.39-2.61-0.85-3.94-1.18
			c-4.99-1.26-10.11-1.9-15.26-1.91h-1.01c-10.96,0.17-21.67,3.29-31,9.05c-8.66,5.4-15.87,12.83-21.02,21.65l0,0l-0.13,0.06
			c-1.12,0.43-2.24,0.89-3.34,1.34l-0.45,0.21c-0.05,0.03-0.11,0.05-0.17,0.08h-0.05c-0.38,0.21-0.75,0.45-1.09,0.73
			c-0.9,0.72-1.61,1.63-2.09,2.67c-0.31,0.67-0.61,1.38-0.9,2.08c0,0.04,0,0.09-0.05,0.13c-0.27,0.67-0.52,1.29-0.77,1.94
			l-0.04,0.11l0,0c-2.26,0.56-4.42,1.48-6.39,2.73c-0.33,0.2-0.67,0.42-0.98,0.67V87.29c0-0.17-0.03-0.34-0.1-0.5
			c-0.03-0.07-0.07-0.15-0.12-0.21c-0.39-0.59-1.19-0.75-1.78-0.35c-0.14,0.09-0.26,0.21-0.35,0.35c-0.05,0.07-0.09,0.14-0.12,0.21
			c-0.06,0.16-0.1,0.33-0.1,0.5v17.46c-0.46,0.42-0.92,0.84-1.34,1.28c-0.25,0.25-0.49,0.5-0.73,0.75l-0.36,0.39
			c-0.14,0.15-0.27,0.32-0.38,0.49c-0.44,0.7-0.68,1.51-0.67,2.34l-0.07,2.09l-0.11,4.14l-0.22,8.28l-0.13,4.14l-0.07,2.07v1.04
			v0.51c0,0.22,0.01,0.45,0.03,0.67c0.06,0.48,0.19,0.95,0.39,1.4c0.18,0.39,0.41,0.77,0.67,1.12c0.39,0.53,0.77,1.08,1.16,1.64
			l2.27,3.41c0.75,1.16,1.52,2.31,2.33,3.45s1.64,2.27,2.54,3.34c0.89,1.09,1.85,2.13,2.87,3.1c0.92,0.86,1.92,1.63,2.98,2.3
			l0.06,0.14l0,0c0.17,0.39,0.34,0.77,0.51,1.16c0.08,0.18,0.17,0.35,0.26,0.51l0,0c0,0.31,0.05,0.61,0.09,0.92
			c0,0.05,0,0.09,0,0.14c0.07,0.57,0.18,1.14,0.31,1.7c0,0,0,0.05,0,0.07c0.07,0.29,0.15,0.57,0.23,0.86c0,0,0,0.06,0,0.09
			c0.16,0.52,0.35,1.03,0.56,1.53c0.03,0.05,0.05,0.11,0.07,0.17c0.11,0.25,0.23,0.51,0.36,0.75l0.06,0.12
			c0.23,0.45,0.48,0.89,0.75,1.34l0.17,0.25c0.14,0.22,0.29,0.43,0.43,0.67l0.15,0.2c0.27,0.37,0.55,0.73,0.86,1.1
			c0.09,0.11,0.18,0.21,0.27,0.31c0.09,0.1,0.33,0.37,0.49,0.55l0.29,0.29c0.29,0.31,0.6,0.6,0.92,0.9l0.35,0.31
			c0.19,0.17,0.37,0.33,0.57,0.49l0,0c0.17,0.59,0.36,1.17,0.58,1.74l0.05,0.12c0.09,0.24,0.19,0.49,0.3,0.72
			c0.11,0.23,0.26,0.57,0.41,0.86c0.3,0.61,0.67,1.22,1,1.8c0.72,1.17,1.53,2.28,2.41,3.34c0.44,0.53,0.9,1.05,1.34,1.56
			c1.44,1.52,3.01,2.91,4.68,4.17c0.55,0.42,1.11,0.83,1.68,1.22c1.71,1.19,3.52,2.23,5.41,3.1c0.63,0.29,1.28,0.56,1.92,0.82
			c0.65,0.25,1.34,0.47,2,0.67s1.34,0.37,2.06,0.51c0.35,0.08,0.67,0.14,1.06,0.19c0.39,0.05,0.71,0.1,1.04,0.13l2,0.22
			c1.34,0.14,2.69,0.26,4.06,0.38c1.37,0.12,2.73,0.22,4.06,0.33c5.42,0.38,10.86,0.54,16.3,0.57c1.4,0,2.79,0,4.18-0.05
			c4.05-0.08,8.09-0.24,12.12-0.53c2.71-0.2,5.42-0.43,8.12-0.7l2-0.22c0.33,0,0.67-0.09,1.04-0.14s0.67-0.11,1.05-0.18
			c0.7-0.14,1.39-0.31,2.06-0.51c0.33-0.1,0.67-0.21,1-0.32s0.67-0.23,1-0.35c1.3-0.5,2.57-1.08,3.79-1.74
			c1.22-0.66,2.4-1.38,3.54-2.18c0.67-0.47,1.34-0.96,2-1.46c1.25-0.99,2.44-2.05,3.57-3.18c0.24-0.25,0.49-0.48,0.72-0.73
			c0.43-0.47,0.85-0.95,1.26-1.44c1.37-1.61,2.55-3.38,3.5-5.27c0.15-0.29,0.29-0.59,0.42-0.89c0.39-0.89,0.72-1.8,0.98-2.74l0,0
			c0.33-0.29,0.67-0.58,0.96-0.88l0.23-0.21c0.29-0.29,0.59-0.59,0.87-0.9l0.17-0.21c0.23-0.25,0.44-0.5,0.67-0.75l0.25-0.31
			c0.23-0.29,0.45-0.59,0.67-0.89c0.09-0.13,0.18-0.26,0.27-0.39s0.26-0.4,0.39-0.61c0.13-0.21,0.2-0.33,0.29-0.5
			c0.15-0.27,0.29-0.53,0.42-0.8c0.09-0.19,0.18-0.38,0.27-0.57s0.13-0.31,0.19-0.47c0.14-0.35,0.27-0.67,0.39-1.06
			c0.04-0.13,0.09-0.26,0.13-0.39c0.04-0.13,0.13-0.47,0.19-0.71c0-0.11,0.05-0.21,0.07-0.32c0.1-0.43,0.18-0.87,0.25-1.34
			c0-0.12,0.03-0.24,0.05-0.36c0-0.26,0.06-0.52,0.07-0.79l0,0c0.16-0.26,0.3-0.52,0.43-0.8l0,0c0.14-0.3,0.27-0.61,0.4-0.91l0,0
			c0.02-0.04,0.04-0.08,0.05-0.13c1.11-0.69,2.14-1.49,3.1-2.38c1.02-0.97,1.98-2,2.87-3.1c0.9-1.08,1.74-2.2,2.54-3.34
			c0.79-1.14,1.58-2.29,2.33-3.45l2.27-3.41c0.39-0.55,0.76-1.11,1.16-1.64c0.26-0.35,0.49-0.72,0.67-1.12
			c0.2-0.44,0.33-0.91,0.39-1.4c0.02-0.22,0.03-0.44,0.03-0.67L163.19,131.76z M124.78,89.67c-2.58-0.88-5.17-1.66-7.79-2.34
			c0.67-1.4,0.21-2.26-0.21-2.71c2.7,0.63,5.37,1.35,8.02,2.17c0.51,0.88,0.51,1.97-0.01,2.85L124.78,89.67z M105.85,65.34
			c5.62,2.34,16.82,8.24,17.62,18.23c-2.49-0.71-4.99-1.34-7.52-1.89c-1.69-8.32-10.96-15.75-12.9-17.25
			C104,64.71,104.93,65.01,105.85,65.34z M40.64,83.84c1.31-1.56,2.69-3.06,4.14-4.49c3.8-3.72,8.07-6.93,12.69-9.55
			c8.94-5.14,19.09-7.83,29.4-7.81c4.84,1.54,10.25,4.77,12.11,6.47c8.77,8.05,1.17,10.02-5.69,10.46c-1.42,0-2.83-0.05-4.24-0.04
			c-14.26,0.13-29.15,2.78-44.41,7.84C42.53,87.12,38.64,87.38,40.64,83.84z M23.21,110.7c-4.68,14.81-3.51,25.39-2.45,30.19
			c-0.36-0.67-0.73-1.34-1.1-2c-0.67-1.21-1.34-2.43-2.12-3.63c-0.37-0.61-0.78-1.2-1.22-1.8c-0.13-0.16-0.24-0.33-0.33-0.51
			c-0.06-0.12-0.11-0.25-0.13-0.39l-0.4-8.02l-0.3-8.28L15,112.1l-0.09-2.07c-0.01-0.13-0.01-0.26,0-0.39
			c0-0.12,0.01-0.24,0.04-0.35c0.05-0.23,0.13-0.46,0.24-0.67c0.06-0.11,0.12-0.21,0.19-0.3l0.31-0.39l0.67-0.79
			c0.07-0.07,0.14-0.15,0.2-0.22v3.18l0,0c0.05,0.71,0.67,1.24,1.38,1.19c0.64-0.05,1.15-0.55,1.19-1.19v-5.88
			c0.51-0.45,1.03-0.88,1.58-1.28c0.32-0.24,0.67-0.47,0.99-0.67c1.2-0.53,3.8-1.39,3.27,1.58C24.27,106.1,23.68,108.39,23.21,110.7
			z M29.34,149.77c-6.86-17.27-6.39-36.58,1.3-53.49c0.48-1.08,1.35-1.93,2.43-2.39c19.37-8.02,38.19-12.16,56-12.33h1.13
			c4.2,0,8.4,0.22,12.58,0.67c1.04,1.52,0.57,2.15,0.08,2.41c-4.61-0.56-9.26-0.81-13.9-0.77C72.68,84.03,55.49,87.8,37.86,95.1
			c-1.43,0.59-2.58,1.69-3.22,3.1c-7.58,16.7-7.55,33.63,0.08,50.33c0.58,1.28,1.58,2.32,2.84,2.95
			c14.96,7.37,31.42,11.21,48.1,11.22h1.04l1.34-0.03c1.88,0.82-0.38,3.94-1.02,4.76h-0.51c-14.45,0.14-28.81-2.38-42.35-7.44
			C35.35,156.09,30.74,151.38,29.34,149.77z M133.67,115.4c-1.44-4.75-3.43-3.34-3.65-0.67c-0.19,2.3-0.09,5.59-0.09,5.59l0,0
			c0.37,7.9-0.35,16.86-3.93,24.16c-0.98,2-0.98,3.19-9.59,5.52l-18.16,4.01c8.95-2.67,21.16-6.07,22.51-10.69
			c1.93-5.69,5.78-30.46-2-39.3c-0.47-0.53-11.6-10.36-29.96-10.44c-13.41,0.13-27.59,3.17-42.16,9.05
			c-0.66,0.33-1.22,0.83-1.62,1.46c-8.73,11.92-1.62,42.76,0.19,43.63c-1.24-0.6-2.23-1.6-2.82-2.85
			c-6.52-13.92-6.54-28.06-0.06-41.98c0.63-1.36,1.76-2.43,3.15-2.99c30.44-12.29,59.02-12.29,84.92,0c1.24,0.59,2.24,1.6,2.82,2.85
			c6.52,13.93,6.54,28.06,0.07,41.98c-0.63,1.36-1.76,2.43-3.16,2.99c1.06-1.67,4.13-15.29,4.07-27.45
			C133.95,117.84,134.04,116.64,133.67,115.4z M51.85,106.29l-1.54,0.78c-0.41,0.2-0.77,0.48-1.07,0.83
			c-0.28,0.34-0.5,0.74-0.63,1.16l-0.41,1.65c-0.59,2.25-1.03,4.53-1.34,6.83c-0.3,2.31-0.47,4.64-0.5,6.97
			c-0.04,2.34,0.04,4.67,0.24,7c0.38,4.69,1.19,9.33,2.43,13.86l-0.19,0.06c-0.77-2.24-1.43-4.52-1.97-6.82
			c-0.3-1.14-0.5-2.31-0.74-3.47c-0.24-1.16-0.42-2.34-0.55-3.51c-0.31-2.36-0.49-4.73-0.55-7.11c-0.07-2.39-0.01-4.78,0.19-7.16
			c0.18-2.39,0.51-4.77,0.99-7.12l0.42-1.78c0.2-0.71,0.56-1.37,1.04-1.92c0.48-0.55,1.06-0.99,1.72-1.3
			c0.54-0.27,1.1-0.51,1.65-0.74c4.43-1.8,9.11-2.94,13.87-3.39l0.05,0.19C60.47,102.83,56,104.28,51.85,106.29z M62.21,119.66
			c-2.36,1.4-3.77,4.13-4.14,8.26c-0.36-4.14-1.76-6.86-4.13-8.26c2.36-1.4,3.77-4.13,4.13-8.26c0.37,4.14,1.77,6.86,4.16,8.26
			H62.21z M35.87,159.53c15.57,6.98,32.43,10.59,49.49,10.6h1.16c3.85-0.03,7.76-0.27,11.7-0.67c1.42,0.35,3.17,2.57,0.34,6.87
			c-11.5,0.58-15.37,0.39-32.07-0.58c-8.46-0.49-17.37-2.78-23.82-6.12c-1.64-0.83-3.2-1.8-4.68-2.89
			C36.18,164.73,32.59,159.35,35.87,159.53z M102.42,186.72c-4.87,0.21-9.74,0.35-14.62,0.33c-5.38,0-10.77-0.14-16.15-0.39
			c-2.67-0.13-5.36-0.29-8.07-0.49l-2-0.15c-0.35,0-0.67-0.05-0.98-0.09s-0.63-0.08-0.95-0.13c-1.28-0.22-2.54-0.54-3.77-0.96
			c-5-1.8-9.56-4.62-13.4-8.28c-1.06-1-2.04-2.08-2.95-3.22c-1-1.68-2.3-4.21-0.98-3.83c7.95,5.14,19.11,7.73,27.84,8.24
			c10.5,0.61,15.95,0.92,21.38,0.92c4.05,0,8.09-0.17,14.2-0.51c4.46,0.66,2.55,7.44,0.45,8.56V186.72z M142.73,134.29
			c-0.62,2.92-1.47,5.79-2.54,8.58c-0.49,1.41-1.13,2.76-1.71,4.13c-0.62,1.49-1.86,2.64-3.39,3.17c-0.61,0.25-1.22,0.47-1.84,0.71
			c-4.91,1.93-9.92,3.62-15,5.04c-6.81,1.88-13.76,3.19-20.78,3.91c-4.78,0.49-9.58,0.66-14.38,0.51v-0.13
			c5.77,0.09,11.54-0.28,17.26-1.1c5.99-0.86,11.91-2.14,17.72-3.83c2.79-0.8,5.55-1.7,8.28-2.67c2.83-1.01,5.64-2.09,8.42-3.25
			c1.31-0.45,2.36-1.45,2.87-2.74c0.56-1.34,1.18-2.67,1.64-4.1c1.02-2.75,1.83-5.58,2.41-8.46c1.17-5.75,1.36-11.65,0.56-17.46
			c-0.83-5.8-2.48-11.45-4.9-16.79c-0.25-0.6-0.63-1.15-1.11-1.6c-0.51-0.44-1.1-0.8-1.72-1.06c-1.34-0.67-2.67-1.28-4.01-1.86
			c-2.67-1.2-5.44-2.26-8.21-3.26c-2.77-1-5.6-1.85-8.45-2.6s-5.75-1.4-8.65-1.94v-0.13c2.95,0.35,5.87,0.86,8.77,1.48l1.65,0.38
			l0,0c2.34,0.56,4.66,1.2,6.95,1.92c2.84,0.89,5.63,1.94,8.37,3.09c1.38,0.57,2.73,1.18,4.08,1.8c0.35,0.17,0.67,0.29,1.04,0.5
			c0.37,0.2,0.71,0.45,1.02,0.73c0.62,0.56,1.12,1.24,1.46,2c1.25,2.72,2.32,5.51,3.21,8.37c0.25,0.71,0.39,1.44,0.58,2.16
			s0.38,1.45,0.51,2.19l0.43,2.2l0.31,2.22c0.73,5.95,0.45,11.99-0.84,17.85L142.73,134.29z M160.7,110.02l-0.09,2.07l-0.16,4.14
			l-0.19,5.44c-0.09,0.55-0.23,1.1-0.42,1.62c-0.3-4.68-0.52-8.22-1.34-9.99c-1.73-3.89-4.4-3.44-5.66,0.15
			c-0.5-3.24-1.23-6.44-2.18-9.57c-0.57-3.02,2.04-2.16,3.25-1.62c0.33,0.22,0.67,0.45,1,0.67c1.08,0.8,2.08,1.7,3,2.67
			c0.45,0.49,0.89,0.99,1.34,1.5c0.21,0.26,0.43,0.52,0.67,0.79l0.31,0.39c0.07,0.09,0.14,0.19,0.19,0.3
			c0.11,0.21,0.19,0.43,0.24,0.67c0.03,0.12,0.04,0.23,0.05,0.35c0.01,0.13,0.01,0.2,0,0.4L160.7,110.02z"/>
	</g>
</g>
</svg>
