<svg width="685" height="187" viewBox="0 0 685 187" fill="none" xmlns="http://www.w3.org/2000/svg">
<g clip-path="url(#clip0)">
<path fill-rule="evenodd" clip-rule="evenodd" d="M115.02 160.687C102.248 185.849 73.9603 194.47 51.8377 179.944C29.7151 165.415 22.1354 133.241 34.9086 108.08C47.6804 82.9182 75.9681 74.2972 98.0907 88.8243C120.213 103.352 127.793 135.526 115.02 160.687ZM56.4635 170.831C74.1611 182.453 96.7908 175.556 107.009 155.427C117.227 135.298 111.162 109.558 93.4649 97.9361C75.7674 86.3145 53.1377 93.2112 42.9194 113.34C32.7012 133.469 38.766 159.21 56.4635 170.831Z" fill="#482402"/>
<path fill-rule="evenodd" clip-rule="evenodd" d="M99.7996 150.693C91.8814 166.292 74.3422 171.637 60.6269 162.631C46.9116 153.624 42.2111 133.676 50.1306 118.075C58.0488 102.475 75.5881 97.1301 89.3033 106.136C103.019 115.144 107.719 135.092 99.7996 150.693ZM65.2527 153.518C74.5429 159.62 86.4241 156 91.7887 145.431C97.1533 134.863 93.9691 121.35 84.6775 115.249C75.3873 109.148 63.5061 112.768 58.1415 123.336C52.7769 133.904 55.9612 147.418 65.2527 153.518Z" fill="#482402"/>
<path fill-rule="evenodd" clip-rule="evenodd" d="M87.6234 109.446C75.5144 101.494 60.0306 106.212 53.0391 119.987C46.0489 133.759 50.1972 151.37 62.3062 159.321C74.4152 167.273 89.8989 162.555 96.8904 148.782C103.882 135.009 99.7323 117.398 87.6234 109.446ZM42.92 113.34C53.1382 93.2113 75.7679 86.3144 93.4655 97.9362C111.164 109.557 117.228 135.298 107.01 155.427C96.7913 175.556 74.1616 182.453 56.4641 170.83C38.7665 159.21 32.703 133.469 42.92 113.34Z" fill="#F6E6D2"/>
<path d="M151.188 47.352C148.185 53.2674 143.754 57.6592 138.675 60.2887C134.742 62.3255 132.315 69.8346 134.918 73.76C144.853 88.751 149.398 107.605 147.591 126.246C147.305 129.192 149.048 131.931 151.483 132.983C152.632 133.48 153.762 134.087 154.861 134.809C165.923 142.071 169.712 158.159 163.327 170.74C156.94 183.321 142.796 187.632 131.735 180.368L27.1894 111.715C16.1281 104.451 12.3381 88.3645 18.7242 75.7837C25.1107 63.2028 39.2546 58.8922 50.3159 66.1559C51.4151 66.8776 52.4422 67.6864 53.3946 68.5703C55.4128 70.4433 58.3705 70.7905 60.4698 69.0367C73.7603 57.936 90.3883 52.9851 106.77 55.2765C111.06 55.8764 115.565 49.733 115.149 44.8399C114.611 38.5227 115.74 31.9614 118.743 26.0461C126.406 10.9489 138.753 14.8882 152.026 23.6045C152.026 23.6045 158.851 32.2549 151.188 47.352Z" fill="#E89B37"/>
<path d="M151.188 47.352C148.185 53.2674 143.754 57.6592 138.675 60.2887C134.742 62.3255 132.315 69.8346 134.918 73.76C144.853 88.751 149.398 107.605 147.591 126.246C147.305 129.192 149.048 131.931 151.483 132.983C152.632 133.48 153.762 134.087 154.861 134.809C165.923 142.071 169.712 158.159 163.327 170.74C156.94 183.321 142.796 187.632 131.735 180.368L27.1894 111.715C16.1281 104.451 12.3381 88.3645 18.7242 75.7837C25.1107 63.2028 39.2546 58.8922 50.3159 66.1559C51.4151 66.8776 52.4422 67.6864 53.3946 68.5703C55.4128 70.4433 58.3705 70.7905 60.4698 69.0367C73.7603 57.936 90.3883 52.9851 106.77 55.2765C111.06 55.8764 115.565 49.733 115.149 44.8399C114.611 38.5227 115.74 31.9614 118.743 26.0461C126.406 10.9489 138.753 14.8882 152.026 23.6045C152.026 23.6045 158.851 32.2549 151.188 47.352Z" fill="url(#paint0_linear)"/>
<path d="M140.78 121.774C142.587 103.134 138.043 84.2793 128.108 69.2883L125.578 74.2719C129.401 95.0063 126.295 95.3966 124.759 111.253C124.473 114.198 126.216 116.937 128.651 117.99C129.8 118.486 130.93 119.094 132.029 119.815C143.091 127.079 146.88 143.167 140.493 155.748C134.108 168.327 119.964 172.639 108.903 165.375L124.925 175.896C135.986 183.16 150.13 178.85 156.516 166.269C162.903 153.688 159.112 137.601 148.051 130.337C146.952 129.615 145.823 129.007 144.674 128.511C142.239 127.46 140.495 124.72 140.78 121.774Z" fill="#E28432"/>
<path fill-rule="evenodd" clip-rule="evenodd" d="M134.842 50.7127C138.224 48.9613 141.169 46.0465 143.177 42.0913C148.285 32.0266 145.253 19.1569 136.404 13.3461C127.555 7.53512 116.241 10.9836 111.132 21.0483C109.124 25.0035 108.376 29.3612 108.734 33.5687C109.261 39.7518 106.786 45.2861 104.034 48.8273C101.341 52.2926 96.3653 56.3485 90.0186 55.4609C75.9803 53.4973 61.7141 57.7443 50.3233 67.2586C44.2676 72.3177 36.6415 70.841 31.9256 66.4648C31.3554 65.9359 30.7363 65.448 30.0683 65.0093C23.4308 60.6511 14.9451 63.2374 11.1134 70.7859C7.28173 78.3344 9.55564 87.9868 16.1922 92.3449L136.36 171.257C142.997 175.615 151.482 173.028 155.314 165.48C159.146 157.93 156.873 148.279 150.235 143.921C149.567 143.481 148.886 143.115 148.199 142.82C142.509 140.362 137.572 133.588 138.395 125.093C139.944 109.115 136.045 92.9403 127.531 80.0935C123.681 74.2862 124.282 67.3574 125.575 62.9725C126.895 58.4914 129.871 53.2865 134.842 50.7127ZM138.675 60.2886C143.754 57.6591 148.185 53.2675 151.188 47.352C158.851 32.255 154.303 12.9504 141.03 4.23409C127.756 -4.48218 110.783 0.690485 103.12 15.7875C100.117 21.7029 98.9896 28.2642 99.5264 34.5815C99.9434 39.4744 95.4385 45.618 91.1487 45.018C74.7665 42.7267 58.1386 47.6776 44.848 58.7783C42.7488 60.5321 39.791 60.1849 37.7729 58.3119C36.8191 57.428 35.792 56.6191 34.6929 55.8974C23.6316 48.6338 9.48833 52.9444 3.10215 65.5251C-3.2839 78.1061 0.505824 94.1933 11.567 101.456L131.735 180.368C142.796 187.632 156.94 183.321 163.326 170.74C169.712 158.159 165.922 142.072 154.861 134.809C153.762 134.087 152.632 133.48 151.483 132.983C149.047 131.931 147.305 129.192 147.59 126.246C149.397 107.605 144.853 88.7509 134.918 73.7599C132.315 69.8345 134.741 62.3254 138.675 60.2886Z" fill="#482402"/>
<path fill-rule="evenodd" clip-rule="evenodd" d="M95.8504 74.9444C95.2326 77.7635 92.7228 79.4792 90.2439 78.7764C87.4818 77.9933 82.4132 77.419 76.8452 78.5486C71.3287 79.6675 65.5806 82.3988 61.0178 87.9319C59.2712 90.051 56.3444 90.1578 54.4807 88.1702C52.617 86.1826 52.5243 82.8533 54.2709 80.7341C60.521 73.1558 68.2642 69.6018 75.2209 68.1905C82.1236 66.7903 88.5089 67.441 92.4808 68.5673C94.9598 69.2702 96.4683 72.1253 95.8504 74.9444Z" fill="#482402"/>
<path d="M199.993 118.736C201.003 119.064 202.3 119.31 203.886 119.474C205.471 119.556 206.985 119.597 208.427 119.597C211.31 119.597 213.688 118.941 215.562 117.63C217.508 116.236 218.481 114.104 218.481 111.235C218.481 108.53 217.688 106.603 216.103 105.456C214.517 104.308 212.102 103.734 208.859 103.734H199.993V118.736ZM199.993 88.7321H207.886C210.985 88.7321 213.22 88.0763 214.589 86.7646C216.031 85.4529 216.751 83.5264 216.751 80.985C216.751 78.7715 215.923 77.0089 214.265 75.6972C212.679 74.3855 210.264 73.7297 207.021 73.7297C205.94 73.7297 204.678 73.7707 203.237 73.8527C201.867 73.9346 200.786 74.0576 199.993 74.2216V88.7321ZM207.021 136.075C205.796 136.075 204.354 136.034 202.696 135.952C201.039 135.87 199.309 135.706 197.507 135.46C195.777 135.214 194.047 134.886 192.317 134.477C190.587 134.149 189.002 133.657 187.56 133.001C183.596 131.279 181.614 128.287 181.614 124.024V66.5974C181.614 64.8758 182.01 63.5641 182.803 62.6623C183.668 61.6786 184.821 60.8998 186.263 60.3259C188.713 59.3421 191.777 58.6453 195.453 58.2354C199.129 57.7435 202.913 57.4976 206.805 57.4976C216.031 57.4976 223.13 59.2601 228.104 62.7853C233.077 66.3105 235.564 71.7622 235.564 79.1404C235.564 82.8295 234.627 86.0268 232.753 88.7321C230.879 91.3555 228.356 93.282 225.184 94.5117C228.788 95.6595 231.78 97.75 234.158 100.783C236.609 103.816 237.834 107.628 237.834 112.219C237.834 120.335 235.167 126.361 229.833 130.296C224.572 134.149 216.968 136.075 207.021 136.075Z" fill="white"/>
<path d="M269.636 120.827C270.861 120.827 272.194 120.704 273.636 120.458C275.15 120.13 276.267 119.72 276.988 119.228V109.391L269.203 110.128C267.185 110.292 265.527 110.784 264.23 111.604C262.932 112.424 262.284 113.654 262.284 115.293C262.284 116.933 262.824 118.285 263.906 119.351C265.059 120.335 266.969 120.827 269.636 120.827ZM268.771 72.5C272.663 72.5 276.195 72.9509 279.366 73.8527C282.61 74.7545 285.348 76.1481 287.583 78.0337C289.889 79.8372 291.655 82.1737 292.881 85.043C294.106 87.8303 294.719 91.1505 294.719 95.0036V122.548C294.719 124.68 294.178 126.443 293.097 127.836C292.088 129.148 290.862 130.296 289.421 131.279C284.736 134.477 278.141 136.075 269.636 136.075C265.816 136.075 262.356 135.665 259.257 134.846C256.229 134.026 253.598 132.796 251.364 131.156C249.202 129.517 247.508 127.426 246.283 124.885C245.129 122.344 244.553 119.392 244.553 116.031C244.553 110.374 246.03 106.029 248.985 102.996C251.941 99.9629 256.518 98.0773 262.716 97.3401L276.879 95.6185V94.7577C276.879 92.3803 275.942 90.6997 274.068 89.7159C272.266 88.6501 269.636 88.1173 266.176 88.1173C263.437 88.1173 260.77 88.4452 258.175 89.101C255.581 89.7569 253.238 90.5767 251.148 91.5605C250.211 90.8226 249.418 89.7159 248.769 88.2402C248.121 86.6826 247.796 85.084 247.796 83.4444C247.796 81.3129 248.229 79.6323 249.094 78.4026C250.031 77.0909 251.436 75.9842 253.31 75.0824C255.4 74.1806 257.851 73.5248 260.662 73.1149C263.545 72.7049 266.248 72.5 268.771 72.5Z" fill="white"/>
<path d="M306.172 54.0545C306.893 53.8086 308.046 53.5627 309.632 53.3167C311.217 52.9888 312.839 52.8248 314.497 52.8248C316.082 52.8248 317.488 52.9478 318.713 53.1937C320.011 53.4397 321.092 53.9316 321.957 54.6694C322.822 55.4072 323.47 56.432 323.903 57.7436C324.335 58.9733 324.552 60.613 324.552 62.6625V74.7136C326.354 73.8938 328.047 73.3199 329.633 72.992C331.291 72.6641 333.093 72.5001 335.039 72.5001C338.499 72.5001 341.778 73.197 344.877 74.5906C347.977 75.9843 350.716 78.0338 353.094 80.7392C355.473 83.3625 357.347 86.6417 358.716 90.5768C360.086 94.5119 360.77 99.0612 360.77 104.226C360.77 109.555 360.05 114.228 358.608 118.245C357.239 122.18 355.293 125.459 352.77 128.082C350.247 130.706 347.148 132.714 343.472 134.108C339.868 135.42 335.868 136.075 331.471 136.075C326.714 136.075 322.678 135.42 319.362 134.108C316.046 132.878 313.235 131.32 310.929 129.435C307.758 126.894 306.172 123.614 306.172 119.597V54.0545ZM331.471 119.597C334.787 119.597 337.345 118.327 339.147 115.785C341.021 113.162 341.958 109.309 341.958 104.226C341.958 99.0612 341.021 95.2087 339.147 92.6673C337.273 90.1259 334.751 88.8552 331.579 88.8552C330.138 88.8552 328.876 89.0192 327.795 89.3471C326.786 89.675 325.669 90.1669 324.443 90.8227V117.63C325.236 118.204 326.173 118.696 327.254 119.105C328.408 119.433 329.813 119.597 331.471 119.597Z" fill="white"/>
<path d="M376.572 118.859C375.779 116.81 374.915 114.514 373.978 111.973C373.113 109.432 372.176 106.521 371.167 103.242C370.23 99.9629 369.219 96.2334 368.139 92.0524C367.13 87.7894 366.048 82.9115 364.895 77.4188C365.904 76.2711 367.238 75.2874 368.895 74.4676C370.625 73.5658 372.5 73.1149 374.518 73.1149C377.041 73.1149 379.131 73.7297 380.789 74.9594C382.445 76.1072 383.672 78.3206 384.465 81.5999L393.006 115.416H393.438C394.303 112.629 395.132 109.596 395.924 106.316C396.789 103.037 397.619 99.676 398.412 96.2334C399.205 92.7082 399.925 89.224 400.574 85.7808C401.295 82.2557 401.908 78.8125 402.412 75.4513C405.007 73.8937 407.854 73.1149 410.953 73.1149C413.476 73.1149 415.566 73.7297 417.224 74.9594C418.88 76.1891 419.711 78.3206 419.711 81.3539C419.711 83.5674 419.458 86.1498 418.954 89.1011C418.449 91.9704 417.765 95.0446 416.9 98.3233C416.107 101.602 415.134 105.005 413.98 108.53C412.899 111.973 411.746 115.375 410.521 118.736C409.295 122.098 408.034 125.295 406.737 128.328C405.439 131.279 404.178 133.944 402.953 136.321C400.934 140.338 399.06 143.617 397.331 146.159C395.601 148.7 393.943 150.668 392.357 152.061C390.772 153.537 389.186 154.521 387.6 155.013C386.014 155.587 384.355 155.874 382.626 155.874C379.598 155.874 377.149 154.849 375.275 152.799C373.401 150.75 372.284 148.085 371.923 144.806C374.23 142.757 376.536 140.461 378.843 137.92C381.149 135.46 383.24 132.919 385.114 130.296C383.888 129.886 382.553 128.943 381.113 127.467C379.744 125.91 378.229 123.04 376.572 118.859Z" fill="white"/>
<path d="M447.904 104.472C444.733 103.242 441.85 102.012 439.255 100.783C436.66 99.471 434.426 97.9139 432.552 96.1103C430.678 94.3068 429.2 92.1753 428.119 89.7159C427.11 87.1745 426.605 84.1002 426.605 80.4931C426.605 73.5247 428.948 67.9501 433.633 63.7691C438.39 59.5881 445.021 57.4976 453.526 57.4976C456.626 57.4976 459.509 57.7435 462.176 58.2354C464.842 58.7273 467.113 59.5061 468.987 60.5718C470.933 61.5556 472.447 62.8673 473.528 64.5069C474.609 66.0645 475.15 67.9091 475.15 70.0406C475.15 72.1721 474.717 74.0166 473.852 75.5742C472.987 77.0499 471.942 78.3206 470.717 79.3863C469.131 78.2386 467.005 77.2548 464.338 76.435C461.671 75.5333 458.752 75.0824 455.581 75.0824C452.337 75.0824 449.958 75.6152 448.445 76.681C446.931 77.6647 446.174 78.9354 446.174 80.4931C446.174 81.7228 446.643 82.7475 447.58 83.5673C448.517 84.3052 449.922 85.002 451.796 85.6578L457.527 87.7483C464.302 90.2077 469.491 93.364 473.095 97.2171C476.771 100.988 478.609 106.152 478.609 112.711C478.609 119.679 476.195 125.336 471.365 129.681C466.536 133.944 459.437 136.075 450.067 136.075C446.751 136.075 443.652 135.747 440.769 135.091C437.958 134.518 435.471 133.657 433.309 132.509C431.218 131.279 429.561 129.804 428.335 128.082C427.182 126.279 426.605 124.229 426.605 121.934C426.605 119.556 427.218 117.548 428.443 115.908C429.669 114.186 431.002 112.875 432.444 111.973C434.462 113.777 436.913 115.334 439.796 116.646C442.751 117.958 445.958 118.613 449.418 118.613C452.95 118.613 455.436 117.999 456.878 116.769C458.319 115.539 459.04 114.104 459.04 112.465C459.04 110.825 458.464 109.596 457.31 108.776C456.157 107.874 454.535 107.013 452.445 106.193L447.904 104.472Z" fill="white"/>
<path d="M516.343 132.263C515.334 133.247 513.964 134.026 512.234 134.6C510.504 135.255 508.45 135.583 506.072 135.583C503.117 135.583 500.558 135.091 498.395 134.108C496.233 133.206 494.792 131.894 494.071 130.173C493.278 128.205 492.341 125.09 491.26 120.827C490.251 116.564 489.242 111.891 488.233 106.808C487.224 101.725 486.25 96.5613 485.313 91.3145C484.449 86.0678 483.764 81.4359 483.259 77.4188C484.268 76.2711 485.602 75.2874 487.26 74.4676C488.989 73.5658 490.863 73.1149 492.882 73.1149C495.404 73.1149 497.459 73.7707 499.044 75.0824C500.702 76.3121 501.711 78.4846 502.071 81.5998C502.792 87.8304 503.405 92.9951 503.909 97.0941C504.414 101.111 504.81 104.431 505.099 107.054C505.459 109.596 505.711 111.563 505.856 112.957C506.072 114.268 506.252 115.334 506.396 116.154H506.829C507.045 114.842 507.405 112.957 507.91 110.497C508.486 107.956 509.135 105.087 509.856 101.889C510.577 98.6922 511.333 95.2496 512.126 91.5605C512.919 87.7894 513.712 84.0593 514.505 80.3701C515.946 79.4684 517.352 78.7715 518.721 78.2796C520.163 77.7878 521.929 77.5418 524.019 77.5418C526.542 77.5418 528.704 77.9927 530.506 78.8945C532.308 79.7963 533.461 81.1899 533.966 83.0755C534.831 86.6826 535.659 90.2078 536.452 93.651C537.245 97.0122 537.966 100.168 538.615 103.119C539.263 105.988 539.84 108.571 540.344 110.866C540.849 113.08 541.209 114.842 541.426 116.154H541.966C542.759 109.842 543.516 103.283 544.237 96.4793C545.03 89.6749 545.75 82.7476 546.399 75.6973C547.696 74.7955 549.066 74.1396 550.507 73.7297C551.949 73.3198 553.39 73.1149 554.832 73.1149C557.355 73.1149 559.445 73.7297 561.103 74.9594C562.76 76.1891 563.589 78.3206 563.589 81.3539C563.589 82.6656 563.409 84.6331 563.049 87.2565C562.688 89.8799 562.22 92.8312 561.643 96.1104C561.067 99.389 560.382 102.832 559.589 106.439C558.868 110.046 558.112 113.531 557.319 116.892C556.598 120.253 555.877 123.286 555.156 125.992C554.508 128.697 553.931 130.788 553.427 132.263C552.417 133.247 550.868 134.026 548.778 134.6C546.687 135.255 544.453 135.583 542.074 135.583C536.02 135.583 532.452 133.862 531.371 130.419C530.938 128.943 530.398 127.098 529.749 124.885C529.1 122.589 528.416 120.089 527.695 117.384C526.974 114.678 526.289 111.891 525.641 109.022C524.992 106.07 524.451 103.242 524.019 100.537C523.514 103.406 522.902 106.398 522.181 109.514C521.46 112.547 520.703 115.539 519.911 118.49C519.19 121.36 518.505 124.024 517.856 126.484C517.208 128.861 516.703 130.788 516.343 132.263Z" fill="white"/>
<path d="M594.406 120.827C595.631 120.827 596.964 120.704 598.406 120.458C599.92 120.13 601.037 119.72 601.758 119.228V109.391L593.973 110.128C591.955 110.292 590.297 110.784 589 111.604C587.702 112.424 587.054 113.654 587.054 115.293C587.054 116.933 587.594 118.285 588.676 119.351C589.829 120.335 591.739 120.827 594.406 120.827ZM593.541 72.5C597.433 72.5 600.965 72.9509 604.136 73.8527C607.38 74.7545 610.119 76.1481 612.353 78.0337C614.659 79.8372 616.425 82.1737 617.651 85.043C618.876 87.8303 619.489 91.1505 619.489 95.0036V122.548C619.489 124.68 618.948 126.443 617.867 127.836C616.858 129.148 615.632 130.296 614.191 131.279C609.506 134.477 602.911 136.075 594.406 136.075C590.586 136.075 587.126 135.665 584.027 134.846C580.999 134.026 578.369 132.796 576.134 131.156C573.972 129.517 572.278 127.426 571.053 124.885C569.899 122.344 569.323 119.392 569.323 116.031C569.323 110.374 570.8 106.029 573.756 102.996C576.711 99.9629 581.288 98.0773 587.486 97.3401L601.649 95.6185V94.7577C601.649 92.3803 600.712 90.6997 598.838 89.7159C597.036 88.6501 594.406 88.1173 590.946 88.1173C588.207 88.1173 585.54 88.4452 582.945 89.101C580.351 89.7569 578.008 90.5767 575.918 91.5605C574.981 90.8226 574.188 89.7159 573.539 88.2402C572.891 86.6826 572.566 85.084 572.566 83.4444C572.566 81.3129 572.999 79.6323 573.864 78.4026C574.801 77.0909 576.206 75.9842 578.08 75.0824C580.17 74.1806 582.621 73.5248 585.432 73.1149C588.315 72.7049 591.018 72.5 593.541 72.5Z" fill="white"/>
<path d="M654.836 72.5C659.161 72.5 663.161 73.1558 666.837 74.4675C670.585 75.6972 673.792 77.6238 676.459 80.2472C679.126 82.8705 681.216 86.1907 682.73 90.2078C684.243 94.1428 685 98.8561 685 104.349C685 109.596 684.352 114.186 683.054 118.122C681.757 122.057 679.919 125.377 677.54 128.082C675.162 130.706 672.279 132.673 668.891 133.985C665.575 135.296 661.863 135.952 657.755 135.952C654.656 135.952 651.773 135.419 649.106 134.354V154.767C648.385 155.013 647.232 155.259 645.646 155.505C644.06 155.833 642.439 155.996 640.781 155.996C639.195 155.996 637.754 155.874 636.456 155.628C635.231 155.382 634.186 154.89 633.321 154.152C632.456 153.414 631.807 152.389 631.375 151.078C630.942 149.848 630.726 148.208 630.726 146.159V87.1335C630.726 84.92 631.123 83.1165 631.915 81.7228C632.78 80.3291 633.934 79.0584 635.375 77.9107C637.609 76.2711 640.384 74.9594 643.7 73.9757C647.016 72.9919 650.728 72.5 654.836 72.5ZM655.052 119.474C662.476 119.474 666.188 114.432 666.188 104.349C666.188 99.1021 665.251 95.2086 663.377 92.6672C661.575 90.1258 658.944 88.8551 655.485 88.8551C654.115 88.8551 652.89 89.0601 651.809 89.47C650.728 89.7979 649.79 90.2078 648.998 90.6997V117.753C649.863 118.244 650.8 118.654 651.809 118.982C652.818 119.31 653.899 119.474 655.052 119.474Z" fill="white"/>
</g>
<defs>
<linearGradient id="paint0_linear" x1="26.2292" y1="60.9844" x2="173.919" y2="136.479" gradientUnits="userSpaceOnUse">
<stop stop-color="#EFC443"/>
<stop offset="1" stop-color="#E69536"/>
</linearGradient>
<clipPath id="clip0">
<rect width="685" height="187" fill="white"/>
</clipPath>
</defs>
</svg>
