<svg width="142" height="35" viewBox="0 0 142 35" fill="none" xmlns="http://www.w3.org/2000/svg">
	<path d="M16.9584 17.2238L16.5825 16.9187C16.299 16.6897 15.8112 16.8519 15.8112 17.1769V21.5343C15.8112 21.7357 16.015 21.8992 16.2649 21.8992H21.6546C22.0562 21.8992 22.2592 21.5056 21.9731 21.2762C21.8887 21.2078 21.8413 21.115 21.8413 21.0184C21.8413 20.9217 21.8887 20.829 21.9731 20.7605L27.7062 16.1121C27.8822 15.97 27.8822 15.7392 27.7062 15.5961L27.184 15.1753C26.9003 14.9462 27.1026 14.5525 27.5033 14.5525H32.8901C33.1391 14.5525 33.3428 14.7161 33.3428 14.9175V19.2752C33.3428 19.5998 32.8537 19.7627 32.57 19.5333L32.2062 19.2397C32.0278 19.0933 31.7441 19.0933 31.5691 19.2397L21.9042 27.0515C21.7285 27.1931 21.4431 27.1931 21.2651 27.0515L9.44032 17.4895C9.39807 17.4556 9.36454 17.4153 9.34165 17.3709C9.31877 17.3264 9.30699 17.2788 9.30699 17.2307C9.30699 17.1826 9.31877 17.1349 9.34165 17.0905C9.36454 17.0461 9.39807 17.0058 9.44032 16.9719L25.8102 3.73548C25.9853 3.59305 25.9853 3.3606 25.8102 3.21865L21.961 0.106358C21.8759 0.0382255 21.7611 0 21.6414 0C21.5217 0 21.4068 0.0382255 21.3218 0.106358L0.131725 17.2426C-0.0439085 17.3851 -0.0439085 17.6176 0.131725 17.7594L21.3218 34.8938C21.4975 35.0354 21.7858 35.0354 21.961 34.8938L43.1502 17.7594C43.3253 17.617 43.3253 17.3857 43.1502 17.2437L30.6839 7.16324C30.5095 7.02143 30.2228 7.02143 30.0461 7.16324L17.5984 17.224C17.5565 17.2582 17.5067 17.2853 17.4518 17.3038C17.3969 17.3223 17.3379 17.3318 17.2784 17.3318C17.2189 17.3318 17.16 17.3223 17.1051 17.3038C17.0502 17.2853 17.0004 17.2582 16.9585 17.224L16.9584 17.2238V17.2238ZM114.772 21.5594C114.226 21.5594 113.755 21.7177 113.36 22.0359C112.97 22.3545 112.77 22.7306 112.77 23.166C112.77 23.8298 113.187 24.3462 114.014 24.7151C114.921 24.9154 115.65 24.785 116.199 24.3311C116.595 24.0106 116.791 23.6263 116.791 23.1785C116.791 22.7253 116.595 22.3464 116.199 22.0361C115.805 21.7198 115.333 21.5617 114.771 21.5617L114.772 21.5598V21.5594V21.5594ZM82.572 9.24283H81.0779C80.4326 9.24283 79.9078 9.66406 79.9078 10.1859V10.8597C78.3186 9.52323 76.519 8.85465 74.5093 8.85465C72.1884 8.85465 70.2517 9.55305 68.7075 10.946C67.1589 12.339 66.3878 14.0801 66.3878 16.1706C66.3878 18.2969 67.1589 20.0721 68.703 21.4948C70.2643 22.8884 72.2328 23.5851 74.6174 23.5851C76.5031 23.5851 78.2678 22.9625 79.9079 21.7205V23.0528C79.9079 23.6999 80.5585 24.2259 81.3577 24.2259H83.9086V10.3226C83.9086 9.72775 83.3089 9.24283 82.572 9.24283V9.24283ZM78.7962 19.4752C77.8871 20.2961 76.6969 20.7059 75.2206 20.7059C73.8378 20.7059 72.6922 20.2816 71.7864 19.433C70.8992 18.5947 70.4569 17.5038 70.4569 16.1685C70.4569 14.9194 70.9121 13.8674 71.8202 13.0192C72.7401 12.1787 73.885 11.7607 75.2546 11.7607C76.7065 11.7607 77.885 12.1748 78.7941 13.0088C79.7035 13.8573 80.1581 14.9338 80.1581 16.2415C80.1581 17.5493 79.7035 18.6258 78.7941 19.4763L78.7966 19.4753L78.7962 19.4752ZM66.3864 11.5953V10.2168C66.3864 9.67869 65.8478 9.24521 65.182 9.24521H63.6075C62.9442 9.24521 62.4044 9.67666 62.4044 10.2168V10.819C60.9644 9.51035 59.1589 8.85486 56.9876 8.85486C54.5095 8.85486 52.5128 9.61086 51.0033 11.1167C49.5985 12.5364 48.8966 14.2653 48.8966 16.2981C48.8966 18.3876 49.6535 20.1308 51.1647 21.5227C52.6636 22.9002 54.5865 23.5833 56.9355 23.5833C58.9982 23.5833 60.8228 22.9322 62.4044 21.6243V23.5711C62.4044 26.4637 60.9474 27.9101 58.0333 27.9101C56.4513 27.9101 55.2496 27.4746 54.4237 26.6056C54.2131 26.3857 54.0382 26.1104 53.8991 25.7817C53.7039 25.3215 53.1628 25.0154 52.5631 25.0154H51.0538C50.2926 25.0154 49.727 25.6009 49.9195 26.1967C50.3323 27.4642 51.1293 28.4956 52.3161 29.2937C53.8028 30.2965 55.6982 30.7989 57.9978 30.7989C60.7233 30.7989 62.8657 30.0716 64.4246 28.6232C65.2505 27.8692 65.803 26.9672 66.087 25.9175C66.1817 25.5374 66.2558 25.0948 66.308 24.5924C66.3601 24.0931 66.3859 23.5137 66.3859 22.8543V20.8286C65.2714 19.5291 64.7104 17.9769 64.7104 16.1691C64.7104 14.3929 65.2702 12.8716 66.3859 11.5968V11.5958L66.3864 11.5953V11.5953ZM61.3416 19.3653C60.457 20.259 59.2551 20.7058 57.7306 20.7058C56.2082 20.7058 55.0166 20.2618 54.1534 19.3734C53.3644 18.5641 52.9691 17.5223 52.9691 16.2548C52.9691 14.9656 53.3642 13.9158 54.1534 13.1054C55.0288 12.2003 56.2191 11.7475 57.7306 11.7475C59.146 11.7475 60.309 12.1623 61.2166 12.9914C62.1139 13.8019 62.5642 14.8849 62.5642 16.2418C62.5642 17.5103 62.1558 18.5499 61.3415 19.3634V19.3656L61.3416 19.3653ZM99.4958 9.25312V9.24291H91.2358V5.15343C91.2358 4.62756 90.71 4.20123 90.0582 4.20123H88.4458C87.7877 4.20123 87.254 4.63267 87.254 5.16484V9.24298H85.5534V12.2466H87.2518V24.2242H89.523C89.7478 24.2246 89.9703 24.1891 90.1781 24.1197C90.3858 24.0504 90.5745 23.9486 90.7334 23.8201C90.8923 23.6916 91.0183 23.539 91.1041 23.3711C91.1899 23.2031 91.2338 23.0231 91.2333 22.8414V12.2486H95.3177C95.6379 11.7513 96.0335 11.2882 96.4952 10.8699C97.3414 10.1242 98.3423 9.58385 99.4933 9.25312H99.496H99.4958V9.25312ZM119.819 4.20116C119.113 4.20116 118.506 4.40666 117.998 4.81752C117.492 5.22727 117.235 5.71527 117.235 6.27718C117.235 6.8701 117.49 7.36713 117.998 7.78122C118.506 8.19096 119.121 8.39549 119.839 8.39549C120.56 8.39549 121.166 8.19103 121.66 7.78003C122.167 7.36713 122.424 6.87416 122.424 6.29167C122.424 5.71114 122.169 5.21824 121.661 4.81969C121.152 4.4068 120.539 4.20116 119.819 4.20116ZM120.626 10.8206H119.181C118.441 10.8206 117.837 11.3056 117.837 11.9074V22.1325C118.142 22.4213 118.287 22.7613 118.287 23.1567C118.287 23.5521 118.142 23.8962 117.837 24.187V24.7624H120.401C121.186 24.7624 121.821 24.2477 121.821 23.6117V11.7843C121.821 11.252 121.286 10.8206 120.625 10.8206H120.626V10.8206ZM139.345 12.7952C137.551 11.3744 135.367 10.6635 132.795 10.6635C130.234 10.6635 128.061 11.3683 126.28 12.7828C124.499 14.1942 123.607 15.9077 123.607 17.921C123.607 20.0577 124.479 21.8328 126.227 23.2461C127.975 24.6762 130.142 25.3921 132.723 25.3921C135.331 25.3921 137.532 24.6915 139.327 23.2882C141.106 21.8737 142 20.1253 142 18.035C142 15.963 141.115 14.2167 139.345 12.7929V12.7952V12.7952ZM136.527 21.2986C135.597 22.111 134.352 22.5127 132.795 22.5127C131.247 22.5127 130.003 22.105 129.058 21.282C128.138 20.4727 127.677 19.3674 127.677 17.9765C127.677 16.6801 128.152 15.62 129.096 14.8002C130.038 13.9805 131.271 13.5685 132.795 13.5685C134.338 13.5685 135.585 13.9805 136.527 14.8002C137.46 15.6096 137.927 16.6946 137.927 18.0463C137.927 19.4044 137.46 20.4849 136.527 21.2964V21.2986Z"
		  fill="white"/>
	<path d="M100.98 20.7357C100.159 20.0638 99.7004 19.1475 99.5947 18.0032H111.01C111.531 18.0032 111.961 17.6662 111.968 17.2461C111.968 14.9421 111.236 13.1464 109.774 11.8478C108.297 10.5414 106.289 9.88794 103.754 9.88794C101.243 9.88794 99.2238 10.5618 97.7021 11.9055C96.1903 13.2717 95.4355 15.0548 95.4355 17.2594C95.4355 19.4825 96.2156 21.2677 97.7706 22.6115C98.8579 23.5462 100.191 24.1521 101.772 24.4347C102.435 24.5609 103.124 24.6266 103.819 24.6183C106.656 24.6657 109.121 24.7129 111.957 24.7602L111.961 24.4243C111.614 24.1193 111.44 23.7515 111.44 23.322C111.44 22.905 111.622 22.5465 111.976 22.2364L111.978 21.8285C109.74 21.7833 104.321 21.7401 104.105 21.7401C102.834 21.7401 101.79 21.4083 100.98 20.7377V20.7357H100.98V20.7357ZM100.425 14.297C100.676 13.9826 100.972 13.7135 101.321 13.4896C101.671 13.2626 102.054 13.093 102.481 12.9739C102.905 12.8547 103.36 12.7951 103.845 12.7951C105.967 12.7951 107.306 13.6529 107.865 15.3695H99.8605C99.991 14.9697 100.179 14.6123 100.425 14.2969V14.297V14.297Z"
		  fill="white"/>
</svg>
