<svg width="140" height="32" viewBox="0 0 140 32" fill="none" xmlns="http://www.w3.org/2000/svg">
<g clip-path="url(#clip0)">
<path d="M46.7659 8.032V20.505H52.8889L52.5029 23.385H43.0469V8.032H46.7659ZM64.2099 23.385L63.3929 20.084H58.8129L58.0189 23.384H54.1639L58.9039 8.032H63.4159L68.1559 23.385H64.2099V23.385ZM59.4479 17.447H62.7579L61.1029 10.668L59.4479 17.448V17.447ZM80.1869 8.032L79.8239 10.823H75.9469V23.385H72.2269V10.823H68.1699V8.032H80.1879H80.1869ZM88.4969 7.655C90.7339 7.655 92.4719 8.357 93.7119 9.76C94.9669 11.163 95.5939 13.142 95.5939 15.697C95.5939 17.367 95.3069 18.807 94.7329 20.017C94.1729 21.228 93.3569 22.159 92.2829 22.809C91.2249 23.444 89.9629 23.761 88.4969 23.761C87.0299 23.761 85.7669 23.444 84.7099 22.809C83.6509 22.173 82.8349 21.258 82.2599 20.061C81.7009 18.851 81.4219 17.396 81.4219 15.697C81.4219 14.043 81.7019 12.611 82.2609 11.399C82.8349 10.189 83.6509 9.265 84.7099 8.63C85.7679 7.98 87.0299 7.655 88.4969 7.655V7.655ZM88.4969 10.314C87.4229 10.314 86.6219 10.742 86.0929 11.599C85.5789 12.441 85.3219 13.807 85.3219 15.697C85.3219 17.587 85.5859 18.961 86.1159 19.817C86.6449 20.674 87.4379 21.103 88.4959 21.103C89.5849 21.103 90.3859 20.682 90.8999 19.84C91.4299 18.983 91.6939 17.602 91.6939 15.697C91.6939 13.792 91.4289 12.419 90.8999 11.577C90.3709 10.735 89.5699 10.314 88.4969 10.314V10.314ZM102.804 8.032V23.385H99.0849V8.032H102.804V8.032ZM111.83 8.032L106.818 14.922L112.238 23.385H107.929L102.918 15.188L107.907 8.032H111.83V8.032ZM124.332 8.032L123.947 10.624H118.414V14.302H123.244V16.849H118.414V20.77H124.332V23.385H114.695V8.032H124.332V8.032ZM140 23.385H135.261L130.725 11.488C130.877 12.655 130.99 13.688 131.066 14.589C131.156 15.476 131.202 16.532 131.202 17.757V23.385H127.891V8.032H132.517L137.165 19.951C136.833 17.927 136.667 16.022 136.667 14.235V8.032H140V23.385V23.385ZM21.5969 16.723H18.8369L21.0969 10.486L21.5969 16.723Z" fill="white"/>
<path fill-rule="evenodd" clip-rule="evenodd" d="M16.377 32C25.422 32 32.755 24.837 32.755 16C32.755 7.163 25.422 0 16.377 0C7.332 0 0 7.163 0 16C0 24.837 7.332 32 16.377 32ZM10.216 19.416L15.322 8H11.367L4.914 22.4H16.794L17.86 19.458H21.793L22.032 22.4H26.204L23.944 8H19.164L14.012 19.416H10.216V19.416Z" fill="white"/>
</g>
<defs>
<clipPath id="clip0">
<rect width="140" height="32" fill="white"/>
</clipPath>
</defs>
</svg>
