<svg width="105" height="20" viewBox="0 0 105 20" fill="none" xmlns="http://www.w3.org/2000/svg" class="header__logo">
	<path d="M0 5.728h3.416l2.797 7.913 3.01-7.913h2.089l2.955 7.823 2.8-7.823h3.439L15.43 19.637h-2.212l-2.966-7.927-3.056 7.927H5.011L0 5.727zM22.494.358h3.464v6.776a7.964 7.964 0 012.058-1.324 5.315 5.315 0 012.097-.44 4.724 4.724 0 013.49 1.431c.81.827 1.214 2.042 1.215 3.644v9.192h-3.44v-6.098a15.051 15.051 0 00-.23-3.273 2.283 2.283 0 00-.786-1.279 2.208 2.208 0 00-1.374-.421 2.591 2.591 0 00-1.822.703 3.726 3.726 0 00-1.054 1.917 15.873 15.873 0 00-.154 2.864v5.587h-3.464V.358zm18.805 7.115a1.746 1.746 0 10-3.491 0v12.164h3.49V7.479l.001-.006zm24.955 6.219H55.042c.124.92.587 1.761 1.297 2.359a4.074 4.074 0 002.692.875 4.652 4.652 0 003.362-1.367l2.94 1.38a6.945 6.945 0 01-2.633 2.308 8.244 8.244 0 01-3.644.748 7.198 7.198 0 01-5.33-2.065 7.024 7.024 0 01-2.059-5.171 7.262 7.262 0 012.052-5.287 6.89 6.89 0 015.145-2.102 7.15 7.15 0 015.344 2.102c1.372 1.402 2.058 3.254 2.058 5.555l-.012.665zm-3.49-2.749A3.504 3.504 0 0061.4 9.051a3.955 3.955 0 00-2.363-.728 4.18 4.18 0 00-2.561.818 4.565 4.565 0 00-1.28 1.802h7.568zM48.38 5.728V.6h-3.49v19.036h3.49V8.732h2.072V5.728H48.38z"
		  fill="#fff"></path>
	<path d="M88.523.831h3.554v18.806h-3.554V.83zm5.727 0h10.393V4.36h-3.426v15.277h-3.63V4.36H94.25V.83zm-17.046 6.91l-.346.677a1.15 1.15 0 00-.083.19.454.454 0 00.013.298c.022.052.054.1.094.14a.444.444 0 00.763-.309.439.439 0 00-.353-.443l.208-.405-.296-.148zm.105.993a.12.12 0 01-.067.112.1.1 0 01-.118-.026.131.131 0 01-.001-.172.096.096 0 01.074-.032.103.103 0 01.08.033.114.114 0 01.032.085zm1.537-6.22l-.56.832-.008.013v.288h.549v.258h.336v-.258h.112v-.324h-.112v-.808h-.317zm-.157.81l.138-.204v.203h-.138zm-7.157 10.975l.458-.937h-.496v-.327h.927l-.005.2-.59 1.208-.294-.144zm5.758 3.256a.17.17 0 00.004-.219.11.11 0 00-.141-.025.233.233 0 00-.061.048l-.02.021-.273-.06.17-.789h.682v.324h-.42l-.025.114h.014a.43.43 0 01.418.286.458.458 0 01.03.18.472.472 0 01-.14.345.464.464 0 01-.34.141.486.486 0 01-.308-.102.48.48 0 01-.17-.28l-.013-.062h.346l.015.028a.164.164 0 00.058.07.138.138 0 00.174-.02zm-.159-6.755a.425.425 0 00.13-.314.443.443 0 00-.353-.444l.207-.404-.295-.148-.346.676a1.339 1.339 0 00-.084.19.448.448 0 00.014.298.447.447 0 00.727.146zm-.424-.318a.12.12 0 01.032-.086.094.094 0 01.074-.032.103.103 0 01.08.033.114.114 0 01.032.085.12.12 0 01-.067.113.1.1 0 01-.118-.026.118.118 0 01-.033-.087zm7.347 3.911v-.257h.112v-.324h-.112v-.809h-.317l-.559.831-.008.014v.288h.548v.257h.336zm-.474-.581l.138-.203v.203h-.138zm-7.474-2.935a.406.406 0 00.166-.159.445.445 0 00-.092-.561.359.359 0 00.092-.246.404.404 0 00-.206-.353.5.5 0 00-.44 0 .377.377 0 00-.153.145.394.394 0 00-.022.361.417.417 0 00.058.095.435.435 0 00-.15.332.448.448 0 00.061.232.398.398 0 00.166.156.599.599 0 00.264.05.564.564 0 00.256-.053zm-.2-.884a.089.089 0 01-.097.018.088.088 0 01-.053-.084.081.081 0 01.024-.063.076.076 0 01.06-.024.091.091 0 01.067.024.078.078 0 01.023.061.09.09 0 01-.024.068zm-.168.39a.159.159 0 01.11-.04.15.15 0 01.107.04.122.122 0 01.04.092.113.113 0 01-.038.09.181.181 0 01-.221-.003.117.117 0 01-.04-.092.113.113 0 01.042-.087zm3.297 7.507v-1.032h-.3l.202-.327h.438v1.359h-.34zm-4.177-.948a.357.357 0 00-.109.267.4.4 0 00.048.197.34.34 0 00.135.134.427.427 0 00.366.015.637.637 0 00.174-.131l.037-.037.234.243-.036.036a.912.912 0 01-.28.198.766.766 0 01-.302.057.704.704 0 01-.516-.2.75.75 0 01-.109-.872.68.68 0 01.262-.254.756.756 0 01.686-.025.765.765 0 01.267.2l.031.037-.24.228-.035-.037a.463.463 0 00-.346-.165.361.361 0 00-.267.109zm1.365.98a.442.442 0 00.444-.444.443.443 0 00-.354-.443l.208-.405-.295-.148-.346.677c-.034.06-.062.124-.084.19a.454.454 0 00.013.297c.022.053.054.1.094.141a.426.426 0 00.32.134zm-.11-.447a.12.12 0 01.031-.086.095.095 0 01.074-.032.103.103 0 01.08.032.115.115 0 01.032.086.12.12 0 01-.067.112.1.1 0 01-.117-.026.119.119 0 01-.033-.086zm3.636.32l.458-.937h-.496v-.327h.926l-.005.2-.59 1.208-.293-.143zm-1.594-7.527a1.23 1.23 0 00.084-.188.444.444 0 00-.013-.298.431.431 0 00-.094-.14.444.444 0 00-.764.31.44.44 0 00.355.442l-.209.405.295.147.346-.678zm-.233-.314a.12.12 0 01-.031.085.105.105 0 01-.077.033.107.107 0 01-.076-.034.116.116 0 01-.033-.084.12.12 0 01.068-.112.105.105 0 01.083 0 .098.098 0 01.033.025.118.118 0 01.033.087zm-1.61-1.14a.17.17 0 00.003-.219.11.11 0 00-.141-.025.232.232 0 00-.06.048l-.021.022-.273-.062.171-.788h.682v.324h-.42l-.026.114h.014a.43.43 0 01.321.132.457.457 0 01.128.334.472.472 0 01-.14.345.464.464 0 01-.34.141.485.485 0 01-.309-.102.48.48 0 01-.169-.28l-.014-.062h.346l.015.029a.165.165 0 00.059.069.137.137 0 00.174-.02zm7.36 3.165c-.005.136.014.272.059.4.033.09.092.168.17.224a.47.47 0 00.267.074.449.449 0 00.264-.074.49.49 0 00.166-.228 1.442 1.442 0 000-.813.476.476 0 00-.171-.23.465.465 0 00-.266-.077.434.434 0 00-.374.193.952.952 0 00-.114.53zm.342.005a1.137 1.137 0 01.023-.264.206.206 0 01.055-.108.113.113 0 01.074-.027c.026 0 .064.008.1.07a.665.665 0 01.05.315.668.668 0 01-.056.321.102.102 0 01-.094.062.116.116 0 01-.103-.067.602.602 0 01-.049-.302zM71.925 4.245l-.346.677c-.033.06-.061.124-.084.19a.448.448 0 00.014.298c.022.052.053.1.094.14a.444.444 0 00.763-.309.439.439 0 00-.353-.443l.207-.405-.295-.148zm.105.993a.12.12 0 01-.067.112.1.1 0 01-.118-.026.131.131 0 01-.001-.172.095.095 0 01.074-.032.103.103 0 01.079.032.115.115 0 01.033.086zm.003 3.581a.129.129 0 00-.015-.199.299.299 0 00-.184-.05h-.05v-.303l.047-.004a.33.33 0 00.11-.022.109.109 0 00.045-.037.08.08 0 00.015-.045.061.061 0 00-.02-.048.08.08 0 00-.058-.02.1.1 0 00-.063.021.111.111 0 00-.039.055l-.01.036h-.327l.008-.058a.426.426 0 01.439-.386.417.417 0 01.383.234.345.345 0 01.031.148.322.322 0 01-.12.256.375.375 0 01.186.329.43.43 0 01-.141.323.494.494 0 01-.353.131.463.463 0 01-.334-.124.483.483 0 01-.141-.335l-.003-.054h.335l.006.043a.188.188 0 00.052.114.156.156 0 00.2-.005zm2.913-5.73a.296.296 0 00.04-.132.113.113 0 00-.033-.083.124.124 0 00-.177.007.189.189 0 00-.042.123l-.001.05h-.337L74.4 3a.51.51 0 01.142-.354.467.467 0 01.34-.131.462.462 0 01.226.054.413.413 0 01.16.16.417.417 0 01.06.21.605.605 0 01-.07.263 1.368 1.368 0 01-.24.318l-.06.061h.38v.324h-.972v-.187l.402-.411c.069-.065.129-.137.179-.217zm.3 4.652l-.345.677c-.034.06-.062.124-.084.19a.451.451 0 00.013.298c.022.052.054.1.094.14a.444.444 0 00.763-.309.443.443 0 00-.353-.443l.208-.405-.295-.148zm.105.993a.12.12 0 01-.067.112.1.1 0 01-.117-.026.13.13 0 01-.002-.172.095.095 0 01.074-.032.103.103 0 01.08.033.114.114 0 01.032.085zm-.489 6l-.345.677c-.034.06-.062.124-.084.19a.454.454 0 00.013.298c.022.052.054.1.094.14a.444.444 0 00.763-.309.443.443 0 00-.353-.443l.208-.405-.296-.148zm.105.993a.12.12 0 01-.067.112.1.1 0 01-.117-.026.13.13 0 01-.002-.172.096.096 0 01.074-.032.103.103 0 01.08.033.114.114 0 01.032.085zm-3.47-3.348c.032.09.091.168.17.224.079.05.172.077.266.074a.45.45 0 00.264-.074.489.489 0 00.166-.228.772.772 0 00.041-.151v.164h.549v.257h.336v-.257h.111v-.324h-.111v-.808h-.317l-.552.82c.002-.035.002-.07.002-.11a1.14 1.14 0 00-.057-.404.475.475 0 00-.173-.23.464.464 0 00-.266-.076.433.433 0 00-.373.192.953.953 0 00-.115.53c-.006.137.014.273.058.401zm1.317-.315l.139-.203v.203h-.139zm-1.034-.08a1.132 1.132 0 01.023-.264.205.205 0 01.055-.108.111.111 0 01.074-.027c.025 0 .064.008.1.07a.66.66 0 01.049.315.67.67 0 01-.055.321.102.102 0 01-.094.062.115.115 0 01-.103-.067.601.601 0 01-.05-.302zm3.082-2.494l-.345.676a1.145 1.145 0 00-.084.19.454.454 0 00.013.298c.022.053.054.1.094.14a.444.444 0 00.763-.308.443.443 0 00-.353-.444l.208-.404-.296-.148zm.105.992a.12.12 0 01-.067.113.1.1 0 01-.117-.026.13.13 0 01-.002-.173.095.095 0 01.074-.032.102.102 0 01.08.033.114.114 0 01.032.085zM73.894 7.45l.345-.678a1.24 1.24 0 00.084-.189.441.441 0 00-.335-.564.444.444 0 00-.535.436.438.438 0 00.354.443l-.209.405.296.147zm-.105-.993a.12.12 0 01.069-.111.105.105 0 01.082 0 .099.099 0 01.033.025.118.118 0 01.033.087.12.12 0 01-.031.085.106.106 0 01-.153 0 .114.114 0 01-.033-.086zm6.073.614a.13.13 0 00-.015-.198.299.299 0 00-.184-.05h-.05v-.304l.047-.003a.331.331 0 00.11-.022.11.11 0 00.045-.038.081.081 0 00.015-.045.061.061 0 00-.02-.048.078.078 0 00-.058-.02.1.1 0 00-.063.021.11.11 0 00-.039.055l-.01.036h-.327l.008-.058a.427.427 0 01.439-.386.418.418 0 01.383.234.36.36 0 01.031.149.323.323 0 01-.12.255.375.375 0 01.186.329.43.43 0 01-.141.323.495.495 0 01-.353.131.464.464 0 01-.334-.124.483.483 0 01-.141-.335l-.003-.054h.335l.006.043a.19.19 0 00.051.114.156.156 0 00.202-.005zm-7.44-1.824a.447.447 0 00.061.231.398.398 0 00.165.156.6.6 0 00.264.05.563.563 0 00.257-.052.407.407 0 00.166-.158.445.445 0 00-.093-.562.357.357 0 00.092-.246.405.405 0 00-.206-.352.5.5 0 00-.44 0 .376.376 0 00-.152.144.396.396 0 00-.022.361.42.42 0 00.058.095.432.432 0 00-.15.332zm.547-.499a.088.088 0 01-.15-.066.085.085 0 01.023-.063.076.076 0 01.06-.023.09.09 0 01.068.024.079.079 0 01.023.06.092.092 0 01-.024.068zm-.058.351a.15.15 0 01.106.039.122.122 0 01.04.093.111.111 0 01-.037.089.183.183 0 01-.222-.003.12.12 0 01-.028-.14.112.112 0 01.03-.038.159.159 0 01.111-.04zm-.007.894l-.346.677a1.339 1.339 0 00-.084.19.454.454 0 00.014.298c.022.053.054.1.094.14a.444.444 0 00.763-.308.439.439 0 00-.353-.444l.208-.404-.296-.149zm.105.993a.12.12 0 01-.067.112.1.1 0 01-.117-.026.13.13 0 01-.002-.172.096.096 0 01.074-.032.102.102 0 01.08.033.115.115 0 01.032.085zm.958 4.845a.296.296 0 00.04-.133.11.11 0 00-.075-.11.125.125 0 00-.136.034.19.19 0 00-.041.123l-.002.05h-.336l.002-.054a.51.51 0 01.143-.354.467.467 0 01.34-.131.461.461 0 01.226.054.413.413 0 01.16.159.418.418 0 01.06.21.605.605 0 01-.07.264 1.37 1.37 0 01-.24.317l-.06.062h.38v.324h-.973v-.187l.403-.412c.069-.064.129-.137.179-.216zm-.084-7.586l-.346.677c-.033.06-.06.124-.083.19a.454.454 0 00.013.298c.022.052.054.1.094.14a.443.443 0 00.763-.309.443.443 0 00-.353-.443l.208-.405-.296-.148zm.105.993a.122.122 0 01-.033.087.1.1 0 01-.151 0 .13.13 0 01-.002-.173.095.095 0 01.074-.032.102.102 0 01.08.032.115.115 0 01.032.086zm-1.477 5.565l.458-.937h-.495v-.327h.926l-.005.2-.59 1.207-.294-.143zm.918-2.336a.681.681 0 01.354-.613.756.756 0 01.686-.025.766.766 0 01.267.2l.031.037-.24.229-.035-.038a.466.466 0 00-.347-.164.37.37 0 00-.375.375.401.401 0 00.048.198.34.34 0 00.135.133.43.43 0 00.366.015.638.638 0 00.174-.131l.037-.037.234.243-.036.036a.914.914 0 01-.28.199.767.767 0 01-.302.056.703.703 0 01-.516-.2.695.695 0 01-.201-.513zm1.482 4.178h.336v-.257h.112v-.324h-.112v-.808h-.317l-.559.83-.009.014v.288h.549v.257zm-.138-.581l.138-.203v.203h-.138zm-2.191-3.018a.444.444 0 00.763-.309.439.439 0 00-.353-.443l.208-.405-.296-.148-.346.677c-.033.06-.061.124-.084.19a.454.454 0 00.014.298c.022.052.054.1.094.14zm.21-.312a.12.12 0 01.031-.086.095.095 0 01.074-.032.103.103 0 01.08.033.114.114 0 01.032.085.122.122 0 01-.067.112.1.1 0 01-.117-.026.12.12 0 01-.034-.086zm1.814 5.641a.6.6 0 00.265.05.564.564 0 00.256-.052.407.407 0 00.166-.159.445.445 0 00-.093-.56.358.358 0 00.092-.246.404.404 0 00-.206-.353.5.5 0 00-.439 0 .378.378 0 00-.153.144.395.395 0 00-.022.361.419.419 0 00.058.095.435.435 0 00-.15.332.448.448 0 00.061.232.398.398 0 00.165.156zm.321-.886a.09.09 0 01-.097.018.088.088 0 01-.053-.084.081.081 0 01.024-.063.076.076 0 01.059-.024.092.092 0 01.068.024.08.08 0 01.023.062.09.09 0 01-.024.067zm-.057.35a.15.15 0 01.105.04.123.123 0 01.04.093.113.113 0 01-.037.088.183.183 0 01-.221-.002.118.118 0 01-.04-.091.113.113 0 01.042-.087.16.16 0 01.11-.04zm-1.246 2.26a.47.47 0 00.267.074.45.45 0 00.265-.074.489.489 0 00.166-.228 1.45 1.45 0 000-.813.476.476 0 00-.172-.23.464.464 0 00-.266-.076.433.433 0 00-.373.193.952.952 0 00-.115.53c-.005.136.014.272.059.4.032.09.092.168.17.224zm.114-.62a1.137 1.137 0 01.023-.263.205.205 0 01.055-.108.111.111 0 01.074-.026c.025 0 .064.007.1.068a.67.67 0 01.05.316.7.7 0 01-.056.322.102.102 0 01-.094.06.115.115 0 01-.103-.066.601.601 0 01-.05-.302zm-2.242-8.344c.033.09.092.167.17.223a.47.47 0 00.267.074.45.45 0 00.264-.074.49.49 0 00.166-.227c.045-.132.065-.27.06-.409a1.14 1.14 0 00-.058-.405.476.476 0 00-.173-.23.464.464 0 00-.266-.076.433.433 0 00-.373.193.953.953 0 00-.115.53c-.006.136.014.272.058.4zm.284-.396a1.132 1.132 0 01.023-.264.205.205 0 01.055-.107.112.112 0 01.074-.027c.025 0 .064.007.1.069a.66.66 0 01.049.315c.008.11-.01.22-.055.322a.102.102 0 01-.094.061.115.115 0 01-.103-.067.601.601 0 01-.05-.302zm-.284 3.892a.47.47 0 00.17.223.47.47 0 00.267.075.45.45 0 00.264-.075.49.49 0 00.166-.227c.079-.266.079-.548.002-.814a.476.476 0 00-.173-.23.464.464 0 00-.266-.076.433.433 0 00-.373.193.953.953 0 00-.115.53c-.006.136.014.272.058.4zm.284-.396a1.131 1.131 0 01.023-.264.205.205 0 01.055-.107.112.112 0 01.074-.027c.025 0 .064.008.1.069a.66.66 0 01.049.315c.008.11-.01.22-.055.322a.102.102 0 01-.094.061.115.115 0 01-.103-.066.6.6 0 01-.05-.303zm3.093-4.533l.346-.678a1.24 1.24 0 00.083-.189.444.444 0 00-.013-.298.431.431 0 00-.094-.14.444.444 0 00-.763.31.44.44 0 00.354.442l-.209.406.296.147zm-.105-.993a.12.12 0 01.069-.111.105.105 0 01.082 0 .098.098 0 01.033.025.119.119 0 01.034.087.12.12 0 01-.032.085.105.105 0 01-.153-.001.115.115 0 01-.033-.085zm-1.278 6.094l.458-.937h-.495v-.327h.926l-.005.2-.59 1.207-.294-.143zm.942-4.76h.926l-.005.199-.59 1.208-.294-.143.458-.937h-.495v-.327zm-1.054 10.099h-.972v-.187l.403-.411c.069-.065.129-.138.179-.217a.295.295 0 00.04-.133.11.11 0 00-.075-.109.126.126 0 00-.136.033.19.19 0 00-.041.123l-.002.05h-.336l.002-.054a.51.51 0 01.143-.354.468.468 0 01.34-.131.462.462 0 01.226.054.414.414 0 01.16.16.417.417 0 01.06.21.602.602 0 01-.07.263 1.368 1.368 0 01-.241.318l-.059.061h.38v.324zm.017-2.908l-.59 1.209-.294-.144.458-.937h-.495v-.327h.926l-.005.2zm.488-.248l-.346.677c-.033.06-.06.124-.083.19a.454.454 0 00.013.297c.022.053.054.1.094.14a.443.443 0 00.763-.308.443.443 0 00-.353-.443l.208-.405-.296-.148zm.105.992a.122.122 0 01-.033.087.1.1 0 01-.151 0 .131.131 0 01-.002-.172.095.095 0 01.074-.033.103.103 0 01.08.033.116.116 0 01.032.085zM72.399 3.905h-.972v-.187l.403-.411c.069-.065.129-.138.178-.217a.296.296 0 00.041-.133.112.112 0 00-.033-.083.125.125 0 00-.178.007.19.19 0 00-.041.123l-.002.05h-.336L71.46 3a.51.51 0 01.143-.354.468.468 0 01.34-.131.462.462 0 01.226.054.413.413 0 01.16.16.418.418 0 01.06.21.605.605 0 01-.07.263 1.371 1.371 0 01-.241.318l-.059.061h.38v.324zm.57-2.78h-.495V.798h.926l-.005.2-.59 1.207-.294-.143.458-.937zm-.979 0h-.496V.798h.927l-.005.2-.59 1.207-.294-.143.458-.937zm.572 16.672a.483.483 0 01-.141-.335l-.003-.055h.335l.006.044a.188.188 0 00.052.114.156.156 0 00.2-.005.13.13 0 00-.014-.199.3.3 0 00-.184-.05h-.05v-.303l.047-.004a.33.33 0 00.11-.022.11.11 0 00.046-.037.082.082 0 00.015-.046.061.061 0 00-.02-.047.078.078 0 00-.06-.02.1.1 0 00-.061.021.11.11 0 00-.04.055l-.01.035h-.327l.008-.057a.426.426 0 01.439-.386.418.418 0 01.383.234.36.36 0 01.032.148.323.323 0 01-.121.255.375.375 0 01.186.329.428.428 0 01-.141.323.494.494 0 01-.353.132.463.463 0 01-.334-.124zm-.64.124a.44.44 0 00.444-.443.439.439 0 00-.353-.443l.207-.405-.295-.148-.346.677c-.033.06-.061.124-.084.19a.454.454 0 00.014.298c.022.052.054.1.094.14a.427.427 0 00.32.134zm-.11-.446a.12.12 0 01.032-.086.095.095 0 01.074-.032.102.102 0 01.079.032.115.115 0 01.033.086.12.12 0 01-.067.112.1.1 0 01-.118-.026.119.119 0 01-.033-.086zm-.318.805h.927l-.005.199-.59 1.208-.294-.143.458-.938h-.496v-.326zm2.387-16.092a.441.441 0 00.443-.443.439.439 0 00-.353-.443l.208-.405-.296-.148-.346.677a1.15 1.15 0 00-.083.19.454.454 0 00.013.297c.022.053.054.1.094.14a.428.428 0 00.32.135zm-.11-.446a.12.12 0 01.031-.086.094.094 0 01.074-.032.103.103 0 01.08.032.114.114 0 01.032.086.122.122 0 01-.067.112.1.1 0 01-.117-.026.12.12 0 01-.034-.086zm-2.17 14.33a.48.48 0 01-.17-.28l-.013-.063h.346l.015.029a.164.164 0 00.058.069.138.138 0 00.174-.02.17.17 0 00.004-.219.11.11 0 00-.141-.025.23.23 0 00-.061.048l-.02.021-.274-.06.172-.789h.681v.324h-.42l-.025.114h.014a.428.428 0 01.32.132.458.458 0 01.128.334.474.474 0 01-.295.451.464.464 0 01-.185.035.485.485 0 01-.308-.102zm1.743-13.25a.475.475 0 00-.173-.23.464.464 0 00-.266-.077.433.433 0 00-.373.193.953.953 0 00-.115.53c-.006.136.014.272.058.4.033.09.093.168.17.224a.47.47 0 00.267.074.45.45 0 00.264-.074.489.489 0 00.167-.227.772.772 0 00.04-.152v.164h.549v.258h.336v-.258h.111v-.324h-.111v-.808h-.317l-.552.82a1.91 1.91 0 00.002-.11 1.14 1.14 0 00-.057-.404zm-.284.407c.008.11-.01.22-.055.322a.102.102 0 01-.094.06.115.115 0 01-.103-.066.601.601 0 01-.05-.302 1.131 1.131 0 01.024-.264.205.205 0 01.055-.108.112.112 0 01.074-.026c.025 0 .064.007.1.068.042.1.059.208.049.316zm.733.094l.139-.203v.203h-.139zm3.513.232l-.014-.063h.346l.015.029a.165.165 0 00.058.069.138.138 0 00.174-.02.17.17 0 00.004-.219.11.11 0 00-.141-.025.233.233 0 00-.061.048l-.02.022-.273-.062.17-.788h.682v.324h-.42l-.025.114h.014a.43.43 0 01.32.132.457.457 0 01.128.334.474.474 0 01-.14.345.464.464 0 01-.34.141.486.486 0 01-.308-.102.48.48 0 01-.17-.28zm.558-2.43h-.495V.798h.926l-.005.2-.59 1.207-.294-.143.458-.937zm-1.12.528l-.209.405.295.148.346-.678a1.24 1.24 0 00.084-.19.444.444 0 00-.013-.297.444.444 0 00-.857.17.44.44 0 00.354.442zm-.018-.44a.117.117 0 01.068-.112.104.104 0 01.083 0 .098.098 0 01.033.025.117.117 0 01.033.087.12.12 0 01-.031.086.105.105 0 01-.119.023.115.115 0 01-.067-.11zm1.552.397v.29h.549v.257h.336V1.9h.112v-.324h-.112v-.81h-.317l-.56.831-.008.014zm.41-.035l.139-.203v.203h-.138zm-2.849.613a.441.441 0 00.444-.443.443.443 0 00-.354-.443l.208-.405-.295-.148-.346.677c-.034.06-.062.124-.084.19a.448.448 0 00.013.297c.022.053.054.1.094.14a.427.427 0 00.32.135zm-.11-.446a.12.12 0 01.031-.086.095.095 0 01.074-.032.103.103 0 01.08.032.114.114 0 01.032.086.12.12 0 01-.067.112.1.1 0 01-.117-.026.12.12 0 01-.033-.086zm-1.123.396a.6.6 0 00.265.05.563.563 0 00.256-.052.406.406 0 00.166-.158.445.445 0 00-.093-.562.357.357 0 00.092-.246.404.404 0 00-.206-.352.5.5 0 00-.439 0 .377.377 0 00-.153.144.394.394 0 00-.022.361.42.42 0 00.058.095.435.435 0 00-.15.332.448.448 0 00.061.232.398.398 0 00.165.156zm.321-.886a.088.088 0 01-.15-.066.083.083 0 01.05-.081.076.076 0 01.033-.006.091.091 0 01.068.024.08.08 0 01.023.062.092.092 0 01-.024.067zm-.058.351a.15.15 0 01.106.039.122.122 0 01.04.093.113.113 0 01-.037.088.183.183 0 01-.221-.002.117.117 0 01-.04-.091.113.113 0 01.042-.087.16.16 0 01.11-.04zm1.357.912h-.317l-.559.83-.008.014v.288h.548v.258h.336v-.258h.112v-.324h-.112v-.808zm-.474.808l.138-.203v.203h-.138zm.992.079l-.209.405.295.147.346-.678a1.24 1.24 0 00.084-.189.444.444 0 00-.013-.297.444.444 0 00-.857.17.44.44 0 00.354.442zm-.018-.44a.117.117 0 01.068-.112.104.104 0 01.083 0 .098.098 0 01.033.025.117.117 0 01.033.087.12.12 0 01-.031.085.105.105 0 01-.154 0 .117.117 0 01-.032-.086zm6.62 13.614a.464.464 0 00-.266-.076.433.433 0 00-.373.192.952.952 0 00-.115.53c-.006.137.014.273.058.401.033.09.092.168.17.224a.47.47 0 00.267.074.449.449 0 00.264-.074.488.488 0 00.166-.228c.078-.265.079-.547.001-.813a.475.475 0 00-.172-.23zm-.111.638c.008.11-.01.22-.055.322a.101.101 0 01-.094.06.114.114 0 01-.103-.066.601.601 0 01-.05-.302 1.137 1.137 0 01.024-.264.205.205 0 01.055-.108.111.111 0 01.074-.026c.025 0 .063.007.1.068a.67.67 0 01.049.316zm-1.424 2.1h.379v.324h-.972v-.187l.403-.411c.068-.064.128-.137.178-.217a.294.294 0 00.04-.133.11.11 0 00-.074-.109.126.126 0 00-.136.034.189.189 0 00-.042.122l-.001.05h-.337l.003-.054a.51.51 0 01.142-.354.468.468 0 01.34-.131.463.463 0 01.226.054.413.413 0 01.16.16.417.417 0 01.06.21.602.602 0 01-.069.263 1.368 1.368 0 01-.242.318l-.058.061zm.384-1.748h.379v.324h-.972v-.187l.403-.412c.068-.064.128-.137.178-.216a.296.296 0 00.041-.133.11.11 0 00-.075-.109.125.125 0 00-.136.033.19.19 0 00-.042.123l-.001.05h-.337l.003-.054a.51.51 0 01.143-.354.468.468 0 01.339-.131.462.462 0 01.227.054.414.414 0 01.16.16.418.418 0 01.059.21.602.602 0 01-.069.263 1.366 1.366 0 01-.241.317l-.06.062zm-2.35 1.217l.208-.405-.295-.148-.346.677a1.145 1.145 0 00-.084.19.454.454 0 00.013.298c.022.053.054.1.094.14a.442.442 0 00.688-.06.444.444 0 00.075-.248.443.443 0 00-.353-.444zm.017.44a.12.12 0 01-.067.112.1.1 0 01-.117-.026.13.13 0 01-.002-.172.095.095 0 01.074-.032.103.103 0 01.08.033.114.114 0 01.032.085zm-7.388-.943h.926l-.005.199-.59 1.208-.294-.143.458-.938h-.495v-.326zm7.154-15.226h-.337L79.294 3a.51.51 0 01.142-.354.467.467 0 01.34-.131.462.462 0 01.226.054.413.413 0 01.16.16.417.417 0 01.06.21.605.605 0 01-.07.263 1.37 1.37 0 01-.24.318l-.06.061h.38v.324h-.972v-.187l.402-.411c.069-.065.129-.137.179-.217a.296.296 0 00.04-.133.112.112 0 00-.032-.083.124.124 0 00-.178.007.189.189 0 00-.042.123l-.001.05zm5.335 10.607a.417.417 0 00-.227-.122l.208-.405-.295-.148-.346.677c-.034.06-.062.124-.084.19a.454.454 0 00.013.297c.022.053.054.1.094.14a.444.444 0 00.764-.308.44.44 0 00-.127-.32zm-.21.318a.12.12 0 01-.067.112.101.101 0 01-.117-.026.131.131 0 01-.002-.172.095.095 0 01.074-.033.103.103 0 01.08.033.116.116 0 01.032.085zm-1.478 1.84h.38v.323h-.972v-.187l.402-.411c.069-.065.129-.138.179-.217a.294.294 0 00.04-.133.11.11 0 00-.075-.109.125.125 0 00-.135.033.189.189 0 00-.042.123l-.002.05h-.336l.003-.054a.51.51 0 01.142-.354.467.467 0 01.34-.131.462.462 0 01.226.054.413.413 0 01.16.16.417.417 0 01.06.21.605.605 0 01-.07.263 1.37 1.37 0 01-.24.318l-.06.061zm1.152-.99a.465.465 0 00-.266-.077.432.432 0 00-.373.193.953.953 0 00-.115.53c-.006.136.013.272.058.4.033.09.092.168.17.224.08.051.172.077.267.074a.45.45 0 00.264-.074.489.489 0 00.166-.228 1.45 1.45 0 00.001-.813.476.476 0 00-.172-.23zm-.112.637c.009.11-.01.22-.055.322a.102.102 0 01-.094.06.115.115 0 01-.103-.066.602.602 0 01-.049-.302 1.137 1.137 0 01.023-.264.206.206 0 01.055-.108.112.112 0 01.074-.026c.026 0 .064.007.1.068a.66.66 0 01.05.316zm-3.242 3.383a.46.46 0 01.128.334.472.472 0 01-.14.345.465.465 0 01-.34.142.485.485 0 01-.309-.103.48.48 0 01-.169-.28l-.014-.061h.347l.014.028a.165.165 0 00.059.069.137.137 0 00.174-.02.17.17 0 00.003-.219.109.109 0 00-.141-.025.23.23 0 00-.06.048l-.021.022-.273-.062.171-.787h.682v.323h-.42l-.026.114h.014a.43.43 0 01.321.132zm-7.102-1.814l.208-.405-.296-.148-.346.677a1.22 1.22 0 00-.083.19.451.451 0 00.013.298.445.445 0 00.857-.168.443.443 0 00-.353-.444zm.017.44a.12.12 0 01-.067.112.101.101 0 01-.083 0 .1.1 0 01-.034-.026.13.13 0 01-.002-.172.095.095 0 01.074-.032.102.102 0 01.08.032.114.114 0 01.032.086zm1.213 1.423a.357.357 0 00.092-.246.404.404 0 00-.206-.353.5.5 0 00-.44 0 .377.377 0 00-.153.144.395.395 0 00-.022.362.417.417 0 00.058.095.435.435 0 00-.15.332.448.448 0 00.061.232.398.398 0 00.165.156.6.6 0 00.265.05.564.564 0 00.256-.053.407.407 0 00.166-.158.445.445 0 00-.093-.561zm-.274-.165a.088.088 0 01-.15-.065.081.081 0 01.024-.063.077.077 0 01.059-.024.09.09 0 01.068.024.077.077 0 01.023.061.091.091 0 01-.024.067zm-.168.391a.159.159 0 01.11-.04.15.15 0 01.106.04.12.12 0 01.04.092.113.113 0 01-.037.089.183.183 0 01-.221-.003.12.12 0 01-.029-.14.113.113 0 01.03-.038zm-.788-.34l.208-.405-.296-.149-.346.677c-.033.061-.06.125-.083.19a.45.45 0 00.013.298c.022.053.054.1.094.14a.443.443 0 00.763-.308.443.443 0 00-.353-.444zm.017.44a.12.12 0 01-.067.111.1.1 0 01-.117-.026.13.13 0 01-.002-.172.095.095 0 01.074-.032.103.103 0 01.08.033.115.115 0 01.032.085zm1.941-.44l.208-.405-.295-.149-.346.677a1.145 1.145 0 00-.084.19.45.45 0 00.013.298c.022.053.054.1.094.14a.443.443 0 00.763-.308.439.439 0 00-.353-.444zm.017.44a.12.12 0 01-.067.111.1.1 0 01-.117-.026.131.131 0 01-.002-.172.094.094 0 01.074-.032.103.103 0 01.08.033.115.115 0 01.032.085zm2.344-.745l-.59 1.208-.294-.143.458-.938h-.495v-.326h.926l-.005.199zm.873-.231h-.317l-.559.831-.009.013v.288h.549v.258h.336v-.258h.112v-.324h-.112v-.808zm-.474.808l.138-.203v.203h-.138zm-1.857-.808a.442.442 0 00-.442.444.438.438 0 00.354.443l-.209.405.295.147.346-.678c.034-.06.061-.123.084-.189a.444.444 0 00-.428-.572zm.111.447a.12.12 0 01-.031.085.105.105 0 01-.119.023.115.115 0 01-.067-.11.118.118 0 01.068-.11.104.104 0 01.083 0 .098.098 0 01.033.025.118.118 0 01.033.087zm5.906-8.183l-.06.062h.38v.323h-.972v-.187l.403-.41c.068-.065.128-.138.178-.218a.294.294 0 00.041-.132.11.11 0 00-.033-.084.125.125 0 00-.178.008.189.189 0 00-.041.122l-.002.05h-.336l.002-.054a.51.51 0 01.143-.354.467.467 0 01.34-.13.462.462 0 01.225.053.413.413 0 01.16.16.417.417 0 01.06.21.606.606 0 01-.069.263 1.37 1.37 0 01-.241.318zm-1.121-2.56a.952.952 0 00-.115.53c-.006.136.014.272.058.4.033.09.092.168.17.224a.47.47 0 00.267.074.45.45 0 00.264-.074.49.49 0 00.166-.227 1.45 1.45 0 00.001-.814.476.476 0 00-.172-.23.464.464 0 00-.266-.076.433.433 0 00-.373.193zm.479.206c.042.1.058.207.049.315a.675.675 0 01-.056.322.102.102 0 01-.094.061.115.115 0 01-.102-.067.601.601 0 01-.05-.302 1.137 1.137 0 01.024-.264.205.205 0 01.055-.108.112.112 0 01.073-.026c.026 0 .064.007.1.069h.001zm-2.452-5.97a.441.441 0 00.444-.443.443.443 0 00-.354-.443l.208-.405-.295-.148-.346.677c-.034.06-.062.124-.084.19a.454.454 0 00.013.297c.022.053.054.1.094.14a.427.427 0 00.32.135zm-.11-.446a.12.12 0 01.031-.086.095.095 0 01.074-.032.103.103 0 01.08.032.114.114 0 01.032.086.122.122 0 01-.067.112.1.1 0 01-.117-.026.12.12 0 01-.033-.086zm1.092 7.748l-.346.676a1.145 1.145 0 00-.084.19.454.454 0 00.013.298c.022.053.054.1.094.14a.443.443 0 00.764-.308.443.443 0 00-.354-.444l.208-.404-.295-.148zm.104.992a.12.12 0 01-.067.113.1.1 0 01-.117-.026.13.13 0 01-.002-.173.095.095 0 01.074-.032.102.102 0 01.08.033.114.114 0 01.032.085zm1.85-4.489l-.346.677c-.033.061-.06.125-.083.19a.451.451 0 00.013.298c.022.053.054.1.094.14a.444.444 0 00.763-.308.443.443 0 00-.353-.444l.208-.404-.295-.149zm.105.993a.12.12 0 01-.067.112.1.1 0 01-.117-.026.13.13 0 01-.002-.172.095.095 0 01.074-.032.103.103 0 01.08.033.115.115 0 01.032.085zm-1.522 1.778l-.058.061h.379v.324h-.972v-.187l.402-.411c.07-.065.13-.137.18-.217a.296.296 0 00.04-.133.112.112 0 00-.033-.083.125.125 0 00-.178.007.19.19 0 00-.042.123l-.001.05h-.337l.003-.054a.51.51 0 01.142-.354.467.467 0 01.34-.131.462.462 0 01.226.054.414.414 0 01.16.16.418.418 0 01.06.21.604.604 0 01-.069.263 1.368 1.368 0 01-.242.318zm-1.462 2.935a.44.44 0 00.355.443l-.209.405.295.148.346-.678c.033-.06.061-.124.084-.189a.444.444 0 00-.013-.298.432.432 0 00-.094-.14.444.444 0 00-.764.31zm.337.003a.117.117 0 01.068-.111.105.105 0 01.043-.01.098.098 0 01.073.035.117.117 0 01.033.086.12.12 0 01-.031.086.106.106 0 01-.154-.001.115.115 0 01-.032-.085zm1.057.975a.485.485 0 01-.308-.102.48.48 0 01-.17-.28l-.013-.062h.346l.015.028a.165.165 0 00.058.07.14.14 0 00.174-.02.17.17 0 00.004-.219.11.11 0 00-.141-.026.23.23 0 00-.061.049l-.02.021-.273-.061.17-.788h.682v.324h-.42l-.025.114h.014a.428.428 0 01.32.132.457.457 0 01.128.334.474.474 0 01-.295.45.464.464 0 01-.185.036zm.773-6.59a.464.464 0 00-.266-.076.433.433 0 00-.373.193.953.953 0 00-.115.53c-.006.136.014.272.059.4.032.09.092.168.17.224a.47.47 0 00.266.074.45.45 0 00.264-.074.49.49 0 00.167-.227c.044-.132.064-.27.058-.409a1.14 1.14 0 00-.057-.405.476.476 0 00-.172-.23zm-.111.638c.008.11-.01.22-.055.322a.103.103 0 01-.094.061.115.115 0 01-.103-.067.602.602 0 01-.05-.302 1.142 1.142 0 01.024-.264.205.205 0 01.055-.107.112.112 0 01.074-.027c.026 0 .064.007.1.069a.66.66 0 01.049.315zm-.825 7.571a.427.427 0 00.13-.314.443.443 0 00-.353-.443l.208-.405-.296-.148-.346.677c-.033.06-.061.124-.084.19a.45.45 0 00.014.297.447.447 0 00.727.146zm-.424-.317a.12.12 0 01.032-.086.094.094 0 01.074-.033.103.103 0 01.08.033.117.117 0 01.032.085.12.12 0 01-.067.113.101.101 0 01-.118-.026.118.118 0 01-.033-.086zm2.715-1.719l-.059.062h.38v.323h-.972v-.186l.402-.412a1.08 1.08 0 00.179-.216.296.296 0 00.04-.133.112.112 0 00-.033-.083.126.126 0 00-.138-.022.125.125 0 00-.04.03.19.19 0 00-.041.122l-.002.05h-.336l.003-.054a.51.51 0 01.142-.354.466.466 0 01.34-.131.463.463 0 01.226.054.414.414 0 01.16.159.418.418 0 01.06.21.604.604 0 01-.07.264 1.368 1.368 0 01-.24.317zM80.8 4.263l-.558.83-.009.014v.288h.548v.258h.337v-.258h.111V5.07h-.111v-.808H80.8zm-.157.808l.138-.203v.203h-.138zm2.134.247a.17.17 0 00.004-.219.11.11 0 00-.141-.025.233.233 0 00-.061.048l-.02.021-.273-.06.171-.789h.681v.324h-.42l-.025.114h.014a.429.429 0 01.32.132.457.457 0 01.129.334.474.474 0 01-.14.345.464.464 0 01-.341.141.486.486 0 01-.308-.102.48.48 0 01-.17-.28l-.013-.062h.346l.015.028a.165.165 0 00.059.07.138.138 0 00.173-.02zm-.191 7.327v-.257h.112v-.324h-.112v-.808h-.317l-.56.83-.008.014v.288h.549v.257h.336zm-.474-.581l.138-.203v.203h-.138zm-.39 2.379l.345-.678c.034-.06.062-.124.084-.19a.444.444 0 00-.795-.377.444.444 0 00-.075.25.44.44 0 00.354.442l-.209.405.295.148zm-.105-.993a.118.118 0 01.069-.112.105.105 0 01.082 0 .1.1 0 01.033.025.117.117 0 01.033.087.12.12 0 01-.031.086.107.107 0 01-.077.032.106.106 0 01-.076-.033.114.114 0 01-.033-.085zm-1.392-5.116a.296.296 0 00.04-.133.112.112 0 00-.032-.083.125.125 0 00-.178.007.19.19 0 00-.042.123l-.001.05h-.337l.003-.054a.51.51 0 01.142-.354.468.468 0 01.34-.131.462.462 0 01.226.054.414.414 0 01.16.16.418.418 0 01.06.21.604.604 0 01-.07.263 1.368 1.368 0 01-.24.318l-.06.061h.38v.324h-.972v-.187l.402-.411c.07-.065.13-.137.18-.217zm.592-1.748a.296.296 0 00.04-.133.112.112 0 00-.033-.083.125.125 0 00-.178.008.189.189 0 00-.041.122l-.002.05h-.336l.002-.054a.51.51 0 01.143-.354.467.467 0 01.34-.131.462.462 0 01.226.054.414.414 0 01.16.16.418.418 0 01.06.21.604.604 0 01-.07.263 1.368 1.368 0 01-.241.318l-.059.062h.38V7.4h-.973v-.187l.403-.411c.069-.064.129-.137.179-.217zm-.564 9.605l.346-.678c.033-.06.061-.124.084-.189a.444.444 0 00-.013-.297.444.444 0 00-.857.17.44.44 0 00.354.442l-.209.405.295.147zm-.104-.993a.117.117 0 01.068-.111.103.103 0 01.083 0 .098.098 0 01.033.025.117.117 0 01.033.087.12.12 0 01-.031.085.106.106 0 01-.119.024.115.115 0 01-.067-.11zm1.332-5.66h.682v.325h-.42l-.026.113h.014a.43.43 0 01.321.132.459.459 0 01.128.334.472.472 0 01-.14.346.464.464 0 01-.34.14.486.486 0 01-.309-.101.48.48 0 01-.169-.28l-.014-.062h.347l.014.028a.165.165 0 00.059.07.138.138 0 00.174-.02.17.17 0 00.003-.22.11.11 0 00-.14-.025.234.234 0 00-.062.048l-.02.022-.273-.061.171-.788zm1.279-6.665h-.496v-.327h.927l-.005.2-.59 1.208-.294-.143.458-.938zm-1.042 12.84l-.003-.053h.335l.006.043a.188.188 0 00.052.114.156.156 0 00.2-.005.13.13 0 00-.014-.199.299.299 0 00-.183-.05h-.051v-.303l.047-.004a.332.332 0 00.111-.022.11.11 0 00.045-.037.081.081 0 00.015-.046.061.061 0 00-.02-.047.08.08 0 00-.06-.02.101.101 0 00-.061.021.11.11 0 00-.04.055l-.01.036h-.326l.007-.058a.427.427 0 01.439-.386.418.418 0 01.384.234.36.36 0 01.03.148.323.323 0 01-.12.255.365.365 0 01.185.33.428.428 0 01-.14.323.495.495 0 01-.353.131.463.463 0 01-.334-.124.483.483 0 01-.141-.335zm1.463-2.479l-.59 1.209-.294-.144.458-.937h-.495v-.327h.926l-.005.2zm-1.4-10.36h-.496v-.328h.926l-.005.2-.59 1.208-.293-.143.458-.938zM83.54 4.8h-.337l.003-.053a.51.51 0 01.142-.354.468.468 0 01.34-.131.462.462 0 01.226.054.414.414 0 01.16.16.418.418 0 01.06.21.603.603 0 01-.07.263 1.368 1.368 0 01-.24.317l-.06.062h.38v.324h-.972v-.187l.402-.411c.069-.065.129-.138.179-.217a.296.296 0 00.04-.133.11.11 0 00-.074-.109.126.126 0 00-.136.033.19.19 0 00-.042.123l-.002.05zm-2.718-2.98a.17.17 0 00.003-.218.11.11 0 00-.141-.026.232.232 0 00-.06.049l-.021.021-.273-.061.171-.788h.682v.324h-.42l-.026.113h.014a.429.429 0 01.321.132.459.459 0 01.128.334.472.472 0 01-.14.346.464.464 0 01-.34.14.486.486 0 01-.309-.101.48.48 0 01-.169-.28l-.014-.062h.347l.014.028a.165.165 0 00.059.07.138.138 0 00.174-.02zm.18.77a.464.464 0 00-.265-.076.433.433 0 00-.373.193.953.953 0 00-.115.53c-.006.136.014.272.058.4.033.09.092.168.17.224a.47.47 0 00.267.074.45.45 0 00.264-.074.49.49 0 00.166-.227c.045-.132.065-.27.059-.41a1.14 1.14 0 00-.058-.404.476.476 0 00-.172-.23zm-.11.638a.675.675 0 01-.056.322.103.103 0 01-.094.06.115.115 0 01-.103-.066.602.602 0 01-.049-.302 1.137 1.137 0 01.023-.264.206.206 0 01.055-.108.112.112 0 01.074-.026c.026 0 .064.007.1.068a.66.66 0 01.05.316zm.817 2.455a.442.442 0 00.443-.443.443.443 0 00-.353-.443l.208-.405-.296-.148-.346.677a1.15 1.15 0 00-.083.19.448.448 0 00.013.298c.022.052.054.1.094.14a.427.427 0 00.32.134zm-.11-.446a.12.12 0 01.031-.086.095.095 0 01.074-.032.103.103 0 01.08.032.116.116 0 01.032.086.12.12 0 01-.067.112.1.1 0 01-.118-.026.12.12 0 01-.033-.086zM78.18 17.92a.44.44 0 00.443-.443.441.441 0 00-.353-.443l.208-.405-.296-.148-.345.677c-.034.06-.062.124-.084.19a.454.454 0 00.013.298c.022.052.054.1.094.14a.426.426 0 00.32.134zm-.11-.446a.12.12 0 01.031-.086.095.095 0 01.074-.032.102.102 0 01.08.032.115.115 0 01.032.086.12.12 0 01-.067.112.1.1 0 01-.117-.026.12.12 0 01-.034-.086zm-.113-9.685h.437V9.15h-.339V8.117h-.3l.202-.327zm1.365-3.496h.927l-.005.2-.59 1.208-.294-.143.458-.938h-.496v-.327zm2.39 10.689l-.59 1.208-.294-.143.458-.938h-.496v-.327h.927l-.005.2zm-2.98-7.192h.926l-.005.2-.59 1.208-.294-.143.458-.938h-.495V7.79zm2.863 10.1h-.972v-.187l.402-.412a1.08 1.08 0 00.18-.216.295.295 0 00.04-.133.113.113 0 00-.033-.083.126.126 0 00-.178.007.188.188 0 00-.042.123l-.001.05h-.337l.003-.054a.51.51 0 01.142-.354.467.467 0 01.34-.131.463.463 0 01.226.054.412.412 0 01.16.16.417.417 0 01.06.21.605.605 0 01-.069.263 1.37 1.37 0 01-.242.317l-.058.062h.379v.324zm-2.915-6.944l-.295-.143.458-.937h-.495v-.327h.926l-.005.2-.59 1.207zm1.126-.049h.336v-.258h.112v-.323h-.112v-.809h-.317l-.559.831-.009.013v.288h.549v.258zm-.138-.581l.138-.203v.203h-.138zM39.554 0a2.135 2.135 0 011.574.665 2.207 2.207 0 01.657 1.61 2.18 2.18 0 01-.65 1.592 2.107 2.107 0 01-1.555.659 2.14 2.14 0 01-1.588-.671 2.246 2.246 0 01-.656-1.63 2.147 2.147 0 01.65-1.573A2.134 2.134 0 0139.554 0z"
		  fill="#C5B358"></path>
</svg>