<?xml version="1.0" encoding="utf-8"?>
<!-- Generator: Adobe Illustrator 25.2.0, SVG Export Plug-In . SVG Version: 6.00 Build 0)  -->
<svg version="1.1" id="Ebene_1" xmlns="http://www.w3.org/2000/svg" xmlns:xlink="http://www.w3.org/1999/xlink" x="0px" y="0px"
	 viewBox="0 0 1000 1000" style="enable-background:new 0 0 1000 1000;" xml:space="preserve">
<style type="text/css">
	.st0{display:none;}
	.st1{fill:#002BFF;}
	.st2{clip-path:url(#SVGID_2_);fill:#BCB700;}
	.st3{clip-path:url(#SVGID_4_);fill:#6B6B6B;}
	.st4{clip-path:url(#SVGID_6_);fill:#007003;}
	.st5{clip-path:url(#SVGID_8_);fill:#FFFFFF;}
	.st6{clip-path:url(#SVGID_10_);fill:#FFFFFF;}
	.st7{opacity:0.7;fill:url(#SVGID_17_);enable-background:new    ;}
	.st8{display:inline;fill:#FFFFFF;}
</style>
<g id="Ebene_1_1_" class="st0">
	
		<image style="display:inline;overflow:visible;enable-background:new    ;" width="238" height="235" xlink:href="D9D1E7A3.png"  transform="matrix(4.2553 0 0 4.2553 -9 0)">
	</image>
</g>
<g id="Ebene_2_1_">
	<g>
		<circle class="st1" cx="512.3" cy="468.5" r="367"/>
		<g>
			<g>
				<defs>
					<circle id="SVGID_1_" cx="512.3" cy="466" r="367"/>
				</defs>
				<clipPath id="SVGID_2_">
					<use xlink:href="#SVGID_1_"  style="overflow:visible;"/>
				</clipPath>
				<path class="st2" d="M847.6,253.9c-0.1,2.2-10,87.7-116.7,72.5c-106.6-15.2-133.1,20.8-160.6,48.6s-83.2,60.4-100.1,27.6
					c-16.9-32.8-32.3-14-28-73.8c4.4-59.8-10.5-74.1-39.8-93.3c-29.3-19.2-24.2-30.1-46.7-51.1c-22.5-21-41.6-40.1-70.9,25
					s-1,47.9-58.4,87.5s-52.3,14.7-76.9,63.5s-18,258,7.8,253.2c25.8-4.8,53.2-36.3,48.8-68.8c-4.4-32.5,16.4-42.5,44.1,11.5
					c27.8,54,12.1,23.1,45.1,64s39.8,67.2,67.7,70.9c27.9,3.7,46.2-10.1,82.6,32.8c36.5,42.9,35.3,71,44.3,93.5
					c9,22.5,47,62.8,82.1-10.4c35.2-73.2,42.2-55.3,20.6-83.9c-21.6-28.6-8-40.3,35.6-33.8c43.5,6.6,45.7,38.9,51-14.5
					c5.4-53.4-34.6-36.1,25.6-70.6c60.3-34.6,97.7-15.3,98.6-77.1c0.9-61.8-51.1-61.7,15.7-99.4s88.1-42.8,99.1-48
					C929.3,374.7,847.6,253.9,847.6,253.9z"/>
			</g>
			<g>
				<defs>
					<circle id="SVGID_3_" cx="512.3" cy="468.5" r="367"/>
				</defs>
				<clipPath id="SVGID_4_">
					<use xlink:href="#SVGID_3_"  style="overflow:visible;"/>
				</clipPath>
				<path class="st3" d="M867.8,292.3c-0.4,2.2-19.1,86.1-123.5,60s-134.6,6.9-164.8,31.7s-89,51.4-102.4,17
					c-13.4-34.4-30.7-17.3-20.2-76.2c10.5-59-2.7-74.8-29.9-96.9c-27.2-22.1-21-32.4-41.2-55.7c-20.2-23.2-37.2-44.1-73.1,17.5
					s-6,47.5-67.2,81S192,280,162.5,326S117.8,580.7,144,578.6c26.2-2.1,56.7-30.6,55.7-63.4c-1-32.8,20.7-40.6,42.7,16
					s9.6,24.2,38.2,68.3c28.6,44.1,32.6,71,60,77.5c27.4,6.5,47-5.2,78.8,41.2c31.8,46.4,27.7,74.3,34.3,97.6
					c6.6,23.3,40.2,67.3,82.8-1.9s47.7-50.7,29.2-81.3c-18.5-30.7-3.7-40.9,38.9-29.9s41.4,43.5,52.2-9.1s-30.7-39.5,32.8-67.6
					s98.7-5.2,106-66.5s-44.4-66.6,25.9-97.3s92-33.4,103.5-37.4C936.5,420.9,867.8,292.3,867.8,292.3z"/>
			</g>
			<g>
				<defs>
					<circle id="SVGID_5_" cx="512.3" cy="468.5" r="367"/>
				</defs>
				<clipPath id="SVGID_6_">
					<use xlink:href="#SVGID_5_"  style="overflow:visible;"/>
				</clipPath>
				<path class="st4" d="M884.5,351.2c0,0-76.9,60.4-99,56.8c-22.1-3.6-70-43.2-98.3-27.9c-28.3,15.3-81.1,30.2-114.7,39.2
					c-33.7,9-85.8,39.2-106.3,19.4s-50-55.8-47.8-82.7s2.7-49.9-9.2-65.9s-27.3-49.3-62.9-39.3s-40.1,26.5-62.5,38.7
					c-22.4,12.2-51.4,31.9-66.4,54.4c-15,22.5-20.7,49.2-27.7,86.1s37.5,6.1,57.5,36.6c19.9,30.5,3.1,28.2,29.2,65.5
					s19.2,43.5,53.4,78.1c34.2,34.6,41.2,33.5,81.4,56.4s49.2,20.7,63.7,62.1c14.5,41.3,12.5,73.2,8.7,85.3s20.8-22,36-43
					s17-32.1,15.1-53.3c-2-21.2-22.2-30.8,12.1-40.6s34.6,23.8,78.5-19.8c43.8-43.6,39.9-63.7,69.2-77
					c29.4-13.3,53.9-16.6,63.7-26.7s-27.6,2.3,16.3-63.5s148.8-81.2,154-80C933.5,411.4,884.5,351.2,884.5,351.2z"/>
			</g>
			<g>
				<defs>
					<circle id="SVGID_7_" cx="512.3" cy="468.5" r="367"/>
				</defs>
				<clipPath id="SVGID_8_">
					<use xlink:href="#SVGID_7_"  style="overflow:visible;"/>
				</clipPath>
				<path class="st5" d="M472.2,341.9c28.6-0.5-60.7,49-114.8,85.7c-54,36.7-87.7,47.7-116.9,81.2s-47.3,51.8-76.5,77.5
					c-29.2,25.7-67.3,59.2-79.3,36.5C72.8,600,49,599.5,83.8,571c34.9-28.5,71.9-50.6,110.2-88.5c38.3-37.9,31.2-20.9,59.6-33.4
					c28.4-12.5-22.3-36.3,50.3-58.4S435,342.5,472.2,341.9z"/>
			</g>
			<g>
				<defs>
					<circle id="SVGID_9_" cx="515.1" cy="467.8" r="367"/>
				</defs>
				<clipPath id="SVGID_10_">
					<use xlink:href="#SVGID_9_"  style="overflow:visible;"/>
				</clipPath>
				<path class="st6" d="M765.4,524.2c0,0,113.7-87.1,84.3-124.1S652.2,536.8,652.2,536.8s-27.5-19.1-102.8,53.6
					s-84.9,69-108.3,129.5c-23.4,60.5-76.9,116.3-12.1,61c64.8-55.3,68.6-77.7,133.3-119.4c64.7-41.6,52.7-19.5,100.5-61.1
					C710.7,558.9,765.4,524.2,765.4,524.2z"/>
				<path class="st6" d="M822.7,64.6c0,0,71-47.7-83.7,18s-156.9,96-156.9,96s-109.3,47.6-122,65.8s-44,32.1,38.9,3.7
					c82.9-28.3,83.4-19.2,110.9-41.3c27.5-22.1-14.7-6.3,44-40.6s80.7-40.8,99.4-56.5C772.2,94,822.7,64.6,822.7,64.6z"/>
				<path class="st6" d="M981.6,213.6c0,0,79.3-49.9-89.8-29.1s-174.4,88.7-174.4,88.7s-119.6,17.4-134.7,48.5s-49.4,36.7,40.6,41.4
					c90,4.6,89.7,26.1,120.8-1.6c31.1-27.7-14.9-26.8,50.1-56.3c65-29.5,88.9-25.9,110.1-46.3C925.6,238.5,981.6,213.6,981.6,213.6z
					"/>
				<path class="st6" d="M538.3,520.9c0,0,77.7-32.7,44-76.2s-138.3,44.1-138.3,44.1s-28-27.1-76,7.6s-57.1,27.9-63.3,71.8
					c-6.2,43.9-39.4,72.2,3.6,48.6c43-23.6,41.1-41.7,87.2-53.4c46.1-11.7,40.8,3,72.4-15C499.3,530.4,538.3,520.9,538.3,520.9z"/>
				<path class="st6" d="M402.2,201c0,0,74.7-33.6,44.4-73.1s-132.5,46.5-132.5,46.5s-25.5-24.4-72.2,10s-55,28.3-62.6,69.7
					c-7.5,41.4-39.9,69.2,1.6,45.5c41.5-23.7,40.4-40.6,84.4-53.3s38.5,1.3,69-16.8C365,211.3,402.2,201,402.2,201z"/>
				<path class="st6" d="M948.4,650.4c0,0,74.7-33.6,44.4-73.1s-132.5,46.5-132.5,46.5s-25.5-24.4-72.2,10
					c-46.7,34.4-55,28.3-62.6,69.7c-7.5,41.4-39.9,69.2,1.6,45.5c41.5-23.7,40.4-40.6,84.4-53.3s38.5,1.3,69-16.8
					C911.1,660.7,948.4,650.4,948.4,650.4z"/>
			</g>
			<g>
				<defs>
					<circle id="SVGID_11_" cx="512.3" cy="468.5" r="367"/>
				</defs>
				<clipPath id="SVGID_12_">
					<use xlink:href="#SVGID_11_"  style="overflow:visible;"/>
				</clipPath>
			</g>
			<g>
				<defs>
					<circle id="SVGID_13_" cx="512.3" cy="468.5" r="367"/>
				</defs>
				<clipPath id="SVGID_14_">
					<use xlink:href="#SVGID_13_"  style="overflow:visible;"/>
				</clipPath>
			</g>
			<g>
				<defs>
					<circle id="SVGID_15_" cx="512.3" cy="468.5" r="367"/>
				</defs>
				<clipPath id="SVGID_16_">
					<use xlink:href="#SVGID_15_"  style="overflow:visible;"/>
				</clipPath>
			</g>
		</g>
		
			<linearGradient id="SVGID_17_" gradientUnits="userSpaceOnUse" x1="368.7132" y1="216.0346" x2="670.7132" y2="747.0346" gradientTransform="matrix(-0.9398 -0.3417 0.3417 -0.9398 833.6517 1083.7667)">
			<stop  offset="0" style="stop-color:#727FC0;stop-opacity:0.63"/>
			<stop  offset="1" style="stop-color:#FFFFFF"/>
		</linearGradient>
		<circle class="st7" cx="512.3" cy="468.5" r="367"/>
	</g>
	<g class="st0">
		<path class="st8" d="M362.6,368.9l-17.9,26.2h-85.5c0,0-7.4-1.2-7.4,9.5s8.3,8.3,8.3,8.3l85,0.2c0,0,22.2-1.4,23.4,28.4
			c1.2,29.8-21.4,33.3-21.4,33.3H217.7l23.4-28.6h89.3c0,0,6,0,6-7.1s-6-7.1-6-7.1l-89.3-1.2c0,0-19.1,1.2-17.9-29.8
			s20.2-32.2,20.2-32.2L362.6,368.9L362.6,368.9z"/>
		<polygon class="st8" points="555.5,368.9 555.5,474.9 587,474.9 587,435.6 648.5,435.6 671.1,409.4 586.5,409.4 586.5,393.9 
			653.2,393.9 674.3,368.9 		"/>
		<polygon class="st8" points="685.4,368.9 685.4,474.9 789.7,474.9 806.9,449.9 716.4,449.9 716.4,432 792.6,432 806.9,409.6 
			716.4,409.6 716.4,393.9 792.6,393.9 806.9,368.9 		"/>
		<path class="st8" d="M209,607.1l26.2-92.9c0,0,3.6-6,15.5-6c11.9,0,14.3,6,14.3,6s22.6,45.3,23.8,47.6s3.6,8.3,6,8.3s6-7.2,6-8.3
			s27.4-47.6,27.4-47.6s3.6-4.8,13.1-4.8s10.7,3.6,11.9,4.8s29.8,89.3,31,91.7c-15.5,0-32.2,0-32.2,0s-11.9-54.8-15.5-54.8
			s-22.6,41.7-27.4,48.8s-2.4,7.2-12.5,7.2c-10.1,0-14.9-2.4-18.5-8.3c-3.6-6-22.6-50-25-50c-2.4,0-12,58.4-12.5,58.4
			C240.6,607.1,209,607.1,209,607.1z"/>
		<path class="st8" d="M468,506.4L543,607.1l-108.3,0.6l17.9-26.2l36.3-0.6c0,0-24.5-34.2-24.2-34.4c0.4-0.2-47.2,60-47.9,60
			c-0.7,0-28.6,0-28.6,0L468,506.4z"/>
		<path class="st8" d="M551.9,607.1h29.9v-27.2h41.4l20.6,27.2l38.8-0.9l-28.2-25.3c0,0-3.6-1.2,0-4.8s23.8-2.4,23.8-29.8
			s-17.9-36.9-28.6-35.7c-10.7,1.2-83.3-0.1-83.3-0.1l-19.1,25.1c0,0,91.7,0,92.9,0s6,0,6,9.5s-2.4,11.9-4.8,11.9
			s-91.7-1.2-91.7-1.2l-0.3,51.2H551.9z"/>
		<path class="st8" d="M685.9,607.1"/>
		<path class="st8" d="M811.9,517.5l-15.1,22.2h-72.3c0,0-6.2-1-6.2,8.1s7,7,7,7l71.9,0.2c0,0,18.8-1.2,19.8,24
			s-18.1,28.2-18.1,28.2H689.4l19.8-24.2h75.5c0,0,5,0,5-6s-5-6-5-6l-75.5-1c0,0-16.1,1-15.1-25.2s17.1-27.2,17.1-27.2L811.9,517.5
			L811.9,517.5z"/>
		<path class="st8" d="M550.9,253.4c33.5,2.5,61.8,22.5,157.1,60.1c-2.6,15-17.1,83-66,185.6c-48.9,102.6-186.7,170.7-186.7,170.7
			s-56.4-56-79.5-121.1c-23.2-65.1-2.6-245.3-2.6-245.3C427.3,278.5,517.4,250.9,550.9,253.4z M410.7,463.3l75.1,68.5
			c0,0,91.1-146.1,88.4-147.8s-31.8-25.1-31.8-25.1l-67.7,107.7L433.6,432L410.7,463.3z"/>
	</g>
</g>
</svg>
