<svg xmlns="http://www.w3.org/2000/svg" viewBox="0 0 32 32"><path d="M10.96832,32c-3.52858-4.252-.02021-12.86344,6.73074-15.73392C13.02124,20.625,20.99482,31.30954,20.5164,23.1765c2.37243,1.2908,2.81791,3.99131,2.02,7.60146,6.00139-4.51831,6.32567-11.163,3.0831-16.69133a7.87049,7.87049,0,0,1-2.49839,7.17621C26.02465,8.49575,18.49643,1.54155,12.277,0c.54174,3.48359-.01356,6.88533-.88807,8.12312s-3.57715,4.52827-.91928,8.40874a4.0861,4.0861,0,0,1-2.65787-3.88047C.84827,19.93392,5.63239,30.03376,10.96832,32Z" style="fill:#fff"/><rect width="32" height="32" style="fill:none"/></svg>