<svg xmlns="http://www.w3.org/2000/svg" viewBox="0 0 32 32"><path d="M15.98966,28.08012c-1.19342,0-2.37447-.06574-4.72133-.20267a13.90418,13.90418,0,0,1-6.07068-1.75108,3.64551,3.64551,0,0,0,.27862.54845,7.16663,7.16663,0,0,0,.63145.68755,8.26137,8.26137,0,0,0,2.9025,1.79322,5.161,5.161,0,0,0,.80463.20468c.06717.0118.13262.02158.19806.02733.07048.00791.13737.01539.21015.01942l.44762.034c.56557.04372,1.1461.07939,1.77467.109,1.3633.06386,2.49343.09205,3.55409.08673,1.02858.00475,2.159-.02215,3.55538-.08587.6257-.02978,1.20608-.06545,1.77424-.10917l.44475-.03352c.07566-.00431.143-.01179.20957-.01927.06919-.006.13449-.01568.19979-.02748a5.179,5.179,0,0,0,.80866-.20554A8.25987,8.25987,0,0,0,25.893,27.36237a7.23639,7.23639,0,0,0,.58685-.62958,3.67193,3.67193,0,0,0,.32148-.62972,13.87367,13.87367,0,0,1-6.10678,1.77438C18.35881,28.01438,17.18308,28.08012,15.98966,28.08012Z" style="fill:#fff"/><path d="M27.44418,23.784a33.39311,33.39311,0,0,1-11.7258,2.41489A26.85865,26.85865,0,0,1,4.517,23.86366c-.0361.00014-.0909.00474-.103.0302-.08516.17965.32334.87267.70883,1.30058a7.26176,7.26176,0,0,0,.99651.61635,13.62986,13.62986,0,0,0,5.19182,1.33165,54.47776,54.47776,0,0,0,9.34025,0,13.63948,13.63948,0,0,0,5.19183-1.33208,7.159,7.159,0,0,0,1.03879-.64785c.3596-.4492.71776-1.14078.62872-1.33985C27.50646,23.813,27.49712,23.79188,27.44418,23.784Z" style="fill:#fff"/><path d="M31.99161,12.65107a.44423.44423,0,0,0-.04574-.12773.40084.40084,0,0,0-.03667-.05739l-.0679-.08415c-.04646-.05868-.09363-.11521-.141-.17145-.08774-.10472-.18368-.21216-.29357-.32881a4.97927,4.97927,0,0,0-.65159-.57938c-.07-.05193-.14225-.101-.21546-.14844-.25172-.11234-.46259-.14-.55349-.06847-.08343.06573-.0748.22266-.0525.34449a15.73426,15.73426,0,0,1,.38548,1.55748,13.51,13.51,0,0,1,.60987,6.196l.03136-.05681c.17218-.31386.32119-.56989.46863-.80564.07364-.11967.15994-.24711.27113-.40087a.74727.74727,0,0,0,.064-.09479.23671.23671,0,0,0,.02574-.07264l.08717-1.75871.1214-3.21031c.00129-.02978.002-.04287.001-.06617A.42838.42838,0,0,0,31.99161,12.65107Z" style="fill:#fff"/><path d="M28.0739,9.29979a26.0927,26.0927,0,0,0-11.794-2.69466A33.14067,33.14067,0,0,0,3.96108,9.31676a.94664.94664,0,0,0-.4984.48747,15.0684,15.0684,0,0,0-.289,11.72523,9.36034,9.36034,0,0,0,3.23793,2.22977,25.91334,25.91334,0,0,0,9.29883,1.62954,33.14063,33.14063,0,0,0,12.31884-2.71163.9466.9466,0,0,0,.4984-.48747A14.98644,14.98644,0,0,0,28.51865,9.764.95409.95409,0,0,0,28.0739,9.29979Zm-.28767,11.98787a1.4012,1.4012,0,0,1-.74005.72078,30.37657,30.37657,0,0,1-11.29285,2.48264c-.07652.00072-.15333.001-.2297.001A24.11,24.11,0,0,1,4.89142,22.00987a1.41176,1.41176,0,0,1-.66079-.68452,12.94025,12.94025,0,0,1-.01711-11.15692v.00014a1.40022,1.40022,0,0,1,.74019-.72091A30.37637,30.37637,0,0,1,16.24655,6.965,24.09694,24.09694,0,0,1,27.10832,9.44607a1.41269,1.41269,0,0,1,.66094.68453A12.94059,12.94059,0,0,1,27.78623,21.28766Z" style="fill:#fff"/><path d="M.21353,12.82281v-.50919L.159,12.38123l-.06933.08587a.42806.42806,0,0,0-.03539.05566.44506.44506,0,0,0-.04588.12759.4122.4122,0,0,0-.00791.06688c-.001.02417-.00043.03754.001.07048l.05624,1.3807.06516,1.82646.088,1.76661a.24413.24413,0,0,0,.02.055.74718.74718,0,0,0,.0689.10342c.11148.15433.19778.28192.27128.40145.14715.23517.296.4912.46848.8052l.01812.03294a13.59777,13.59777,0,0,1,.63088-6.22731c.1004-.507.229-1.01953.38016-1.5149.01956-.11105.02776-.267-.05552-.33212-.09019-.07077-.29861-.04387-.5578.07163-.07149.0466-.14212.0945-.21058.14527-.107.07911-.21346.16527-.317.25661v.29026h.12169a.39705.39705,0,0,1,.39656.39657v.8951a.39708.39708,0,0,1-.39656.3967H.61024A.398.398,0,0,1,.214,13.14587l-.00216-.1657Z" style="fill:#fff"/><path d="M25.19255,6.20339l-.65547-.56456c-.07638-.05782-.15866-.122-.24108-.186-.14412-.11234-.2881-.22453-.43554-.33169-.10039-.06631-.2041-.1388-.30752-.2113-.12931-.09047-.26279-.184-.39671-.26941-.08544-.0502-.17433-.10442-.26322-.15865-.15232-.09292-.30968-.18886-.46718-.27473A15.42418,15.42418,0,0,0,19.302,2.88736a12.3815,12.3815,0,0,0-3.35488-.52256q-.11671-.00216-.23344-.00216A12.71734,12.71734,0,0,0,9.37715,4.06553,13.28934,13.28934,0,0,0,6.61647,6.148a13.9444,13.9444,0,0,0-1.599,1.88312A33.11034,33.11034,0,0,1,16.272,5.795,26.78472,26.78472,0,0,1,26.72356,7.8115,16.42055,16.42055,0,0,0,25.19255,6.20339Z" style="fill:#fff"/><path d="M25.39119,10.57525c-5.7113-2.7123-12.01053-2.71279-18.72244-.00211a1.30225,1.30225,0,0,0-.69567.66028A10.49516,10.49516,0,0,0,5.98761,20.487a1.30917,1.30917,0,0,0,.621.62678c-.39922-.18465-1.96691-6.98943-.04265-9.61784a.87629.87629,0,0,1,.35183-.336A25.54125,25.54125,0,0,1,16.212,9.164a10.22728,10.22728,0,0,1,6.60374,2.30209c1.72131,1.94927.87331,7.40944.44669,8.6641-.29566,1.02274-2.98967,1.772-4.96255,2.3616l4.005-.88035c1.89909-.51354,1.89844-.77649,2.1152-1.21793a11.182,11.182,0,0,0,.86742-5.3271v0s-.02266-.725.019-1.23046c.04862-.58983.48618-.89347.80492.15384a6.48067,6.48067,0,0,1,.11608,1.0745,19.86618,19.86618,0,0,1-.89626,6.05164,1.30207,1.30207,0,0,0,.69575-.66016,10.49564,10.49564,0,0,0-.0146-9.25366A1.30928,1.30928,0,0,0,25.39119,10.57525Z" style="fill:#fff"/><path d="M.57068,7.584a.21018.21018,0,0,0-.20986.20986v5.029a.20986.20986,0,0,0,.41972,0v-5.029A.21018.21018,0,0,0,.57068,7.584Z" style="fill:#fff"/><rect width="32" height="32" style="fill:none"/></svg>