<?xml version="1.0" encoding="utf-8"?>
<!-- Generator: Adobe Illustrator 25.2.0, SVG Export Plug-In . SVG Version: 6.00 Build 0)  -->
<svg version="1.1" xmlns="http://www.w3.org/2000/svg" xmlns:xlink="http://www.w3.org/1999/xlink" x="0px" y="0px"
	 viewBox="0 0 2000 3000" style="enable-background:new 0 0 2000 3000;" xml:space="preserve">
<style type="text/css">
	.st0{fill:#031C3C;}
	.st1{fill:#032046;}
	.st2{fill:#051835;}
	.st3{fill:#024281;}
	.st4{fill:#022F5F;}
	.st5{fill:#02386D;}
	.st6{fill:#035095;}
	.st7{fill:#022953;}
	.st8{fill:#031B38;}
	.st9{fill:#0362AB;}
	.st10{fill:#035CA5;}
	.st11{fill:#FEFEFE;}
	.st12{fill:#0369B2;}
	.st13{fill:#0377BF;}
	.st14{fill:#022B5A;}
	.st15{fill:#0496D3;}
	.st16{opacity:0.25;fill:url(#SVGID_1_);}
</style>
<g id="Ebene_1">
	<g>
		<g>
			<path class="st0" d="M-17.07,991.49c0-16.98,0-33.95,0-50.93c28.61,1.11,57.39,0.63,85.79,3.64
				c83.76,8.88,117.08-15.07,145.92-69.38c18.7-35.21,19.88-79.12,54.58-106.66c12.29-9.75,4.82-24.34,0.2-37.59
				c-28.17-80.89-10.58-109.28,73.87-115.39c25.6-1.85,37.41-10.2,35.82-36.33c-0.92-15.19-0.13-30.49-0.1-45.73
				c13.03-32.13,27.2-64.54-20.32-81.47c-10.15-0.01-20.31-0.01-30.46-0.02c-9.99-54.6-22.18-108.93-29.19-163.91
				c-4.67-36.66,6.92-71.03,39.2-93.46c30.4-21.12,49.12,9.91,72.66,18.89c21.27,8.11,35.19,25.8,50.68,41.27
				c34.46,34.41,69.45,65.67,123.64,39.57c6.01-2.9,17.33-0.28,23.61,3.78c67.6,43.75,128.74,22.53,185.98-20.03
				c22.51-16.74,32.31-20.9,48.11,8.7c19.36,36.28,72.16,47.12,106.14,23.68c38.82-26.76,78.98-30.88,123.51-23.19
				c57.72,9.96,75.48-6.1,78.45-65.9c0.79-15.87-5.68-41.26,16.86-41.59c45.33-0.66,81.2-15.54,110.72-49.36
				c3.33-3.82,15.39-5.61,18.88-2.76c28.37,23.17,54.7,9.79,82.83-0.58c11.75-4.33,27.88-3.4,39.92,0.97
				c44.9,16.3,87.64-9.52,132.02-4.73c14.14,1.53,14.12-16.03,14.98-27.81l0.06-0.06c23.96-0.65,14.86,27.97,30.08,35.16
				c13.67-5.92-0.98-33.27,19.74-29.19c17.54,3.45,10.75,22.39,10.29,34.79c-0.93,24.62-14.55,41.22-37.75,48.85
				c-34.08,11.21-35.06,38.97-31.11,66.41c4.21,29.23,29.28,34.65,53.49,37.02c23.48,2.3,47.5,0.46,70.63,4.34
				c17.61,2.96,36.13,8.08,37.25,33.84c1.16,26.86,7.06,53.48,9.62,80.32c1.62,17-0.44,35.79,20.27,42.08
				c21.88,6.64,42.98-2.04,54.11-19.08c23.41-35.85,29.91-79.39,33.24-120.33c2.68-32.97-40.55-25.04-59.64-45.51
				c48.85,1.57,100.74-24.95,143.58,10.45c31.41,25.96,62.42,38.45,101.51,34.76c-0.02,139.2-0.03,278.39-0.05,417.59
				c-38.93,6.24-79.65,11.08-116.46,18.86c-81.72,17.28-152.29,3.54-222.85-32.62c-21.37-10.95-43.35-20.37-67.86-16.59
				c-65.15,10.05-109.7-30.55-156.88-63.85c-34.4-24.28-46.58-57.48-44.58-100.96c3.44-74.81-13.33-90.66-87.75-100.45
				c-12.34-1.62-34.82,7-21.78-23.4c9.38-21.87-13.85-23.23-26.98-25.66c-16.53-3.06-26.25,5.44-21.58,23.78
				c8.45,33.16-11.96,45.71-38.02,44.89c-68.64-2.16-140.48,37.38-205.81-15.22c-9.87-7.94-23.85,5.8-33.8,3.38
				c-44.89-10.88-99.7,45.6-136.57-19.85c-1.5-2.67-9.59-3.78-13.64-2.51c-61.09,19.17-135.73,13.12-157.85,99.76
				c-9.57,37.47-37.49,65.61-81.97,20.13c-3.7,33.08,7.07,65.47-27.98,78.25C450.9,654.39,395.95,744.81,344.61,841.01
				c-17.35,32.5-0.2,84.65-50.43,97.57c-23.75,6.11-43.21,17.6-63.56,29.79c-70.04,41.96-141.94,71.8-222.82,26.61
				C0.98,991.17-8.71,992.53-17.07,991.49z M1530.77,272.2c8.67-17.03,7.79-32.66,4.31-46.88c-6.31-25.81-28.79-16.85-45.78-17.5
				c-13.99-0.53-28.49,3.69-30.19,19.97c-2.53,24.29,18.42,19.46,31.62,20.6C1507.6,249.85,1511.86,269.27,1530.77,272.2z"/>
			<path class="st1" d="M-17.07,991.49c8.36,1.04,18.05-0.33,24.87,3.48c80.88,45.19,152.78,15.35,222.82-26.61
				c20.35-12.19,39.8-23.68,63.56-29.79c50.23-12.92,33.08-65.07,50.43-97.57c51.34-96.2,106.3-186.62,215.57-226.47
				c35.05-12.78,24.28-45.16,27.98-78.25c44.48,45.48,72.4,17.34,81.97-20.13c22.13-86.64,96.76-80.59,157.85-99.76
				c4.05-1.27,12.13-0.16,13.64,2.51c36.87,65.45,91.69,8.97,136.57,19.85c9.95,2.41,23.93-11.33,33.8-3.38
				c65.33,52.6,137.18,13.07,205.81,15.22c26.05,0.82,46.46-11.73,38.02-44.89c-4.67-18.34,5.05-26.84,21.58-23.78
				c13.13,2.43,36.37,3.79,26.98,25.66c-13.05,30.41,9.44,21.78,21.78,23.4c74.41,9.79,91.19,25.64,87.75,100.45
				c-2,43.48,10.17,76.68,44.58,100.96c47.18,33.29,91.73,73.89,156.88,63.85c24.51-3.78,46.49,5.64,67.86,16.59
				c70.57,36.15,141.13,49.9,222.85,32.62c36.8-7.78,77.52-12.62,116.46-18.86c0.02,50.93,0.04,101.85,0.06,152.78
				c-92.72,4.24-187.72-15.26-277.73,9.37c-71.81,19.65-128.52-11-190.33-29.85c-5.74-1.75-14.58-8.2-14.43-12.17
				c2.24-58.58-51.98-51.3-78.53-75.12c-62.28-55.88-125.02-65.78-202.18-60.68c-28.87,1.91-50.52,1.6-70.81,23.27
				c-45.41,48.48-99,72.07-167.13,55.12c-18.63-4.64-40.79-6.97-59.13,5.42c-24.33,16.44-57.07-23.39-78.41,12.15
				c-0.34,0.57-8.24-1.41-8.72-3.23c-11.52-43.77-40.68-15.82-52.54-7.27c-57.48,41.46-120.97,45.06-188,43.17
				c-54.28-1.53-92.71,29.02-113.61,78.12c-17.74,41.67-44.56,71.75-88.24,84.44c-68.34,19.86-123.07,56.67-169.44,112.61
				c-32.89,39.68-77.82,75.4-135.09,69.12c-49.01-5.37-96.94,2.15-145.35,1.18C-17.07,1120.52-17.07,1056-17.07,991.49z
				 M608.01,592.17c10.17-0.55,16.06,0.86,19.39-1.44c5.18-3.58,21.7-4.09,11.76-13.89C631.84,569.63,616.72,572.92,608.01,592.17z"
				/>
			<path class="st2" d="M328.23,451.63c10.15,0.01,20.31,0.01,30.46,0.02c5.38,27.51,5.33,56.38,20.32,81.47
				c-0.02,15.25-0.82,30.54,0.1,45.73c1.59,26.13-10.22,34.48-35.82,36.33c-84.45,6.11-102.04,34.5-73.87,115.39
				c4.61,13.25,12.09,27.84-0.2,37.59c-34.7,27.53-35.87,71.45-54.58,106.66c-28.84,54.3-62.16,78.26-145.92,69.38
				c-28.41-3.01-57.19-2.53-85.79-3.64c0-313.42,0.63-626.83-0.93-940.24C-18.16-32.74-8.96-38.06,21.45-38
				c478.02,1.02,956.05,0.71,1434.08,0.71c-9.48,29.12-37.62,33.49-57.62,28.61c-48.5-11.85-93.4-7.16-138.57,10.63
				c-15.55,6.12-41.36-7.67-45.32,20.22c-4.02,28.34,29.45,16.54,38.39,32.16c-49.24-3.64-95.18,15.19-143.02,21.13
				c-17.88,2.22-19.33,15.67-19.4,29.8c-29.14,22.58-27.48,21.24-48.04-4.27c-11.56-14.34-28.7-25.53-44.39,0.23
				c-11.21,18.41-28.03,24.11-31.55-3.58c-5.34-42.03-30.88-45.09-64.24-43.62c-40.39,1.77-78.44,14.95-107.98,38.66
				c-40.96,32.86-85.05,35.17-132.49,33.16c-16.82-0.71-33.87-1-50.54,0.91c-19.22,2.2-33.62,9.57-38.92,32.57
				c-11.95,51.81-38.92,59.24-86.17,33.66c-43.19-23.38-84.13-60.68-139.69-43.88c-28.99,8.77-56.13,10.16-82.97-4.98
				c-13.6-7.67-26.16-5.31-37.29,4.52c-12.33,10.9-9.68,24.46-3.95,37.24c6.21,13.86,10.56,30.98,21.31,39.91
				c34.48,28.64,37.01,65.48,34.63,105.48c-1.41,23.6,1.11,47.46-0.55,71.02C274.47,440.33,291.81,455.39,328.23,451.63z"/>
			<path class="st3" d="M-17.07,1673.95c0-27.16,0-54.32,0-81.49c30.44,0.15,64.51-8.56,90.6,2.21
				c65.16,26.9,97.1-7.58,128.41-54.98c-14.83-10.37-28.08-20.39-42.06-29.25c-22.65-14.34-13.7-36.06-12.76-55.21
				c0.77-15.63,12.65-26.12,27.27-24.44c33.17,3.79,61.27-14.8,94.1-20.38c5.46,17.8-18.1,35.65,5,50.56
				c20.92,13.5,39.36,8.99,56.78-2.24c72.14-46.51,154.05-24.85,231.35-32.2c29.59-2.81,68.61-4.49,89.18,33.63
				c6.52,12.08,24.27,8.56,37.68,10.18c73.59,8.91,141.67,15.54,187.76,95.48c20.68,35.87,88.19,46.47,107.05,100.12
				c70.11,7.21,129.43,54.78,203.94,50.1c53.32-3.35,108.79-11.22,161.08,6.39c42.99,14.47,79.23,18.15,116.8-16.13
				c29.88-27.26,87.08-29.84,72.68-92.28c-1.94-8.41,4.01-17.63,13.16-19.22c24.24-4.23,30.68-22.33,38.29-42.11
				c15.06-39.12,89.9-84.61,145.1-59.44c34.97,15.95,62.68,1.17,90.32-15.41c25.28-15.16,34.92-31.67,1.93-51.93
				c-15.94-9.8-36.68-20.46-30.58-46.91c11.92-51.79,62.27-82.94,111.61-67.95c38.48,11.7,76.64,24.47,114.95,36.76
				c0,115.42,0.01,230.83,0.01,346.25c-21.96-0.4-50.37,7.91-64.72-2.78c-51.89-38.64-107.42-14.66-160.79-16.19
				c-43.29-1.24-76.87,16.12-67.19,70.31c3.3,3.3,6.59,6.6,9.89,9.9c6.72,0.13,13.45,0.26,20.17,0.39
				c3.09,26.37-8.34,41.36-30.44,57.61c-32.68,24.04-69.96,21.34-105,30.45c-67.92,17.65-135.8,40.35-206.15,7.07
				c-16.75-7.92-36.39-5.35-54.38,1.97c-54.38,22.14-100.95-10.84-142.06-32.5c-49.55-26.1-100.63-29.31-132.29,17.2
				c-11.01,16.18-24.45,24.21-43.45,30.78c-77.28,26.73-125.57-28.71-180.78-62.06c-15.27-9.22-15.1-35.86-34.17-48.12
				c-60.85-39.12-118.37-84.33-199.15-54.81c-22.03,8.05-52.08-4.79-62.01,29.53c-1.95,6.73-9.37,10.87-16.37,6.88
				c-30.27-17.27-66.88-29.03-81.7-63.38c-22.57-52.33-53.15-66.8-108.17-54.13c-77.92,17.95-151.08,57.87-234.25,52.18
				c-13.54-0.93-22.41,5.89-24.9,19.83c-6.7,0.09-13.4,0.19-20.1,0.28C47.33,1704.41,17.67,1676.52-17.07,1673.95z"/>
			<path class="st4" d="M-17.07,1510.98c0-23.77,0-47.53,0-71.3c53.35-24.45,81.8-69.69,101.55-122.22
				c0.02-3.39,0.03-6.79,0.05-10.18c35.03-3.26,76.04,6.97,91.37-40.74c13.54-0.01,27.08-0.03,40.61-0.04
				c61.26,37.61,100.86,30.25,141.66-30.01c17.18-25.37,39.14-20.43,62.57-18.89c65.6,4.31,132.48,0.2,183.83-42.84
				c63.58-53.28,148.25-71.86,203.8-142.15c23.55-29.8,48.75-54.48,58.13-92.04c33.85-0.01,67.69-0.01,101.54-0.02
				c30.49-0.01,60.98-0.02,91.47-0.03c6.74,0,13.48,0,20.22,0c21.83-1.32,47.99,4.65,64.67-5.33c48.2-28.84,82.84-1.26,117.84,22.36
				c11.29,7.62,17.64,14.69,29.13,4.87c10.05-8.6,21.07-15.34,28.84-0.09c6.1,11.98,6.66,27.43-0.82,39.25
				c-9.51,15.04-19.7,5.42-29.22-2.39c-7.08-5.81-18.45-8.84-21.85,0.13c-13.48,35.56-37.29,71.3-16.72,110.76
				c16.35,31.36,33.11,62.19,81.65,48.02c33.27-9.72,70.4-7.95,105.27,2.63c16.8,5.1,32.58,2.19,49.57-2.04
				c106.86-26.61,210.76-70.82,324.96-55.57c21.62,2.89,43.95,0.41,65.96,0.41c63.03-0.01,63.01-0.01,53.99-61.18
				c-0.49-3.33-0.13-6.78-0.17-10.18c-5.36-38.53,9.07-57.02,49.78-51.17c13.08,1.88,26.65,0.26,40,0.24c0,74.69,0,149.37,0,224.05
				c-89.12-9.62-178.88-27.83-263.7,19.96c-1.32,0.75-3.33,0.27-5.02,0.36c-46.87,2.43-82.46,27.49-113.96,59.07
				c-29.95,30.03-64.26,31.73-96.25,2.56c-42.67-38.92-98.69-28.39-120.91,23.66c-8.95,20.98-22.76,37.34-38.72,52.78
				c-13.38,12.95-22.99,12.69-38.33-0.49c-44.03-37.83-63.25-35.01-108.15,4.16c-23.42,20.44-44.32,44.54-83.13,38.91
				c-70.99-10.3-143.67-21.81-203.2,37.3c-5.72,5.68-20.25,7.48-28.55,4.69c-49.21-16.59-103.26-26.13-139.14-67.58
				c-32.65-37.71-66.3-46.93-116.13-36.18c-36.05,7.78-92.89,27.26-99.31-46.16c-0.97-11.13-17.03-14.23-25.44-10.29
				c-49.76,23.3-108.67,9.79-156.1,36.99c-55.88,32.05-114.49,24.61-172.91,19.42c-42.54-3.78-109.52,33.83-131.23,71.61
				C59.1,1456.55,44.36,1509.42-17.07,1510.98z"/>
			<path class="st5" d="M-17.07,1510.98c61.44-1.56,76.17-54.43,99.44-94.93c21.71-37.78,88.69-75.39,131.23-71.61
				c58.42,5.19,117.04,12.63,172.91-19.42c47.43-27.2,106.34-13.69,156.1-36.99c8.42-3.94,24.47-0.85,25.44,10.29
				c6.42,73.43,63.27,53.94,99.31,46.16c49.83-10.75,83.48-1.53,116.13,36.18c35.88,41.45,89.94,51,139.14,67.58
				c8.3,2.8,22.83,0.99,28.55-4.69c59.53-59.11,132.21-47.6,203.2-37.3c38.81,5.63,59.7-18.48,83.13-38.91
				c44.9-39.17,64.12-41.99,108.15-4.16c15.34,13.18,24.95,13.44,38.33,0.49c15.96-15.44,29.77-31.8,38.72-52.78
				c22.21-52.05,78.24-62.58,120.91-23.66c31.98,29.17,66.3,27.47,96.25-2.56c31.5-31.59,67.09-56.64,113.96-59.07
				c1.69-0.09,3.7,0.38,5.02-0.36c84.82-47.79,174.59-29.58,263.7-19.96c0.01,47.5,0.01,95.01,0.02,142.51
				c-38.3-12.29-76.46-25.06-114.95-36.76c-49.34-15-99.69,16.16-111.61,67.95c-6.09,26.46,14.64,37.12,30.58,46.91
				c32.98,20.27,23.34,36.78-1.93,51.93c-27.64,16.58-55.35,31.35-90.32,15.41c-55.2-25.17-130.04,20.32-145.1,59.44
				c-7.61,19.78-14.05,37.88-38.29,42.11c-9.15,1.6-15.1,10.81-13.16,19.22c14.4,62.44-42.8,65.02-72.68,92.28
				c-37.57,34.28-73.81,30.6-116.8,16.13c-52.29-17.6-107.76-9.73-161.08-6.39c-74.52,4.68-133.84-42.89-203.94-50.1
				c-18.86-53.65-86.37-64.25-107.05-100.12c-46.09-79.94-114.17-86.57-187.76-95.48c-13.41-1.62-31.16,1.9-37.68-10.18
				c-20.56-38.12-59.59-36.44-89.18-33.63c-77.3,7.35-159.21-14.31-231.35,32.2c-17.42,11.23-35.86,15.74-56.78,2.24
				c-23.1-14.91,0.46-32.76-5-50.56c-32.83,5.58-60.94,24.17-94.1,20.38c-14.62-1.67-26.51,8.81-27.27,24.44
				c-0.94,19.16-9.9,40.88,12.76,55.21c13.98,8.85,27.23,18.87,42.06,29.25c-31.3,47.4-63.24,81.88-128.41,54.98
				c-26.08-10.77-60.16-2.05-90.6-2.21C-17.07,1565.3-17.07,1538.14-17.07,1510.98z"/>
			<path class="st6" d="M104.69,1694.19c2.5-13.94,11.36-20.76,24.9-19.83c83.17,5.69,156.33-34.22,234.25-52.18
				c55.02-12.68,85.6,1.8,108.17,54.13c14.82,34.36,51.43,46.12,81.7,63.38c7,3.99,14.42-0.15,16.37-6.88
				c9.92-34.32,39.98-21.48,62.01-29.53c80.78-29.53,138.3,15.69,199.15,54.81c19.07,12.26,18.9,38.9,34.17,48.12
				c55.21,33.35,103.5,88.79,180.78,62.06c19-6.57,32.44-14.6,43.45-30.78c31.65-46.51,82.74-43.3,132.29-17.2
				c41.11,21.65,87.67,54.63,142.06,32.5c17.99-7.32,37.63-9.9,54.38-1.97c70.35,33.28,138.23,10.58,206.15-7.07
				c35.05-9.11,72.32-6.41,105-30.45c22.1-16.25,33.53-31.24,30.44-57.62c0,0,0.44-0.41,0.44-0.41c4.54,2.11,12.24,3.29,13.16,6.46
				c14.42,49.57,4.8,100.37,6.28,150.63c0.75,25.4-19.23,37.76-38.45,49.01c-10.39,6.08-11.91,16.2-11.48,26.31
				c1.22,28.52-15.87,35.5-38.97,32.27c-56.47-7.91-112.7-23.69-169.11-24.04c-52.86-0.33-90.94-49.7-144.38-36.08
				c-39,9.94-77.62,21.88-115.59,35.26c-45.53,16.04-76.1-13.65-102.65-38.44c-24.13-22.54,7.8-40.34,20.93-58.25
				c22.86-31.2,1.07-42.82-26.67-58.67c1.11,49.36-12.54,77.67-63.91,83.54c-18.02,2.06-51.81,5.17-60.73,35.72
				c-3.47,0.34-6.93,0.68-10.4,1.02c-13.13-0.03-26.27-0.07-39.4-0.1c-13.1-0.32-20.01,6.32-21.4,19.16l0.22,0.4
				c-10.02-0.16-20.04-0.31-30.05-0.47c-2.41-18.92-16.16-20.12-30.84-19.86c-3.36-0.03-6.71-0.05-10.07-0.06
				c-1.99-8.6-5.58-18.47-14.85-18.23c-46.34,1.2-89.35-17.53-134.46-21.8c-92.89-8.8-126.09-39.35-135.03-130.84
				c-1.79-18.37-1.78-33.2-28.53-28.7c-60.84,10.23-104.75,59.75-103.5,120.49c0.9,43.94,20.38,60.31,63.12,52.82
				c12.05-2.11,25.56-9.53,31.53,8.02c-61.93,27.03-133.31,37.59-151.44,119.01c-5.13,23.05-27.15,22.4-46.1,21.4
				c-58.76-3.11-108.51-6-134.59,71.14c-21.59,63.86-68.56,118.5-57.54,193.02c6.63,44.82-21.11,60.88-60.61,61.64
				c-43.98,0.84-87.99,0.25-131.98,0.28c0-162.97,0-325.95,0-488.92c63.03,8.99,108.42-40.35,165.91-51.1
				c17.53-3.28,26.42-5.44,26.46,13.9c0.06,24.33,7.07,39.71,34.81,37.09c23.08-2.18,36.95-9.76,48.6-34.78
				c19.64-42.2,18.37-84.57,18.8-128.01c16.91-0.03,33.82-0.06,50.74-0.09c2.83,21.93,14.35,32.56,36.99,28.31
				c7.71-1.45,12.48-8.28,10.36-14.22c-7.8-21.84-27.58-11.26-42.47-14.01c-1.59-0.29-3.28-0.03-4.93-0.03
				c-4.34-29.29-22.47-41.36-50.69-40.83c-17.92-27.25-40.95-35.28-67.97-14.53c-9.69,7.44-17.76,18.58-28.97,8
				C157.66,1686.49,130.13,1697.57,104.69,1694.19z"/>
			<path class="st7" d="M84.53,1307.27c-0.02,3.39-0.03,6.79-0.05,10.18c-22.52,0.93-33.52,19.07-47.37,32.51
				c-15.43,14.98-29.44,31.74-54.18,28.6c0-64.51,0-129.02,0-193.53c48.41,0.97,96.34-6.54,145.35-1.18
				c57.27,6.27,102.2-29.44,135.09-69.12c46.36-55.94,101.09-92.74,169.44-112.61c43.68-12.69,70.5-42.77,88.24-84.44
				c20.9-49.1,59.33-79.64,113.61-78.12c67.03,1.88,130.52-1.72,188-43.17c11.86-8.55,41.03-36.49,52.54,7.27
				c0.48,1.82,8.38,3.8,8.72,3.23c21.34-35.54,54.08,4.28,78.41-12.15c18.34-12.39,40.5-10.06,59.13-5.42
				c68.13,16.95,121.72-6.64,167.13-55.12c20.29-21.66,41.94-21.36,70.81-23.27c77.16-5.1,139.9,4.8,202.18,60.68
				c26.55,23.82,80.77,16.54,78.53,75.12c-0.15,3.98,8.69,10.43,14.43,12.17c61.81,18.85,118.52,49.5,190.33,29.85
				c90.01-24.63,185-5.13,277.73-9.37c-0.01,33.95-0.02,67.9-0.02,101.85c-13.35,0.02-26.92,1.64-40-0.24
				c-40.71-5.84-55.14,12.64-49.77,51.17c-145.31,17.51-290.51,24.04-436.04,0.7c-22.92-3.67-37.92-9.4-43.42-33.34
				c-7.21-31.38-14.11-59.91-56.76-65.31c-29.05-3.67-45.5-43.96-84.39-35.19c-30.23,6.82-59.92-6.42-89.01-14.44
				c-55.68-15.35-104.9,3.18-143.46,55.91c-6.74,0-13.48,0-20.22,0c-31.44-42.8-67.47-42.79-91.47,0.03
				c-33.85,0.01-67.69,0.01-101.54,0.02c-64.83-12.74-78.56-5.37-105.7,57.31c-5.77,13.32-13.71,24.85-29.53,23.41
				c-33.32-3.05-62.21,12.26-93.18,19.35c-124.31,28.43-236.66,83.61-336.64,160.19c-28,21.44-70.05,27.18-84.94,65.68
				c-13.54,0.01-27.08,0.02-40.61,0.04C122.69,1246.82,103.1,1255.56,84.53,1307.27z"/>
			<path class="st8" d="M1252.4,54.33c-8.94-15.63-42.41-3.82-38.39-32.16c3.96-27.89,29.77-14.09,45.32-20.22
				c45.18-17.79,90.07-22.48,138.57-10.63c20,4.89,48.14,0.51,57.62-28.61c57.55,0,115.1,0,172.65,0c3.35,7.5,7.14,21.69,10,21.51
				c63.64-4.15,94.04,37.03,119.39,85.73c0.76,1.46,2.17,3.74,3.21,3.71c28.48-0.97,21.19,18.66,17.2,32.98
				c-8.85,31.69-5.46,49.56,31.42,30.28c18.34-9.59,19.92,1.2,22.57,13.47c3.25,15.02,12.39,26.05,27.39,24.95
				c56.07-4.1,106.46,32.93,163.23,21.65c0,37.35-0.01,74.69-0.01,112.04c-39.08,3.69-70.09-8.8-101.51-34.76
				c-42.84-35.41-94.73-8.88-143.58-10.45c19.09,20.47,62.32,12.53,59.64,45.51c-3.33,40.93-9.83,84.48-33.24,120.33
				c-11.13,17.04-32.23,25.72-54.11,19.08c-20.72-6.29-18.65-25.08-20.27-42.08c-2.56-26.84-8.45-53.46-9.62-80.32
				c-1.12-25.76-19.64-30.88-37.25-33.84c-23.13-3.89-47.16-2.04-70.63-4.34c-24.2-2.37-49.27-7.79-53.49-37.02
				c-3.95-27.44-2.97-55.2,31.11-66.41c23.2-7.63,36.82-24.23,37.75-48.85c0.47-12.4,7.26-31.34-10.29-34.79
				c-20.72-4.08-6.07,23.27-19.74,29.19c-15.22-7.19-6.13-35.81-30.08-35.16c-2.17-10.3-4.92-20.29-18.82-17.21
				c-2.32,0.51-5.9,4.81-5.51,6.61c3.11,14.2,15.38,8.74,24.27,10.66c-0.86,11.78-0.84,29.34-14.98,27.81
				c-44.37-4.79-87.12,21.03-132.02,4.73c-12.03-4.37-28.17-5.3-39.92-0.97c-28.13,10.37-54.46,23.75-82.83,0.58
				c-3.49-2.85-15.55-1.06-18.88,2.76c-29.52,33.81-65.39,48.69-110.72,49.36c-22.54,0.33-16.07,25.72-16.86,41.59
				c-2.96,59.8-20.72,75.86-78.45,65.9c-44.53-7.69-84.7-3.57-123.51,23.19c-33.99,23.44-86.78,12.6-106.14-23.68
				c-15.79-29.6-25.59-25.44-48.11-8.7c-57.24,42.56-118.38,63.78-185.98,20.03c-6.28-4.06-17.59-6.68-23.61-3.78
				c-54.19,26.1-89.18-5.16-123.64-39.57c-15.49-15.46-29.41-33.16-50.68-41.27c-23.55-8.97-42.27-40.01-72.66-18.89
				c-32.28,22.43-43.87,56.8-39.2,93.46c7.01,54.99,19.2,109.31,29.19,163.91c-36.41,3.76-53.76-11.31-51.07-49.33
				c1.67-23.57-0.85-47.42,0.55-71.02c2.39-40-0.14-76.84-34.63-105.48c-10.75-8.93-15.1-26.05-21.31-39.91
				c-5.73-12.79-8.39-26.34,3.95-37.24c11.13-9.84,23.69-12.19,37.29-4.52c26.84,15.15,53.98,13.75,82.97,4.98
				c55.56-16.8,96.49,20.5,139.69,43.88c47.25,25.58,74.22,18.16,86.17-33.66c5.31-23,19.7-30.38,38.92-32.57
				c16.67-1.91,33.72-1.62,50.54-0.91c47.44,2.01,91.53-0.3,132.49-33.16c29.54-23.71,67.59-36.89,107.98-38.66
				c33.36-1.46,58.9,1.59,64.24,43.62c3.52,27.69,20.33,21.98,31.55,3.58c15.7-25.76,32.84-14.58,44.39-0.23
				c20.55,25.51,18.9,26.85,48.04,4.27c49.58-11.24,98.28-26.63,149.33-30.85C1251.25,73.43,1265.19,72.23,1252.4,54.33z
				 M1667.93,235.45c19.77-4.26,34.75-15.12,37.16-35.27c2.01-16.77-11.44-22.92-26.18-22.19c-21.17,1.05-26.36,17.93-29.05,34.58
				C1647.82,225.22,1652.02,235.87,1667.93,235.45z M1702.48,107.59c-13.12-22-34.55-24.98-64.15-30.22
				C1656.65,106.67,1680.22,105.46,1702.48,107.59z"/>
			<path class="st9" d="M886.89,1959.09c3.36,0.01,6.71,0.02,10.07,0.06c3.39,6.78,6.78,13.56,10.17,20.35
				c-11.45,0.98-26.87-1.29-27.71,14.68c-0.95,17.94,7.11,32.87,27.61,36.32c3.4,3.4,6.81,6.81,10.21,10.21
				c4.2,25.59,24.4,18.95,40.64,20.31l0.01,0.01c4.3,23.13,22.45,20.21,38.62,20.32c34.53,0.24,69.06,0.09,103.58,0.11
				c2.29,18.13-40.59,35.31-2.75,53.27c25.22,11.98,52.37,21.14,79.62,27.15c25.75,5.67,39.25-2.47,47.48-34.63
				c9.8-38.3,15.17-84.71,58.51-106.85c-18.29,56.88-7.45,115.46-10.03,173.26c0.51,13.44-0.72,27.24,1.99,40.21
				c3.21,15.35,9.53,30.82-10.51,37.95c-14.43,5.14-31.66,7.42-40.22-9.08c-9.98-19.25-26.13-18.04-42.86-18.61
				c-11.86-0.4-27.45-0.6-27.84-15.26c-2.02-75.21-55.35-66.55-104.15-66.08c-11.85-49.25-59.14-36.48-87.95-41.5
				c-71.36-12.43-150.53-32.42-199.97,51.34c-2.64,4.47-12.82,9.23-16.61,7.5c-30.07-13.74-70.96-22.36-78.73-56.25
				c-10.8-47.09-30.56-28.51-52.78-15.95c-29.74,16.82-43.78,52.73-82.49,61.54c-17.65,4.02-8.5,33.19-8.9,51.21
				c-0.31,13.83,7.2,21.52,21.52,22.99c19.71,2.02,23.81-10.79,31.09-25.71c11.86-24.33,33.81-37.36,62.24-33.65
				c30.83,4.03,24.52,32.49,31.91,51.48c9.22,23.69-10.56,45.87-5.31,69.7l0.02-0.01c-56.25,11.37-111.13,25.18-142.47,80.76
				c-13.44,0.25-26.89,0.51-40.33,0.76c-33.52-20.47-63.11,0.54-96.05,5.41c6.87,20.55,34.27,12.79,35.11,35.52
				c1.73,46.89,30.58,70.87,72.67,83.76c17.19,5.26,24.1,22.31,33.91,36.07c41.65,58.47,79.76,120.01,137.25,165.28
				c3.32,4.95,6.63,4.94,9.95-0.01c18.08,0.65,37.34-3.31,40.96,24.58c5.43,41.85,20.2,84.48-20.54,117.92
				c-0.02-28.72,0.23-57.44-0.19-86.14c-0.2-13.17,1.23-34.33-14.93-32.73c-56.9,5.64-72.87-44.19-106.86-70.48
				c-26.36-20.39-66.64-52.82-92.4-35.83c-34.27,22.59-65.67,18.7-99.51,21.41c-9.48-56.16-24.18-61.66-81.71-30.62
				c-39.45-16.22-62.87,3.01-82.65,35.19c-6.18,10.06-15.39,25.29-31.68,18.86c-11.11-4.39-6.91-17.46-7.96-27.1
				c-1.39-12.77,3.94-29.64-13.77-34.01c-15.12-3.72-24.02,9.74-33.52,18.96c-40.65,39.47-83.42,73.44-145.71,59.5
				c0-13.58,0-27.16,0-40.74c45.45,6.27,76.22-17.09,101.86-50.79c25.11-27.3,55.95-35.89,92.33-31.17
				c15.89,2.06,34.83,3.79,39.45-19.76c23.03-1.8,47-8.49,68.88-4.27c33.62,6.48,42.61-7.85,43.1-36.48
				c12.42-1.06,19.1-7.83,20.08-20.27l0.16-0.12c24.47,0.73,35.04-11.35,26.95-34.38c-6.98-19.85-2.97-49.25-39.15-47.56
				c-39.96,1.86-80.07,0.33-120.12,0.28c6.92-32.73,25.41-44.09,58.89-36.88c43.52,9.38,85.05-8.57,100.03-45.28
				c11.62-28.48,25.83-42.75,50.18-47.49c57.76-11.24,49.07-60.75,49.71-95.68c0.62-33.72-37.26-13.37-57.32-19.41
				c-16.28-4.9-35.62-6.92-36.85-28.15c-1.45-24.89,19.13-30.87,37.73-31.57c31.54-1.18,54.26-18.36,61.42-44.59
				c12.41-45.47,43.44-60.65,83.86-67.19c11.92-1.93,22.37-5.47,31.24-14.64c20.15-20.84,36.97-13.99,55.21,5.29
				c47.14,49.8,74.37,52.94,130.27,14.35C813.25,1973.68,844.69,1951.74,886.89,1959.09z M844.99,1984.15
				c-1.51,2.49-3.25,4.88-4.34,7.54c-0.2,0.49,2.75,3.21,3.39,2.93c2.55-1.12,4.77-3.02,7.11-4.63
				C849.11,1988.04,847.07,1986.09,844.99,1984.15z"/>
			<path class="st10" d="M886.89,1959.09c-42.2-7.35-73.64,14.59-106.04,36.95c-55.9,38.59-83.13,35.45-130.27-14.35
				c-18.25-19.28-35.06-26.13-55.21-5.29c-8.87,9.18-19.32,12.72-31.24,14.64c-40.42,6.54-71.45,21.72-83.86,67.19
				c-7.16,26.22-29.88,43.4-61.42,44.59c-18.59,0.7-39.18,6.68-37.73,31.57c1.23,21.23,20.58,23.24,36.85,28.15
				c20.06,6.04,57.94-14.3,57.32,19.41c-0.64,34.94,8.05,84.45-49.71,95.68c-24.35,4.74-38.56,19.01-50.18,47.49
				c-14.98,36.71-56.51,54.66-100.03,45.28c-33.47-7.21-51.97,4.15-58.88,36.88c0,0-0.02,0.02-0.02,0.02
				c-41.83-5.73-42.59,21.49-40.6,50.91l-0.03,0.03c-22.2,13.68-57.53-3.53-71.12,30.4c-42.86-6.68-82.08,8.4-121.78,20.55
				c0-33.95,0-67.91,0-101.86c43.99-0.03,88,0.57,131.98-0.28c39.5-0.76,67.23-16.82,60.61-61.64
				c-11.02-74.52,35.95-129.16,57.54-193.02c26.08-77.14,75.83-74.25,134.59-71.14c18.95,1,40.96,1.65,46.1-21.4
				c18.13-81.42,89.52-91.99,151.44-119.01c-5.97-17.55-19.47-10.13-31.53-8.02c-42.74,7.5-62.22-8.87-63.12-52.82
				c-1.25-60.73,42.65-110.26,103.5-120.49c26.75-4.5,26.73,10.33,28.53,28.7c8.94,91.49,42.14,122.04,135.03,130.84
				c45.1,4.27,88.11,23,134.46,21.8C881.3,1940.63,884.9,1950.5,886.89,1959.09z M319.18,2244.73c19.11-5.21,52.48,1.31,54.35-27.01
				c1.32-19.88-29.64-22.44-48.86-23.26c-20.11-0.87-43.6,2.24-44.96,28.66C278.4,2248.73,301.13,2242.64,319.18,2244.73z"/>
			<path class="st10" d="M379.94,2651.75c33.84-2.71,65.24,1.18,99.51-21.41c25.77-16.99,66.04,15.44,92.4,35.83
				c33.99,26.29,49.96,76.12,106.86,70.48c16.16-1.6,14.74,19.56,14.93,32.73c0.43,28.71,0.17,57.43,0.19,86.14c0,0-0.01,0-0.01,0
				c-34.08-14.68-73.31-19.54-95.77-55.57c-10.64-17.07-25.4-14.85-24.71,5.92c1.03,31.15-16.2,40.98-40.87,48.04
				c-36.45,10.43-54.94,36.98-61.96,72.96c-7.76,26.35-27.77,49.53-20.49,79.76c-23.71-0.03-47.41-0.05-71.12-0.08
				c-2.51-19.75,47.22-55.85-11.74-56.39c-39.97-0.37-81.95,20.75-57.08-48.92c0.49-1.37-4.16-4.89-6.73-7.01
				c-11.33-9.33-19.46-20.15-10.55-34.91c11.4-18.87,26.77-6.91,40.64-3.64c11.47,2.7,22.56,7.62,34.13,9.18
				c30.91,4.17,47.72-14.58,56.28-40.56c9.38-28.44-17.2-29.35-32.56-34.71c-82.83-28.91-170.92-32.84-255.85-52.13
				c-0.71-0.16-2.68,5.25-4.9,9.77c18.26,12.16,50.36,18.08,41.1,48.18c-9.35,30.38-39.98,16.39-61.97,19.16
				c-8.32,1.05-16.89,0.09-25.35,0.05c-27.88-28.84-55.81-57.56-101.43-50.75c0-23.77,0-47.53,0-71.3
				c62.29,13.94,105.06-20.03,145.71-59.5c9.5-9.22,18.41-22.69,33.52-18.96c17.71,4.36,12.39,21.24,13.77,34.01
				c1.05,9.63-3.15,22.71,7.96,27.1c16.29,6.43,25.5-8.79,31.68-18.86c19.78-32.19,43.2-51.41,82.64-35.19
				c-4.19,26.34-21.66,55.22,19.17,70.57C357.73,2706.87,369.92,2682.05,379.94,2651.75z"/>
			<path class="st2" d="M2022.59,196.98c-56.77,11.28-107.16-25.75-163.23-21.65c-15,1.1-24.14-9.93-27.39-24.95
				c-2.66-12.27-4.24-23.06-22.57-13.47c-36.88,19.28-40.27,1.42-31.42-30.28c4-14.31,11.28-33.95-17.2-32.98
				c-1.04,0.04-2.45-2.25-3.21-3.71c-25.36-48.69-55.75-89.87-119.39-85.73c-2.86,0.19-6.64-14.01-10-21.51
				c132.03,0,264.05,0,396.08,0C2023.7,40.81,2023.14,118.89,2022.59,196.98z"/>
			<path class="st11" d="M2022.59,196.98c0.56-78.09,1.11-156.18,1.67-234.27c21.24,11.3,9.51,30.93,9.52,45.84
				c0.7,948.99,0.63,1897.98,0.63,2846.96c0,47.53-1.08,95.11,0.56,142.58c0.61,17.76-3.11,23.14-20.92,20.8
				c-14.98-1.97-30.41-0.41-45.65-0.41c-648.28,0-1296.56,0.09-1944.85-0.62c-13.17-0.01-31.49,11.49-40.62-9.57
				c101.48-0.61,202.96-1.22,304.44-1.84c30.52,0.02,61.04,0.05,91.56,0.07c23.71,0.03,47.41,0.05,71.12,0.08
				c33.88,0,67.77,0,101.65,0c33.84-0.01,67.69-0.02,101.53-0.03c20.29,0.01,40.58,0.01,60.87,0.02c23.7,0.01,47.4,0.01,71.09,0.02
				c44.05-0.04,88.11-0.08,132.16-0.12c37.23,0.05,74.45,0.1,111.68,0.15c104.92,0,209.84,0.01,314.76,0.01
				c64.31-0.02,128.63-0.03,192.94-0.05c40.66-0.01,81.32-0.02,121.98-0.03c37.21,0,74.42,0,111.63,0.01
				c20.3-0.02,40.61-0.03,60.91-0.04c35.41,0.57,70.82,1.55,106.24,1.64c89.84,0.21,89.84,0.05,85.1-91.6
				c0.01-61.1,0.01-122.19,0.02-183.29c0.03-332.77,0.06-665.55,0.09-998.32c-0.04-13.64-0.07-27.28-0.11-40.92
				c0-115.42-0.01-230.83-0.01-346.25c-0.01-47.5-0.01-95.01-0.02-142.51c0-74.69,0-149.37,0-224.06
				c0.01-33.95,0.02-67.9,0.02-101.85c-0.02-50.93-0.04-101.85-0.06-152.78c0.02-139.2,0.03-278.39,0.05-417.59
				C2022.58,271.68,2022.58,234.33,2022.59,196.98z"/>
			<path class="st6" d="M378.92,3006.54c-30.52-0.02-61.04-0.05-91.56-0.07c-10.11-54.89-15.91-113.22-93.56-111.69
				c-5.02,0.1-13.77-6.46-14.72-11.16c-6.82-33.67-32.54-27.85-55.36-27.96c-46.93-0.22-93.87-0.12-140.8-0.14
				c0-13.58,0-27.16,0-40.74c33.81-0.06,67.62-0.12,101.43-0.18c8.46,0.04,17.03,1,25.35-0.05c21.98-2.77,52.62,11.22,61.97-19.16
				c9.27-30.1-22.84-36.02-41.1-48.18c2.22-4.52,4.19-9.93,4.9-9.77c84.93,19.29,173.02,23.22,255.85,52.13
				c15.35,5.36,41.93,6.27,32.56,34.71c-8.56,25.98-25.38,44.74-56.28,40.56c-11.57-1.56-22.66-6.48-34.13-9.18
				c-13.87-3.26-29.24-15.23-40.64,3.64c-8.91,14.76-0.78,25.58,10.55,34.91c2.58,2.12,7.22,5.64,6.73,7.01
				c-24.87,69.67,17.11,48.55,57.08,48.92C426.14,2950.69,376.41,2986.79,378.92,3006.54z"/>
			<path class="st3" d="M-17.07,2855.52c46.93,0.03,93.87-0.08,140.8,0.14c22.82,0.11,48.54-5.71,55.36,27.96
				c0.95,4.7,9.7,11.26,14.72,11.16c77.65-1.53,83.45,56.79,93.56,111.69c-101.48,0.61-202.96,1.22-304.44,1.84
				C-17.07,2957.38-17.07,2906.45-17.07,2855.52z"/>
			<path class="st12" d="M-17.07,2509.2c39.7-12.15,78.92-27.24,121.78-20.55c24.28-8.8,65.73,22.83,71.12-30.41
				c0,0,0.03-0.03,0.03-0.03c30.2-3.6,35.3-27.33,40.6-50.91c0,0,0.02-0.02,0.02-0.02c40.05,0.05,80.16,1.58,120.12-0.28
				c36.18-1.68,32.18,27.71,39.15,47.56c8.09,23.02-2.48,35.1-26.95,34.37c-6.45-31.18-27.96-41.25-49.94-21.82
				c-23.54,20.81-50.49,30.62-77.61,42.03c-26.86,11.3-30.74,24.12-4.67,40.94c-4.62,23.55-23.57,21.82-39.45,19.76
				c-36.38-4.72-67.22,3.87-92.34,31.16c-11.32-56.28-48.88-74.92-101.86-71.44C-17.07,2522.78-17.07,2515.99-17.07,2509.2z"/>
			<path class="st10" d="M277.52,1755.51c-0.43,43.44,0.84,85.81-18.8,128.01c-11.65,25.02-25.52,32.6-48.6,34.78
				c-27.74,2.62-34.75-12.76-34.81-37.09c-0.05-19.34-8.94-17.18-26.46-13.9c-57.49,10.75-102.88,60.08-165.91,51.1
				c0-6.79,0-13.58,0-20.37c25.13-0.49,47.14-7.26,60.94-30.52c3.26-0.16,6.53-0.25,9.79-0.27c19.32-0.88,29.42-11.18,30.82-30.36
				c23.28-6.34,46.46-13.32,71.08-10.99c32.14,15.67,59.19,24.91,76.51-22.55c6.55-17.95,21.61-40.16,45.16-48.13L277.52,1755.51z"
				/>
			<path class="st10" d="M104.69,1694.19c25.44,3.38,52.97-7.7,75.88,13.91c11.21,10.58,19.28-0.56,28.97-8
				c27.02-20.75,50.05-12.72,67.97,14.53l-0.29,0.29c-59.61,4.56-116.75,28.46-177.87,22.37c-8.75-0.87-12.78,9.48-14.74,18.05
				c1.29,22.27-31.91,18.55-30.58,40.84c-3.23,0.18-6.47,0.29-9.71,0.32c-20.46-0.11-40.93-0.22-61.39-0.33c0-6.79,0-13.58,0-20.37
				c47.61-9.85,69.14-52.5,101.66-81.34C91.29,1694.38,97.99,1694.29,104.69,1694.19z"/>
			<path class="st13" d="M-17.07,2529.57c52.98-3.48,90.54,15.16,101.86,71.44c-25.64,33.7-56.4,57.06-101.86,50.79
				C-17.07,2611.06-17.07,2570.31-17.07,2529.57z"/>
			<path class="st13" d="M44.32,1796.51c3.24-0.03,6.47-0.14,9.71-0.32c22.08-7.16,52.11-4.29,50.98-40.7
				c22.72,4.7,52.29-12.86,67.37,14.16c11.4,20.42,2.38,41.51-16.82,56.26c-24.61-2.33-47.8,4.66-71.08,11
				c-21.98-1.83-32.05,8.49-30.82,30.36c-3.27,0.02-6.53,0.1-9.79,0.27c-23.27,2.07-41.33-11.48-60.94-20.41c0-3.4,0-6.79,0-10.19
				C10.07,1833.66,31.55,1821.74,44.32,1796.51z"/>
			<path class="st6" d="M84.58,1694.47c-32.51,28.84-54.04,71.49-101.66,81.34c0-33.95,0-67.91,0-101.86
				C17.67,1676.52,47.33,1704.41,84.58,1694.47z"/>
			<path class="st14" d="M-17.07,1378.56c24.74,3.14,38.75-13.62,54.18-28.6c13.85-13.44,24.85-31.59,47.37-32.51
				c-19.74,52.53-48.2,97.78-101.55,122.22C-17.07,1419.3-17.07,1398.93-17.07,1378.56z"/>
			<path class="st9" d="M84.35,2814.6c-33.81,0.06-67.62,0.12-101.43,0.18c0-16.98,0-33.95,0-50.93
				C28.54,2757.03,56.48,2785.75,84.35,2814.6z"/>
			<path class="st9" d="M-17.07,1847.11c19.6,8.93,37.67,22.48,60.94,20.41c-13.8,23.26-35.81,30.02-60.94,30.52
				C-17.07,1881.06-17.07,1864.09-17.07,1847.11z"/>
			<path class="st9" d="M44.32,1796.51c-12.77,25.23-34.25,37.15-61.39,40.42c0-13.58,0-27.16,0-40.74
				C3.39,1796.29,23.85,1796.4,44.32,1796.51z"/>
			<path class="st1" d="M1530.77,272.2c-18.91-2.94-23.17-22.35-40.03-23.81c-13.2-1.14-34.15,3.69-31.62-20.6
				c1.7-16.28,16.19-20.5,30.19-19.97c16.99,0.64,39.48-8.31,45.78,17.5C1538.56,239.55,1539.44,255.17,1530.77,272.2z"/>
			<path class="st8" d="M379.01,533.13c-14.99-25.09-14.94-53.97-20.32-81.47C406.21,468.59,392.04,501,379.01,533.13z"/>
			<path class="st0" d="M608.01,592.17c8.7-19.25,23.83-22.54,31.15-15.32c9.94,9.8-6.58,10.3-11.76,13.89
				C624.07,593.03,618.19,591.62,608.01,592.17z"/>
			<path class="st1" d="M1252.4,54.33c12.79,17.9-1.15,19.1-13.09,20.09c-51.05,4.21-99.76,19.6-149.33,30.85
				c0.07-14.13,1.52-27.58,19.4-29.8C1157.22,69.52,1203.16,50.69,1252.4,54.33z"/>
			<path class="st6" d="M2022.59,1694.06c0.04,13.64,0.07,27.28,0.11,40.92c-47.71-6.21-95.28-14.13-143.17-18.14
				c-44.18-3.7-90.6-9.03-119.12,38.43c0,0-0.44,0.41-0.44,0.41c-6.73-0.13-13.45-0.26-20.17-0.39c-3.3-3.3-6.59-6.6-9.89-9.91
				c-9.68-54.19,23.9-71.55,67.19-70.31c53.37,1.53,108.9-22.45,160.79,16.19C1972.22,1701.96,2000.63,1693.65,2022.59,1694.06z"/>
			<path class="st10" d="M1729.9,1745.39c3.3,3.3,6.59,6.61,9.89,9.91C1736.49,1752,1733.19,1748.69,1729.9,1745.39z"/>
			<path class="st14" d="M1079.71,940.51c38.56-52.73,87.78-71.25,143.46-55.91c29.08,8.02,58.77,21.25,89.01,14.44
				c38.89-8.77,55.34,31.52,84.39,35.19c42.66,5.39,49.56,33.93,56.76,65.31c5.5,23.94,20.5,29.66,43.42,33.34
				c145.54,23.34,290.73,16.8,436.04-0.7c0.04,3.39-0.32,6.85,0.17,10.18c9.02,61.17,9.04,61.17-53.99,61.18
				c-22,0-44.34,2.48-65.96-0.41c-114.2-15.25-218.1,28.96-324.96,55.57c-16.99,4.23-32.77,7.14-49.57,2.04
				c-34.87-10.58-71.99-12.35-105.27-2.63c-48.54,14.17-65.3-16.66-81.65-48.02c-20.57-39.46,3.25-75.21,16.72-110.76
				c3.4-8.97,14.77-5.94,21.85-0.13c9.52,7.81,19.71,17.42,29.22,2.39c7.48-11.82,6.92-27.27,0.82-39.25
				c-7.77-15.25-18.78-8.51-28.84,0.09c-11.48,9.82-17.83,2.75-29.13-4.87c-34.99-23.62-69.64-51.2-117.84-22.36
				C1127.7,945.17,1101.54,939.2,1079.71,940.51z"/>
			<path class="st14" d="M216.51,1266.49c14.89-38.5,56.94-44.23,84.94-65.68c99.98-76.57,212.33-131.76,336.64-160.19
				c30.97-7.08,59.86-22.39,93.18-19.35c15.81,1.45,23.76-10.09,29.53-23.41c27.14-62.68,40.88-70.04,105.7-57.31
				c-9.37,37.56-34.57,62.24-58.13,92.04c-55.55,70.28-140.22,88.86-203.8,142.15c-51.35,43.04-118.23,47.15-183.83,42.84
				c-23.43-1.54-45.39-6.48-62.57,18.89C317.36,1296.74,277.77,1304.11,216.51,1266.49z"/>
			<path class="st14" d="M84.53,1307.27c18.57-51.71,38.17-60.45,91.37-40.74C160.57,1314.24,119.56,1304.01,84.53,1307.27z"/>
			<path class="st14" d="M968.03,940.55c24-42.82,60.02-42.83,91.47-0.03C1029.01,940.53,998.52,940.54,968.03,940.55z"/>
			<path class="st10" d="M1760.4,1755.27c28.52-47.46,74.94-42.13,119.12-38.43c47.89,4.01,95.46,11.93,143.17,18.14
				c-0.03,332.77-0.06,665.55-0.09,998.32c-36.12,4.86-50.17-10.99-62.48-46.45c-14.34-41.31,14.36-70.73,13.17-106.49
				c-1.2-8.29,0.42-21.59-4.03-24.11c-67.7-38.38-7.76-125.65-64.48-167.49c17.97-54.24-11.89-61.89-56.63-64.95
				c-44.58-3.04-43.06-53.82-64.4-80.83c-17.02-21.55,16.49-36.58,36.2-49.89c26.45-17.86,48.33-39.7,1.15-60.74
				c-25.21-54.82-32.68-57.63-74.09-22.67c-19,16.04-36.58,10.64-56.65,4.41c-43.13-13.39-79.46-53.53-131.56-33.01
				c-13.82,5.44-29.5,6.25-44.39,8.84c-8.5,1.48-17.7,1.56-22.99-6.22c-5.57-8.2-1.97-15.79,5.27-22.01
				c7.4-6.35,19.33-12.75,11.97-24.08c-7.32-11.27-24.96-11.15-32.33-6.15c-30.68,20.79-59.58,16.66-90.02,1.48
				c-2.19-1.09-7.95,5-12.05,7.76c-30.81-5.1-57.16-30.32-91.31-20.31c-43.34,22.14-48.71,68.55-58.51,106.85
				c-8.23,32.16-21.72,40.3-47.48,34.63c-27.25-6-54.41-15.17-79.62-27.15c-37.83-17.97,5.04-35.15,2.75-53.28
				c0,0,0.04-0.04,0.04-0.04c40.47-2.28,35.8-27.7,21.59-50.3c-8.68-13.8-22.57-28.08-41.83-31.29c-3.41-6.8-6.82-13.6-10.23-20.4
				c-1.91-19.37-15.8-20.47-30.6-20.17c-3.41-0.09-6.82-0.17-10.23-0.26c8.92-30.55,42.71-33.66,60.73-35.72
				c51.36-5.87,65.02-34.19,63.91-83.54c27.74,15.85,49.53,27.47,26.67,58.67c-13.12,17.91-45.06,35.71-20.93,58.25
				c26.54,24.79,57.12,54.48,102.65,38.44c37.97-13.38,76.59-25.32,115.59-35.26c53.43-13.62,91.51,35.76,144.38,36.08
				c56.4,0.35,112.64,16.12,169.11,24.04c23.1,3.24,40.19-3.75,38.97-32.27c-0.43-10.11,1.09-20.23,11.48-26.31
				c19.22-11.25,39.2-23.62,38.45-49.01c-1.47-50.26,8.14-101.06-6.28-150.63C1772.64,1758.57,1764.95,1757.38,1760.4,1755.27z
				 M1831.35,1884.36c8.87,21.08-18.1,56.68,18.18,72.7c49.43,21.83,81.04-2.45,84.23-56.14c2.03-34.26-7.66-59.7-31.51-83.69
				c-12.73-12.8-18.02-33.58-42.31-24.82c-22.32,8.04-30.05,24.79-28.72,47.54C1831.99,1853.37,1831.35,1866.87,1831.35,1884.36z"/>
			<path class="st12" d="M1028.84,1959c3.41,0.09,6.82,0.17,10.23,0.26c1.94,19.32,15.8,20.46,30.6,20.17
				c3.41,6.8,6.82,13.6,10.23,20.4c-3.66,29.79,23.63,51.86,20.24,81.58c0,0-0.04,0.04-0.04,0.04
				c-34.53-0.01-69.06,0.13-103.58-0.11c-16.17-0.11-34.32,2.81-38.62-20.32c60.27-17.66,70.91-35.4,60.55-101
				C1021.9,1959.68,1025.37,1959.34,1028.84,1959z"/>
			<path class="st13" d="M1018.44,1960.02c10.36,65.6-0.27,83.34-60.55,101c0,0-0.01-0.01-0.01-0.01
				c-4.18-25.62-24.39-18.98-40.64-20.31c-3.4-3.4-6.81-6.81-10.21-10.21c0.02-15.91,2.79-29.76,22.93-30.37
				c14.08-0.43,25.98-3.73,27.89-20.65c0,0-0.22-0.4-0.21-0.4c12.81-0.01,19.64-6.75,21.4-19.17
				C992.17,1959.95,1005.3,1959.98,1018.44,1960.02z"/>
			<path class="st12" d="M957.85,1979.48c-1.91,16.92-13.81,20.23-27.89,20.65c-20.14,0.61-22.9,14.46-22.93,30.37
				c-20.5-3.45-28.56-18.39-27.61-36.32c0.84-15.96,16.26-13.7,27.71-14.68c6.89-0.16,13.78-0.32,20.67-0.49
				C937.81,1979.17,947.83,1979.32,957.85,1979.48z"/>
			<path class="st10" d="M277.51,1714.63c28.22-0.53,46.35,11.54,50.69,40.83l0.05-0.05c-16.91,0.03-33.82,0.06-50.74,0.09
				c0,0-0.29-0.27-0.29-0.27c0-13.44-0.01-26.87-0.02-40.31L277.51,1714.63z"/>
			<path class="st10" d="M328.2,1755.46c1.64,0,3.34-0.27,4.93,0.03c14.9,2.75,34.68-7.83,42.47,14.01
				c2.12,5.94-2.65,12.77-10.36,14.22c-22.64,4.25-34.16-6.38-36.99-28.31C328.25,1755.41,328.2,1755.46,328.2,1755.46z"/>
			<path class="st10" d="M927.8,1979.01c-6.89,0.16-13.78,0.32-20.67,0.49c-3.39-6.78-6.78-13.56-10.17-20.35
				C911.64,1958.89,925.39,1960.09,927.8,1979.01z"/>
			<path class="st10" d="M979.04,1959.91c-1.76,12.42-8.59,19.15-21.4,19.17C959.02,1966.23,965.93,1959.59,979.04,1959.91z"/>
			<path class="st0" d="M1667.93,235.45c-15.91,0.42-20.11-10.23-18.06-22.88c2.69-16.65,7.88-33.53,29.05-34.58
				c14.74-0.73,28.19,5.42,26.18,22.19C1702.68,220.33,1687.7,231.19,1667.93,235.45z"/>
			<path class="st0" d="M1702.48,107.59c-22.26-2.13-45.83-0.92-64.15-30.22C1667.92,82.61,1689.36,85.59,1702.48,107.59z"/>
			<path class="st0" d="M1567.21,95.16c-8.88-1.92-21.16,3.55-24.27-10.66c-0.39-1.8,3.19-6.1,5.51-6.61
				c13.89-3.08,16.64,6.91,18.82,17.21C1567.27,95.1,1567.21,95.16,1567.21,95.16z"/>
			<path class="st13" d="M917.35,3006.51c-44.05,0.04-88.11,0.08-132.16,0.12c0.02-10.16,0.6-20.35-0.03-30.47
				c-2.19-35.39,16.59-80.64-46.21-86c-15.29-1.3-14.34-20.82,0.81-30.63c57.68-37.33,46.44-99.01,49.92-153.04
				c1.68-26.1-18.91-48.04-50.4-54.98c-51.43-11.34-88.3-47.86-127.02-80.52c69.95-6.71,132.16,12.74,192.57,48.49
				c34.16,20.22,54.41,39.63,52.5,82.32c-1.54,34.54-14.46,74.6,9.57,103.52c23.43,28.19,25.76,46.14-0.13,72.85
				c-21.02,21.69-14.82,49.21,15.01,53.87c31.26,4.89,60.93-13.19,84.3-34.9c18.75-17.42,16.43-39.87,3.13-60.06
				c-6.96-10.56-15.47-23.92-6.86-32.17c37.44-35.89-26.71-106.09,44.51-130.32c3.54-1.2,1.77-19.12,1.88-29.26
				c0.31-27.12,0.1-54.25,0.51-81.37c0.18-11.69-0.28-23.58,12.43-30.88c24.21-13.9,90.94,0.53,111.68,23.75
				c20.34,22.76,47.12,17.13,69.16,7.38c15.58-6.89,5.98-31.38-3-33.84c-63.45-17.37-48.17-89.71-93.8-127.26
				c-58.25-47.92-153.39-88.17-205.93-30.82c-40.03,43.7-79.85,33.27-122,34.24c-94.82,2.18-159.75,60.38-166.75,154.16
				c-19,0.69-37.13-2.25-53.18-13.32c-8.81-6.08-18.21-21.18-9.96-23.78c48.2-15.16,39.41-59.76,53.42-92.91
				c5.5-13,19.28-23.01,36.82-23.27c63.12-0.93,117.81-46.74,184.67-33.44c17.96,3.57,34.96-12.46,32.73-36.31
				c-2.02-21.58-8.18-43.53-34.51-41.27c-36.88,3.16-58.08-24.64-85.49-39.05c-28.38-14.92-21.24-36.28,3.91-49.15
				c17.32-8.87,35.73-17.23,56.63-1.58c18.98,14.21,46.88,8.73,52.89-10.1c12.63-39.56,40.39-33.61,68.38-33.65
				c43.99-0.06,87.97-0.06,131.96-0.09c48.8-0.48,102.13-9.13,104.15,66.08c0.39,14.67,15.98,14.86,27.84,15.26
				c16.72,0.57,32.88-0.64,42.86,18.61c8.56,16.51,25.79,14.22,40.22,9.08c20.04-7.13,13.73-22.6,10.51-37.95
				c-2.71-12.97-1.48-26.78-1.99-40.22c16.85-10.25,33.71-20.51,50.56-30.76c30.76,7.28,16.71,32.65,20.43,50.86
				c-14.99,45.56,5.38,91.99-3.34,137.7c-15.66-8.59-30.88-18.15-47.09-25.5c-17.55-7.96-29.6,4.31-38.4,16.36
				c-12.64,17.31,9.09,22.75,15.83,29.34c32.89,32.16,43.85-21.05,69.64-20.24c1.07,11.71,2.14,23.43,3.22,35.14l-0.39,0.39
				c-32.66,10.48-53.66,43.5-93.95,41.86c-49.89-2.04-60.54,20.94-34.23,65.04c7.71,12.93,21.93,22.89,26.7,36.49
				c26.31,75.01,76.74,101.42,152.64,80.8c3.33,0.08,6.67,0.11,10.01,0.11c-2.06,44.72,25.36,58.08,63.56,61.14
				c14.3,1.15,32.04-7.14,42.1,8.84c30.13,47.83,15.29,79.65-42.55,92.04c-11.37,2.44-23.97,0.09-32.47,10.84
				c-17.24,0.8-26.7-14.23-40.67-20.09c-6.74-0.08-13.47-0.17-20.21-0.25c0.02-3.37,0.01-6.75-0.01-10.12
				c-39.28-39.17-108.29-27.79-135.81,22.77c8.59,10.32,33.63-9.4,33.1,17.8c-0.33,16.81-12.4,22.99-25.26,27.42
				c-7.74,2.66-16.43,2.54-24.69,3.67c0,0-0.04-0.39-0.04-0.39c-0.11-9.99,1.57-20.4-0.66-29.88
				c-8.05-34.14-45.98-55.47-82.89-38.05c-23.74,11.21-80.56,9.86-49.39,66.52c10.19,31.2,37.4,45.44,61.85,62.43
				c-1.04,12.67,3.02,30.01-19.35,25.4c-19.92-4.1-30.22,5.86-30.08,23.2c0.38,46.39-30.65,44.14-61.89,42.95
				c-29.07-21.37-102.74-9.83-120.99,19.23C916.65,2999.18,917.57,3003.21,917.35,3006.51z M1075.55,2876.32
				c-10.24,0.42-21.64,0.59-23.03,13.83c-1.04,9.92,6.35,14.91,15.92,15.08c12.47,0.22,24.9-2.48,25.75-17.34
				C1094.83,2876.65,1083.65,2877.34,1075.55,2876.32z"/>
			<path class="st12" d="M1049.34,2162.78c-43.99,0.03-87.97,0.03-131.96,0.09c-27.99,0.04-55.75-5.91-68.38,33.65
				c-6.01,18.83-33.91,24.3-52.89,10.1c-20.9-15.65-39.32-7.28-56.63,1.58c-25.15,12.88-32.29,34.24-3.91,49.15
				c27.41,14.41,48.61,42.21,85.49,39.05c26.33-2.26,32.49,19.69,34.51,41.27c2.24,23.85-14.77,39.88-32.73,36.31
				c-66.86-13.3-121.54,32.52-184.67,33.44c-17.55,0.26-31.33,10.27-36.82,23.27c-14.02,33.15-5.22,77.75-53.42,92.91
				c-8.25,2.59,1.14,17.7,9.96,23.78c16.05,11.07,34.17,14.01,53.19,13.32c0.4,3.44,0.79,6.88,1.18,10.32
				c38.72,32.65,75.59,69.18,127.02,80.52c31.49,6.94,52.08,28.89,50.4,54.98c-3.47,54.03,7.76,115.7-49.92,153.04
				c-15.15,9.8-16.1,29.32-0.81,30.63c62.8,5.36,44.02,50.61,46.21,86c0.63,10.12,0.05,20.31,0.03,30.47
				c-23.7-0.01-47.39-0.01-71.09-0.02c14.22-49.99,12.83-97.72-19.71-141.24c-1.64-2.19-0.43-6.53-0.55-9.86c0,0,0.01,0,0.01,0
				c40.74-33.44,25.97-76.07,20.54-117.92c-3.62-27.89-22.88-23.93-40.96-24.58c-3.31-0.03-6.63-0.02-9.95,0.01
				c-57.49-45.27-95.6-106.8-137.25-165.28c-9.8-13.76-16.71-30.81-33.91-36.07c-42.1-12.89-70.94-36.87-72.67-83.76
				c-0.84-22.72-28.24-14.96-35.11-35.52c32.94-4.87,62.53-25.88,96.05-5.41c3.26,12.82-18.98,29.75,3.84,38.5
				c20.23,7.75,34.98-8.41,47.37-20.69c12.39-12.28-1.93-15.3-10.88-18.57c31.34-55.58,86.22-69.38,142.47-80.76
				c2.13,10.33,4.87,20.31,18.78,17.23c2.32-0.51,5.9-4.82,5.51-6.61c-3.14-14.2-15.4-8.73-24.3-10.61
				c-5.25-23.83,14.53-46.01,5.31-69.7c-7.39-18.98-1.08-47.45-31.91-51.48c-28.43-3.71-50.38,9.32-62.24,33.65
				c-7.28,14.92-11.38,27.74-31.09,25.71c-14.32-1.47-21.82-9.16-21.52-22.99c0.4-18.02-8.75-47.19,8.9-51.21
				c38.71-8.81,52.74-44.72,82.49-61.54c22.22-12.56,41.98-31.13,52.78,15.95c7.77,33.89,48.66,42.5,78.73,56.25
				c3.79,1.73,13.97-3.03,16.61-7.5c49.44-83.76,128.61-63.77,199.97-51.34C990.2,2126.3,1037.49,2113.53,1049.34,2162.78z"/>
			<path class="st12" d="M1323.49,2162.89c-16.86,10.25-33.71,20.5-50.56,30.76c2.58-57.79-8.26-116.37,10.03-173.25
				c34.15-10,60.5,15.21,91.31,20.31c4.69,13.25,17.43,36.51-2.6,36.92C1302.47,2079.05,1328.36,2128.54,1323.49,2162.89z"/>
			<path class="st13" d="M216.58,2550.09c-26.07-16.82-22.19-29.64,4.67-40.94c27.12-11.41,54.07-21.22,77.61-42.03
				c21.98-19.43,43.5-9.36,49.94,21.82c0,0-0.16,0.12-0.16,0.12c-12.81,0.66-19.56,7.37-20.08,20.28
				c-0.49,28.63-9.48,42.96-43.1,36.48C263.58,2541.6,239.61,2548.29,216.58,2550.09z"/>
			<path class="st13" d="M379.94,2651.75c-10.02,30.3-22.21,55.12-62.55,39.95c-40.83-15.35-23.36-44.23-19.17-70.57
				C355.77,2590.08,370.46,2595.59,379.94,2651.75z"/>
			<path class="st13" d="M520.91,2386.23c8.95,3.27,23.27,6.29,10.88,18.57c-12.39,12.28-27.14,28.45-47.37,20.69
				c-22.82-8.74-0.58-25.68-3.84-38.5C494.02,2386.74,507.47,2386.48,520.91,2386.23z"/>
			<path class="st12" d="M917.24,2040.71c16.25,1.32,36.46-5.31,40.64,20.31C941.64,2059.66,921.44,2066.29,917.24,2040.71z"/>
			<path class="st12" d="M328.56,2509.34c0.53-12.9,7.27-19.61,20.08-20.28C347.65,2501.51,340.97,2508.28,328.56,2509.34z"/>
			<path class="st12" d="M845.01,1984.15c2.06,1.95,4.1,3.89,6.14,5.84c-2.34,1.61-4.55,3.51-7.11,4.63
				c-0.63,0.28-3.59-2.44-3.39-2.93C841.74,1989.03,843.48,1986.64,845.01,1984.15z"/>
			<path class="st10" d="M663.48,2713.03c3.32-0.03,6.63-0.03,9.95-0.01C670.11,2717.97,666.8,2717.98,663.48,2713.03z"/>
			<path class="st12" d="M319.18,2244.73c-18.05-2.09-40.78,4-39.47-21.61c1.36-26.43,24.84-29.53,44.96-28.66
				c19.22,0.83,50.18,3.38,48.86,23.26C371.66,2246.04,338.29,2239.52,319.18,2244.73z"/>
			<path class="st9" d="M216.46,2407.3c-5.3,23.57-10.4,47.31-40.6,50.91C173.87,2428.79,174.62,2401.57,216.46,2407.3z"/>
			<path class="st9" d="M175.83,2458.24c-5.39,53.24-46.84,21.61-71.12,30.41C118.3,2454.71,153.63,2471.92,175.83,2458.24z"/>
			<path class="st9" d="M693.84,2855.52c0.12,3.34-1.09,7.67,0.55,9.86c32.54,43.51,33.93,91.25,19.71,141.24
				c-20.29-0.01-40.58-0.01-60.87-0.02c-1.3-18.16,6.02-32.16,20.37-42.85c40.35-30.03,12.33-48.25-13.3-61.35
				c-27.29-13.94-58.67-3.9-88.16-6.05c-40.28-11.3-66.03,26.07-101.6,30.52c7.01-35.98,25.5-62.53,61.96-72.96
				c24.67-7.06,41.9-16.89,40.87-48.04c-0.69-20.77,14.07-22.99,24.71-5.92C620.52,2835.98,659.76,2840.84,693.84,2855.52z"/>
			<path class="st12" d="M470.53,2926.86c35.58-4.45,61.33-41.81,101.6-30.52c5.17,38.99-4.8,75.16-20.44,110.28
				c-33.88,0-67.77,0-101.65,0C442.76,2976.39,462.77,2953.21,470.53,2926.86z"/>
			<path class="st9" d="M1404.55,2611.23c-3.34,0-6.67-0.03-10-0.11c0.36-20.9,0.64-43.05-29.3-40.36
				c-62.24,5.6-70-35.61-72.39-82.23c0.03-13.45,0.07-26.9,0.1-40.35c35.61-2.51,70.53,38.06,94.41,25.74
				c51.6-26.62,67.11,12.4,92.34,34.8c30.55,27.13,48.55,31.18,62.27-15.86c8.83-30.28,30.56-47.28,56.2-8.8
				c20.89,31.35,77.07,28.31,78.42,79.9c0.04,1.5,14.29,6.03,17.66,3.48c20.97-15.85,25.56-41.89,32.41-64.69
				c4.05-13.48-6.85-32.21-24.7-32.6c-58.16-1.27-45.85-48.3-57.15-81.84c-10.77-32,11.8-43.79,29.85-56.1
				c20.89-14.24,40.18,9.98,45.61,19.45c17.68,30.86,45.43,42.43,74.15,56.61c26.19,12.93,24.73,43.93,7.23,54.16
				c-57.06,33.35-16.59,65.46,0.61,91.02c25.18,37.42,51.3,76.36,93.64,99.06c9.23,4.95,12.52,22.25,27.73,14.63
				c10.84-5.44,9.24-17.29,8.94-27.09c-0.92-30.09,6.44-53.97,40.7-59.68c1.2,35.76-27.51,65.18-13.16,106.49
				c12.31,35.46,26.36,51.31,62.48,46.45c-0.01,61.1-0.01,122.2-0.02,183.29c-26.42-2.28-55.48,8.41-78.81-7.41
				c-28.68-19.45-47.45-9.17-71.11,9.43c-29.72,23.37-36.46,54.5-41.42,87.95c-20.3,0.01-40.61,0.03-60.91,0.04
				c10.94-53.52,59.91-93.56,53.5-153.94c-0.94-8.83,11.53-20.12,19.5-28.67c18.52-19.86,38.23-40.04,45.76-65.89
				c7.12-24.43,51.22-19.94,40.46-50.36c-9.66-27.32-43.93-16.56-65.96-27.84c-38.72-19.83-60.41-58.4-97.66-78.78
				c-27.73-15.17-43.39-13.72-57.79,19.67c-15.97,37.03-21.06,73.64-19.15,112.59c-13.51-0.04-27.02-0.08-40.52-0.12
				c-1.04-20.92-15.07-34.37-30.43-43.73C1552.19,2649.36,1482.03,2620,1404.55,2611.23z"/>
			<path class="st10" d="M1689.01,2733.37c-1.9-38.94,3.18-75.55,19.15-112.59c14.4-33.39,30.06-34.84,57.79-19.67
				c37.25,20.38,58.93,58.94,97.66,78.78c22.03,11.28,56.3,0.52,65.96,27.84c10.76,30.42-33.34,25.93-40.46,50.36
				c-7.53,25.86-27.24,46.03-45.76,65.89c-7.97,8.55-20.44,19.84-19.5,28.67c6.41,60.39-42.56,100.43-53.5,153.94
				c-37.21,0-74.42,0-111.63-0.01c-0.02-9.61-0.05-19.22-0.07-28.83c0.01-27.16,0.03-54.31,0.04-81.47l0.18,0.07
				c48.6-11.04,71.52-53.49,71.48-123.84c-0.02-31.09-11.95-42.6-41.3-39.14L1689.01,2733.37z"/>
			<path class="st9" d="M1039.19,2977.48c31.25,1.19,62.27,3.44,61.89-42.95c-0.14-17.34,10.16-27.31,30.08-23.2
				c22.37,4.61,18.31-12.73,19.35-25.4c3.52-3.62,7.03-7.23,10.54-10.85c30.18-3.96,62.6,12.5,90.64-12.68
				c25.84-23.2,64.86-11.38,69.24,22.22c2.35,18.03-0.04,30.75,23.33,21.64c34.75,20.72,45.34,44.63,9.21,74.03
				c-8.79,7.15-9.16,16.61-9.68,26.39c-104.92,0-209.84-0.01-314.76-0.01C1032.42,2996.94,1035.8,2987.21,1039.19,2977.48z
				 M1159.69,2932.19c-12.81,1.67-16.95,10.65-17.79,21.17c-0.86,10.64,1.42,21.43,14.93,21.13c9.95-0.22,13.46-8.87,13.58-17.9
				C1170.54,2946.92,1172.91,2935.76,1159.69,2932.19z"/>
			<path class="st10" d="M1343.79,3006.68c0.51-9.79,0.88-19.24,9.68-26.39c36.14-29.4,25.54-53.31-9.21-74.03
				c-0.14-23.71-0.28-47.42-0.42-71.13c7.53-24.92,7.35-53.16,30.49-71.37c6.74,0.08,13.47,0.17,20.21,0.25
				c-1.76,23.16,3.1,41.77,25.63,55.09c18.22,10.77,29.57,32.65,23.79,51.89c-11.51,38.33,10.41,48.85,38.25,59.21
				c34.95,13.01,64,31.15,54.53,76.44C1472.42,3006.64,1408.1,3006.66,1343.79,3006.68z"/>
			<path class="st12" d="M1831.25,3006.56c4.95-33.45,11.7-64.58,41.42-87.95c23.66-18.6,42.44-28.88,71.11-9.43
				c23.33,15.82,52.39,5.13,78.81,7.41c4.75,91.65,4.75,91.81-85.1,91.6C1902.08,3008.11,1866.66,3007.13,1831.25,3006.56z"/>
			<path class="st9" d="M1536.73,3006.63c9.47-45.29-19.57-63.43-54.53-76.44c-27.84-10.36-49.76-20.88-38.25-59.21
				c5.78-19.24-5.57-41.12-23.79-51.89c-22.53-13.32-27.39-31.93-25.63-55.09c13.97,5.86,23.43,20.9,40.67,20.09
				c21.3,27.27,46.06,52.32,50.86,89.34c3.48,26.82,23.17,26.42,41.05,18.7c13.28-5.73,23.6-18.36,40.17-16.28
				c0.01,6.79,0.03,13.58,0.04,20.38c-7.24,68.5,7.28,81.46,91.31,81.54c0.02,9.61,0.05,19.22,0.07,28.82
				C1618.05,3006.61,1577.39,3006.62,1536.73,3006.63z"/>
			<path class="st10" d="M551.69,3006.63c15.64-35.11,25.61-71.29,20.44-110.28c29.49,2.15,60.88-7.89,88.17,6.05
				c25.63,13.1,53.65,31.32,13.3,61.35c-14.36,10.69-21.68,24.7-20.37,42.85C619.38,3006.61,585.54,3006.62,551.69,3006.63z"/>
			<path class="st12" d="M1039.19,2977.48c-3.39,9.73-6.77,19.46-10.16,29.18c-37.23-0.05-74.45-0.1-111.68-0.15
				c0.22-3.3-0.71-7.34,0.84-9.8C936.45,2967.65,1010.12,2956.11,1039.19,2977.48z"/>
			<path class="st12" d="M277.21,1714.93c0.01,13.44,0.01,26.88,0.02,40.31c-23.56,7.96-38.61,30.17-45.17,48.12
				c-17.32,47.46-44.38,38.22-76.51,22.55c19.21-14.75,28.22-35.84,16.82-56.27c-15.08-27.02-44.65-9.46-67.37-14.16
				c-6.8-0.05-13.6-0.1-20.4-0.15c1.97-8.56,5.99-18.92,14.74-18.05C160.47,1743.39,217.61,1719.49,277.21,1714.93z"/>
			<path class="st9" d="M53.66,1867.26c-1.23-21.87,8.84-32.19,30.82-30.36C83.08,1856.08,72.98,1866.38,53.66,1867.26z"/>
			<path class="st9" d="M84.6,1755.34c6.8,0.05,13.6,0.1,20.4,0.15c1.13,36.4-28.9,33.54-50.98,40.7
				C52.69,1773.89,85.9,1777.61,84.6,1755.34z"/>
			<path class="st12" d="M1292.86,2488.53c2.39,46.62,10.15,87.84,72.39,82.23c29.94-2.7,29.66,19.46,29.3,40.36
				c-75.91,20.61-126.34-5.79-152.64-80.8c-4.77-13.6-18.99-23.56-26.7-36.49c-26.31-44.1-15.65-67.07,34.23-65.04
				c40.3,1.65,61.3-31.37,93.96-41.85c2.98,22.62,25.17,25.76,39.11,35.49c22.13,15.45,37.95-8.15,51.14-19.65
				c10.58-9.22,4.89-30.57-6.48-40.06c-14.11-11.77-32.85-9.15-45.41,4.51c-10.86,11.81-20.81,21.67-37.99,19.32
				c-1.07-11.71-2.15-23.43-3.21-35.14c0.01-0.01,0.01,0.04,0.01,0.04c8.71-45.72-11.65-92.14,3.34-137.7
				c33.39-5.48,54.18,35.15,83.8,28.14c44.46-10.53,91.39-0.86,134.27-20.68c30.24-13.98,58.62-7.14,73.7,22.68
				c13.77,27.23,30.33,21.83,49.58,12.1c19.99-10.1,32-27.15,44.69-46.03c22.52-33.5,29.62-89.13,91.15-77.6
				c47.18,21.04,25.3,42.88-1.15,60.74c-19.71,13.31-53.22,28.34-36.2,49.89c21.34,27.01,19.82,77.79,64.4,80.83
				c44.74,3.05,74.61,10.71,56.63,64.95c56.72,41.84-3.22,129.11,64.48,167.49c4.45,2.52,2.83,15.83,4.03,24.11
				c-34.27,5.71-41.63,29.58-40.71,59.68c0.3,9.81,1.91,21.65-8.94,27.09c-15.21,7.63-18.51-9.68-27.73-14.63
				c-42.34-22.7-68.46-61.64-93.64-99.06c-17.2-25.56-57.67-57.66-0.61-91.02c17.5-10.23,18.96-41.23-7.23-54.16
				c-28.72-14.19-56.47-25.75-74.15-56.61c-5.43-9.47-24.72-33.69-45.61-19.45c-18.05,12.31-40.62,24.11-29.85,56.1
				c11.29,33.54-1.01,80.57,57.15,81.84c17.85,0.39,28.75,19.13,24.7,32.6c-6.86,22.8-11.44,48.84-32.41,64.69
				c-3.37,2.55-17.62-1.98-17.66-3.48c-1.35-51.59-57.53-48.55-78.42-79.9c-25.64-38.48-47.37-21.47-56.2,8.8
				c-13.72,47.03-31.72,42.98-62.27,15.86c-25.22-22.4-40.74-61.42-92.34-34.8c-23.88,12.32-58.79-28.25-94.41-25.74
				C1279.59,2461.59,1279.38,2475.04,1292.86,2488.53z"/>
			<path class="st9" d="M1821.1,2132.35c-61.53-11.53-68.62,44.09-91.15,77.6c-12.69,18.88-24.7,35.93-44.69,46.03
				c-19.25,9.73-35.82,15.14-49.58-12.1c-15.07-29.82-43.46-36.65-73.7-22.68c-42.87,19.82-89.8,10.15-134.27,20.68
				c-29.63,7.01-50.41-33.62-83.8-28.14c-3.71-18.2,10.34-43.58-20.42-50.86c4.87-34.35-21.02-83.84,48.17-85.26
				c20.03-0.41,7.29-23.67,2.6-36.92c4.1-2.75,9.86-8.85,12.05-7.76c30.44,15.17,59.34,19.31,90.02-1.48
				c7.38-5,25.02-5.12,32.33,6.15c7.36,11.33-4.57,17.73-11.97,24.08c-7.25,6.21-10.84,13.8-5.27,22.01
				c5.29,7.79,14.48,7.7,22.99,6.22c14.89-2.59,30.56-3.4,44.39-8.84c52.1-20.52,88.43,19.62,131.56,33.01
				c20.08,6.23,37.66,11.63,56.65-4.41C1788.41,2074.72,1795.88,2077.53,1821.1,2132.35z"/>
			<path class="st12" d="M1831.35,1884.36c0-17.48,0.64-30.99-0.14-44.42c-1.32-22.75,6.41-39.5,28.72-47.54
				c24.3-8.75,29.58,12.02,42.31,24.82c23.86,23.99,33.54,49.43,31.51,83.69c-3.18,53.68-34.8,77.97-84.23,56.14
				C1813.25,1941.04,1840.22,1905.44,1831.35,1884.36z"/>
			<path class="st9" d="M1100.14,2081.41c3.39-29.73-23.9-51.79-20.24-81.58c19.27,3.21,33.15,17.49,41.83,31.29
				C1135.94,2053.71,1140.61,2079.13,1100.14,2081.41z"/>
			<path class="st9" d="M1069.66,1979.43c-14.8,0.29-28.65-0.85-30.6-20.17C1053.86,1958.96,1067.75,1960.06,1069.66,1979.43z"/>
			<path class="st15" d="M612.26,2571c-0.39-3.44-0.77-6.88-1.18-10.32c6.99-93.77,71.92-151.98,166.74-154.15
				c42.14-0.97,81.96,9.46,122-34.24c52.54-57.35,147.68-17.1,205.93,30.82c45.64,37.55,30.36,109.89,93.8,127.26
				c8.98,2.46,18.58,26.95,3,33.84c-22.04,9.75-48.82,15.38-69.16-7.38c-20.74-23.22-87.47-37.65-111.68-23.75
				c-12.71,7.3-12.25,19.2-12.43,30.88c-0.41,27.12-0.2,54.25-0.51,81.37c-0.12,10.14,1.66,28.05-1.88,29.26
				c-71.23,24.23-7.08,94.43-44.51,130.32c-8.61,8.25-0.1,21.61,6.86,32.17c13.3,20.19,15.62,42.64-3.13,60.06
				c-23.38,21.71-53.05,39.79-84.3,34.9c-29.84-4.67-36.04-32.18-15.01-53.87c25.88-26.71,23.56-44.66,0.13-72.85
				c-24.03-28.91-11.12-68.97-9.57-103.52c1.91-42.69-18.34-62.09-52.5-82.32C744.42,2583.74,682.2,2564.29,612.26,2571z"/>
			<path class="st12" d="M1567.28,2875.85c-16.57-2.08-26.89,10.55-40.17,16.28c-17.88,7.71-37.56,8.12-41.05-18.7
				c-4.8-37.02-29.56-62.07-50.86-89.34c8.5-10.75,21.1-8.4,32.47-10.84c57.84-12.39,72.68-44.21,42.55-92.04
				c-10.07-15.98-27.8-7.69-42.1-8.84c-38.2-3.07-65.62-16.42-63.56-61.14c77.47,8.77,147.64,38.13,213.5,78.29
				c15.35,9.36,29.39,22.82,30.43,43.73c-30.65,0-61.3,0-103.45,0c38.38,37.66,57.98,67.99,18.45,104.55
				C1552.69,2847.77,1568.23,2862.7,1567.28,2875.85z"/>
			<path class="st12" d="M1343.83,2835.12c0.14,23.71,0.28,47.42,0.42,71.13c-23.36,9.11-20.97-3.61-23.32-21.64
				c-4.38-33.6-43.4-45.42-69.24-22.22c-28.04,25.18-60.45,8.72-90.64,12.69c11.12-27.7,46.86-25.27,60.59-49.78
				c8.26-1.13,16.96-1.01,24.69-3.67c12.86-4.43,24.94-10.6,25.26-27.42c0.53-27.2-24.5-7.49-33.1-17.8
				c27.52-50.56,96.53-61.94,135.81-22.77C1322.4,2770.3,1310.42,2802.33,1343.83,2835.12z"/>
			<path class="st15" d="M1221.64,2825.3c-13.73,24.52-49.47,22.08-60.59,49.78c-3.51,3.61-7.02,7.23-10.54,10.85
				c-24.45-16.99-51.66-31.23-61.85-62.41c48.47-59.21,65.9-60.16,120.68-6.9c3.48,3.39,8.14,5.56,12.25,8.3L1221.64,2825.3z"/>
			<path class="st12" d="M1221.6,2824.91c-4.11-2.74-8.77-4.91-12.25-8.3c-54.78-53.26-72.21-52.31-120.68,6.9
				c-31.18-56.68,25.65-55.33,49.38-66.54c36.91-17.43,74.84,3.91,82.89,38.05C1223.17,2804.51,1221.49,2814.92,1221.6,2824.91z"/>
			<path class="st11" d="M1340.58,2351.45c0,0,0-0.05-0.01-0.04c-25.8-0.8-36.76,52.4-69.65,20.24
				c-6.74-6.59-28.48-12.03-15.83-29.34c8.8-12.05,20.85-24.32,38.4-16.36C1309.7,2333.3,1324.92,2342.86,1340.58,2351.45z"/>
			<path class="st9" d="M1343.83,2835.12c-33.41-32.8-21.43-64.82,30.48-81.49c0.03,3.37,0.03,6.75,0.01,10.12
				C1351.18,2781.96,1351.36,2810.2,1343.83,2835.12z"/>
			<path class="st15" d="M1075.6,2876.27c8.06,1.08,19.24,0.38,18.59,11.63c-0.85,14.86-13.28,17.56-25.75,17.34
				c-9.57-0.17-16.97-5.16-15.92-15.08C1053.91,2876.92,1065.31,2876.74,1075.6,2876.27z"/>
			<path class="st9" d="M663.36,2305.48c8.9,1.88,21.16-3.59,24.3,10.61c0.4,1.8-3.19,6.1-5.51,6.61
				c-13.91,3.08-16.65-6.91-18.78-17.23C663.38,2305.47,663.36,2305.48,663.36,2305.48z"/>
			<path class="st13" d="M1567.28,2875.85c0.95-13.15-14.59-28.08-3.8-38.05c39.54-36.56,19.93-66.89-18.45-104.55
				c42.15,0,72.8,0,103.45,0c13.51,0.04,27.02,0.08,40.52,0.12c0,0,0.03,0.02,0.03,0.02c13.75,28.62,16.59,53.81,3.98,87.45
				c-9.84,26.26-35.12,45.33-34.16,75.53c0,0-0.18-0.07-0.18-0.07c-30.45-0.03-60.9-0.05-91.36-0.08
				C1567.31,2889.44,1567.3,2882.64,1567.28,2875.85z"/>
			<path class="st13" d="M1292.86,2488.53c-13.48-13.49-13.27-26.93,0.1-40.35C1292.93,2461.63,1292.89,2475.08,1292.86,2488.53z"/>
			<path class="st12" d="M1567.32,2896.23c30.45,0.03,60.9,0.05,91.36,0.08c-0.01,27.16-0.03,54.31-0.04,81.47
				C1574.6,2977.69,1560.09,2964.73,1567.32,2896.23z"/>
			<path class="st9" d="M1658.86,2896.37c-0.96-30.21,24.32-49.28,34.16-75.53c12.61-33.64,9.77-58.83-3.98-87.45
				c29.35-3.46,41.28,8.05,41.3,39.14C1730.38,2842.88,1707.46,2885.33,1658.86,2896.37z"/>
			<path class="st12" d="M1159.69,2932.19c13.22,3.57,10.85,14.73,10.72,24.4c-0.12,9.03-3.64,17.69-13.58,17.9
				c-13.52,0.3-15.79-10.49-14.93-21.13C1142.75,2942.84,1146.88,2933.86,1159.69,2932.19z"/>
			<path class="st9" d="M1343.78,2386.55c17.18,2.35,27.13-7.51,37.99-19.32c12.56-13.66,31.3-16.29,45.41-4.51
				c11.37,9.49,17.05,30.85,6.48,40.06c-13.2,11.5-29.01,35.11-51.14,19.65c-13.94-9.74-36.13-12.87-39.11-35.49
				C1343.39,2386.93,1343.78,2386.55,1343.78,2386.55z"/>
		</g>
	</g>
</g>
<g id="Ebene_2">
	<linearGradient id="SVGID_1_" gradientUnits="userSpaceOnUse" x1="77.0102" y1="45.9711" x2="1824.6084" y2="2835.8115">
		<stop  offset="0" style="stop-color:#036FB5"/>
		<stop  offset="1" style="stop-color:#05162F"/>
	</linearGradient>
	<rect x="-45" y="-33" class="st16" width="2045" height="3033"/>
</g>
</svg>
