<?xml version="1.0" encoding="utf-8"?>
<!-- Generator: Adobe Illustrator 25.2.0, SVG Export Plug-In . SVG Version: 6.00 Build 0)  -->
<svg version="1.1" xmlns="http://www.w3.org/2000/svg" xmlns:xlink="http://www.w3.org/1999/xlink" x="0px" y="0px"
	 viewBox="0 0 1000 1000" style="enable-background:new 0 0 1000 1000;" xml:space="preserve">
<style type="text/css">
	.st0{fill:#002BFF;}
	.st1{clip-path:url(#SVGID_2_);fill:#BCB700;}
	.st2{clip-path:url(#SVGID_4_);fill:#6B6B6B;}
	.st3{clip-path:url(#SVGID_6_);fill:#007003;}
	.st4{clip-path:url(#SVGID_8_);fill:#FFFFFF;}
	.st5{clip-path:url(#SVGID_10_);fill:#FFFFFF;}
	.st6{clip-path:url(#SVGID_12_);fill:#FFFFFF;}
	.st7{clip-path:url(#SVGID_14_);fill:#FFFFFF;}
	.st8{clip-path:url(#SVGID_16_);fill:#FFFFFF;}
	.st9{clip-path:url(#SVGID_18_);fill:#FFFFFF;}
	.st10{clip-path:url(#SVGID_20_);fill:#FFFFFF;}
	.st11{opacity:0.6;fill:url(#SVGID_21_);enable-background:new    ;}
	.st12{display:none;}
	.st13{display:inline;fill:#FFFFFF;}
	.st14{display:inline;fill:#F7AA46;}
	.st15{display:inline;}
	.st16{clip-path:url(#SVGID_23_);fill:#F25747;}
	.st17{clip-path:url(#SVGID_23_);fill:#EF6D4B;}
	.st18{clip-path:url(#SVGID_23_);fill:#F7AA46;}
	.st19{clip-path:url(#SVGID_23_);fill:#CE484E;}
	.st20{clip-path:url(#SVGID_23_);fill:#DD5F4D;}
	.st21{display:inline;filter:url(#Adobe_OpacityMaskFilter);}
	.st22{display:inline;opacity:0.78;mask:url(#SVGID_24_);fill:url(#SVGID_25_);enable-background:new    ;}
	.st23{fill:#FFFFFF;}
</style>
<g id="Ebene_1">
	<g id="Ebene_2_1_">
		<g>
			<circle class="st0" cx="499.3" cy="501.25" r="367"/>
			<g>
				<g>
					<g>
						<defs>
							<circle id="SVGID_1_" cx="499.3" cy="498.75" r="367"/>
						</defs>
						<clipPath id="SVGID_2_">
							<use xlink:href="#SVGID_1_"  style="overflow:visible;"/>
						</clipPath>
						<path class="st1" d="M834.6,286.65c-0.1,2.2-10,87.7-116.7,72.5c-106.6-15.2-133.1,20.8-160.6,48.6s-83.2,60.4-100.1,27.6
							c-16.9-32.8-32.3-14-28-73.8c4.4-59.8-10.5-74.1-39.8-93.3c-29.3-19.2-24.2-30.1-46.7-51.1s-41.6-40.1-70.9,25
							s-1,47.9-58.4,87.5s-52.3,14.7-76.9,63.5s-18,258,7.8,253.2c25.8-4.8,53.2-36.3,48.8-68.8s16.4-42.5,44.1,11.5
							c27.8,54,12.1,23.1,45.1,64s39.8,67.2,67.7,70.9c27.9,3.7,46.2-10.1,82.6,32.8c36.5,42.9,35.3,71,44.3,93.5s47,62.8,82.1-10.4
							c35.2-73.2,42.2-55.3,20.6-83.9c-21.6-28.6-8-40.3,35.6-33.8c43.5,6.6,45.7,38.9,51-14.5c5.4-53.4-34.6-36.1,25.6-70.6
							c60.3-34.6,97.7-15.3,98.6-77.1c0.9-61.8-51.1-61.7,15.7-99.4s88.1-42.8,99.1-48C916.3,407.45,834.6,286.65,834.6,286.65z"/>
					</g>
				</g>
				<g>
					<g>
						<defs>
							<circle id="SVGID_3_" cx="499.3" cy="501.25" r="367"/>
						</defs>
						<clipPath id="SVGID_4_">
							<use xlink:href="#SVGID_3_"  style="overflow:visible;"/>
						</clipPath>
						<path class="st2" d="M854.8,325.05c-0.4,2.2-19.1,86.1-123.5,60s-134.6,6.9-164.8,31.7s-89,51.4-102.4,17
							c-13.4-34.4-30.7-17.3-20.2-76.2c10.5-59-2.7-74.8-29.9-96.9s-21-32.4-41.2-55.7c-20.2-23.2-37.2-44.1-73.1,17.5
							c-35.9,61.6-6,47.5-67.2,81s-53.5,9.3-83,55.3s-44.7,254.7-18.5,252.6c26.2-2.1,56.7-30.6,55.7-63.4
							c-1-32.8,20.7-40.6,42.7,16s9.6,24.2,38.2,68.3c28.6,44.1,32.6,71,60,77.5c27.4,6.5,47-5.2,78.8,41.2s27.7,74.3,34.3,97.6
							c6.6,23.3,40.2,67.3,82.8-1.9s47.7-50.7,29.2-81.3c-18.5-30.7-3.7-40.9,38.9-29.9s41.4,43.5,52.2-9.1s-30.7-39.5,32.8-67.6
							s98.7-5.2,106-66.5s-44.4-66.6,25.9-97.3s92-33.4,103.5-37.4C923.5,453.65,854.8,325.05,854.8,325.05z"/>
					</g>
				</g>
				<g>
					<g>
						<defs>
							<circle id="SVGID_5_" cx="499.3" cy="501.25" r="367"/>
						</defs>
						<clipPath id="SVGID_6_">
							<use xlink:href="#SVGID_5_"  style="overflow:visible;"/>
						</clipPath>
						<path class="st3" d="M871.5,383.95c0,0-76.9,60.4-99,56.8s-70-43.2-98.3-27.9c-28.3,15.3-81.1,30.2-114.7,39.2
							c-33.7,9-85.8,39.2-106.3,19.4s-50-55.8-47.8-82.7s2.7-49.9-9.2-65.9s-27.3-49.3-62.9-39.3c-35.6,10-40.1,26.5-62.5,38.7
							c-22.4,12.2-51.4,31.9-66.4,54.4s-20.7,49.2-27.7,86.1s37.5,6.1,57.5,36.6c19.9,30.5,3.1,28.2,29.2,65.5s19.2,43.5,53.4,78.1
							s41.2,33.5,81.4,56.4c40.2,22.9,49.2,20.7,63.7,62.1c14.5,41.3,12.5,73.2,8.7,85.3s20.8-22,36-43s17-32.1,15.1-53.3
							c-2-21.2-22.2-30.8,12.1-40.6s34.6,23.8,78.5-19.8c43.8-43.6,39.9-63.7,69.2-77c29.4-13.3,53.9-16.6,63.7-26.7
							s-27.6,2.3,16.3-63.5s148.8-81.2,154-80C920.5,444.15,871.5,383.95,871.5,383.95z"/>
					</g>
				</g>
				<g>
					<g>
						<defs>
							<circle id="SVGID_7_" cx="499.3" cy="501.25" r="367"/>
						</defs>
						<clipPath id="SVGID_8_">
							<use xlink:href="#SVGID_7_"  style="overflow:visible;"/>
						</clipPath>
						<path class="st4" d="M459.2,374.65c28.6-0.5-60.7,49-114.8,85.7c-54,36.7-87.7,47.7-116.9,81.2s-47.3,51.8-76.5,77.5
							s-67.3,59.2-79.3,36.5c-11.9-22.8-35.7-23.3-0.9-51.8c34.9-28.5,71.9-50.6,110.2-88.5s31.2-20.9,59.6-33.4
							c28.4-12.5-22.3-36.3,50.3-58.4S422,375.25,459.2,374.65z"/>
					</g>
				</g>
				<g>
					<g>
						<defs>
							<circle id="SVGID_9_" cx="500.7" cy="500" r="367"/>
						</defs>
						<clipPath id="SVGID_10_">
							<use xlink:href="#SVGID_9_"  style="overflow:visible;"/>
						</clipPath>
						<path class="st5" d="M751,556.4c0,0,113.7-87.1,84.3-124.1S637.8,569,637.8,569s-27.5-19.1-102.8,53.6s-84.9,69-108.3,129.5
							c-23.4,60.5-76.9,116.3-12.1,61s68.6-77.7,133.3-119.4c64.7-41.6,52.7-19.5,100.5-61.1C696.3,591.1,751,556.4,751,556.4z"/>
					</g>
					<g>
						<defs>
							<circle id="SVGID_11_" cx="500.7" cy="500" r="367"/>
						</defs>
						<clipPath id="SVGID_12_">
							<use xlink:href="#SVGID_11_"  style="overflow:visible;"/>
						</clipPath>
						<path class="st6" d="M808.3,96.8c0,0,71-47.7-83.7,18s-156.9,96-156.9,96s-109.3,47.6-122,65.8c-12.7,18.2-44,32.1,38.9,3.7
							C567.5,252,568,261.1,595.5,239s-14.7-6.3,44-40.6s80.7-40.8,99.4-56.5C757.8,126.2,808.3,96.8,808.3,96.8z"/>
					</g>
					<g>
						<defs>
							<circle id="SVGID_13_" cx="500.7" cy="500" r="367"/>
						</defs>
						<clipPath id="SVGID_14_">
							<use xlink:href="#SVGID_13_"  style="overflow:visible;"/>
						</clipPath>
						<path class="st7" d="M967.2,245.8c0,0,79.3-49.9-89.8-29.1S703,305.4,703,305.4s-119.6,17.4-134.7,48.5s-49.4,36.7,40.6,41.4
							c90,4.6,89.7,26.1,120.8-1.6s-14.9-26.8,50.1-56.3s88.9-25.9,110.1-46.3C911.2,270.7,967.2,245.8,967.2,245.8z"/>
					</g>
					<g>
						<defs>
							<circle id="SVGID_15_" cx="500.7" cy="500" r="367"/>
						</defs>
						<clipPath id="SVGID_16_">
							<use xlink:href="#SVGID_15_"  style="overflow:visible;"/>
						</clipPath>
						<path class="st8" d="M523.9,553.1c0,0,77.7-32.7,44-76.2S429.6,521,429.6,521s-28-27.1-76,7.6s-57.1,27.9-63.3,71.8
							c-6.2,43.9-39.4,72.2,3.6,48.6c43-23.6,41.1-41.7,87.2-53.4s40.8,3,72.4-15C484.9,562.6,523.9,553.1,523.9,553.1z"/>
					</g>
					<g>
						<defs>
							<circle id="SVGID_17_" cx="500.7" cy="500" r="367"/>
						</defs>
						<clipPath id="SVGID_18_">
							<use xlink:href="#SVGID_17_"  style="overflow:visible;"/>
						</clipPath>
						<path class="st9" d="M387.8,233.2c0,0,74.7-33.6,44.4-73.1c-30.3-39.5-132.5,46.5-132.5,46.5s-25.5-24.4-72.2,10
							s-55,28.3-62.6,69.7c-7.5,41.4-39.9,69.2,1.6,45.5s40.4-40.6,84.4-53.3c44-12.7,38.5,1.3,69-16.8
							C350.6,243.5,387.8,233.2,387.8,233.2z"/>
					</g>
					<g>
						<defs>
							<circle id="SVGID_19_" cx="500.7" cy="500" r="367"/>
						</defs>
						<clipPath id="SVGID_20_">
							<use xlink:href="#SVGID_19_"  style="overflow:visible;"/>
						</clipPath>
						<path class="st10" d="M934,682.6c0,0,74.7-33.6,44.4-73.1S845.9,656,845.9,656s-25.5-24.4-72.2,10s-55,28.3-62.6,69.7
							c-7.5,41.4-39.9,69.2,1.6,45.5s40.4-40.6,84.4-53.3s38.5,1.3,69-16.8C896.7,692.9,934,682.6,934,682.6z"/>
					</g>
				</g>
			</g>
			
				<linearGradient id="SVGID_21_" gradientUnits="userSpaceOnUse" x1="-768.7457" y1="1618.64" x2="-466.7458" y2="1087.64" gradientTransform="matrix(-0.9398 -0.3417 -0.3417 0.9398 378.5831 -996.3814)">
				<stop  offset="0" style="stop-color:#3F3F3F"/>
				<stop  offset="0.5102" style="stop-color:#0000FF;stop-opacity:0.5"/>
				<stop  offset="1" style="stop-color:#FFFFFF"/>
			</linearGradient>
			<circle class="st11" cx="499.3" cy="501.25" r="367"/>
		</g>
		<g class="st12">
			<path class="st13" d="M348.9,401.65l-17.9,26.2h-85.5c0,0-7.4-1.2-7.4,9.5s8.3,8.3,8.3,8.3l85,0.2c0,0,22.2-1.4,23.4,28.4
				c1.2,29.8-21.4,33.3-21.4,33.3H204l23.4-28.6h89.3c0,0,6,0,6-7.1s-6-7.1-6-7.1l-89.3-1.2c0,0-19.1,1.2-17.9-29.8
				s20.2-32.2,20.2-32.2L348.9,401.65L348.9,401.65z"/>
			<polygon class="st13" points="541.8,401.65 541.8,507.65 573.3,507.65 573.3,468.35 634.8,468.35 657.4,442.15 572.8,442.15 
				572.8,426.65 639.5,426.65 660.6,401.65 			"/>
			<polygon class="st13" points="671.7,401.65 671.7,507.65 776,507.65 793.2,482.65 702.7,482.65 702.7,464.75 778.9,464.75 
				793.2,442.35 702.7,442.35 702.7,426.65 778.9,426.65 793.2,401.65 			"/>
			<path class="st13" d="M195.3,639.85l26.2-92.9c0,0,3.6-6,15.5-6c11.9,0,14.3,6,14.3,6s22.6,45.3,23.8,47.6s3.6,8.3,6,8.3
				s6-7.2,6-8.3s27.4-47.6,27.4-47.6s3.6-4.8,13.1-4.8s10.7,3.6,11.9,4.8s29.8,89.3,31,91.7c-15.5,0-32.2,0-32.2,0
				s-11.9-54.8-15.5-54.8s-22.6,41.7-27.4,48.8s-2.4,7.2-12.5,7.2s-14.9-2.4-18.5-8.3c-3.6-6-22.6-50-25-50s-12,58.4-12.5,58.4
				C226.9,639.85,195.3,639.85,195.3,639.85z"/>
			<path class="st13" d="M454.3,539.15l75,100.7l-108.3,0.6l17.9-26.2l36.3-0.6c0,0-24.5-34.2-24.2-34.4c0.4-0.2-47.2,60-47.9,60
				c-0.7,0-28.6,0-28.6,0L454.3,539.15z"/>
			<path class="st13" d="M538.2,639.85h29.9v-27.2h41.4l20.6,27.2l38.8-0.9l-28.2-25.3c0,0-3.6-1.2,0-4.8s23.8-2.4,23.8-29.8
				s-17.9-36.9-28.6-35.7c-10.7,1.2-83.3-0.1-83.3-0.1l-19.1,25.1c0,0,91.7,0,92.9,0c1.2,0,6,0,6,9.5s-2.4,11.9-4.8,11.9
				c-2.4,0-91.7-1.2-91.7-1.2l-0.3,51.2h2.6V639.85z"/>
			<path class="st13" d="M672.2,639.85"/>
			<path class="st13" d="M798.2,550.25l-15.1,22.2h-72.3c0,0-6.2-1-6.2,8.1s7,7,7,7l71.9,0.2c0,0,18.8-1.2,19.8,24
				s-18.1,28.2-18.1,28.2H675.7l19.8-24.2H771c0,0,5,0,5-6s-5-6-5-6l-75.5-1c0,0-16.1,1-15.1-25.2s17.1-27.2,17.1-27.2L798.2,550.25
				L798.2,550.25z"/>
			<path class="st13" d="M537.2,286.15c33.5,2.5,61.8,22.5,157.1,60.1c-2.6,15-17.1,83-66,185.6s-186.7,170.7-186.7,170.7
				s-56.4-56-79.5-121.1c-23.2-65.1-2.6-245.3-2.6-245.3C413.6,311.25,503.7,283.65,537.2,286.15z M397,496.05l75.1,68.5
				c0,0,91.1-146.1,88.4-147.8c-2.7-1.7-31.8-25.1-31.8-25.1L461,499.35l-41.1-34.6L397,496.05z"/>
		</g>
	</g>
</g>
<g id="Ebene_2">
	<g class="st12">
		<circle class="st14" cx="498.5" cy="502.5" r="367"/>
		<g class="st15">
			<defs>
				<circle id="SVGID_22_" cx="498.5" cy="502.5" r="367"/>
			</defs>
			<clipPath id="SVGID_23_">
				<use xlink:href="#SVGID_22_"  style="overflow:visible;"/>
			</clipPath>
			<path class="st16" d="M147.5,317.5c2-1,81-35,121,65s84.43,105,122.22,115s93.78,42,73.78,73s4,35-50,61s-59,46-61,81
				s-14,36-21,66s-14,56,57,49s42-23,105,7s38.81,38,93.41,35s232.59-113,215.59-133s-58-28-84-8s-45,7-12-44s14-22,33-71
				s38.46-68,27.73-94s-31.73-35-12.73-88s44-66,59-85s31-72-50-66s-69-9-83,24s-31,27-47-14s11-59-38-37s-14,48-74,13
				s-62-77-116-47s-28,75-94,36s-81-55-91-62S147.5,317.5,147.5,317.5z"/>
			<path class="st17" d="M185.5,269.5c0,0,94,27,104,47s6,82,35,96s72,48,99,70s82,46.62,78,74.81c-4,28.19-16,73.19-39,87.19
				s-42,27-48,46s-24,51,5,74s45,17,68,28s56,23,83,22s52-12,86-28s-17-34-4-68s21-19,36-62s24-41,32-89s3-53-2-99s-12-52,13-88
				s52-53,64-57s-30-4-56-4s-36,5-52,19s-12,36-40,14s-1-42-62-52s-75,5-103-11s-45-34-59-36s18,21-61,24s-153-73-155-78
				S185.5,269.5,185.5,269.5z"/>
			<path class="st18" d="M498.5,727.26c-22.32-5.97,23-42.76,47-72.76s45-35,51-67s11-49,21-72s23-53,44-24s40,35,27,60
				s-31,42-42,77s-14,17-30,25s36,47-10,56S527.5,735.01,498.5,727.26z"/>
			<path class="st18" d="M405.5,332.5c0,0-63-6-16,63s117,27,117,27s36,47,70,34s45,0,36-47s13-61-20-58s-25.05,24.87-65.03,12.43
				C487.5,351.5,487.5,337.5,463.5,340.5S405.5,332.5,405.5,332.5z"/>
			<circle class="st19" cx="171" cy="628" r="56.5"/>
			<circle class="st20" cx="208" cy="441" r="32.5"/>
		</g>
		<defs>
			<filter id="Adobe_OpacityMaskFilter" filterUnits="userSpaceOnUse" x="131.5" y="135.5" width="734" height="734">
				<feFlood  style="flood-color:white;flood-opacity:1" result="back"/>
				<feBlend  in="SourceGraphic" in2="back" mode="normal"/>
			</filter>
		</defs>
		<mask maskUnits="userSpaceOnUse" x="131.5" y="135.5" width="734" height="734" id="SVGID_24_" class="st15">
			<g style="filter:url(#Adobe_OpacityMaskFilter);">
			</g>
		</mask>
		<linearGradient id="SVGID_25_" gradientUnits="userSpaceOnUse" x1="389.141" y1="253.513" x2="607.087" y2="749.7292">
			<stop  offset="0" style="stop-color:#F3A258"/>
			<stop  offset="0.5056" style="stop-color:#C24A4A"/>
			<stop  offset="1" style="stop-color:#4A2940"/>
		</linearGradient>
		<circle class="st22" cx="498.5" cy="502.5" r="367"/>
	</g>
	<g>
		<path class="st23" d="M395.65,437.43l-12.26,17.98H324.7c0,0-5.07-0.82-5.07,6.54c0,7.36,5.72,5.72,5.72,5.72l58.34,0.15
			c0,0,15.23-0.97,16.05,19.46c0.82,20.44-14.71,22.89-14.71,22.89H296.2l16.07-19.62h61.31c0,0,4.09,0,4.09-4.9s-4.09-4.9-4.09-4.9
			l-61.31-0.82c0,0-13.08,0.82-12.26-20.44c0.82-21.25,13.9-22.07,13.9-22.07H395.65z"/>
		<polygon class="st23" points="526.97,437.43 526.97,510.18 548.57,510.18 548.57,483.22 590.78,483.22 606.32,465.22 
			548.28,465.22 548.28,454.6 594.05,454.6 608.49,437.43 		"/>
		<polygon class="st23" points="620.43,437.43 620.43,510.18 692.01,510.18 703.8,493.02 641.67,493.02 641.67,480.75 
			693.99,480.75 703.8,465.37 641.67,465.37 641.67,454.6 693.99,454.6 703.8,437.43 		"/>
		<path class="st23" d="M406.24,531.79l43.23,58.05l-62.46,0.34l10.31-15.11l20.95-0.34c0,0-14.14-19.72-13.94-19.82
			c0.2-0.1-27.22,34.59-27.62,34.59s-16.49,0-16.49,0L406.24,531.79z"/>
		<path class="st23" d="M459.8,589.86h18v-16.33h24.91l12.37,16.33l23.34-0.53l-16.95-15.22c0,0-2.15-0.72,0-2.86
			s14.32-1.43,14.32-17.9S525,532,518.62,531.85c-6.48-0.16-50.1-0.06-50.1-0.06l-11.49,15.1c0,0,55.15,0,55.86,0s3.58,0,3.58,5.73
			s-1.43,7.16-2.86,7.16s-55.15-0.72-55.15-0.72l-0.16,30.8H459.8z"/>
		<path class="st23" d="M591.89,595"/>
		<path class="st23" d="M470.83,392.06c12.09,0.9,22.32,8.14,56.73,21.69c-0.93,5.42-6.17,29.97-23.84,67.03
			s-67.41,61.65-67.41,61.65s-20.35-20.21-28.72-43.71c-8.37-23.5-0.93-88.58-0.93-88.58C426.19,401.1,458.74,391.15,470.83,392.06z
			 M420.19,467.83l27.12,24.74c0,0,32.91-52.78,31.92-53.38s-11.49-9.06-11.49-9.06l-24.43,38.89l-14.86-12.48L420.19,467.83z"/>
		<polygon class="st23" points="294.31,531.89 294.31,589.72 351.2,589.72 360.57,576.07 311.19,576.07 311.19,566.33 
			352.78,566.33 360.57,554.1 311.19,554.1 311.19,545.53 352.78,545.53 360.57,531.89 		"/>
		<polygon class="st23" points="542.01,531.79 618.91,531.89 611.04,545.97 586.59,545.97 586.59,589.72 567.58,589.72 
			567.58,545.26 550.47,545.26 		"/>
		<polygon class="st23" points="632.06,531.89 632.06,589.72 653.79,589.72 653.79,564.52 680.81,564.52 680.81,589.72 698,589.72 
			698,531.89 680.11,531.89 680.11,550.33 654.02,550.33 654.02,531.79 		"/>
	</g>
</g>
</svg>
